<svg width="138" height="320" viewBox="0 0 138 320" fill="none" xmlns="http://www.w3.org/2000/svg">
<g clip-path="url(#clip0_3306_4610)">
<path d="M0 0V257.65L34.491 288.762L69 319.873L103.509 288.762L138 257.65V0H0Z" fill="#C61010"/>
<g clip-path="url(#clip1_3306_4610)">
<rect width="128" height="118" transform="translate(5 142)" fill="#C61010"/>
<path d="M119.128 142C119.863 141.987 120.599 141.987 121.335 142C121.439 142.104 121.543 142.208 121.65 142.315C121.571 144.134 120.924 145.523 120.123 147.145C119.491 148.591 119.404 149.945 119.388 151.511C119.38 151.888 119.373 152.265 119.365 152.653C119.352 153.437 119.342 154.22 119.336 155.003C119.265 158.069 118.857 161.043 116.685 163.378C116.394 163.703 116.394 163.703 116.098 164.035C113.663 166.041 110.579 166.574 107.59 167.331C106.985 167.485 106.38 167.644 105.776 167.803C105.24 167.939 105.24 167.939 104.694 168.078C103.583 168.466 102.752 169.025 101.788 169.691C101.58 169.691 101.372 169.691 101.158 169.691C101.125 169.864 101.092 170.036 101.059 170.215C100.793 171.116 100.378 171.827 99.9014 172.638C98.8943 174.373 97.9128 176.119 96.9479 177.878C96.6402 178.434 96.3277 178.987 96.0051 179.534C95.2764 180.781 94.7744 181.764 94.8521 183.221C95.7589 185.139 97.1853 186.728 98.6354 188.256C98.9288 188.15 99.2222 188.044 99.5245 187.934C100.571 187.613 101.072 187.639 102.103 187.941C101.621 189.024 100.96 189.858 100.212 190.773C100.341 191.013 100.47 191.253 100.603 191.5C100.773 191.825 100.943 192.15 101.118 192.484C101.286 192.802 101.455 193.12 101.628 193.447C102.103 194.549 102.103 194.549 102.734 197.381C107.416 197.226 107.416 197.226 112.192 197.067C109.935 189.859 106.598 183.262 101.771 177.4C101.467 177.03 101.467 177.03 101.158 176.653C100.975 176.439 100.793 176.226 100.606 176.006C100.121 175.206 100.112 174.701 100.212 173.781C100.527 173.467 100.527 173.467 101.243 173.348C102.798 173.563 103.496 174.942 104.412 176.111C108.804 181.938 113.22 188.901 114.714 196.123C114.568 196.806 114.568 196.806 114.399 197.381C114.671 197.367 114.943 197.352 115.223 197.338C116.233 197.286 117.243 197.239 118.253 197.195C118.69 197.175 119.127 197.153 119.564 197.13C120.192 197.096 120.821 197.07 121.449 197.043C121.828 197.025 122.206 197.007 122.595 196.988C123.542 197.067 123.542 197.067 124.165 197.442C124.488 198.011 124.488 198.011 124.172 199.584C121.363 200.519 118.554 201.453 115.66 202.416C115.549 203.636 115.439 204.856 115.325 206.113C114.851 210.789 113.766 215.199 112.507 219.723C112.744 219.767 112.981 219.811 113.226 219.857C114.317 220.087 115.344 220.46 116.389 220.844C116.592 220.917 116.796 220.991 117.005 221.067C117.503 221.247 118 221.429 118.497 221.611C118.601 220.157 118.706 218.703 118.813 217.205C119.541 216.894 120.269 216.582 121.02 216.261C121.286 216.531 121.553 216.801 121.827 217.079C124.019 219.315 124.019 219.315 126.34 221.414C127.201 222.156 128.022 222.919 128.823 223.725C129.036 223.939 129.249 224.153 129.469 224.373C129.901 224.808 130.331 225.244 130.761 225.681C130.959 225.882 131.158 226.082 131.362 226.289C131.63 226.562 131.63 226.562 131.904 226.841C132.36 227.307 132.36 227.307 133 227.589C132.896 228.524 132.792 229.459 132.685 230.421C124.257 231.667 124.257 231.667 115.66 232.939C114.714 231.365 114.714 231.365 114.743 230.719C115.103 229.949 115.57 229.427 116.153 228.809C117.003 228.013 117.003 228.013 117.236 226.96C115.156 226.233 113.075 225.506 110.931 224.757C110.463 225.614 109.995 226.471 109.512 227.353C109.364 227.621 109.216 227.889 109.063 228.165C108.948 228.379 108.833 228.593 108.714 228.814C108.595 229.031 108.476 229.249 108.354 229.473C108.014 230.187 108.014 230.187 108.094 231.365C108.679 232.098 108.679 232.098 109.473 232.81C109.9 233.219 109.9 233.219 110.335 233.636C110.942 234.206 111.549 234.776 112.158 235.345C112.442 235.618 112.727 235.891 113.02 236.173C113.284 236.42 113.548 236.667 113.82 236.922C114.399 237.659 114.399 237.659 114.505 238.519C114.399 239.232 114.399 239.232 114.084 239.547C112.679 239.708 111.892 239.296 110.698 238.583C110.362 238.384 110.026 238.186 109.679 237.981C109.158 237.666 109.158 237.666 108.626 237.344C108.095 237.029 108.095 237.029 107.553 236.707C106.681 236.188 105.81 235.666 104.941 235.141C104.536 235.545 104.131 235.949 103.727 236.352C103.501 236.577 103.276 236.802 103.043 237.033C102.583 237.494 102.125 237.959 101.67 238.426C101.26 238.825 101.26 238.825 100.842 239.232C100.627 239.442 100.411 239.652 100.19 239.869C98.163 241.774 96.0162 243.224 93.591 244.581C93.2432 244.777 92.8953 244.972 92.5369 245.173C89.7304 246.66 86.8887 247.584 83.8176 248.357C83.4962 248.439 83.1747 248.52 82.8435 248.604C81.3886 248.934 80.2478 249.059 78.7733 248.672C78.5763 247.944 78.5763 247.944 78.458 247.099C79.1977 245.991 79.3804 245.993 80.628 245.727C81.0985 245.621 81.0985 245.621 81.5785 245.513C81.9143 245.439 82.25 245.365 82.596 245.289C90.3167 243.476 96.3951 239.685 101.788 233.883C101.892 233.675 101.996 233.467 102.103 233.253C101.904 233.183 101.704 233.112 101.499 233.04C100.141 232.459 98.8766 231.734 97.591 231.011C97.3275 230.864 97.0639 230.717 96.7924 230.565C96.1452 230.203 95.4984 229.841 94.8521 229.477C92.7863 230.758 90.7784 232.072 88.862 233.568C88.9112 233.777 88.9603 233.986 89.011 234.201C89.0724 234.479 89.1337 234.757 89.197 235.043C89.2591 235.317 89.3213 235.591 89.3854 235.873C89.4989 236.765 89.4008 237.422 89.1772 238.288C87.7478 238.07 87.2033 237.267 86.3016 236.211C85.7358 235.692 85.7358 235.692 84.9901 235.811C83.5591 236.269 82.1582 236.797 80.7524 237.326C79.7191 237.659 79.7191 237.659 78.458 237.659C78.4596 237.896 78.4612 238.133 78.4629 238.377C78.4765 242.289 78.4092 246.2 78.3407 250.112C78.3199 251.32 78.3012 252.528 78.2825 253.736C78.2693 254.502 78.256 255.269 78.2425 256.035C78.2372 256.397 78.232 256.759 78.2266 257.132C78.2203 257.463 78.214 257.795 78.2075 258.136C78.2026 258.428 78.1977 258.721 78.1926 259.022C78.1428 259.685 78.1428 259.685 77.8275 260C77.092 260.013 76.3561 260.013 75.6206 260C74.8345 258.011 74.2293 256.005 73.6699 253.943C73.5409 253.48 73.5409 253.48 73.4094 253.009C73.2878 252.563 73.2878 252.563 73.1637 252.109C73.0905 251.841 73.0172 251.574 72.9418 251.298C72.7832 250.56 72.7832 250.56 72.7832 249.301C72.471 249.405 72.1589 249.509 71.8373 249.616C66.4262 249.949 60.9951 249.84 55.7585 248.357C55.4299 248.267 55.4299 248.267 55.0946 248.174C51.837 247.249 48.499 245.979 45.9851 243.637C45.8811 243.43 45.777 243.222 45.6699 243.008C45.5141 243.168 45.3583 243.329 45.1979 243.494C44.4907 244.22 43.7799 244.941 43.0689 245.663C42.7013 246.042 42.7013 246.042 42.3263 246.428C42.0885 246.669 41.8508 246.909 41.6058 247.157C41.3879 247.379 41.1699 247.601 40.9454 247.831C40.2805 248.382 39.9088 248.611 39.0492 248.672C38.737 248.464 38.4249 248.257 38.1034 248.043C38.2773 246.87 38.5714 246.128 39.2659 245.171C40.3796 243.575 41.2941 241.895 42.2019 240.176C41.9654 240.196 41.729 240.215 41.4854 240.235C40.4506 240.164 40.2006 239.951 39.479 239.23C39.2725 239.025 39.0661 238.821 38.8534 238.61C38.5309 238.275 38.5309 238.275 38.2019 237.934C37.9784 237.705 37.7548 237.477 37.5245 237.241C31.9064 231.378 27.2836 222.986 27.3841 214.688C22.9483 214.54 22.9483 214.54 18.6329 215.442C17.5578 215.731 16.7874 215.596 15.7191 215.317C15.6151 215.214 15.511 215.11 15.4038 215.003C15.4944 214.267 15.5991 213.532 15.7191 212.8C16.1501 212.677 16.5812 212.554 17.0122 212.431C17.2887 212.352 17.5652 212.274 17.85 212.192C20.8179 211.346 23.7857 210.5 26.7536 209.653C26.7353 209.332 26.717 209.011 26.6982 208.68C26.548 204.671 27.2579 201.003 28.1852 197.112C28.3519 196.45 28.3519 196.45 28.33 195.808C26.9857 195.336 25.6384 194.873 24.2905 194.412C23.9136 194.279 23.5367 194.147 23.1483 194.01C18.8453 192.548 14.7584 192.626 10.2716 192.692C9.57841 192.701 8.88526 192.707 8.19202 192.712C7.57876 192.72 7.57876 192.72 6.9531 192.728C5.94571 192.661 5.94571 192.661 4.9999 192.032C4.94079 190.891 4.94079 190.891 4.9999 189.829C5.88634 189.579 6.77308 189.33 7.66 189.082C7.90689 189.012 8.15378 188.943 8.40815 188.871C10.0995 188.398 11.7948 187.994 13.5122 187.627C12.9278 185.96 11.9758 184.547 11.0221 183.073C9.79527 181.105 9.79527 181.105 10.0442 179.76C10.6748 179.131 10.6748 179.131 11.4112 179.015C12.5203 179.168 12.9087 179.578 13.7093 180.35C13.9848 180.609 14.2603 180.868 14.5442 181.136C14.9697 181.545 14.9697 181.545 15.4038 181.963C16.5379 183.039 17.6895 184.086 18.8718 185.109C19.1803 185.377 19.4887 185.644 19.8066 185.919C23.0575 188.554 26.8796 189.621 30.8521 190.773C30.8963 190.532 30.9406 190.291 30.9861 190.042C31.5556 187.396 33.2417 184.963 34.9506 182.907C33.637 180.052 30.8553 177.844 28.6452 175.669C28.4753 175.493 28.3055 175.316 28.1304 175.133C27.6434 174.645 27.6434 174.645 26.7142 174.116C25.8078 173.467 25.8078 173.467 25.5122 172.798C25.4925 172.208 25.4925 172.208 25.8078 171.579C27.4497 171.435 28.465 171.876 29.8287 172.716C30.0252 172.832 30.2218 172.949 30.4242 173.069C31.0487 173.44 31.6696 173.817 32.2905 174.194C32.7088 174.445 33.1273 174.694 33.5461 174.944C34.6475 175.601 35.7451 176.264 36.8423 176.928C37.3675 177.243 37.8929 177.558 38.4186 177.872C38.606 177.678 38.7933 177.483 38.9864 177.283C40.899 175.333 42.8846 173.577 45.0393 171.893C45.26 171.719 45.4807 171.544 45.708 171.364C46.3155 170.894 46.9321 170.445 47.5615 170.005C47.7708 169.858 47.9801 169.711 48.1957 169.559C50.6897 167.939 53.481 166.943 56.2494 165.893C56.9525 165.626 57.653 165.353 58.3534 165.079C58.9319 164.86 58.9319 164.86 59.5221 164.636C59.8565 164.509 60.191 164.382 60.5356 164.252C61.505 164.009 62.0633 164.046 63.0098 164.341C63.325 164.656 63.325 164.656 63.3447 165.462C63.3382 165.716 63.3317 165.969 63.325 166.229C61.3256 167.147 59.3 167.946 57.2364 168.707C52.2064 170.601 48.1555 172.921 44.1883 176.578C43.533 177.179 42.8643 177.754 42.1822 178.324C41.2591 179.025 41.2591 179.025 40.9408 179.76C41.1678 179.846 41.3949 179.931 41.6288 180.019C42.5046 180.384 43.2977 180.804 44.1194 181.277C44.5598 181.529 44.5598 181.529 45.0091 181.787C45.3117 181.962 45.6143 182.137 45.926 182.317C46.2347 182.494 46.5433 182.671 46.8614 182.854C47.6207 183.29 48.3795 183.727 49.1378 184.165C49.2289 183.97 49.3201 183.774 49.4139 183.572C49.8572 182.74 50.3793 182.336 51.128 181.766C51.3674 181.58 51.6067 181.395 51.8534 181.203C52.6086 180.702 53.3305 180.379 54.1822 180.075C54.1139 179.839 54.0456 179.604 53.9753 179.362C53.8436 178.897 53.8436 178.897 53.7093 178.423C53.5776 177.963 53.5776 177.963 53.4433 177.493C53.2364 176.613 53.2364 176.613 53.2364 175.355C53.5485 175.251 53.8606 175.147 54.1822 175.04C54.9104 175.975 55.6387 176.909 56.3891 177.872C57.5072 177.649 58.1684 177.515 59.1317 177.045C59.3371 176.946 59.5426 176.848 59.7542 176.747C59.9637 176.644 60.1732 176.542 60.3891 176.436C62.6138 175.355 62.6138 175.355 63.325 175.355C63.3807 173.663 63.4327 171.972 63.4827 170.281C63.4903 170.024 63.498 169.768 63.5059 169.503C63.5956 166.434 63.6527 163.369 63.6391 160.299C63.638 160.024 63.6368 159.75 63.6357 159.467C63.6292 158.135 63.6178 156.804 63.6009 155.472C63.5971 154.989 63.5934 154.506 63.5898 154.023C63.5856 153.801 63.5813 153.58 63.5769 153.352C63.5741 152.819 63.6043 152.286 63.6403 151.755C64.2708 151.125 64.2708 151.125 65.0393 151.007C65.8472 151.125 65.8472 151.125 66.3347 151.621C66.926 152.605 67.1241 153.519 67.3681 154.641C67.4158 154.856 67.4634 155.07 67.5125 155.292C67.6632 155.974 67.8094 156.657 67.9556 157.34C68.0573 157.804 68.1593 158.269 68.2616 158.733C68.511 159.867 68.7565 161.003 68.9999 162.139C69.3209 162.134 69.3209 162.134 69.6484 162.129C78.9819 162.004 89.4932 163.2 97.059 169.376C97.3226 170.079 97.3226 170.079 97.3743 170.635C97.7827 170.289 98.1897 169.941 98.596 169.592C98.8227 169.399 99.0495 169.205 99.2832 169.006C100.198 168.15 100.516 167.675 100.589 166.41C100.584 165.965 100.577 165.52 100.566 165.075C100.564 164.838 100.562 164.601 100.559 164.357C100.549 163.344 100.531 162.331 100.514 161.318C100.503 160.578 100.495 159.837 100.488 159.097C100.48 158.759 100.48 158.759 100.472 158.415C100.441 155.255 101.483 152.978 103.509 150.582C105.055 149.059 107.019 148.528 109.044 147.869C113.44 146.448 113.44 146.448 117.236 143.888C117.695 143.538 117.695 143.538 118.162 143.18C118.839 142.68 118.839 142.68 119.128 142ZM115.424 147.526C113.33 148.596 111.162 149.29 108.902 149.93C106.499 150.661 104.623 151.935 103.227 154.056C101.96 156.564 102.419 159.787 102.557 162.493C102.573 162.854 102.589 163.215 102.606 163.587C102.647 164.468 102.689 165.349 102.734 166.229C109.989 164.926 109.989 164.926 115.566 160.596C116.432 159.2 116.688 158.017 116.725 156.381C116.736 156.002 116.747 155.622 116.758 155.231C116.766 154.837 116.775 154.442 116.783 154.036C116.843 151.579 116.916 149.158 117.236 146.72C116.607 146.72 115.957 147.239 115.424 147.526ZM65.8472 163.712C65.4858 164.794 65.4686 165.672 65.4383 166.814C65.4321 167.032 65.4259 167.25 65.4195 167.475C65.3994 168.195 65.3813 168.915 65.3632 169.635C65.3496 170.135 65.336 170.635 65.3221 171.134C65.2862 172.449 65.2519 173.763 65.218 175.077C65.1831 176.419 65.1465 177.76 65.1101 179.102C65.0389 181.734 64.9696 184.366 64.9014 186.997C65.556 187.103 66.2108 187.206 66.8657 187.31C67.4126 187.397 67.4126 187.397 67.9706 187.485C69.0758 187.637 70.0954 187.678 71.2068 187.627C70.9914 185 70.4111 182.47 69.8263 179.906C69.7206 179.438 69.615 178.969 69.5095 178.5C69.2336 177.276 68.9558 176.051 68.6777 174.827C68.3934 173.574 68.1108 172.321 67.8281 171.068C67.2746 168.616 66.7192 166.164 66.1625 163.712C66.0584 163.712 65.9544 163.712 65.8472 163.712ZM69.6304 164.971C69.821 166.952 70.1324 168.853 70.5763 170.792C70.6604 171.174 70.6604 171.174 70.7462 171.564C70.929 172.771 70.929 172.771 71.5221 173.781C72.429 173.909 73.3309 174.019 74.2413 174.116C74.492 174.144 74.7428 174.173 75.0011 174.202C76.4786 174.363 77.9178 174.441 79.4038 174.411C79.6119 173.788 79.82 173.165 80.0344 172.523C80.4505 172.523 80.8667 172.523 81.2955 172.523C81.2955 173.353 81.2955 174.184 81.2955 175.04C81.8027 175.225 81.8027 175.225 82.3201 175.414C84.5343 176.242 86.7594 177.102 88.862 178.187C91.805 176.416 94.0883 174.378 96.4285 171.893C96.1567 171.76 96.1567 171.76 95.8795 171.624C95.1954 171.278 94.5295 170.911 93.862 170.534C88.6797 167.671 82.8693 164.914 76.8349 164.94C76.6276 164.94 76.4204 164.941 76.2068 164.941C75.5516 164.943 74.8965 164.947 74.2413 164.951C73.7942 164.953 73.3472 164.954 72.9002 164.955C71.8102 164.959 70.7203 164.964 69.6304 164.971ZM94.0245 176.692C93.1978 177.431 92.435 178.025 91.4433 178.521C90.2454 179.248 89.9254 179.697 89.4925 181.019C89.4243 181.875 89.4478 182.674 89.4925 183.536C90.8232 183.441 91.8092 183.154 92.8189 182.252C93.8553 180.883 94.3169 179.17 94.8521 177.557C94.9708 177.203 95.0895 176.849 95.2117 176.484C95.3011 176.215 95.3905 175.946 95.4827 175.669C94.8841 175.669 94.4407 176.31 94.0245 176.692ZM72.1526 176.299C72.3689 178.679 72.7624 181.017 73.2441 183.356C73.3307 183.79 73.4119 184.224 73.4876 184.66C74.0026 187.603 74.7435 189.354 77.2925 191.149C77.5731 191.336 77.8537 191.524 78.1428 191.717C78.5125 192.024 78.8768 192.338 79.2314 192.663C79.6848 193.077 80.1384 193.49 80.594 193.902C81.5261 194.758 82.3086 195.646 83.0689 196.654C83.7063 197.429 83.9666 197.665 84.9667 197.85C85.7571 197.853 86.504 197.809 87.2856 197.696C87.2202 197.471 87.1548 197.245 87.0873 197.013C86.8967 195.563 87.4305 194.761 88.2142 193.565C90.1057 191.481 93.5224 190.712 96.1132 189.829C95.8439 188.516 95.1726 187.643 94.3595 186.604C94.2256 186.43 94.0917 186.255 93.9537 186.076C93.6245 185.647 93.2927 185.221 92.9605 184.795C92.4081 184.876 91.8565 184.962 91.3053 185.05C90.9981 185.098 90.6908 185.145 90.3743 185.194C89.4429 185.437 88.9878 185.799 88.2314 186.368C87.8153 186.368 87.3991 186.368 86.9704 186.368C87.0429 186.05 87.0429 186.05 87.1169 185.725C87.3124 184.647 87.3913 183.587 87.463 182.494C87.4894 182.099 87.5158 181.704 87.543 181.298C87.5717 180.848 87.5717 180.848 87.6009 180.389C85.6694 179.076 83.3822 177.557 80.9802 177.557C80.5977 178.321 80.591 178.888 80.5405 179.74C80.5188 180.048 80.4971 180.355 80.4747 180.672C80.4308 181.323 80.3905 181.973 80.354 182.624C80.331 182.931 80.308 183.239 80.2844 183.556C80.2577 183.98 80.2577 183.98 80.2304 184.412C80.0344 185.109 80.0344 185.109 79.424 185.492C79.2093 185.573 78.9945 185.655 78.7733 185.739C78.1941 186.219 77.648 186.724 77.0972 187.236C76.5664 187.627 76.5664 187.627 75.6206 187.627C75.452 187.084 75.2889 186.539 75.128 185.994C74.9908 185.54 74.9908 185.54 74.8509 185.076C74.4573 183.041 75.4689 181.588 76.4285 179.858C76.6928 179.379 76.956 178.899 77.2179 178.419C77.3932 178.103 77.3932 178.103 77.572 177.78C77.8725 177.247 77.8725 177.247 77.8275 176.613C75.9277 176.276 74.0792 176.267 72.1526 176.299ZM60.4285 178.816C59.9146 179.079 59.9146 179.079 59.3903 179.347C59.1282 179.483 58.866 179.62 58.596 179.76C58.4885 180.685 58.4885 180.685 58.9876 181.123C59.1575 181.277 59.3273 181.431 59.5024 181.589C60.9673 183.182 60.9514 185.243 61.1181 187.312C61.6403 187.432 62.1663 187.537 62.6945 187.627C63.8765 186.447 63.3428 182.874 63.3465 181.245C63.3439 180.121 63.3363 178.997 63.325 177.872C62.1311 177.872 61.4859 178.271 60.4285 178.816ZM35.5812 179.445C36.5751 181.078 37.7768 182.329 39.1477 183.654C40.567 185.046 41.9476 186.437 43.2314 187.956C44.0986 188.931 45.0372 189.834 45.9672 190.749C47.007 191.777 47.9788 192.838 48.9075 193.967C49.6583 194.769 50.4911 195.431 51.3447 196.123C51.8572 195.408 52.3695 194.694 52.8817 193.979C53.0993 193.676 53.0993 193.676 53.3213 193.366C53.4615 193.171 53.6018 192.975 53.7462 192.773C53.875 192.594 54.0038 192.414 54.1365 192.229C54.4749 191.749 54.8019 191.262 55.128 190.773C52.4172 189.084 49.6755 187.45 46.9206 185.834C45.2464 184.85 43.5779 183.857 41.9162 182.853C41.553 182.633 41.1898 182.414 40.8266 182.195C40.1229 181.77 39.4199 181.344 38.7176 180.916C38.3995 180.724 38.0814 180.532 37.7536 180.334C37.4708 180.162 37.1881 179.991 36.8968 179.814C36.2489 179.396 36.2489 179.396 35.5812 179.445ZM52.5664 183.477C52.2795 183.7 51.9926 183.922 51.6969 184.152C51.4767 184.364 51.2564 184.576 51.0295 184.795C51.0295 185.106 51.0295 185.418 51.0295 185.739C51.9186 186.469 52.9482 186.998 53.9457 187.568C54.2209 187.734 54.496 187.9 54.7795 188.071C55.0457 188.225 55.3119 188.379 55.5861 188.538C55.8305 188.68 56.0748 188.822 56.3266 188.969C57.0275 189.284 57.0275 189.284 57.7397 188.927C58.0075 188.751 58.0075 188.751 58.2807 188.571C58.0401 188.408 57.7995 188.246 57.5516 188.079C56.5664 187.187 56.1792 186.334 55.7585 185.109C55.6703 184.855 55.5821 184.6 55.4913 184.337C55.2593 183.653 55.0333 182.966 54.8127 182.277C53.8235 182.277 53.3286 182.876 52.5664 183.477ZM37.1575 184.48C35.4102 186.583 33.3743 189.225 33.3743 192.032C35.9753 192.863 38.5763 193.694 41.2561 194.549C41.8803 193.407 42.5045 192.265 43.1477 191.088C42.6131 190.021 42.3335 189.58 41.5122 188.807C40.4732 187.804 39.5306 186.748 38.6009 185.644C38.0758 185.038 38.0758 185.038 37.1575 184.48ZM61.7093 189.751C61.3892 189.825 61.3892 189.825 61.0627 189.901C57.6245 190.764 55.5162 193.331 53.7093 196.241C53.038 197.358 53.038 197.358 52.9211 198.64C53.5313 198.852 54.1423 199.061 54.7536 199.269C55.0938 199.386 55.4339 199.503 55.7844 199.623C56.6953 199.944 56.6953 199.944 57.6502 199.899C58.0739 199.272 58.4936 198.642 58.9112 198.011C60.8397 196.086 63.0928 195.124 65.8275 195.021C68.2384 195.111 70.2399 195.83 72.2708 197.106C74.1975 199.212 75.0404 201.57 75.0098 204.383C75.0069 204.722 75.0041 205.061 75.0011 205.41C74.9975 205.668 74.9938 205.926 74.9901 206.192C75.5801 206.45 76.1715 206.705 76.7635 206.959C77.2572 207.173 77.2572 207.173 77.761 207.391C78.7376 207.752 79.6347 207.946 80.6649 208.08C81.9816 204.823 82.1571 202.148 81.0233 198.774C79.4795 195.294 76.1077 191.746 72.5861 190.223C69.085 189.056 65.271 188.833 61.7093 189.751ZM45.0393 192.661C44.8312 193.012 44.6232 193.362 44.4088 193.723C44.2917 193.921 44.1747 194.118 44.0541 194.321C43.7307 194.856 43.7307 194.856 43.7782 195.493C44.5524 195.765 45.3274 196.033 46.1034 196.3C46.3236 196.377 46.5439 196.455 46.7708 196.535C47.3438 196.73 47.9253 196.9 48.5073 197.067C48.7154 196.963 48.9235 196.859 49.1378 196.752C48.9212 196.536 48.7046 196.32 48.4814 196.097C47.3341 194.952 46.1867 193.807 45.0393 192.661ZM97.0085 193.614C96.8104 193.811 96.6123 194.009 96.4082 194.212C96.2003 194.421 95.9924 194.629 95.7782 194.844C95.4646 195.156 95.4646 195.156 95.1446 195.473C94.848 195.77 94.848 195.77 94.5455 196.072C94.3626 196.255 94.1797 196.438 93.9912 196.627C93.5557 197.007 93.5557 197.007 93.591 197.381C95.7759 197.381 97.9607 197.381 100.212 197.381C99.9553 195.846 99.8269 195.206 99.0886 193.959C98.8734 193.591 98.8734 193.591 98.6538 193.215C98.5437 193.032 98.4336 192.849 98.3201 192.661C97.7431 192.661 97.396 193.228 97.0085 193.614ZM30.8521 196.437C30.592 197.768 30.3319 199.098 30.0639 200.469C29.9405 201.087 29.9405 201.087 29.8146 201.718C28.9751 205.413 28.9751 205.413 29.591 209.024C31.6303 208.702 33.6262 208.274 35.6206 207.746C35.9343 207.663 35.9343 207.663 36.2543 207.579C37.2628 207.363 37.2628 207.363 38.1034 206.821C38.1927 206.396 38.2653 205.968 38.33 205.538C38.3702 205.277 38.4104 205.015 38.4519 204.745C38.4929 204.47 38.534 204.194 38.5763 203.911C38.6581 203.371 38.7402 202.832 38.8226 202.293C38.8585 202.053 38.8945 201.813 38.9316 201.565C39.0567 200.797 39.2114 200.033 39.3644 199.269C36.5554 198.335 33.7463 197.4 30.8521 196.437ZM60.8029 199.899C59.7197 201.49 59.1867 203.016 59.5418 204.933C60.1113 206.929 61.2138 207.9 62.9408 208.984C64.4965 209.774 66.1211 209.938 67.8152 209.449C69.9826 208.597 71.2707 207.348 72.2905 205.268C72.602 203.575 72.4289 202.308 71.6206 200.784C70.3383 199.227 69.1049 198.143 67.1083 197.696C64.7126 197.475 62.4985 198.159 60.8029 199.899ZM85.0787 199.584C85.1514 199.811 85.224 200.038 85.2989 200.272C86.2004 203.15 86.22 205.756 85.7093 208.709C88.3449 208.084 90.9252 207.347 93.5048 206.523C93.8789 206.404 94.253 206.286 94.6384 206.164C95.8266 205.788 97.0143 205.41 98.2019 205.032C99.7559 204.538 101.31 204.046 102.864 203.553C103.244 203.433 103.624 203.312 104.015 203.188C107.889 201.962 111.773 200.769 115.66 199.584C115.66 199.48 115.66 199.376 115.66 199.269C112.278 199.262 108.896 199.256 105.514 199.253C103.943 199.251 102.372 199.249 100.801 199.246C99.2823 199.242 97.7634 199.24 96.2446 199.24C95.6681 199.239 95.0916 199.238 94.5151 199.236C91.3517 199.227 88.2295 199.27 85.0787 199.584ZM42.2019 200.528C41.6511 201.732 41.4613 202.77 41.3743 204.088C41.3507 204.424 41.3271 204.76 41.3029 205.107C41.2874 205.361 41.272 205.615 41.2561 205.877C43.2114 205.681 45.0375 205.275 46.9309 204.756C47.3424 204.646 47.3424 204.646 47.7622 204.533C48.4314 204.353 49.1 204.172 49.7684 203.989C49.7684 203.574 49.7684 203.159 49.7684 202.731C48.6854 202.361 47.6014 201.995 46.5171 201.629C46.0554 201.472 46.0554 201.472 45.5843 201.311C45.2886 201.212 44.9929 201.112 44.6883 201.01C44.4159 200.918 44.1435 200.825 43.8628 200.73C43.1199 200.485 43.1199 200.485 42.2019 200.528ZM83.8176 202.416C83.8059 202.629 83.7941 202.843 83.7819 203.063C83.6333 205.163 83.2441 207.034 82.5566 209.024C82.8687 209.128 83.1808 209.232 83.5024 209.339C84.2486 207.464 84.7475 205.704 84.4482 203.675C84.1477 202.981 84.1477 202.981 83.8176 202.416ZM110.644 203.585C110.098 203.753 110.098 203.753 109.541 203.925C108.971 204.103 108.971 204.103 108.389 204.284C108.008 204.402 107.626 204.519 107.233 204.64C105.419 205.164 105.419 205.164 103.68 205.877C103.568 206.629 103.488 207.364 103.424 208.119C103.153 210.775 102.411 213.143 101.473 215.632C105.91 217.786 105.91 217.786 110.616 218.779C110.92 217.698 111.221 216.616 111.522 215.534C111.607 215.233 111.692 214.931 111.779 214.621C112.615 211.601 113.2 208.637 113.335 205.504C113.347 205.264 113.359 205.025 113.372 204.778C113.401 204.201 113.427 203.623 113.453 203.045C112.401 203.045 111.648 203.274 110.644 203.585ZM51.9753 203.675C51.7425 207.565 52.6546 211.423 55.1083 214.514C57.6644 217.274 60.8901 218.549 64.5947 218.859C69.0574 219.023 72.8275 217.367 76.1132 214.432C76.582 213.996 77.0493 213.558 77.5122 213.115C76.6665 212.07 75.6401 211.74 74.3989 211.286C74.0161 211.141 73.6333 210.996 73.2388 210.847C72.0271 210.569 71.6474 210.653 70.5763 211.227C67.8562 212.363 65.1264 212.684 62.3004 211.679C59.8613 210.552 58.4558 209.245 57.4137 206.762C56.8783 205.576 56.6016 205.052 55.4531 204.411C54.3031 204.03 53.1948 203.675 51.9753 203.675ZM97.4987 207.647C97.2341 207.731 96.9695 207.815 96.6969 207.901C95.8517 208.169 95.0071 208.439 94.1625 208.709C93.5896 208.891 93.0168 209.073 92.4439 209.255C91.0393 209.701 89.6352 210.149 88.2314 210.597C88.7238 211.58 89.6943 211.71 90.6822 212.056C90.8964 212.133 91.1107 212.21 91.3314 212.289C91.7852 212.45 92.2395 212.611 92.6942 212.77C93.3903 213.015 94.0843 213.265 94.7782 213.516C95.219 213.672 95.6599 213.828 96.1009 213.984C96.4128 214.097 96.4128 214.097 96.7309 214.212C97.9817 214.649 97.9817 214.649 99.2659 214.373C100.416 211.988 101.09 209.47 101.158 206.821C99.8569 206.821 98.7246 207.254 97.4987 207.647ZM46.8272 207.627C46.6302 207.679 46.4332 207.731 46.2303 207.785C45.5816 207.957 44.9336 208.132 44.2856 208.306C43.8351 208.426 43.3845 208.546 42.9339 208.666C41.7497 208.981 40.5661 209.298 39.3825 209.616C38.174 209.94 36.965 210.262 35.7561 210.584C33.3853 211.216 31.0151 211.85 28.6452 212.485C28.6452 212.589 28.6452 212.693 28.6452 212.8C32.362 213.04 36.0747 213.198 39.7979 213.292C40.0511 213.298 40.3042 213.305 40.565 213.312C44.2638 213.409 47.9599 213.475 51.66 213.429C51.599 213.239 51.5381 213.048 51.4753 212.852C50.8872 210.963 50.4362 209.082 50.0836 207.136C48.864 207.136 47.9978 207.314 46.8272 207.627ZM79.7191 213.744C78.9528 214.353 78.9528 214.353 78.2216 215.199C76.9139 216.578 75.7019 217.545 74.0442 218.464C74.9534 218.881 74.9534 218.881 75.6723 218.496C77.7338 217.262 79.3546 215.822 80.9802 214.059C80.4315 213.769 80.4315 213.769 79.7191 213.744ZM29.9063 214.688C30.5376 223.51 34.8617 230.847 41.1386 236.894C42.0074 237.733 42.6487 238.451 43.1477 239.547C43.7457 238.505 44.3433 237.462 44.9408 236.42C45.1916 235.983 45.1916 235.983 45.4476 235.537C46.4806 233.734 47.5019 231.925 48.5073 230.107C48.2488 229.856 47.9903 229.605 47.724 229.347C47.3808 229.01 47.0376 228.674 46.6945 228.337C46.5246 228.172 46.3547 228.008 46.1797 227.839C45.106 226.78 44.2573 225.724 43.463 224.443C42.1924 224.617 40.9344 224.806 39.6797 225.072C39.8285 223.735 40.615 223.121 41.5713 222.24C41.2525 221.236 40.9105 220.286 40.4679 219.329C39.854 217.945 39.6188 216.487 39.3644 215.003C36.2089 214.807 33.0698 214.632 29.9063 214.688ZM82.8718 214.688C82.3451 215.208 82.3451 215.208 81.8078 215.868C81.0419 216.777 80.2495 217.628 79.4038 218.464C79.656 218.602 79.9082 218.739 80.1681 218.881C81.1264 219.405 82.0843 219.93 83.0418 220.455C83.4661 220.687 83.8904 220.92 84.3148 221.152C87.049 222.648 89.7412 224.176 92.3472 225.888C93.4564 226.417 94.2682 226.416 95.4827 226.331C95.5489 226.567 95.6151 226.803 95.6833 227.047C96.2481 228.173 96.8411 228.446 97.9482 229.035C98.1303 229.134 98.3123 229.233 98.4999 229.334C99.0813 229.649 99.666 229.957 100.251 230.264C100.827 230.572 101.403 230.882 101.978 231.191C102.529 231.488 103.08 231.782 103.632 232.076C104.487 232.547 105.304 233.045 106.121 233.578C106.46 233.782 106.798 233.987 107.148 234.197C107.356 234.094 107.564 233.99 107.778 233.883C107.599 233.708 107.42 233.532 107.235 233.352C106.992 233.112 106.748 232.871 106.497 232.624C106.141 232.274 106.141 232.274 105.777 231.916C105.146 231.263 104.555 230.606 103.965 229.917C103.027 228.838 102.039 227.819 101.021 226.815C100.868 226.664 100.715 226.513 100.557 226.357C99.9224 225.733 99.2869 225.109 98.6498 224.487C98.1776 224.026 97.7072 223.562 97.2376 223.098C97.0834 222.947 96.9292 222.796 96.7704 222.64C95.8234 221.694 95.056 220.713 94.2967 219.615C92.7177 217.581 90.4694 216.986 88.1132 216.222C87.6741 216.071 87.2352 215.918 86.7967 215.765C84.8752 215.008 84.8752 215.008 82.8718 214.688ZM41.8866 215.003C42.1939 216.828 42.5211 218.414 43.463 220.037C44.8617 218.845 46.25 217.643 47.6255 216.424C48.192 215.947 48.192 215.947 49.1378 215.317C46.715 215.105 44.3192 214.953 41.8866 215.003ZM54.8127 217.205C54.7682 217.57 54.7682 217.57 54.7228 217.943C54.4242 219.153 54.1303 220.102 53.2364 220.981C50.9898 222.198 48.4432 222.842 45.9851 223.499C46.761 224.716 47.547 225.761 48.5861 226.763C48.9202 227.088 48.9202 227.088 49.261 227.42C49.5121 227.659 49.5121 227.659 49.7684 227.904C50.7052 226.788 51.4636 225.651 52.1871 224.387C52.2903 224.208 52.3935 224.029 52.4998 223.844C52.8254 223.277 53.1491 222.709 53.4728 222.142C53.6948 221.755 53.9169 221.368 54.1391 220.981C54.6803 220.038 55.2199 219.094 55.7585 218.149C55.4464 217.838 55.1343 217.526 54.8127 217.205ZM57.3349 219.093C56.8909 219.745 56.49 220.393 56.096 221.075C55.9741 221.281 55.8522 221.488 55.7265 221.701C55.3279 222.378 54.9324 223.056 54.5369 223.735C54.2642 224.199 53.9914 224.662 53.7183 225.126C53.1758 226.047 52.6342 226.968 52.0933 227.89C51.1394 229.514 50.1703 231.129 49.1969 232.742C48.5861 233.756 48.5861 233.756 47.977 234.771C47.6659 235.284 47.3489 235.793 47.029 236.301C46.764 236.726 46.764 236.726 46.4937 237.16C46.3293 237.42 46.1648 237.68 45.9954 237.948C45.8879 238.164 45.7805 238.38 45.6699 238.603C45.7739 238.81 45.8779 239.018 45.9851 239.232C51.9154 233.313 57.8456 227.394 63.9556 221.296C62.8503 220.561 61.7249 220.222 60.4679 219.841C60.1213 219.732 60.1213 219.732 59.7678 219.622C58.5737 219.232 58.5737 219.232 57.3349 219.093ZM97.059 219.723C97.5754 221.043 98.5513 221.921 99.5442 222.894C99.7253 223.074 99.9063 223.254 100.093 223.439C100.67 224.011 101.249 224.581 101.827 225.151C102.22 225.539 102.612 225.927 103.004 226.316C103.963 227.267 104.924 228.215 105.887 229.163C106.735 228.351 107.281 227.536 107.857 226.508C108.113 226.061 108.113 226.061 108.374 225.604C108.761 224.814 108.761 224.814 108.735 224.134C108.193 223.079 107.123 222.902 106.055 222.55C105.819 222.468 105.583 222.386 105.34 222.301C104.585 222.04 103.827 221.786 103.069 221.532C102.559 221.356 102.049 221.18 101.54 221.004C99.3415 220.122 99.3415 220.122 97.059 219.723ZM73.1908 221.024C72.9742 221.094 72.7576 221.164 72.5344 221.236C72.2432 221.332 72.2432 221.332 71.9462 221.431C70.8696 221.693 69.7848 221.793 68.6846 221.925C69.5279 225.573 70.4295 229.201 71.3792 232.822C71.5118 233.329 71.6443 233.837 71.7767 234.344C72.1203 235.66 72.4646 236.975 72.8091 238.29C73.1626 239.641 73.5153 240.991 73.8681 242.341C74.5567 244.976 75.246 247.611 75.9359 250.245C76.0399 250.245 76.1439 250.245 76.2511 250.245C76.3041 248.482 76.3547 246.718 76.4032 244.954C76.42 244.354 76.4374 243.755 76.4555 243.155C76.4814 242.292 76.505 241.429 76.5282 240.566C76.541 240.165 76.541 240.165 76.5541 239.756C76.5864 238.47 76.5262 237.349 76.2511 236.085C76.3552 235.878 76.4592 235.67 76.5664 235.456C76.6779 234.47 76.7017 233.477 76.7437 232.486C76.7638 232.036 76.7638 232.036 76.7843 231.576C76.9376 227.731 76.9104 223.884 76.8817 220.037C75.6302 220.037 74.3747 220.628 73.1908 221.024ZM78.7733 220.352C78.7273 221.61 78.6825 222.868 78.6386 224.126C78.6163 224.758 78.5932 225.39 78.5701 226.022C78.472 228.854 78.4397 231.678 78.458 234.512C80.7134 234.046 80.7134 234.046 82.8718 233.253C82.3989 232.088 81.7181 231.517 80.7635 230.716C79.4486 229.429 79.4486 229.429 79.2659 228.342C79.3498 227.436 79.5154 226.588 79.7191 225.701C79.8332 225 79.9449 224.299 80.0541 223.597C80.1513 223.04 80.2494 222.482 80.3497 221.925C80.7658 221.822 81.182 221.718 81.6107 221.611C81.2596 221.403 80.9085 221.195 80.5467 220.981C80.3492 220.865 80.1517 220.748 79.9482 220.627C79.4118 220.305 79.4118 220.305 78.7733 220.352ZM65.5319 222.869C65.4279 223.077 65.3238 223.285 65.2167 223.499C65.4247 223.499 65.6328 223.499 65.8472 223.499C65.7432 223.291 65.6391 223.083 65.5319 222.869ZM63.325 225.072C61.0362 227.357 58.7473 229.641 56.3891 231.995C57.4449 233.049 57.8648 233.434 59.1477 233.961C59.5256 234.12 59.5256 234.12 59.9112 234.281C60.1014 234.357 60.2916 234.433 60.4876 234.512C60.5449 234.107 60.5449 234.107 60.6034 233.695C61.0753 230.48 61.548 228.23 63.6403 225.701C63.5363 225.494 63.4322 225.286 63.325 225.072ZM86.9704 225.072C87.1216 226.824 87.3799 228.43 87.9162 230.107C88.4888 229.755 89.0599 229.4 89.6304 229.045C89.9487 228.848 90.2669 228.65 90.5947 228.447C91.4094 227.98 91.4094 227.98 91.6994 227.275C91.0303 226.906 90.3603 226.539 89.6896 226.173C89.4994 226.068 89.3092 225.963 89.1132 225.855C88.1009 225.265 88.1009 225.265 86.9704 225.072ZM67.1083 230.107C66.6337 230.932 66.1611 231.758 65.6896 232.585C65.5542 232.82 65.4189 233.054 65.2795 233.296C65.1514 233.522 65.0234 233.747 64.8915 233.979C64.7727 234.186 64.6538 234.394 64.5313 234.608C64.2248 235.137 64.2248 235.137 64.2708 235.771C65.1801 236.225 65.9787 236.115 66.9901 236.105C67.5521 236.101 67.5521 236.101 68.1255 236.096C68.5583 236.091 68.5583 236.091 68.9999 236.085C68.8043 234.016 68.3224 232.1 67.7388 230.107C67.5307 230.107 67.3227 230.107 67.1083 230.107ZM53.8669 234.512C51.6821 236.693 49.4972 238.873 47.2462 241.12C54.5488 246.951 63.1614 247.286 72.1526 247.099C71.8451 245.853 71.536 244.607 71.2265 243.362C71.1389 243.007 71.0513 242.652 70.9611 242.287C70.8768 241.948 70.7925 241.609 70.7056 241.26C70.628 240.947 70.5504 240.634 70.4704 240.311C70.2892 239.552 70.2892 239.552 69.9457 238.917C69.483 238.923 69.483 238.923 69.011 238.928C66.7756 238.944 64.5973 238.913 62.3792 238.603C61.755 239.537 61.755 239.537 61.1181 240.491C60.806 240.387 60.4939 240.283 60.1723 240.176C60.1723 239.345 60.1723 238.515 60.1723 237.659C59.8228 237.484 59.4733 237.31 59.1132 237.13C57.3644 236.257 55.6157 235.385 53.8669 234.512Z" fill="#FF6969"/>
<path d="M124.626 170.89C125.01 171.214 125.385 171.548 125.749 171.893C126.01 172.141 126.01 172.141 126.277 172.394C128.669 174.911 129.341 178.163 129.303 181.525C129.106 183.969 128.169 185.832 126.358 187.479C124.317 189.027 122.313 189.642 119.759 189.515C119.14 189.365 118.522 189.216 117.909 189.046C116.755 188.77 115.58 188.674 114.399 188.571C114.295 188.052 114.191 187.532 114.084 186.997C114.248 186.913 114.411 186.829 114.58 186.742C116.818 185.487 117.949 183.952 118.655 181.491C118.981 179.648 118.445 178.414 117.421 176.896C115.841 174.9 113.744 173.669 111.246 173.152C110.757 173.134 110.267 173.132 109.777 173.143C109.501 173.147 109.225 173.151 108.94 173.155C108.361 173.166 107.783 173.179 107.204 173.192C106.79 173.197 106.79 173.197 106.368 173.202C106.117 173.208 105.866 173.213 105.607 173.219C104.941 173.152 104.941 173.152 103.995 172.523C104.099 172.004 104.203 171.484 104.31 170.949C105.381 170.64 106.451 170.333 107.522 170.025C107.825 169.938 108.127 169.85 108.439 169.76C108.733 169.676 109.026 169.592 109.329 169.505C109.598 169.428 109.867 169.35 110.144 169.27C114.768 168.042 120.594 168.08 124.626 170.89ZM112.823 170.949C113.896 171.663 115.009 172.187 116.172 172.738C116.878 173.128 117.309 173.528 117.867 174.096C118.075 174.096 118.283 174.096 118.498 174.096C118.576 174.265 118.654 174.434 118.734 174.607C119.14 175.409 119.14 175.409 119.778 176.318C121.005 178.175 120.892 180.118 120.704 182.277C120.281 183.687 119.627 184.835 118.813 186.053C118.813 186.365 118.813 186.676 118.813 186.997C120.376 187.517 121.718 187.504 123.227 186.84C124.766 186.001 126.309 184.623 126.906 182.939C127.387 179.869 127.01 177.255 125.285 174.655C123.324 172.181 120.764 171.176 117.7 170.721C116.014 170.534 114.495 170.682 112.823 170.949Z" fill="#FF6969"/>
<path d="M93.2563 146.779C96.385 149.467 97.7912 153.212 98.2649 157.221C98.4869 160.777 98.1209 164.634 97.3745 168.117C96.1923 168.471 96.1923 168.471 95.4829 168.117C95.3277 167.336 95.3277 167.336 95.2071 166.308C94.7089 162.847 94.018 159.583 91.3844 157.104C89.8406 155.969 88.2873 155.216 86.3401 155.216C84.0003 155.67 82.1615 157.166 80.7871 159.066C80.4112 159.662 80.0547 160.26 79.7194 160.88C79.3032 160.776 78.8871 160.672 78.4583 160.565C78.3803 160.267 78.3022 159.968 78.2218 159.661C77.9404 158.664 77.5758 157.725 77.1775 156.77C76.2231 154.397 76.1024 152.631 76.8819 150.181C77.9109 147.822 79.2706 146.256 81.611 145.147C85.4701 143.755 89.9337 144.378 93.2563 146.779ZM80.212 148.726C80.0494 148.999 79.8869 149.271 79.7194 149.552C79.5438 149.844 79.3682 150.136 79.1874 150.437C78.4494 152.226 78.2384 153.571 78.9115 155.373C79.0741 155.737 79.2366 156.1 79.4041 156.475C80.5801 155.931 81.5162 155.211 82.526 154.41C84.4905 153.066 86.5549 153.039 88.8622 153.328C91.8505 154.297 94.0264 156.046 95.4632 158.835C95.5738 159.094 95.6843 159.354 95.7982 159.621C95.9022 159.621 96.0063 159.621 96.1135 159.621C95.9817 155.546 95.3282 151.891 92.3302 148.923C90.1435 147.17 87.8164 146.563 85.0322 146.62C83.1704 146.827 81.56 147.415 80.212 148.726Z" fill="#FF6969"/>
<path d="M68.6846 199.269C69.9766 199.936 70.6979 200.787 71.3644 202.062C71.597 203.513 71.6357 204.812 70.8878 206.121C70.0812 207.162 69.3328 207.776 68.0541 208.08C66.3942 208.231 65.3711 208.015 63.9556 207.136C62.942 206.261 62.4624 205.648 62.3041 204.288C62.2471 202.554 62.4462 201.566 63.6403 200.213C65.0491 198.935 66.8856 198.953 68.6846 199.269ZM65.4137 202.318C64.824 203.007 64.824 203.007 64.9014 203.852C65.2891 204.795 65.5459 205.135 66.4777 205.563C67.4935 205.339 67.4935 205.339 68.3694 204.933C68.7383 203.483 68.7383 203.483 68.33 202.121C67.1954 201.479 66.4649 201.572 65.4137 202.318Z" fill="#FF6969"/>
</g>
</g>
<defs>
<clipPath id="clip0_3306_4610">
<rect width="138" height="320" fill="white"/>
</clipPath>
<clipPath id="clip1_3306_4610">
<rect width="128" height="118" fill="white" transform="translate(5 142)"/>
</clipPath>
</defs>
</svg>
