<svg width="366" height="36" viewBox="0 0 366 36" fill="none" xmlns="http://www.w3.org/2000/svg">
<g clip-path="url(#clip0_1880_3585)">
<mask id="path-1-inside-1_1880_3585" fill="white">
<path fill-rule="evenodd" clip-rule="evenodd" d="M267.496 0L279.748 9L290.639 17H366C366.552 17 367 17.4477 367 18C367 18.5523 366.552 19 366 19H290.639L279.748 27L267.496 36H98.5039L86.2519 27L75.3613 19H0C-0.552285 19 -1 18.5523 -1 18C-1 17.4477 -0.552285 17 0 17H75.3613L86.2519 9L98.5039 0H267.496Z"/>
</mask>
<path fill-rule="evenodd" clip-rule="evenodd" d="M267.496 0L279.748 9L290.639 17H366C366.552 17 367 17.4477 367 18C367 18.5523 366.552 19 366 19H290.639L279.748 27L267.496 36H98.5039L86.2519 27L75.3613 19H0C-0.552285 19 -1 18.5523 -1 18C-1 17.4477 -0.552285 17 0 17H75.3613L86.2519 9L98.5039 0H267.496Z" fill="#0F172A"/>
<path d="M279.748 9L280.932 7.38815V7.38815L279.748 9ZM267.496 0L268.68 -1.61185L268.152 -2H267.496V0ZM290.639 17L289.455 18.6119L289.983 19H290.639V17ZM290.639 19V17H289.983L289.455 17.3881L290.639 19ZM279.748 27L280.932 28.6119V28.6119L279.748 27ZM267.496 36V38H268.152L268.68 37.6119L267.496 36ZM98.5039 36L97.3198 37.6119L97.8482 38H98.5039V36ZM86.2519 27L85.0679 28.6119L86.2519 27ZM75.3613 19L76.5454 17.3881L76.017 17H75.3613V19ZM75.3613 17V19H76.017L76.5454 18.6119L75.3613 17ZM86.2519 9L85.0679 7.38815L86.2519 9ZM98.5039 0V-2H97.8482L97.3198 -1.61185L98.5039 0ZM280.932 7.38815L268.68 -1.61185L266.312 1.61185L278.564 10.6119L280.932 7.38815ZM291.823 15.3881L280.932 7.38815L278.564 10.6119L289.455 18.6119L291.823 15.3881ZM290.639 19H366V15H290.639V19ZM366 19C365.448 19 365 18.5523 365 18H369C369 16.3431 367.657 15 366 15V19ZM365 18C365 17.4477 365.448 17 366 17V21C367.657 21 369 19.6569 369 18H365ZM366 17H290.639V21H366V17ZM280.932 28.6119L291.823 20.6119L289.455 17.3881L278.564 25.3881L280.932 28.6119ZM268.68 37.6119L280.932 28.6119L278.564 25.3881L266.312 34.3881L268.68 37.6119ZM98.5039 38H267.496V34H98.5039V38ZM85.0679 28.6119L97.3198 37.6119L99.6879 34.3881L87.436 25.3881L85.0679 28.6119ZM74.1773 20.6119L85.0679 28.6119L87.436 25.3881L76.5454 17.3881L74.1773 20.6119ZM75.3613 17H0V21H75.3613V17ZM0 17C0.552285 17 1 17.4477 1 18H-3C-3 19.6569 -1.65685 21 0 21V17ZM1 18C1 18.5523 0.552285 19 0 19V15C-1.65685 15 -3 16.3431 -3 18H1ZM0 19H75.3613V15H0V19ZM85.0679 7.38815L74.1773 15.3881L76.5454 18.6119L87.436 10.6119L85.0679 7.38815ZM97.3198 -1.61185L85.0679 7.38815L87.436 10.6119L99.6879 1.61185L97.3198 -1.61185ZM267.496 -2H98.5039V2H267.496V-2Z" fill="url(#paint0_linear_1880_3585)" mask="url(#path-1-inside-1_1880_3585)"/>
</g>
<defs>
<linearGradient id="paint0_linear_1880_3585" x1="-1" y1="18" x2="367" y2="18" gradientUnits="userSpaceOnUse">
<stop stop-color="#4C5292" stop-opacity="0.2"/>
<stop offset="0.495" stop-color="#818CF8"/>
<stop offset="1" stop-color="#4C5292" stop-opacity="0.2"/>
</linearGradient>
<clipPath id="clip0_1880_3585">
<rect width="366" height="36" fill="white"/>
</clipPath>
</defs>
</svg>
