<svg width="674" height="66" viewBox="0 0 674 66" fill="none" xmlns="http://www.w3.org/2000/svg">
<g clip-path="url(#clip0_2872_4315)">
<mask id="path-1-inside-1_2872_4315" fill="white">
<path fill-rule="evenodd" clip-rule="evenodd" d="M491.679 0L514.107 16.5L533.817 31H672C673.105 31 674 31.8954 674 33C674 34.1046 673.105 35 672 35H533.817L514.107 49.5L491.679 66H182.321L159.893 49.5L140.183 35H2C0.89543 35 0 34.1046 0 33C0 31.8954 0.89543 31 2 31H140.183L159.893 16.5L182.321 0H491.679Z"/>
</mask>
<path fill-rule="evenodd" clip-rule="evenodd" d="M491.679 0L514.107 16.5L533.817 31H672C673.105 31 674 31.8954 674 33C674 34.1046 673.105 35 672 35H533.817L514.107 49.5L491.679 66H182.321L159.893 49.5L140.183 35H2C0.89543 35 0 34.1046 0 33C0 31.8954 0.89543 31 2 31H140.183L159.893 16.5L182.321 0H491.679Z" fill="#0F172A"/>
<path d="M514.107 16.5L512.922 18.111L512.922 18.111L514.107 16.5ZM491.679 0L492.864 -1.61101L492.335 -2H491.679V0ZM533.817 31L532.632 32.611L533.161 33H533.817V31ZM533.817 35V33H533.161L532.632 33.389L533.817 35ZM514.107 49.5L512.922 47.889L512.922 47.889L514.107 49.5ZM491.679 66V68H492.335L492.864 67.611L491.679 66ZM182.321 66L181.136 67.611L181.665 68H182.321V66ZM159.893 49.5L158.708 51.111L158.708 51.111L159.893 49.5ZM140.183 35L141.368 33.389L140.84 33H140.183V35ZM140.183 31V33H140.84L141.368 32.611L140.183 31ZM159.893 16.5L158.708 14.889L158.708 14.889L159.893 16.5ZM182.321 0V-2H181.665L181.136 -1.61101L182.321 0ZM515.292 14.889L492.864 -1.61101L490.494 1.61101L512.922 18.111L515.292 14.889ZM535.002 29.389L515.292 14.889L512.922 18.111L532.632 32.611L535.002 29.389ZM533.817 33H672V29H533.817V33ZM672 33H676C676 30.7908 674.209 29 672 29V33ZM672 33V37C674.209 37 676 35.2091 676 33H672ZM672 33H533.817V37H672V33ZM515.292 51.111L535.002 36.611L532.632 33.389L512.922 47.889L515.292 51.111ZM492.864 67.611L515.292 51.111L512.922 47.889L490.494 64.389L492.864 67.611ZM182.321 68H491.679V64H182.321V68ZM158.708 51.111L181.136 67.611L183.507 64.389L161.078 47.889L158.708 51.111ZM138.998 36.611L158.708 51.111L161.078 47.889L141.368 33.389L138.998 36.611ZM140.183 33H2V37H140.183V33ZM2 33H-2C-2 35.2091 -0.20914 37 2 37V33ZM2 33V29C-0.209139 29 -2 30.7909 -2 33H2ZM2 33H140.183V29H2V33ZM158.708 14.889L138.998 29.389L141.368 32.611L161.078 18.111L158.708 14.889ZM181.136 -1.61101L158.708 14.889L161.078 18.111L183.507 1.61101L181.136 -1.61101ZM491.679 -2H182.321V2H491.679V-2Z" fill="url(#paint0_linear_2872_4315)" mask="url(#path-1-inside-1_2872_4315)"/>
</g>
<defs>
<linearGradient id="paint0_linear_2872_4315" x1="0" y1="33" x2="674" y2="33" gradientUnits="userSpaceOnUse">
<stop stop-color="#4C5292" stop-opacity="0.2"/>
<stop offset="0.495" stop-color="#818CF8"/>
<stop offset="1" stop-color="#4C5292" stop-opacity="0.2"/>
</linearGradient>
<clipPath id="clip0_2872_4315">
<rect width="674" height="66" fill="white"/>
</clipPath>
</defs>
</svg>
