<svg width="366" height="36" viewBox="0 0 366 36" fill="none" xmlns="http://www.w3.org/2000/svg">
<mask id="path-1-inside-1_2875_4322" fill="white">
<path fill-rule="evenodd" clip-rule="evenodd" d="M267.034 0L279.219 9L290.05 17H365C365.552 17 366 17.4477 366 18C366 18.5523 365.552 19 365 19H290.05L279.219 27L267.034 36H98.9654L86.7804 27L75.9493 19H1C0.447715 19 0 18.5523 0 18C0 17.4477 0.447715 17 1 17H75.9493L86.7804 9L98.9654 0H267.034Z"/>
</mask>
<path fill-rule="evenodd" clip-rule="evenodd" d="M267.034 0L279.219 9L290.05 17H365C365.552 17 366 17.4477 366 18C366 18.5523 365.552 19 365 19H290.05L279.219 27L267.034 36H98.9654L86.7804 27L75.9493 19H1C0.447715 19 0 18.5523 0 18C0 17.4477 0.447715 17 1 17H75.9493L86.7804 9L98.9654 0H267.034Z" fill="#0F172A"/>
<path d="M279.219 9L280.407 7.39125L280.407 7.39125L279.219 9ZM267.034 0L268.222 -1.60875L267.693 -2H267.034V0ZM290.05 17L288.862 18.6087L289.392 19H290.05V17ZM290.05 19V17H289.392L288.862 17.3913L290.05 19ZM279.219 27L280.407 28.6087L280.407 28.6087L279.219 27ZM267.034 36V38H267.693L268.222 37.6087L267.034 36ZM98.9654 36L97.7772 37.6087L98.3069 38H98.9654V36ZM86.7804 27L85.5922 28.6087L85.5922 28.6087L86.7804 27ZM75.9493 19L77.1376 17.3913L76.6079 17H75.9493V19ZM75.9493 17V19H76.6079L77.1376 18.6087L75.9493 17ZM86.7804 9L85.5922 7.39125L85.5922 7.39125L86.7804 9ZM98.9654 0V-2H98.3069L97.7772 -1.60875L98.9654 0ZM280.407 7.39125L268.222 -1.60875L265.846 1.60875L278.031 10.6087L280.407 7.39125ZM291.239 15.3913L280.407 7.39125L278.031 10.6087L288.862 18.6087L291.239 15.3913ZM290.05 19H365V15H290.05V19ZM365 19C364.448 19 364 18.5523 364 18H368C368 16.3431 366.657 15 365 15V19ZM364 18C364 17.4477 364.448 17 365 17V21C366.657 21 368 19.6569 368 18H364ZM365 17H290.05V21H365V17ZM280.407 28.6087L291.239 20.6087L288.862 17.3913L278.031 25.3913L280.407 28.6087ZM268.222 37.6087L280.407 28.6087L278.031 25.3913L265.846 34.3913L268.222 37.6087ZM98.9654 38H267.034V34H98.9654V38ZM85.5922 28.6087L97.7772 37.6087L100.154 34.3913L87.9687 25.3913L85.5922 28.6087ZM74.7611 20.6087L85.5922 28.6087L87.9687 25.3913L77.1376 17.3913L74.7611 20.6087ZM75.9493 17H1V21H75.9493V17ZM1 17C1.55229 17 2 17.4477 2 18H-2C-2 19.6569 -0.656855 21 1 21V17ZM2 18C2 18.5523 1.55229 19 1 19V15C-0.656855 15 -2 16.3431 -2 18H2ZM1 19H75.9493V15H1V19ZM85.5922 7.39125L74.7611 15.3913L77.1376 18.6087L87.9687 10.6087L85.5922 7.39125ZM97.7772 -1.60875L85.5922 7.39125L87.9687 10.6087L100.154 1.60875L97.7772 -1.60875ZM267.034 -2H98.9654V2H267.034V-2Z" fill="url(#paint0_linear_2875_4322)" mask="url(#path-1-inside-1_2875_4322)"/>
<defs>
<linearGradient id="paint0_linear_2875_4322" x1="0" y1="18" x2="366" y2="18" gradientUnits="userSpaceOnUse">
<stop stop-color="#4C5292" stop-opacity="0.2"/>
<stop offset="0.495" stop-color="#818CF8"/>
<stop offset="1" stop-color="#4C5292" stop-opacity="0.2"/>
</linearGradient>
</defs>
</svg>
