<svg xmlns="http://www.w3.org/2000/svg" width="407" height="376" fill="none" viewBox="0 0 407 376">
  <g clip-path="url(#a)">
    <path fill="#fff" d="m190.701 33.97-3.578 112.967Z"/>
    <path stroke="#fff" stroke-linecap="round" stroke-linejoin="bevel" stroke-width="5.093" d="m190.701 33.97-3.578 112.967"/>
    <path fill="#fff" d="m190.701 33.97 26.07 116.034Z"/>
    <path stroke="#fff" stroke-linecap="round" stroke-linejoin="bevel" stroke-width="8.741" d="m190.701 33.97 26.07 116.034"/>
    <path fill="#fff" d="m69.044 97.355 94.054 55.717Z"/>
    <path stroke="#fff" stroke-linecap="round" stroke-linejoin="bevel" stroke-width="6.552" d="m69.044 97.355 94.054 55.717"/>
    <path fill="#fff" d="m75.463 101.862 70.767 74.723Z"/>
    <path stroke="#fff" stroke-linecap="round" stroke-linejoin="bevel" stroke-width="5.093" d="m75.463 101.862 70.767 74.723"/>
    <path fill="#fff" d="m249.997 179.652 123.702-.511Z"/>
    <path stroke="#fff" stroke-linecap="round" stroke-linejoin="bevel" stroke-width="5.093" d="m249.997 179.652 123.702-.511"/>
    <path fill="#fff" d="m249.997 218.5 124.724-38.848Z"/>
    <path stroke="#fff" stroke-linecap="round" stroke-linejoin="bevel" stroke-width="7.281" d="m249.997 218.5 124.724-38.848"/>
    <path fill="#fff" d="M144.971 200.903 37.863 229.235Z"/>
    <path stroke="#fff" stroke-linecap="round" stroke-linejoin="bevel" stroke-width="8.741" d="M144.971 200.903 37.863 229.235"/>
    <path fill="#fff" d="m151.341 230.258-102.744-2.812Z"/>
    <path stroke="#fff" stroke-linecap="round" stroke-linejoin="bevel" stroke-width="5.093" d="m151.341 230.258-102.744-2.812"/>
    <path fill="#fff" d="m165.668 240.181-55.22 92.693Z"/>
    <path stroke="#fff" stroke-linecap="round" stroke-linejoin="bevel" stroke-width="5.093" d="m165.668 240.181-55.22 92.693"/>
    <path fill="#fff" d="m194.279 250.193-85.364 84.853Z"/>
    <path stroke="#fff" stroke-linecap="round" stroke-linejoin="bevel" stroke-width="6.552" d="m194.279 250.193-85.364 84.853"/>
    <path fill="#fff" d="m227.505 370.828-31.692-121.146Z"/>
    <path stroke="#fff" stroke-linecap="round" stroke-linejoin="bevel" stroke-width="8.741" d="m227.505 370.828-31.692-121.146"/>
    <path fill="#fff" d="m231.428 242.336-3.156 127.981Z"/>
    <path stroke="#fff" stroke-linecap="round" stroke-linejoin="bevel" stroke-width="5.093" d="m231.428 242.336-3.156 127.981"/>
    <path fill="#fff" d="m344.051 307.444-112.456-63.896Z"/>
    <path stroke="#fff" stroke-linecap="round" stroke-linejoin="bevel" stroke-width="5.093" d="m344.051 307.444-112.456-63.896"/>
    <path fill="#fff" d="m282.2 242.525 61.851 63.896Z"/>
    <path stroke="#fff" stroke-linecap="round" stroke-linejoin="bevel" stroke-width="5.093" d="m282.2 242.525 61.851 63.896"/>
    <path fill="#fff" d="m217.787 211.594 156.7 55.89Z"/>
    <path stroke="#fff" stroke-linecap="round" stroke-linejoin="bevel" stroke-width="15.526" d="m217.787 211.594 156.7 55.89"/>
    <path fill="#fff" d="m46.291 152.543 118.228 39.959Z"/>
    <path stroke="#fff" stroke-linecap="round" stroke-linejoin="bevel" stroke-width="15.526" d="m46.291 152.543 118.228 39.959"/>
    <path stroke="#fff" stroke-linecap="round" stroke-linejoin="bevel" stroke-width="5.822" d="M146.353 191.098c-.181 3.374-.422 5.181-.482 8.253-.061 3.072.06 7.41.903 11.868.844 4.458 2.41 9.036 4.699 13.434 2.289 4.397 5.301 8.614 9.097 11.988 3.795 3.373 8.373 5.903 13.795 7.771 5.422 1.867 11.687 3.072 17.229 3.192 5.542.121 10.361-.843 14.88-2.289 4.518-1.446 8.735-3.373 12.53-5.662a60.578 60.578 0 0 0 9.819-7.41c2.651-2.47 4.578-4.759 6.446-7.47 1.867-2.711 3.675-5.843 5.422-9.157 1.747-3.313 3.433-6.807 4.638-10.542 1.205-3.735 1.928-7.711 1.627-12.53-.301-4.82-1.627-10.482-3.976-15.422-2.35-4.94-5.723-9.157-9.338-12.952-3.614-3.795-7.47-7.169-10.602-9.518-3.133-2.35-5.542-3.675-9.398-4.699-3.855-1.024-9.156-1.747-13.193-2.289-4.036-.542-6.807-.904-8.915-.904-2.109 0-3.555.362-5.663.844-2.109.482-4.88 1.084-7.53 1.686-2.651.603-5.181 1.205-7.53 1.988-2.35.784-4.519 1.747-7.109 4.217-2.59 2.47-5.602 6.446-8.494 10.422-2.892 3.976-5.663 7.952-7.108 12.41-1.446 4.458-1.567 9.397-1.747 12.771Z"/>
    <path stroke="#fff" stroke-linecap="round" stroke-linejoin="bevel" stroke-width="5.093" d="M217.584 150.719c7.692 5.699 15.384 11.397 20.752 16.279 5.367 4.883 8.409 8.949 10.623 13.03 2.214 4.082 3.599 8.178 4.503 11.07.903 2.891 1.325 4.578 1.551 6.43.226 1.853.256 3.871-.105 6.341-.362 2.47-1.115 5.391-2.154 8.72-1.039 3.328-2.364 7.063-4.322 10.632-1.958 3.57-4.549 6.973-7.199 10.031-2.651 3.057-5.362 5.768-8.675 8.117-3.313 2.35-7.229 4.337-11.46 5.95-4.231 1.613-8.778 2.85-12.958 3.458-4.18.609-7.992.588-13.856-.682-5.863-1.27-13.776-3.789-21.689-6.309"/>
    <path stroke="#fff" stroke-linecap="round" stroke-linejoin="bevel" stroke-width="5.822" d="M140.268 138.808c1.566-2.289 3.133-4.578 5.844-7.048 2.71-2.47 6.566-5.12 10.421-7.59a176.84 176.84 0 0 1 11.747-6.928c4.037-2.169 8.253-4.217 11.687-5.663 3.434-1.445 6.085-2.289 8.735-3.132"/>
    <path stroke="#fff" stroke-linecap="round" stroke-linejoin="bevel" stroke-width="6.552" d="M210.389 105.193c3.735 0 7.47 0 11.265.302 3.796.301 7.651.903 11.491 1.626 3.841.723 7.666 1.566 11.235 2.621 3.57 1.054 6.883 2.319 9.39 3.37 2.506 1.052 4.206 1.89 5.646 2.676 1.44.786 2.618 1.52 3.189 1.861.57.342.531.288.955.623.424.336 1.31 1.058 2.196 1.781m14.754 12.249c3.374 4.097 6.747 8.193 10.482 13.494 3.735 5.302 7.832 11.808 10.603 17.41 2.771 5.603 4.217 10.301 5.662 15"/>
    <path stroke="#fff" stroke-linecap="round" stroke-linejoin="bevel" stroke-width="7.281" d="M309.382 200.466c-.12 4.267-.24 8.534-1.013 13.077-.773 4.543-2.197 9.362-3.816 13.519-1.62 4.157-3.433 7.651-5.247 11.145"/>
    <path stroke="#fff" stroke-linecap="round" stroke-linejoin="bevel" stroke-width="8.741" d="M283.041 272.183c-4.217 3.132-8.434 6.265-12.711 9.277-4.278 3.012-8.615 5.904-13.193 8.494-4.579 2.59-9.398 4.879-13.916 6.566-4.518 1.687-8.735 2.771-12.952 3.856m-73.736-11.566c3.253 2.289 6.506 4.578 10.241 6.566 3.735 1.988 7.952 3.675 11.928 5.181 3.976 1.506 7.711 2.831 12.53 3.253 4.82.421 10.723-.06 16.627-.542m-93.253-122.532c-1.382 4.139-2.763 8.278-3.546 12.977-.783 4.699-.968 9.958-1.153 15.216"/>
    <path stroke="#fff" stroke-linecap="round" stroke-linejoin="bevel" stroke-width="7.281" d="M116.051 173.507c1.085-2.409 2.169-4.819 3.675-7.59 1.506-2.771 3.434-5.904 5.362-9.036m-12.471 73.735c.422 3.012.844 6.024 1.838 9.398.994 3.373 2.56 7.108 4.729 11.024 2.168 3.916 4.939 8.012 7.349 11.205a70.948 70.948 0 0 0 6.868 7.892c2.409 2.409 5.18 4.939 7.951 7.47m-29.999-162.291c3.735-3.615 7.469-7.229 12.349-11.506 4.88-4.278 10.904-9.217 17.711-13.253 6.807-4.037 14.398-7.17 21.145-9.7 6.747-2.53 12.65-4.457 18.554-6.385m24.036-5.24c8.735-.543 17.47-1.085 25.392-.453 7.922.633 15.03 2.44 22.38 4.85 7.349 2.41 14.94 5.422 20.844 8.253 5.903 2.832 10.12 5.482 14.337 8.133"/>
    <path stroke="#fff" stroke-linecap="round" stroke-linejoin="bevel" stroke-width="6.552" d="M305.45 103.748c3.615 4.216 7.229 8.433 11.265 14.096 4.037 5.663 8.494 12.771 12.41 19.639 3.916 6.867 7.289 13.494 9.669 19.428 2.379 5.933 3.765 11.174 5.15 16.415"/>
    <path stroke="#fff" stroke-linecap="round" stroke-linejoin="bevel" stroke-width="5.093" d="M346.836 192.845c-.18 6.205-.361 12.409-1.054 18.283-.693 5.874-1.897 11.416-3.494 17.711-1.596 6.295-3.584 13.343-5.572 20.392m-1.627 5.241c-1.687 4.699-3.373 9.397-5.512 13.765-2.138 4.367-4.729 8.404-7.319 12.44"/>
    <path stroke="#fff" stroke-linecap="round" stroke-linejoin="bevel" stroke-width="8.011" d="M311.956 294.231c-5.6 6.154-11.201 12.309-19.1 18.34-7.9 6.031-18.097 11.939-27.646 15.729-9.55 3.791-18.45 5.463-27.351 7.136"/>
    <path stroke="#fff" stroke-linecap="round" stroke-linejoin="bevel" stroke-width="7.281" d="M133.762 319.894c2.771 2.41 5.542 4.819 10.422 7.289 4.88 2.47 11.868 5 19.639 6.988 7.771 1.988 16.325 3.434 24.217 3.976 7.892.542 15.12.181 22.349-.18M74.846 232.785c.844 5.06 1.687 10.12 3.072 15.602 1.386 5.482 3.314 11.386 6.266 18.073 2.951 6.687 6.927 14.156 12.35 21.265 5.421 7.109 12.288 13.855 19.156 20.602M78.1 175.818c-1.085 5.013-2.17 10.026-3.133 14.701-.964 4.675-1.808 9.013-1.928 13.651-.12 4.639.482 9.579 1.084 14.519m10.844-61.086c1.205-3.012 2.41-6.024 3.795-9.036 1.386-3.012 2.952-6.024 4.639-8.614 1.686-2.591 3.494-4.759 5.3-6.928m-34.337 23.494c-7.59-4.819-15.18-9.638-22.35-15.301-7.169-5.663-13.915-12.169-20.662-18.675m37.952 36.507c-8.434-1.205-16.868-2.41-26.145-2.832-9.277-.421-19.398-.06-29.518.301m16.265-34.337 15.542 25.663-31.807 7.59M365.52 260.544l-.511-20.83 38.593 36.932-52.778 8.05 14.312-15.59"/>
    <path stroke="#fff" stroke-linecap="round" stroke-linejoin="bevel" stroke-width=".93" d="M356.331 281.604c.134-.154 2.511-2.756 5.281-5.782 2.771-3.026 5.055-5.524 5.076-5.551.021-.027 1.52.469 3.332 1.101 1.812.633 3.585 1.188 3.938 1.232.852.108 1.992-.114 2.865-.559 2.449-1.246 3.482-4.237 2.32-6.719-.435-.931-1.371-1.938-2.188-2.355-.301-.154-2.48-.959-4.841-1.79a674.664 674.664 0 0 1-4.495-1.59c-.177-.07-.221-.977-.369-7.554-.092-4.111-.145-7.495-.118-7.519.038-.035 15.407 14.637 31.325 29.901.544.522.914.949.822.949-.092 0-9.779 1.466-21.528 3.259-11.748 1.792-21.429 3.258-21.512 3.258-.089 0-.051-.116.092-.281Z"/>
    <path stroke="#fff" stroke-linecap="round" stroke-linejoin="bevel" stroke-width=".93" d="M357.161 281.165c3.675-4.066 9.618-10.526 9.683-10.526.048 0 1.544.488 3.325 1.084 1.781.596 3.505 1.119 3.832 1.163 1.379.183 3.055-.429 4.22-1.541a5.326 5.326 0 0 0 .613-7.048c-1.025-1.391-1.111-1.434-7.116-3.563a447.442 447.442 0 0 1-3.93-1.404c-.032-.022-.228-6.913-.334-11.787-.057-2.571-.056-2.585.204-2.446.152.081.206.174.129.222-.073.045 1.257 1.402 2.954 3.015 12.4 11.789 27.92 26.72 27.843 26.785-.052.044-2.452.433-5.333.864-9.019 1.349-35.636 5.389-36.038 5.47l-.383.077.331-.365Z"/>
    <path fill="#fff" stroke="#fff" stroke-linecap="round" stroke-linejoin="bevel" stroke-width=".93" d="M357.864 280.841c1.551-1.725 8.749-9.54 8.91-9.672.183-.15.652-.031 3.44.873 1.776.576 3.549 1.078 3.94 1.116 1.4.135 2.97-.446 4.174-1.545 2.053-1.876 2.418-4.954.864-7.292-.99-1.49-1.607-1.814-7.315-3.845l-3.865-1.377v-.395c0-.218-.025-1.46-.056-2.76a4154.87 4154.87 0 0 1-.142-6.262l-.086-3.898 1.899 1.864a784.14 784.14 0 0 0 6.116 5.878c9.334 8.885 22.049 21.141 22.145 21.345.047.1.867-.031-11.922 1.907-21.38 3.241-27.734 4.212-28.05 4.286l-.319.075.267-.298Z"/>
    <path fill="#fff" stroke="#fff" stroke-linecap="round" stroke-linejoin="bevel" stroke-width=".465" d="M41.505 154.885c-.578-.101-6.1-.48-8.69-.598-2.868-.13-7.911-.202-11.661-.166-2.091.019-3.773.022-3.738.006.035-.017 4.176-1.008 9.201-2.204 5.025-1.196 9.175-2.196 9.222-2.223.077-.043 1.115-2.413 1.199-2.737.026-.098-1.198-2.168-4.638-7.849-2.57-4.244-4.658-7.732-4.638-7.751.02-.02.287.206.595.501.781.749 3.195 2.956 4.683 4.282 4.606 4.103 8.594 7.323 13.033 10.523.51.368.952.692.984.72.031.029-.27.051-.671.05-.807-.002-1.385.104-2.038.372-1.493.615-2.56 1.834-3.011 3.439-.279.992-.18 2.326.24 3.283.168.381.172.395.104.382l-.176-.03Z"/>
    <path stroke="#fff" stroke-linecap="round" stroke-linejoin="bevel" stroke-width="8.176" d="M218.29 196.098c0 6.195-2.613 12.138-7.267 16.531-4.655 4.393-10.973 6.878-17.574 6.912-6.601.034-12.948-2.385-17.654-6.729-4.706-4.345-7.389-10.26-7.462-16.455-.073-6.195 2.47-12.165 7.073-16.606 4.602-4.44 10.891-6.99 17.491-7.093 6.6-.103 12.975 2.251 17.732 6.546s7.509 10.183 7.655 16.376"/>
    <path stroke="#fff" stroke-linecap="round" stroke-linejoin="bevel" stroke-width="7.281" d="M206.594 195.827a9.894 9.894 0 0 1-2.997 7.072 10.44 10.44 0 0 1-7.247 2.958 10.452 10.452 0 0 1-7.281-2.88 9.904 9.904 0 0 1-3.077-7.04 9.892 9.892 0 0 1 2.917-7.104 10.436 10.436 0 0 1 7.213-3.035 10.457 10.457 0 0 1 7.313 2.8 9.91 9.91 0 0 1 3.157 7.007"/>
    <path fill="#fff" stroke="#fff" stroke-linecap="round" stroke-linejoin="bevel" stroke-width="2.904" d="m224.847 144.591-2.53-12.289 18.072-34.338-3.976 36.868-11.566 9.759Z"/>
    <path fill="#fff" stroke="#fff" stroke-linecap="round" stroke-linejoin="bevel" stroke-width="2.174" d="m171.714 147.483-8.313-5.783-9.036-35.061 20.964 24.94 1.807 13.735-5.422 2.169Z"/>
    <path fill="#fff" stroke="#fff" stroke-linecap="round" stroke-linejoin="bevel" stroke-width="2.904" d="m260.631 174.591 7.229-11.927 38.675-16.266-27.109 27.832-18.795.361Zm-19.88 80.965-3.976 19.518 29.639 30.001-8.675-39.76-16.988-9.759Zm-48.434 5.06-12.289 15.904-3.615 36.506 20.603-35.783-4.699-16.627Zm-81.326 2.169 26.024-26.024 13.735-4.699 5.06 8.313-4.337 10.121-40.482 12.289Z"/>
    <path stroke="#fff" stroke-linecap="round" stroke-linejoin="bevel" stroke-width="5.093" d="M262.071 139.469c.927-1.48 1.854-2.961 2.236-5.147.382-2.186.219-5.078.34-7.25.122-2.173.527-3.627 1.478-5.685.951-2.059 2.447-4.721 4.048-5.979s3.307-1.112 8.655-5.533c5.348-4.421 14.338-13.409 23.327-22.397m-40.043 52.014c1.268-1.42 2.536-2.84 4.536-3.681 2.001-.842 4.734-1.105 6.754-1.613 2.021-.508 3.328-1.263 5.085-2.696 1.758-1.432 3.964-3.543 4.785-5.407.82-1.864.255-3.48 3.207-9.759 2.953-6.279 9.424-17.221 15.895-28.163m2.953-3.433c.154-.35.308-.698.789-1.318.482-.62 1.292-1.512 1.416-6.038.124-4.527-.439-12.688-.782-18.94-.343-6.253-.466-10.597.132-14.123.598-3.525 1.918-6.233 3.947-9.273s4.767-6.413 8.834-8.74c4.068-2.328 9.465-3.61 15.267-5.34 5.802-1.728 12.009-3.903 17.104-7.047 5.094-3.145 9.076-7.26 13.058-11.375"/>
    <path stroke="#fff" stroke-linecap="round" stroke-linejoin="bevel" stroke-width="5.093" d="M304.929 84.221c.287-.25.575-.5 1.024-1.144.45-.644 1.061-1.682 5.348-3.141 4.287-1.46 12.248-3.34 18.321-4.865 6.074-1.525 10.259-2.694 13.45-4.31 3.19-1.616 5.385-3.678 7.687-6.517 2.303-2.838 4.713-6.453 5.731-11.027 1.018-4.575.644-10.11.576-16.163-.068-6.054.17-12.627 1.664-18.424 1.495-5.798 4.245-10.82 6.995-15.842"/>
    <path stroke="#fff" stroke-linecap="round" stroke-linejoin="bevel" stroke-width="5.093" d="M306.698 84.509c.288-.25.575-.5 1.025-1.144.449-.644 1.061-1.682 5.348-3.142 4.286-1.46 12.247-3.34 18.321-4.864 6.074-1.525 10.259-2.694 13.449-4.31 3.19-1.616 5.385-3.679 7.688-6.517 2.302-2.839 4.712-6.453 5.73-11.028 1.018-4.574.645-10.109.577-16.163-.068-6.054.17-12.626 1.664-18.424 1.494-5.797 4.244-10.82 6.995-15.841"/>
    <path stroke="#fff" stroke-linecap="round" stroke-linejoin="bevel" stroke-width="5.822" d="M235.939 55.694c1.364-3.067 2.727-6.134 5.879-9.286 3.152-3.152 8.093-6.39 12.779-7.71 4.686-1.32 9.116-.724 13.376 1.065 4.259 1.79 8.349 4.77 11.756 8.647 3.408 3.877 6.134 8.648 7.71 13.76 1.577 5.11 2.002 10.563 2.258 13.63.256 3.067.341 3.749.426 4.43m60.582 64.895c2.843-1.783 5.687-3.566 8.362-7.132 2.674-3.566 5.181-8.916 5.825-13.741.645-4.825-.572-9.126-2.945-13.09-2.373-3.964-5.903-7.591-10.223-10.417-4.319-2.825-9.427-4.85-14.71-5.687-5.284-.837-10.741-.488-13.814-.308-3.072.181-3.759.193-4.446.205"/>
    <path stroke="#fff" stroke-linecap="round" stroke-linejoin="bevel" stroke-width="5.822" d="M235.691 56.398c0-1.928 0-3.855-.964-6.386-.964-2.53-2.892-5.662-3.916-8.855-1.024-3.193-1.144-6.446-.241-10.12.904-3.675 2.832-7.772 5.241-10.844 2.41-3.072 5.302-5.12 9.157-6.566 3.856-1.446 8.675-2.29 13.675-2.049 5 .241 10.181 1.567 14.759 4.097 4.578 2.53 8.554 6.265 11.506 10.843 2.952 4.579 4.88 10 6.024 15.543 1.145 5.542 1.506 11.205 1.205 17.47-.301 6.265-1.265 13.132-2.229 20m59.484 65.421c1.902-.313 3.804-.626 6.457-.085s6.057 1.935 9.373 2.427c3.317.493 6.547.084 10.026-1.404 3.48-1.487 7.209-4.054 9.85-6.93 2.641-2.876 4.193-6.062 4.994-10.101.801-4.038.852-8.931-.197-13.825-1.049-4.895-3.197-9.792-6.436-13.9-3.239-4.107-7.57-7.424-12.566-9.595-4.997-2.17-10.659-3.193-16.314-3.423-5.654-.23-11.3.331-17.434 1.645-6.133 1.313-12.753 3.378-19.374 5.443"/>
    <path stroke="#fff" stroke-linecap="round" stroke-linejoin="bevel" stroke-width="5.093" d="M28.278 132.881c-.553-1.875 2.343 1.874 6.475 5.665s9.5 7.625 10.947 9.371c1.449 1.747-1.022 1.406-1.533 2.641-.511 1.236.937 4.047-3.578 5.027-4.516.98-14.994.128-16.613-1.15-1.619-1.278 5.623-2.982 7.241-7.583 1.619-4.6-2.385-12.097-2.939-13.971Z"/>
    <path stroke="#fff" stroke-linecap="round" stroke-linejoin="bevel" stroke-width="5.093" d="M12.752 154.605c1.448-.17 2.897-.341 5.868-1.395 2.97-1.054 7.465-2.993 11.959-4.931"/>
    <path stroke="#fff" stroke-linecap="round" stroke-linejoin="bevel" stroke-width="5.093" d="m47.918 146.218-6.687-2.53-15-16.627 7.771 13.735 2.711 7.591-5.783 3.433-5.783-1.084-5.964 2.53-9.398.904-.18 1.084 6.325-.723 6.687.181h4.88l5.782-1.085 5.422.904 5.241 1.265-3.795-2.349 1.265-2.35 1.627-1.265 1.445-3.072-2.168-2.35-5.422-1.265h-.18l-1.627 3.434 2.168.904 1.627-.362.18-.542"/>
    <path stroke="#fff" stroke-linecap="round" stroke-linejoin="bevel" stroke-width="5.093" d="m36.532 146.037 10.663 5.241.904-3.614-1.265-.904-2.711-1.265-3.976-1.988-5.06-2.711-1.265-.903 17.35 11.566-4.157.904-4.519 1.265h-5.964l-3.433-.723h-2.892l-3.614.361-3.073.904-1.988.361-2.71.361-4.88.542 19.518-5.602 1.084-4.88-8.674-16.988 13.012 13.374 11.024 6.687-7.771-.181-.542 2.53v2.892l2.53 2.53 2.71-4.88m318.979 91.628 33.254 33.615-44.82 7.229 11.928-13.013 15.904-.361-14.097-10.482"/>
    <path stroke="#fff" stroke-linecap="round" stroke-linejoin="bevel" stroke-width="5.093" d="m352.077 283.388 16.265-14.097-1.807-24.578m26.077 28.482-18.913-12.779 6.645 5.112v3.067l-2.556 2.555"/>
    <path stroke="#fff" stroke-linecap="round" stroke-linejoin="bevel" stroke-width="5.093" d="m365.52 273.706 10.223-.511 1.534-3.067-1.023-8.69-6.134-4.6m26.581 16.869h-3.578l-31.181 5.111m-5.112 1.534 36.804-5.112"/>
  </g>
  <defs>
    <clipPath id="a">
      <path fill="#fff" d="M0 0h406.119v375.198H0z"/>
    </clipPath>
  </defs>
</svg>
