<svg xmlns="http://www.w3.org/2000/svg" width="665" height="519" fill="none" viewBox="0 0 665 519">
  <g clip-path="url(#a)">
    <path stroke="#fff" stroke-linecap="round" stroke-linejoin="bevel" stroke-width="6.871" d="M231.813 320.886c-1.361-7.615-2.721-15.23-3.402-26.507-.68-11.278-.68-26.218 1.482-41.171 2.161-14.953 6.484-29.919 11.785-42.45 5.301-12.53 11.581-22.624 17.612-30.803 6.032-8.18 11.815-14.445 18.561-20.978 6.746-6.533 14.454-13.333 22.388-19.309 7.935-5.975 16.094-11.125 25.617-15.21 9.522-4.084 20.407-7.102 27.654-8.838 7.246-1.735 10.855-2.188 15.852-2.595 4.997-.407 11.382-.768 19.636-1.009 8.253-.241 18.373-.362 26.566.18 8.193.542 14.458 1.747 20.542 3.555 6.085 1.807 11.988 4.216 18.253 7.349 6.266 3.133 12.892 6.988 18.495 11.506 5.602 4.518 10.18 9.699 13.795 13.856 3.614 4.156 6.265 7.289 9.036 11.807 2.771 4.518 5.663 10.422 8.033 16.831 2.37 6.409 4.218 13.324 5.469 20.915 1.25 7.59 1.903 15.856 1.521 25.17-.383 9.314-1.799 19.675-4.616 29.615-2.817 9.94-7.033 19.458-12.937 30-5.904 10.543-13.494 22.109-21.708 31.899-8.213 9.79-17.05 17.804-24.941 24.069-7.892 6.265-14.839 10.781-23.131 15.75-8.293 4.97-17.932 10.391-27.425 14.551-9.493 4.16-18.841 7.057-27.791 8.839-8.951 1.783-17.504 2.45-27.943 2.31-10.439-.139-22.763-1.085-32.622-2.629-9.858-1.545-17.25-3.688-24.641-5.831"/>
    <path stroke="#fff" stroke-linecap="round" stroke-linejoin="bevel" stroke-width="8.572" d="m274.429 170.332 19.424 11.757m41.405-52.65 2.556 17.891m65.429-29.648-5.623 18.913m69.007-.511-15.335 13.801m27.604 52.139 22.491-7.156m-24.025 58.784 23.003-1.533m-50.094 50.605 11.756 15.335m-63.511 21.91 5.421 16.808m-65.422-1.627.723 18.254m-71.205-18.254 8.855-9.578m-43.916-50.603 16.265-4.518m-8.545-62.101 18.147 3.578"/>
    <path stroke="#fff" stroke-linecap="round" stroke-linejoin="bevel" stroke-width="11.407" d="m379.901 175.148-12.018 69.308"/>
    <path stroke="#fff" stroke-linecap="round" stroke-linejoin="bevel" stroke-width="7.438" d="m278.695 209.125 92.149 35.562"/>
    <path stroke="#fff" stroke-linecap="round" stroke-linejoin="bevel" stroke-width="6.304" d="m265.683 266.957 119.097-27.922"/>
    <path stroke="#fff" stroke-linecap="round" stroke-linejoin="bevel" stroke-width="6.236" d="M214.112 306.813c-.341-16.016-.682-32.033.085-47.112.767-15.08 2.641-29.222 6.816-42.938 4.174-13.717 10.649-27.007 18.402-39.19 7.753-12.182 16.783-23.258 26.495-32.714 9.712-9.457 20.106-17.295 33.822-24.621 13.717-7.327 30.755-14.143 45.238-18.487 14.484-4.345 26.411-6.22 39.871-6.816 13.461-.596 28.455.085 41.916 2.385 13.461 2.3 25.388 6.22 37.741 12.354 12.353 6.134 25.132 14.483 34.93 25.728 9.797 11.246 16.612 25.388 20.957 35.441 4.345 10.053 6.22 16.017 7.668 23.94 1.448 7.923 2.47 17.805 1.448 30.499-1.022 12.695-4.089 28.2-9.301 44.191-5.211 15.992-12.567 32.469-21.959 46.371-9.392 13.901-20.82 25.226-33.088 35.368-12.268 10.143-25.376 19.102-38.162 25.968-12.785 6.866-25.248 11.636-37.011 14.866-11.763 3.231-22.825 4.92-33.827 5.669-11.001.749-21.941.558-30.815.169-8.874-.39-15.68-.978-19.987-2.643-4.307-1.666-6.113-4.409-7.919-7.152"/>
    <path stroke="#fff" stroke-linecap="round" stroke-linejoin="bevel" stroke-width="8.005" d="M187.486 282.163c-.44-11.936-.881-23.873 1.185-37.801 2.066-13.929 6.638-29.849 13.24-45.668 6.601-15.818 15.232-31.533 25.767-45.024s22.974-24.758 36.472-34.271c13.499-9.512 28.056-17.27 41.38-23.229 13.324-5.958 25.413-10.117 38.326-12.979 12.912-2.862 26.647-4.429 38.515-5.031 11.868-.602 21.867-.24 32.169.422 10.301.662 20.904 1.626 29.337 2.349 8.434.723 14.699 1.205 20.603.24 5.904-.963 11.446-3.373 16.868-7.77 5.421-4.398 10.722-10.784 13.735-16.627 3.012-5.843 3.735-11.145 4.096-15.06.361-3.916.361-6.446-.311-7.739-.672-1.292-2.016-1.347-3.782-.82-1.767.525-3.955 1.633-6.144 2.74"/>
    <path stroke="#fff" stroke-linecap="round" stroke-linejoin="bevel" stroke-width="8.572" d="M584.3 101.233c-.361-2.29-.723-4.579-2.048-6.507-1.325-1.927-3.615-3.493-8.103-3.433-4.488.06-11.174 1.747-17.861 4.94-6.687 3.192-13.374 7.891-15.945 15.316-2.572 7.426-1.028 17.577 1.954 27.698 2.982 10.12 7.402 20.21 10.968 28.628 3.565 8.418 6.276 15.165 8.505 22.937 2.229 7.771 3.976 16.566 4.337 28.042.362 11.476-.662 25.633-2.952 38.856-2.289 13.223-5.843 25.512-11.174 38.012-5.332 12.5-12.44 25.211-22.531 39.278-10.09 14.066-23.162 29.488-35.447 40.955-12.284 11.468-23.779 18.98-37.671 26.587-13.892 7.607-30.179 15.308-42.855 19.636-12.676 4.328-21.739 5.283-30.674 6.603-8.935 1.32-17.74 3.005-26.516 3.324-8.775.32-17.521-.727-26.266-1.773"/>
    <path stroke="#fff" stroke-linecap="round" stroke-linejoin="bevel" stroke-width="6.304" d="M488.863 35.64c.256-2.215.511-4.43 1.108-6.475.596-2.045 1.533-3.919 3.535-5.963 2.002-2.045 5.069-4.26 7.966-5.496 2.897-1.235 5.623-1.49 8.349-1.746"/>
    <path stroke="#fff" stroke-linecap="round" stroke-linejoin="bevel" stroke-width="7.438" d="M585.729 101.836c.171-2.556.341-5.112 1.619-7.071 1.278-1.96 3.663-3.323 5.197-4.984 1.533-1.661 2.215-3.62 2.258-6.39.042-2.769-.554-6.347-1.917-8.647s-3.493-3.322-6.049-4.26c-2.556-.937-5.538-1.789-9.329-2.939-3.791-1.15-8.391-2.598-12.609-4.09-4.217-1.49-8.05-3.023-10.71-4.313-2.659-1.29-4.143-2.336-5.627-3.382m-16.441-14.241c-1.981-1.619-3.962-3.238-6.23-5.197a289.57 289.57 0 0 1-7.124-6.39c-2.301-2.13-4.345-4.089-5.794-6.091-1.448-2.002-2.3-4.047-3.152-6.091"/>
    <path stroke="#fff" stroke-linecap="round" stroke-linejoin="bevel" stroke-width="4.037" d="M531.677 30.305c2.541 2.98 5.082 5.96 9.304 9.889 4.223 3.93 10.126 8.81 15.616 13.132 5.489 4.322 10.565 8.087 15.64 11.852"/>
    <path stroke="#fff" stroke-linecap="round" stroke-linejoin="bevel" stroke-width="3.47" d="M547.889 15.813c3.281.702 6.563 1.404 9.921 3.08 3.357 1.676 6.791 4.326 10.586 7.46 3.796 3.132 7.952 6.746 11.476 10.481a81.892 81.892 0 0 1 8.246 10.331c1.83 2.742 2.598 4.368 3.366 5.995"/>
    <path stroke="#fff" stroke-linecap="round" stroke-linejoin="bevel" stroke-width="6.871" d="M11.179 180.044c-3.408 4.601-6.816 9.201-8.179 12.694-1.363 3.493-.681 5.879.512 9.457 1.192 3.578 2.896 8.349 5.452 13.716 2.556 5.368 5.964 11.331 13.29 21.725 7.327 10.394 18.573 25.217 33.482 42.512 14.909 17.295 33.481 37.059 53.331 55.632 19.851 18.572 40.979 35.952 59.466 50.69 18.487 14.739 34.333 26.836 51.117 37.486 16.783 10.649 34.503 19.85 48.219 25.388 13.717 5.537 23.429 7.411 30.841 8.008 7.412.596 12.523-.085 15.521-.856 2.998-.77 3.882-1.63 5.438-3.536 1.557-1.905 3.786-4.857 6.015-7.809"/>
    <path stroke="#fff" stroke-linecap="round" stroke-linejoin="bevel" stroke-width="8.005" d="M11.003 179.889c12.838 7.89 25.676 15.779 41.807 26.369 16.13 10.59 35.555 23.88 57.706 39.812 22.15 15.931 47.027 34.503 68.07 51.031 21.043 16.528 38.252 31.011 56.739 47.539 18.488 16.528 38.252 35.1 53.672 51.968 15.421 16.869 26.496 32.033 37.571 47.198"/>
    <path stroke="#fff" stroke-linecap="round" stroke-linejoin="bevel" stroke-width="6.871" d="M17.246 172.475c11.438 4.568 22.877 9.136 43.931 21.728 21.055 12.593 51.724 33.209 81.713 55.53 29.988 22.322 59.295 46.346 81.786 66.367 22.491 20.02 38.167 36.037 53.843 52.053"/>
    <path stroke="#fff" stroke-linecap="round" stroke-linejoin="bevel" stroke-width="7.438" d="M325.035 445.339c3.578-4.089 7.156-8.178 2.981-17.294-4.174-9.116-16.101-23.258-26.921-35.441-10.82-12.183-20.532-22.406-30.244-32.629"/>
    <path stroke="#fff" stroke-linecap="round" stroke-linejoin="bevel" stroke-width="6.304" d="m8.513 184.366 8.313-11.928"/>
    <path fill="#fff" stroke="#fff" stroke-linecap="round" stroke-linejoin="bevel" stroke-width="4.561" d="M363.014 249.236c3.504 2.584 8.522 1.725 11.209-1.919 2.687-3.643 2.025-8.691-1.478-11.275-3.504-2.584-8.522-1.725-11.209 1.919-2.687 3.643-2.025 8.691 1.478 11.275Z"/>
    <path stroke="#fff" stroke-linecap="round" stroke-linejoin="bevel" stroke-width="5.17" d="M508.16 71.198c-.767-1.225-1.981-3.056-2.545-5.761-.565-2.705-.479-6.283 1.097-9.436 1.576-3.152 4.643-5.878 7.838-8.093 3.194-2.215 6.517-3.919 9.371-4.814 2.854-.894 5.239-.98 7.497-.681 2.258.298 4.387.98 6.73 2.172 2.343 1.193 4.899 2.897 6.731 4.9 1.831 2.001 2.939 4.301 3.62 6.644.682 2.343.938 4.729.682 6.73-.256 2.003-1.022 3.621-2.822 6.081-1.8 2.46-4.633 5.761-8.083 7.86-3.45 2.097-7.518 2.992-11.011 3.146-3.493.155-6.411-.43-9.265-1.602-2.854-1.172-5.644-2.929-7.199-4.116-1.555-1.188-1.874-1.805-2.641-3.03Z"/>
    <path stroke="#fff" stroke-linecap="round" stroke-linejoin="bevel" stroke-width="4.037" d="m512.643 74.756 6.325-5.692"/>
    <path stroke="#fff" stroke-linecap="round" stroke-linejoin="bevel" stroke-width="4.603" d="m506.95 56.594 7.591 1.807m3.795-11.838 2.44 4.247"/>
    <path stroke="#fff" stroke-linecap="round" stroke-linejoin="bevel" stroke-width="4.037" d="m528.547 42.226-.181 7.139"/>
    <path stroke="#fff" stroke-linecap="round" stroke-linejoin="bevel" stroke-width="4.603" d="m548.156 56.232-10.799.271"/>
    <path stroke="#fff" stroke-linecap="round" stroke-linejoin="bevel" stroke-width="4.037" d="m544.27 70.51-6.506-7.23m-7.591 5.693 2.621 9.85"/>
    <path stroke="#fff" stroke-linecap="round" stroke-linejoin="bevel" stroke-width="4.603" d="M523.155 63.141c-.241-.478-.723-1.434-.949-2.515-.226-1.08-.195-2.285.057-3.197a3.686 3.686 0 0 1 1.344-2.01 5.572 5.572 0 0 1 2.12-1.002c.741-.173 1.464-.173 2.191-.068.727.106 1.457.317 2.056.81.598.493 1.065 1.269 1.378 2.078.312.81.47 1.653.38 2.557-.09.904-.429 1.867-.994 2.568-.565.7-1.356 1.137-2.169 1.411a6.535 6.535 0 0 1-2.515.336c-.866-.053-1.762-.271-2.21-.38-.448-.11-.448-.11-.689-.588Z"/>
    <path stroke="#fff" stroke-linecap="round" stroke-linejoin="bevel" stroke-width="4.037" d="M531.659 29.701c.197-1.236.393-2.473 3.068-4.848 2.676-2.375 7.83-5.89 12.984-9.404"/>
    <path stroke="#fff" stroke-linecap="round" stroke-linejoin="bevel" stroke-width="4.603" d="M537.711 35.768c.245-1.363.49-2.726 1.348-4.015.857-1.288 2.326-2.502 5.095-4.75a5579.31 5579.31 0 0 1 10.905-8.806"/>
    <path stroke="#fff" stroke-linecap="round" stroke-linejoin="bevel" stroke-width="5.17" d="m560.682 21.615-19.807 16.709"/>
    <path stroke="#fff" stroke-linecap="round" stroke-linejoin="bevel" stroke-width="4.603" d="M546.663 44.674c.007-.86.018-1.72.213-2.406.196-.686.58-1.197 3.873-4.004 3.293-2.806 9.496-7.909 15.7-13.011m3.945 5.02-20.191 16.996m5.048 3.771 22.236-15.336m-13.866 22.619c.277-1.15.554-2.3 1.778-3.844 1.225-1.545 3.398-3.483 6.518-5.506 3.12-2.023 7.188-4.132 11.256-6.24M567.455 61.39c.959-1.363 1.917-2.726 3.088-3.834 1.172-1.107 2.556-1.96 5.591-3.386 3.035-1.427 7.721-3.43 12.407-5.431m-14.824 16.229c5.388-2.364 10.777-4.728 13.705-6.134 2.929-1.405 3.398-1.853 3.627-2.574.23-.72.222-1.715.213-2.71"/>
    <path stroke="#fff" stroke-linecap="round" stroke-linejoin="bevel" stroke-width="5.17" d="m533.02 40.735 1.988-4.292m26.664-15.115 6.198-6.901m.16.063c.362 1.044.724 2.088 2.226 4.111 1.502 2.024 4.143 5.027 6.858 7.806 2.716 2.78 5.506 5.335 7.274 6.624 1.767 1.289 2.513 1.31 3.258 1.331"/>
    <path stroke="#fff" stroke-linecap="round" stroke-linejoin="bevel" stroke-width="4.037" d="M568.094 13.915c.873 0 1.746 0 3.184.714 1.438.714 3.44 2.14 5.548 4.068 2.109 1.928 4.324 4.356 6.038 6.358 1.715 2.002 2.929 3.578 3.76 5.133.83 1.555 1.277 3.088 1.725 4.621"/>
    <path stroke="#fff" stroke-linecap="round" stroke-linejoin="bevel" stroke-width="4.603" d="m583.621 38.962 4.139-3.956"/>
    <path stroke="#fff" stroke-linecap="round" stroke-linejoin="bevel" stroke-width="3.59" d="M187.494 246.181c-5.153-3.851-10.307-7.702-13.79-10.766-3.484-3.063-5.297-5.338-5.774-7.264-.477-1.925.382-3.501 1.527-4.857 1.145-1.357 2.577-2.495 4.724-3.064 2.147-.569 5.01-.569 7.969.219 2.958.788 6.012 2.363 7.873 3.413 1.861 1.051 2.529 1.576 3.197 2.101"/>
    <path stroke="#fff" stroke-linecap="round" stroke-linejoin="bevel" stroke-width="3.96" d="M169.714 176.852c-1.613.537-4.839 1.612-7.442 2.98-2.603 1.369-4.583 3.032-5.499 5.215-.917 2.182-.77 4.885.44 6.894 1.209 2.01 3.482 3.327 5.92 4.002 2.438.676 5.041.711 7.626.295 2.584-.416 5.15-1.282 7.277-2.495 2.126-1.213 3.812-2.772 5.224-4.452 1.411-1.681 2.547-3.482 3.152-5.041.605-1.559.679-2.876.385-3.898-.293-1.022-.953-1.75-2.456-2.322-1.503-.571-3.849-.987-6.159-1.247-2.309-.26-4.582-.364-5.719-.416-1.136-.052-1.136-.052-2.749.485Z"/>
    <path stroke="#fff" stroke-linecap="round" stroke-linejoin="bevel" stroke-width="3.96" d="M157.608 194.597c-.783 1.509-2.347 4.528-3.26 7.323-.912 2.796-1.172 5.368-.308 7.572.864 2.204 2.853 4.04 5.121 4.638 2.269.597 4.816-.043 7.035-1.258 2.219-1.215 4.109-3.004 5.673-5.104 1.563-2.099 2.8-4.509 3.479-6.861.679-2.351.802-4.645.643-6.833-.16-2.189-.601-4.273-1.254-5.813-.653-1.539-1.518-2.534-2.441-3.063-.922-.528-1.903-.59-3.379.048-1.476.637-3.448 1.975-5.285 3.398-1.838 1.424-3.54 2.933-4.391 3.688-.851.755-.851.755-1.633 2.265Z"/>
    <path stroke="#fff" stroke-linecap="round" stroke-linejoin="bevel" stroke-width="3.96" d="M158.526 221.527c1.183 1.221 3.548 3.664 5.909 5.418 2.36 1.753 4.717 2.818 7.081 2.699 2.364-.119 4.737-1.422 6.024-3.383 1.288-1.96 1.491-4.579 1.044-7.069-.447-2.49-1.543-4.851-3.036-7.001-1.494-2.15-3.386-4.088-5.4-5.479-2.014-1.392-4.149-2.237-6.275-2.781-2.126-.545-4.242-.789-5.91-.659-1.667.13-2.885.634-3.68 1.341-.794.707-1.164 1.617-1.029 3.219.136 1.602.777 3.897 1.543 6.092.766 2.194 1.656 4.288 2.102 5.335.445 1.046.445 1.046 1.627 2.268Z"/>
    <path stroke="#fff" stroke-linecap="round" stroke-linejoin="bevel" stroke-width="4.053" d="M179.296 177.228c-2.089 2.199-3.302 3.168-4.784 3.82-1.481.653-3.231.988-4.623.876-1.392-.111-2.427-.671-3.052-1.677s-.839-2.46-.839-3.727c0-1.268.214-2.349.91-3.802.696-1.454 1.875-3.281 4.855-5.834 2.981-2.553 7.765-5.833 10.621-7.622 2.856-1.79 3.784-2.088 4.462-2.237.678-.149 1.107-.149 1.499.354.393.503.75 1.51.804 2.535.053 1.025-.197 2.069-.554 3.448-.357 1.379-.821 3.094-2.534 5.665-1.714 2.572-4.677 6.002-6.765 8.201Z"/>
    <path stroke="#fff" stroke-linecap="round" stroke-linejoin="bevel" stroke-width="3.745" d="M180.898 165.37c-1.871.075-3.923-.417-6.162-1.389-2.238-.973-4.664-2.423-6.713-4.024-2.049-1.601-3.722-3.349-5.107-5.001-1.385-1.652-2.481-3.208-3.065-4.641-.584-1.433-.655-2.743-.381-3.836.273-1.092.892-1.969 2.296-2.56 1.405-.592 3.597-.899 5.897-.767 2.3.132 4.709.703 7.202 1.608 2.493.905 5.069 2.145 7.162 3.586 2.092 1.441 3.701 3.083 4.746 4.739 1.044 1.656 1.524 3.325 1.326 5.148-.198 1.824-1.074 3.801-2.357 5.111-1.283 1.31-2.973 1.952-4.844 2.026Z"/>
    <path stroke="#fff" stroke-linecap="round" stroke-linejoin="bevel" stroke-width="3.559" d="M159.302 146.752c-.564-2.036-.745-5.08-.473-7.632.271-2.551.995-4.61 1.937-6.325.941-1.715 2.101-3.087 3.498-4.446 1.397-1.358 3.031-2.704 4.646-3.719 1.615-1.015 3.211-1.7 4.77-1.747 1.56-.047 3.083.544 4.132 1.574 1.05 1.029 1.627 2.497 1.988 4.063.36 1.566.503 3.231-.16 5.647-.664 2.416-2.135 5.584-3.828 8.057-1.693 2.472-3.607 4.251-5.296 5.544-1.689 1.294-3.153 2.103-4.166 2.476-1.013.373-1.577.309-2.266.336-.69.027-1.505.144-2.387-.311-.882-.455-1.831-1.482-2.395-3.517Z"/>
    <path stroke="#fff" stroke-linecap="round" stroke-linejoin="bevel" stroke-width="3.482" d="M189.591 120.184c1.073-.387 3.218-1.162 5.728-1.893 2.51-.732 5.385-1.421 7.964-1.249 2.578.173 4.86 1.206 6.617 2.389 1.757 1.184 2.989 2.518 3.583 3.788.593 1.27.547 2.475-.366 3.874-.912 1.399-2.692 2.991-4.837 4.476-2.145 1.485-4.655 2.863-7.416 3.767-2.761.904-5.773 1.334-8.261 1.442-2.487.107-4.449-.108-6.161-.84-1.711-.732-3.171-1.98-3.925-3.422-.753-1.442-.798-3.077-.502-4.648.297-1.571.936-3.078 2.077-4.283 1.141-1.205 2.784-2.109 3.605-2.561.822-.452.822-.452 1.894-.84Z"/>
    <path stroke="#fff" stroke-linecap="round" stroke-linejoin="bevel" stroke-width="3.482" d="M171.896 116.594a93.481 93.481 0 0 1 5.728-1.894c2.51-.732 5.385-1.421 7.964-1.248 2.578.172 4.86 1.205 6.617 2.388 1.757 1.184 2.989 2.518 3.583 3.788.593 1.27.547 2.475-.365 3.874-.913 1.399-2.693 2.992-4.838 4.477-2.145 1.485-4.655 2.862-7.416 3.766-2.761.904-5.773 1.334-8.26 1.442-2.488.107-4.45-.108-6.162-.84-1.711-.731-3.171-1.98-3.924-3.422-.753-1.441-.799-3.077-.502-4.648.296-1.571.935-3.078 2.076-4.283 1.141-1.205 2.784-2.109 3.606-2.561.821-.452.821-.452 1.893-.839Z"/>
    <path stroke="#fff" stroke-linecap="round" stroke-linejoin="bevel" stroke-width="3.492" d="M204.849 124.217c-.132-1.057-.395-3.17-.088-4.788.308-1.619 1.187-2.743 2.901-3.642 1.713-.899 4.262-1.574 6.701-1.596 2.439-.023 4.768.607 6.965 1.529 2.197.921 4.262 2.135 6.064 3.799 1.802 1.663 3.34 3.776 4.284 5.822.945 2.045 1.297 4.023.923 5.597-.373 1.573-1.472 2.742-3.252 3.349-1.779.607-4.24.652-6.987.157-2.746-.494-5.778-1.528-8.854-3.169-3.076-1.641-6.196-3.889-7.624-4.99-1.428-1.102-1.164-1.057-1.033-1.034.132.022.132.022 0-1.034Z"/>
    <path stroke="#fff" stroke-linecap="round" stroke-linejoin="bevel" stroke-width="4.733" d="M237.671 140.179c-1.687-.03-3.374-.06-5.015-.467-1.642-.407-3.238-1.19-4.774-2.38-1.537-1.189-3.013-2.786-3.931-4.427-.919-1.642-1.28-3.329-1.205-4.774.075-1.446.587-2.651 1.672-3.51 1.084-.858 2.741-1.37 5.617-1.566 2.877-.196 6.973-.075 9.88.301 2.906.377 4.623 1.009 5.843 1.657 1.22.648 1.943 1.31 2.199 2.349.256 1.04.045 2.455-.166 3.871"/>
    <path stroke="#fff" stroke-linecap="round" stroke-linejoin="bevel" stroke-width="3.155" d="M295.387 100.558c-2.897-2.3-5.793-4.6-8.179-6.858-2.385-2.258-4.259-4.473-5.197-6.517-.937-2.045-.937-3.92-.042-5.538.894-1.619 2.684-2.982 5.282-3.45 2.598-.469 6.006-.043 9.158 2.683 3.153 2.727 6.049 7.753 8.946 12.78"/>
    <path stroke="#fff" stroke-linecap="round" stroke-linejoin="bevel" stroke-width="3.155" d="M294.689 74.862c-.06 2.124-.933 3.81-2.56 4.91-1.626 1.1-4.006 1.611-6.19 1.732-2.184.12-4.171-.15-5.437-1.04-1.265-.888-1.807-2.394-1.731-3.93.075-1.537.768-3.103 1.701-4.534.934-1.43 2.109-2.725 3.133-3.66 1.024-.933 1.898-1.505 2.982-1.957 1.084-.452 2.379-.783 3.524-.557 1.145.226 2.139 1.009 3.012 2.68.874 1.672 1.627 4.233 1.566 6.356Z"/>
    <path stroke="#fff" stroke-linecap="round" stroke-linejoin="bevel" stroke-width="3.155" d="M283.332 65.831c-.106-.415-.319-1.246.309-2.247.629-1.001 2.098-2.173 4.1-3.195 2.002-1.022 4.537-1.895 6.901-2.598 2.364-.703 4.558-1.235 6.23-1.14 1.672.096 2.822.82 3.163 1.885.34 1.065-.128 2.47-1.012 3.674-.884 1.204-2.183 2.205-3.781 3.035-1.597.83-3.493 1.491-5.069 1.853-1.576.362-2.832.426-4.568.235-1.736-.192-3.951-.64-5.059-.863-1.107-.224-1.107-.224-1.214-.639Z"/>
    <path stroke="#fff" stroke-linecap="round" stroke-linejoin="bevel" stroke-width="3.155" d="M298.816 61.262c-.121-.753-.362-2.259.151-3.945.512-1.687 1.777-3.555 3.644-4.458 1.868-.904 4.337-.844 6.687-.512 2.349.331 4.578.933 6.265 1.656 1.687.723 2.831 1.567 3.464 2.62.632 1.055.753 2.32.843 3.525.091 1.205.151 2.35-.271 3.735-.422 1.386-1.325 3.012-3.373 3.825-2.049.814-5.241.814-8.314-.27-3.072-1.085-6.024-3.254-7.5-4.338s-1.476-1.085-1.596-1.838Zm22.492-1.533c.17-.383.511-1.15 1.288-1.661.778-.511 1.992-.767 3.909-.959 1.916-.191 4.536-.32 6.591-.245 2.056.075 3.547.352 4.675.778 1.129.426 1.896 1 2.482 1.8.585.798.99 1.82 1.022 2.8.03.98-.309 1.917-.969 2.876-.66.958-1.64 1.938-3.514 2.513-1.875.575-4.643.745-7.029.703-2.385-.043-4.387-.299-5.548-.618-1.161-.32-1.48-.703-1.81-1.32-.331-.618-.671-1.47-.884-2.556-.213-1.087-.298-2.407-.341-3.067-.043-.66-.043-.66.128-1.044Z"/>
    <path stroke="#fff" stroke-linecap="round" stroke-linejoin="bevel" stroke-width="3.155" d="M330.913 58.153c-.767-.874-2.3-2.62-3.408-4.58-1.107-1.959-1.789-4.132-1.938-6.07-.149-1.938.234-3.642 1.321-4.557 1.086-.916 2.875-1.044 4.877-.703 2.002.34 4.217 1.15 6.262 2.449 2.044 1.3 3.919 3.088 5.473 4.877 1.555 1.79 2.79 3.578 3.664 5.218.873 1.64 1.384 3.131 1.555 4.43.17 1.3 0 2.407-.576 3.366-.575.958-1.554 1.767-3.152 2.13-1.597.362-3.812.277-6.134-.746-2.321-1.022-4.749-2.982-5.963-3.961-1.214-.98-1.214-.98-1.981-1.853Z"/>
    <path stroke="#fff" stroke-linecap="round" stroke-linejoin="bevel" stroke-width="3.155" d="M323.842 41.114c-.043-.533-.128-1.598.724-2.96.852-1.364 2.641-3.025 4.324-4.133 1.682-1.107 3.258-1.661 5.324-2.044 2.066-.384 4.622-.597 6.816-.256 2.194.34 4.025 1.235 5.389 2.556 1.363 1.32 2.257 3.067 2.491 4.6.235 1.534-.191 2.854-1.235 4.09-1.044 1.235-2.705 2.385-4.728 3.045-2.024.66-4.409.831-7.071.724-2.663-.106-5.602-.49-7.646-1.384-2.045-.894-3.195-2.3-3.77-3.003-.575-.703-.575-.703-.618-1.235Z"/>
    <path stroke="#fff" stroke-linecap="round" stroke-linejoin="bevel" stroke-width="3.155" d="M340.86 38.75c-1.853-1.534-3.089-3.025-3.94-4.644-.852-1.618-1.321-3.365-.448-4.408.874-1.044 3.089-1.385 5.41-1.449 2.322-.064 4.75.15 7.05.682s4.473 1.384 6.027 2.407c1.555 1.022 2.492 2.215 2.854 3.748a6.512 6.512 0 0 1-.915 5.027c-1.065 1.618-2.982 2.981-4.665 3.492-1.682.512-3.131.17-5.09-.787-1.96-.959-4.43-2.535-6.283-4.069Z"/>
    <path stroke="#fff" stroke-linecap="round" stroke-linejoin="bevel" stroke-width="3.155" d="M354.938 45.097c-.128 0-.383 0-1.15-.575-.767-.575-2.045-1.725-2.641-2.854-.596-1.13-.511-2.237 0-3.089.511-.852 1.448-1.448 2.385-1.618.937-.17 1.875.085 2.918.32 1.044.233 2.194.446 3.088.83.895.383 1.534.937 1.96 1.832.426.894.639 2.13.298 3.28s-1.235 2.215-2.449 2.513c-1.214.298-2.748-.17-3.514-.405-.767-.234-.767-.234-.895-.234Z"/>
    <path stroke="#fff" stroke-linecap="round" stroke-linejoin="bevel" stroke-width="3.155" d="M361.583 51.742c-1.491-1.406-2.982-2.811-3.749-3.813-.766-1-.809-1.597-.788-2.492.023-.894.107-2.087.533-3.194.426-1.108 1.192-2.13 2.151-2.769.958-.639 2.108-.895 3.599-.682 1.491.213 3.323.895 4.856 1.555 1.534.66 2.769 1.3 3.834 2.13 1.065.83 1.96 1.853 2.748 2.918.788 1.065 1.469 2.172 1.853 3.216.383 1.044.468 2.023.234 2.94-.234.915-.788 1.767-1.47 2.512-.681.746-1.491 1.385-2.811 1.64-1.321.256-3.152.128-4.643-.149-1.491-.276-2.641-.703-3.642-1.363s-1.853-1.555-2.279-2.002l-.426-.447Z"/>
    <path stroke="#fff" stroke-linecap="round" stroke-linejoin="bevel" stroke-width="3.155" d="M376.023 49.676c.128-.021.384-.064 1.534-.128s3.195-.149 5.048-.277c1.853-.127 3.514-.298 4.813-.298s2.236.17 3.301.533c1.065.362 2.258.915 3.195 1.597.937.682 1.619 1.49 1.938 2.407.32.916.277 1.938-.404 2.662-.682.724-2.002 1.15-3.557 1.384-1.555.235-3.344.277-5.133.341-1.789.064-3.578.15-5.048.213-1.469.064-2.62.107-3.557.021-.937-.085-1.661-.298-2.343-.766-.681-.469-1.32-1.193-1.81-1.917s-.831-1.449-.49-2.407c.341-.958 1.363-2.151 1.874-2.747.512-.597.512-.597.639-.618Z"/>
    <path stroke="#fff" stroke-linecap="round" stroke-linejoin="bevel" stroke-width="3.155" d="M387.674 52.062c-.49-.576-1.47-1.726-2.109-3.089s-.937-2.939-.703-3.983c.235-1.043 1.001-1.554 2.237-1.767 1.235-.213 2.939-.128 4.749.298 1.811.426 3.727 1.192 5.389 2.321 1.661 1.13 3.067 2.62 3.876 4.11.809 1.492 1.022 2.983.895 4.26-.128 1.278-.597 2.343-1.577 2.961-.979.618-2.47.788-3.748.682-1.278-.107-2.343-.49-3.429-.938-1.086-.447-2.194-.958-3.046-1.682-.852-.724-1.448-1.661-1.746-2.13-.299-.468-.299-.468-.788-1.043Z"/>
    <path stroke="#fff" stroke-linecap="round" stroke-linejoin="bevel" stroke-width="3.155" d="M382.115 42.924c-1.576-1.405-4.729-4.217-6.496-6.432-1.768-2.215-2.151-3.834-2.088-5.197.064-1.363.575-2.47 2.45-2.662 1.874-.192 5.111.532 7.603 1.853 2.492 1.32 4.239 3.237 5.687 5.069 1.448 1.832 2.599 3.578 3.323 5.197.724 1.619 1.022 3.11.745 4.345-.277 1.235-1.129 2.215-2.79 2.15-1.661-.063-4.132-1.17-5.41-1.83-1.278-.66-1.363-.874-1.406-.98-.042-.107-.042-.107-1.618-1.513Z"/>
    <path stroke="#fff" stroke-linecap="round" stroke-linejoin="bevel" stroke-width="3.155" d="M377.387 31.913c-1.449-.533-4.345-1.598-6.688-3.067-2.343-1.47-4.132-3.344-5.325-5.325-1.192-1.98-1.789-4.068-1.725-5.708.064-1.64.788-2.832 2.258-3.471 1.469-.64 3.685-.725 6.304.404 2.62 1.13 5.644 3.472 7.519 5.261 1.874 1.79 2.598 3.024 3.194 4.324.597 1.299 1.065 2.662.874 4.046-.192 1.385-1.044 2.79-1.981 3.472-.937.682-1.96.639-2.471.618-.511-.021-.511-.021-1.959-.554Z"/>
    <path stroke="#fff" stroke-linecap="round" stroke-linejoin="bevel" stroke-width="3.155" d="M371.231 16.983c-2.194-1.193-2.918-2.386-3.386-3.664-.469-1.278-.682-2.64-.703-3.983-.023-1.341.149-2.662 1.448-3.855 1.3-1.192 3.727-2.257 6.816-2.981 3.088-.725 6.837-1.108 10.372-.831 3.536.277 6.858 1.214 9.18 2.385 2.321 1.172 3.642 2.577 4.196 4.41a6.713 6.713 0 0 1-1.087 5.984c-1.427 1.896-4.068 3.43-7.156 4.387-3.088.959-6.624 1.342-10.223.938-3.6-.405-7.263-1.598-9.457-2.79Z"/>
    <path stroke="#fff" stroke-linecap="round" stroke-linejoin="bevel" stroke-width="3.155" d="M404.606 16.003a19.095 19.095 0 0 1-7.625-3.919c-2.13-1.789-3.876-4.004-4.621-5.793-.746-1.79-.49-3.152.788-3.919 1.278-.767 3.578-.937 6.709-.405 3.131.533 7.092 1.768 10.138 3.344 3.046 1.576 5.175 3.493 6.56 4.92 1.384 1.427 2.023 2.364 1.555 3.43-.469 1.064-2.045 2.257-4.558 2.768-2.514.511-5.964.34-8.946-.426Z"/>
    <path stroke="#fff" stroke-linecap="round" stroke-linejoin="bevel" stroke-width="3.155" d="M404.883 20.603c-.023-.596-.064-1.789.597-3.216.66-1.427 2.023-3.088 3.194-4.366 1.172-1.278 2.151-2.173 3.365-2.577 1.215-.405 2.663-.32 3.962.02 1.299.342 2.449.938 3.237 1.811.788.873 1.214 2.024.98 3.28-.234 1.257-1.129 2.62-2.343 3.813-1.214 1.192-2.747 2.215-4.366 2.96-1.619.746-3.323 1.214-4.771.98-1.448-.234-2.641-1.171-3.237-1.64-.597-.469-.597-.469-.618-1.065Z"/>
    <path stroke="#fff" stroke-linecap="round" stroke-linejoin="bevel" stroke-width="3.155" d="M411.592 27.76c-.511-1.577-1.235-3.494-2.385-4.9-1.15-1.405-2.726-2.3-4.601-2.662-1.874-.362-4.046-.191-6.261.17-2.216.363-4.473.917-5.73 1.918-1.256 1-1.512 2.449-1.192 3.897.319 1.449 1.214 2.897 2.726 4.324s3.642 2.833 5.899 3.834c2.258 1 4.644 1.597 6.497 1.831 1.853.235 3.173.107 4.11-.681.937-.788 1.491-2.236 1.619-3.578.128-1.342-.171-2.578-.682-4.154Z"/>
    <path stroke="#fff" stroke-linecap="round" stroke-linejoin="bevel" stroke-width="3.155" d="M410.42 46.694c-1.128-1.086-3.386-3.259-5.09-5.41-1.704-2.151-2.854-4.28-3.046-6.091-.191-1.81.575-3.301 1.981-4.004 1.406-.703 3.451-.618 5.9-.043 2.449.575 5.303 1.64 7.689 3.173 2.385 1.534 4.302 3.536 5.793 5.602 1.491 2.066 2.556 4.196 3.024 6.22.469 2.023.341 3.94-.383 5.41-.724 1.469-2.045 2.491-3.855 2.597-1.811.107-4.111-.702-6.006-1.916-1.896-1.214-3.387-2.833-4.132-3.642-.746-.81-.746-.81-1.875-1.896Z"/>
    <path stroke="#fff" stroke-linecap="round" stroke-linejoin="bevel" stroke-width="3.155" d="m426.288 58.472-.682-.469c-2.47-1.192-4.941-2.385-6.432-3.684-1.491-1.3-2.002-2.705-1.278-3.6.725-.894 2.684-1.278 4.558-1.278 1.875 0 3.664.384 5.218.874 1.555.49 2.876 1.086 3.792 2.002.915.916 1.427 2.15 1.682 3.365.256 1.214.256 2.407-.362 3.259-.618.851-1.853 1.363-3.152 1.15-1.299-.213-2.662-1.15-3.344-1.619Z"/>
    <path stroke="#fff" stroke-linecap="round" stroke-linejoin="bevel" stroke-width="3.155" d="M430.867 50.635c-.489.553-1.469 1.66-2.023 2.96s-.681 2.79-.255 4.451c.426 1.662 1.405 3.493 2.981 4.367 1.577.873 3.749.788 5.602.234a10.914 10.914 0 0 0 4.43-2.599c1.044-1.022 1.597-2.044 1.661-3.045.064-1.001-.362-1.981-1.043-2.94-.682-.958-1.619-1.895-3.472-2.555-1.853-.66-4.622-1.044-6.006-1.236-1.385-.191-1.385-.191-1.875.363Z"/>
    <path stroke="#fff" stroke-linecap="round" stroke-linejoin="bevel" stroke-width="3.155" d="M443.561 61.454c-.575-.256-1.725-.767-2.619-1.512-.895-.746-1.534-1.725-1.832-2.684-.298-.958-.256-1.896-.043-3.152.213-1.257.597-2.833 1.385-4.217.788-1.385 1.98-2.577 3.45-3.557 1.47-.98 3.216-1.747 4.856-2.3 1.64-.554 3.174-.895 5.133-.916 1.96-.021 4.345.277 6.304.894 1.96.618 3.493 1.555 4.622 2.748 1.129 1.193 1.853 2.64 1.896 4.302.042 1.661-.597 3.536-2.301 5.453-1.703 1.916-4.472 3.876-8.029 4.75-3.557.872-7.902.66-10.074.553-2.173-.107-2.173-.107-2.748-.362Z"/>
    <path stroke="#fff" stroke-linecap="round" stroke-linejoin="bevel" stroke-width="3.155" d="M458.023 51.72c-.937-.788-2.812-2.364-3.578-4.089-.767-1.725-.426-3.6 1.469-4.984 1.896-1.384 5.346-2.279 8.946-2.705 3.599-.425 7.348-.383 9.946.405 2.599.788 4.047 2.322 4.494 4.132.447 1.81-.106 3.898-1.597 5.687-1.491 1.789-3.919 3.28-7.199 3.62-3.28.341-7.412-.468-9.478-.873-2.066-.404-2.066-.404-3.003-1.192Z"/>
    <path stroke="#fff" stroke-linecap="round" stroke-linejoin="bevel" stroke-width="3.155" d="M487.713 46.162c-.127.042-.383.128-2.236.277-1.853.149-5.303.362-7.391.127-2.087-.234-2.811-.915-3.024-1.789-.213-.873.085-1.938 1.022-2.747.938-.81 2.514-1.363 4.218-1.79 1.703-.425 3.535-.723 5.175-.468 1.64.256 3.088 1.065 3.45 2.215.363 1.15-.362 2.641-.724 3.387-.362.745-.362.745-.49.788Z"/>
    <path stroke="#fff" stroke-linecap="round" stroke-linejoin="bevel" stroke-width="3.155" d="M497.425 46.63c-2.854-.724-5.708-1.448-7.688-2.194-1.981-.745-3.089-1.512-3.621-2.47-.533-.959-.49-2.109 1.81-2.854 2.301-.746 6.858-1.087 11.416-1.427m94.898 36.62c.964-.723 1.928-1.446 3.735-1.446 1.808 0 4.458.723 6.205 1.596 1.747.874 2.59 1.898 2.801 3.103.211 1.205-.211 2.59-1.054 3.614-.843 1.024-2.108 1.687-3.675 1.868-1.566.18-3.433-.12-5.301-.422m8.494-8.073c-.843-1.385-.602-2.891.181-4.217.783-1.325 2.108-2.47 4.639-2.951 2.53-.482 6.265-.302 8.855.753 2.59 1.054 4.036 2.982 4.428 4.698.391 1.717-.271 3.223-1.777 4.428-1.507 1.205-3.856 2.109-5.934 2.26-2.079.15-3.886-.453-5.753-1.386-1.868-.934-3.795-2.2-4.639-3.585Z"/>
    <path stroke="#fff" stroke-linecap="round" stroke-linejoin="bevel" stroke-width="3.155" d="M623.758 85.69c-.843-.723-2.53-2.169-3.434-3.765-.903-1.596-1.024-3.343-.843-4.699.181-1.355.663-2.32 2.079-2.35 1.415-.03 3.765.874 5.632 1.688 1.868.813 3.253 1.536 4.217 2.53.964.994 1.506 2.259 1.446 3.494-.06 1.235-.723 2.44-1.657 3.162-.934.723-2.138.964-3.283.994-1.145.03-2.229-.15-2.771-.24-.542-.09-.542-.091-1.386-.814Z"/>
    <path stroke="#fff" stroke-linecap="round" stroke-linejoin="bevel" stroke-width="3.155" d="M627.222 96.594c-.271-.663-.813-1.988-.964-3.313-.151-1.326.091-2.65.332-3.886.241-1.235.482-2.38.873-3.373.392-.994.934-1.838 2.018-1.476 1.085.361 2.711 1.927 3.735 3.192 1.024 1.266 1.446 2.23 1.747 3.163.301.934.482 1.838.211 3.073-.271 1.234-.994 2.8-1.626 3.795-.633.994-1.175 1.415-1.958 1.566-.783.15-1.807.03-2.53-.361-.723-.392-1.145-1.055-1.356-1.386-.211-.331-.211-.331-.482-.994Z"/>
    <path stroke="#fff" stroke-linecap="round" stroke-linejoin="bevel" stroke-width="3.155" d="M627.373 105.389c.603-1.446 1.807-4.337 2.711-6.054.904-1.717 1.506-2.26 2.018-2.38.512-.12.934.18 1.295.542.362.362.663.784.874 1.507.211.722.331 1.746.301 3.192-.03 1.446-.211 3.313-.602 4.85-.392 1.536-.994 2.741-1.808 4.126-.813 1.386-1.837 2.952-2.68 3.675-.844.723-1.506.602-2.049.211-.542-.392-.963-1.054-1.054-2.47-.09-1.416.151-3.584.271-4.669.121-1.084.121-1.084.723-2.53Z"/>
    <path stroke="#fff" stroke-linecap="round" stroke-linejoin="bevel" stroke-width="3.155" d="M617.553 112.799c.543-.723 1.627-2.169 3.012-3.133 1.386-.963 3.073-1.445 4.88-1.476 1.807-.03 3.735.392 4.578 1.507.844 1.114.603 2.921.091 4.548-.512 1.626-1.295 3.072-2.41 4.187-1.114 1.114-2.56 1.897-3.976 2.319-1.416.421-2.801.482-3.916.331-1.114-.15-1.957-.512-2.379-1.807-.422-1.295-.422-3.524-.422-4.639 0-1.114 0-1.114.542-1.837Z"/>
    <path stroke="#fff" stroke-linecap="round" stroke-linejoin="bevel" stroke-width="3.155" d="M621.168 112.196c.181.663.542 1.988.361 3.585-.18 1.596-.903 3.464-2.53 4.699-1.626 1.235-4.156 1.837-6.867 2.048-2.711.211-5.603.03-7.711-.392-2.109-.421-3.434-1.084-4.157-1.958-.723-.873-.843-1.958-.15-3.464s2.199-3.433 4.398-4.698c2.198-1.265 5.09-1.868 7.951-1.838 2.862.031 5.693.693 7.109 1.024 1.416.332 1.415.332 1.596.994Z"/>
    <path stroke="#fff" stroke-linecap="round" stroke-linejoin="bevel" stroke-width="3.155" d="M590.114 125.751c-.031-1.386.331-3.374.994-4.97.662-1.597 1.626-2.802 3.012-3.314 1.385-.512 3.192-.331 5.21 0 2.019.332 4.248.814 5.543 1.597s1.656 1.867 1.265 3.343c-.392 1.476-1.536 3.344-3.253 4.699s-4.006 2.199-6.085 2.38c-2.078.18-3.945-.302-5.09-.934-1.145-.633-1.566-1.416-1.596-2.801Z"/>
    <path stroke="#fff" stroke-linecap="round" stroke-linejoin="bevel" stroke-width="3.155" d="M593.457 129.305c-1.084-1.506-2.41-2.41-3.916-2.379-1.506.03-3.193.994-4.608 2.59-1.416 1.596-2.56 3.825-2.801 5.873-.241 2.049.421 3.916 1.626 5.031 1.205 1.114 2.952 1.476 4.699 1.476 1.747 0 3.494-.362 4.789-1.567 1.295-1.205 2.139-3.253 2.139-5.331 0-2.078-.844-4.187-1.928-5.693Z"/>
    <path stroke="#fff" stroke-linecap="round" stroke-linejoin="bevel" stroke-width="3.155" d="M591.71 142.618c-.904-1.144-2.349-2.289-4.157-3.012-1.807-.722-3.976-1.024-5.723-.722-1.747.301-3.072 1.204-4.126 2.409-1.054 1.205-1.837 2.711-2.41 3.946-.572 1.235-.933 2.199-.602 3.374.331 1.174 1.355 2.56 2.681 3.403 1.325.844 2.951 1.145 4.729 1.175 1.777.03 3.704-.211 5.421-.964s3.223-2.018 4.157-3.133c.934-1.114 1.295-2.078 1.295-3.132 0-1.054-.361-2.199-1.265-3.344Z"/>
    <path stroke="#fff" stroke-linecap="round" stroke-linejoin="bevel" stroke-width="3.155" d="M595.174 148.01c-1.416-.392-4.247-1.175-6.024-1.295-1.777-.121-2.5.421-3.042 1.566-.543 1.145-.904 2.892-1.055 4.368-.15 1.475-.09 2.68.151 4.668s.662 4.759 2.229 6.687c1.566 1.928 4.277 3.012 6.536 3.102 2.259.091 4.066-.813 5.361-2.078 1.296-1.265 2.079-2.891 2.29-5.211.211-2.319-.151-5.331-1.085-7.349-.933-2.018-2.44-3.042-3.193-3.554-.753-.513-.752-.512-2.168-.904Z"/>
    <path stroke="#fff" stroke-linecap="round" stroke-linejoin="bevel" stroke-width="3.155" d="M602.132 158.281c-.242-.06-.723-.181-1.687-.301-.964-.121-2.41-.241-3.856-.031-1.445.211-2.891.754-3.825 2.26-.934 1.506-1.355 3.976-1.626 5.813-.271 1.837-.392 3.042-.241 4.638.151 1.597.572 3.585 1.717 5.272 1.144 1.686 3.012 3.072 4.759 3.765 1.747.692 3.373.692 4.729.12 1.355-.572 2.439-1.717 3.313-3.313.874-1.597 1.536-3.645 1.928-5.512.391-1.868.512-3.554-.362-5.633-.874-2.078-2.741-4.548-3.675-5.783-.933-1.235-.934-1.235-1.174-1.295Z"/>
    <path stroke="#fff" stroke-linecap="round" stroke-linejoin="bevel" stroke-width="3.155" d="M598.788 178.944c.031-.361.091-1.084-.271-1.807-.361-.723-1.144-1.446-2.319-1.958s-2.741-.813-4.548-.06c-1.807.753-3.856 2.56-5.181 4.066-1.325 1.506-1.928 2.711-1.898 3.856.031 1.144.693 2.229 2.139 2.801 1.446.572 3.675.632 5.693.12s3.825-1.596 4.849-2.801 1.265-2.53 1.386-3.193c.12-.662.12-.663.15-1.024Z"/>
    <path stroke="#fff" stroke-linecap="round" stroke-linejoin="bevel" stroke-width="3.155" d="M594.15 185.631c-.452-.362-1.356-1.085-2.591-1.416-1.234-.332-2.801-.271-3.945-.061-1.145.211-1.868.573-2.802 1.265-.933.693-2.078 1.717-3.132 2.862a25.39 25.39 0 0 0-2.862 3.765c-.843 1.356-1.566 2.801-1.716 4.277-.151 1.476.271 2.982 1.204 3.886.934.903 2.38 1.205 4.187 1.235 1.807.03 3.976-.211 6.085-.904 2.108-.693 4.156-1.837 5.451-3.102 1.296-1.265 1.838-2.651 2.109-4.127.271-1.476.271-3.042-.03-4.277-.302-1.235-.904-2.139-1.205-2.59-.301-.452-.301-.452-.753-.813Z"/>
    <path stroke="#fff" stroke-linecap="round" stroke-linejoin="bevel" stroke-width="3.155" d="M590.596 192.769c-.031-.632-.091-1.897.391-2.861.482-.964 1.506-1.627 2.47-2.048.964-.422 1.868-.603 3.283-.693 1.416-.091 3.344-.091 4.97.301a8.763 8.763 0 0 1 4.006 2.169 9.819 9.819 0 0 1 2.32 3.373c.482 1.175.662 2.319.451 3.585-.211 1.265-.813 2.65-2.349 3.403-1.536.753-4.006.874-5.934.633s-3.313-.844-4.367-1.326c-1.055-.482-1.777-.843-2.591-1.807-.813-.964-1.717-2.53-2.168-3.313-.452-.783-.452-.783-.482-1.416Z"/>
    <path stroke="#fff" stroke-linecap="round" stroke-linejoin="bevel" stroke-width="3.155" d="M607.433 194.155c-1.928-.03-3.223.421-4.277 1.385-1.055.964-1.868 2.44-2.064 3.404-.195.964.226 1.416 1.401 2.138a22.762 22.762 0 0 0 5.316 2.365c2.214.648 4.714.949 6.778.768 2.063-.181 3.689-.843 4.201-1.943.512-1.099-.09-2.635-.994-3.885-.903-1.25-2.108-2.214-3.991-2.952-1.882-.738-4.442-1.25-6.37-1.28Z"/>
    <path stroke="#fff" stroke-linecap="round" stroke-linejoin="bevel" stroke-width="3.155" d="M612.84 202.062c-.738.165-2.214.497-3.449 1.4-1.235.904-2.229 2.38-1.054 3.253 1.175.874 4.518 1.145 7.154 1.22 2.635.076 4.563-.045 5.497-.798.933-.753.873-2.138-.528-3.117-1.4-.979-4.141-1.551-5.512-1.838-1.37-.286-1.37-.286-2.108-.12Z"/>
    <path stroke="#fff" stroke-linecap="round" stroke-linejoin="bevel" stroke-width="3.155" d="M606.469 211.836c.994-1.506 2.289-2.922 3.66-3.826 1.37-.903 2.816-1.295 4.186-1.25 1.371.046 2.666.527 3.6 1.431.934.904 1.506 2.229 1.536 3.856.03 1.626-.482 3.554-1.596 5.497-1.115 1.942-2.832 3.9-4.79 4.789-1.957.888-4.156.708-5.692-.437-1.537-1.145-2.41-3.253-2.5-5.106-.091-1.852.602-3.448 1.596-4.954Z"/>
    <path stroke="#fff" stroke-linecap="round" stroke-linejoin="bevel" stroke-width="3.155" d="M592.9 221.158c.015-.075.045-.226 1.265-1.28s3.629-3.012 5.602-3.946c1.973-.934 3.509-.843 4.91-.542 1.401.301 2.666.813 3.554 1.37.889.557 1.401 1.16 1.672 2.079.271.918.301 2.153.03 3.629s-.843 3.193-2.259 4.609c-1.416 1.415-3.675 2.53-5.602 2.906-1.928.377-3.524.015-4.925-.798-1.401-.813-2.606-2.078-3.283-3.479-.678-1.4-.829-2.937-.904-3.705-.075-.768-.075-.768-.06-.843Z"/>
    <path stroke="#fff" stroke-linecap="round" stroke-linejoin="bevel" stroke-width="3.155" d="M581.68 235.134c.271-1.28.813-3.84 2.47-6.265 1.656-2.425 4.427-4.714 6.054-5.828 1.626-1.115 2.108-1.054 3.253-.648 1.145.407 2.952 1.16 4.081 2.41 1.13 1.25 1.582 2.997 1.13 4.563-.452 1.566-1.807 2.952-3.223 4.217-1.416 1.265-2.892 2.41-4.322 3.283-1.431.874-2.817 1.476-4.082 1.762-1.265.286-2.409.256-3.328-.165-.919-.422-1.612-1.235-1.958-1.642-.347-.406-.347-.407-.075-1.687Z"/>
    <path stroke="#fff" stroke-linecap="round" stroke-linejoin="bevel" stroke-width="3.155" d="M573.939 254.728c.12.06.361.18 1.536.316 1.175.135 3.283.286 5.527-.467s4.623-2.41 6.536-4.172c1.913-1.762 3.359-3.629 4.112-5.904.753-2.274.813-4.954.135-6.747-.678-1.792-2.093-2.695-3.585-3.343-1.49-.648-3.057-1.039-4.864-.753-1.807.286-3.855 1.25-5.708 2.862-1.852 1.611-3.509 3.87-4.864 5.993-1.356 2.124-2.41 4.112-2.184 6.115.226 2.003 1.732 4.021 2.485 5.03.753 1.009.753 1.009.874 1.07Z"/>
    <path stroke="#fff" stroke-linecap="round" stroke-linejoin="bevel" stroke-width="3.155" d="M569.391 265.345c-.091-.075-.271-.226-.919-.949s-1.762-2.018-1.867-4.156c-.106-2.139.798-5.121 2.274-7.485 1.476-2.365 3.524-4.112 5.376-4.97 1.853-.859 3.509-.829 4.835-.241a4.72 4.72 0 0 1 2.68 3.147c.362 1.416.091 3.103-.406 4.865a28.509 28.509 0 0 1-2.003 5.12c-.783 1.521-1.627 2.726-2.726 3.57-1.1.843-2.455 1.325-3.69 1.46-1.235.136-2.349-.075-2.907-.18-.557-.106-.557-.106-.647-.181Z"/>
    <path stroke="#fff" stroke-linecap="round" stroke-linejoin="bevel" stroke-width="3.155" d="M577.026 272.755c-.045-.076-.135-.226-.165-1.747-.031-1.521 0-4.413.21-6.747.211-2.335.603-4.112 1.431-5.377.828-1.265 2.094-2.018 3.434-2.169 1.34-.15 2.756.302 4.157 1.07 1.4.768 2.786 1.852 3.388 3.373.603 1.521.422 3.479-.075 5.256-.497 1.777-1.31 3.374-2.334 5.076-1.025 1.701-2.26 3.509-3.54 4.488-1.28.979-2.605 1.129-3.689.466-1.085-.662-1.928-2.138-2.35-2.876-.422-.738-.422-.738-.467-.813Z"/>
    <path stroke="#fff" stroke-linecap="round" stroke-linejoin="bevel" stroke-width="3.155" d="M588.502 280.526c-.587-.618-1.762-1.853-2.289-3.584-.527-1.732-.406-3.961-.03-5.814.376-1.852 1.009-3.328 1.626-4.171.618-.844 1.22-1.055 2.395-1.1 1.175-.045 2.922.075 5.587.286 2.666.211 6.25.512 8.314 1.582 2.063 1.069 2.605 2.906 2.68 4.563.076 1.657-.316 3.132-1.144 4.518-.828 1.386-2.094 2.681-3.871 3.735-1.777 1.054-4.066 1.867-6.265 1.928-2.199.06-4.307-.633-5.361-.979-1.054-.347-1.054-.347-1.642-.964Z"/>
    <path stroke="#fff" stroke-linecap="round" stroke-linejoin="bevel" stroke-width="3.155" d="M600.309 279.954c.015-.557.045-1.672.407-2.801.361-1.13 1.054-2.274 1.807-3.223.753-.949 1.566-1.702 2.35-2.079.783-.376 1.536-.376 3.177-.241 1.642.136 4.172.407 6.055 1.552 1.882 1.144 3.117 3.162 3.057 5.286-.061 2.123-1.416 4.352-3.404 5.708-1.988 1.355-4.608 1.837-6.732 1.747-2.123-.091-3.75-.753-4.789-1.747-1.039-.994-1.491-2.32-1.717-2.982-.226-.663-.226-.663-.211-1.22Z"/>
    <path stroke="#fff" stroke-linecap="round" stroke-linejoin="bevel" stroke-width="3.155" d="M618.262 281.761c-.708.437-.979.407-1.853.241-.873-.166-2.349-.467-3.419-1.235-1.069-.768-1.731-2.003-2.183-3.554-.452-1.552-.693-3.419-.588-5.136.106-1.717.558-3.283 1.356-4.834.798-1.552 1.943-3.088 3.147-3.991 1.205-.904 2.47-1.175 3.6-.543 1.129.633 2.123 2.169 2.786 4.052.663 1.882.994 4.111.964 6.295-.03 2.184-.422 4.322-1.19 5.843a7.24 7.24 0 0 1-2.62 2.862Z"/>
    <path stroke="#fff" stroke-linecap="round" stroke-linejoin="bevel" stroke-width="3.155" d="M623.638 275.421c-.06-.031-.181-.091-.648-.196-.467-.106-1.28-.256-1.912-1.024-.633-.768-1.085-2.154-.558-3.298.528-1.145 2.034-2.049 4.127-2.998 2.093-.948 4.774-1.942 7.395-2.53 2.62-.587 5.18-.768 6.732-.24 1.551.527 2.093 1.762 1.731 3.132-.361 1.371-1.626 2.877-3.388 3.916-1.762 1.039-4.021 1.611-6.341 2.078-2.319.467-4.698.828-5.888 1.009-1.19.181-1.19.181-1.25.151Z"/>
    <path stroke="#fff" stroke-linecap="round" stroke-linejoin="bevel" stroke-width="3.155" d="M644.557 271.038c-1.19.015-2.666-.497-3.585-1.054-.918-.557-1.28-1.16-1.355-2.078-.075-.919.136-2.154.617-3.133.482-.979 1.235-1.702 2.259-2.545 1.025-.843 2.32-1.807 4.067-2.485 1.747-.678 3.946-1.069 5.437-.633 1.491.437 2.274 1.702 2.153 3.058-.12 1.355-1.144 2.801-2.394 4.111-1.25 1.31-2.726 2.485-3.916 3.344-1.19.858-2.094 1.4-3.283 1.415Z"/>
    <path stroke="#fff" stroke-linecap="round" stroke-linejoin="bevel" stroke-width="3.155" d="M649.527 257.965c-1.16.829-2.063 2.154-2.003 3.841.06 1.687 1.084 3.735 2.906 5.647 1.823 1.913 4.443 3.69 6.717 4.323 2.275.632 4.202.12 5.015-1.491.814-1.612.513-4.322-.241-6.326-.753-2.003-1.957-3.298-3.433-4.427-1.476-1.13-3.223-2.094-4.805-2.41-1.581-.316-2.997.015-4.156.843Z"/>
    <path stroke="#fff" stroke-linecap="round" stroke-linejoin="bevel" stroke-width="3.155" d="M655.069 271.46c1.491-.829 2.545-1.039 3.539-.844.994.196 1.928.799 2.53 1.431.603.633.874 1.295.557 2.35-.316 1.054-1.219 2.499-2.485 3.93-1.265 1.431-2.891 2.847-4.322 3.75-1.431.904-2.666 1.295-3.825 1.115-1.16-.181-2.244-.934-2.455-2.365-.211-1.431.452-3.539 1.747-5.316 1.295-1.777 3.223-3.223 4.714-4.051Z"/>
    <path stroke="#fff" stroke-linecap="round" stroke-linejoin="bevel" stroke-width="3.155" d="M635.054 288.493c.06-.151.18-.452 1.43-1.867 1.25-1.416 3.63-3.946 6.175-5.783 2.545-1.838 5.256-2.982 6.928-2.787 1.671.196 2.304 1.732 2.394 3.178.091 1.446-.361 2.801-1.129 4.142-.768 1.34-1.853 2.665-3.494 4.006-1.642 1.34-3.841 2.696-5.889 3.208s-3.946.18-5-.618c-1.054-.798-1.265-2.063-1.37-2.696-.106-.632-.106-.632-.045-.783Z"/>
    <path stroke="#fff" stroke-linecap="round" stroke-linejoin="bevel" stroke-width="3.155" d="M644.783 286.339c-.874-.045-2.621-.135-3.825-.753-1.205-.617-1.868-1.762-2.064-3.177-.195-1.416.076-3.103 1.009-4.398.934-1.295 2.53-2.199 4.323-2.816 1.792-.618 3.78-.949 5.301-.844 1.521.106 2.575.648 3.087 1.491.512.844.482 1.988.226 3.043-.256 1.054-.738 2.018-1.702 3.192-.963 1.175-2.409 2.561-3.403 3.314-.994.753-1.536.873-1.807.933-.271.06-.271.06-1.145.015Zm-14.76 12.184c0-.06 0-.18.452-1.189.452-1.009 1.356-2.907 2.696-4.79 1.34-1.882 3.118-3.75 5.015-4.473 1.898-.722 3.916-.301 5.332.482 1.415.784 2.228 1.928 2.439 3.359.211 1.431-.18 3.148-.632 4.608-.452 1.461-.964 2.666-1.958 3.675s-2.47 1.822-4.774 1.521c-2.304-.301-5.437-1.717-7.003-2.425-1.567-.707-1.567-.708-1.567-.768Z"/>
    <path stroke="#fff" stroke-linecap="round" stroke-linejoin="bevel" stroke-width="3.155" d="M641.244 307.168c-.407-1.536-.256-3.705.481-5.407.738-1.702 2.064-2.936 4.202-3.403 2.139-.467 5.091-.166 7.094.421 2.003.588 3.057 1.461 3.132 2.546.075 1.084-.828 2.379-1.686 3.509-.859 1.129-1.672 2.093-3.479 3.012-1.808.918-4.609 1.792-6.491 1.777-1.883-.015-2.847-.919-3.253-2.455Z"/>
    <path stroke="#fff" stroke-linecap="round" stroke-linejoin="bevel" stroke-width="3.155" d="M633.728 311.325c.633-.814 1.898-2.44 3.434-3.524 1.536-1.085 3.344-1.627 5.121-2.29 1.777-.662 3.524-1.445 4.819-1.581 1.295-.136 2.139.376 2.485 1.13.346.753.196 1.746-.286 2.725-.482.979-1.295 1.943-2.199 2.877a20.401 20.401 0 0 1-3.193 2.726c-1.295.889-2.891 1.762-4.488 2.184-1.596.421-3.193.391-4.307.075-1.114-.316-1.747-.919-2.003-1.551-.256-.633-.136-1.296-.075-1.627.06-.331.06-.331.692-1.144Z"/>
    <path stroke="#fff" stroke-linecap="round" stroke-linejoin="bevel" stroke-width="3.155" d="M615.656 318.855c0-.061 0-.181.587-1.356.587-1.174 1.762-3.403 3.509-5.421 1.747-2.018 4.067-3.826 6.115-4.774 2.048-.949 3.825-1.04 5.708-.738 1.882.301 3.87.994 5.075 2.018 1.205 1.024 1.626 2.379 1.476 3.735-.151 1.355-.874 2.711-2.169 4.111-1.295 1.401-3.163 2.847-4.849 4.006-1.687 1.16-3.193 2.033-5 2.741-1.808.708-3.916 1.25-5.618 1.341-1.702.09-2.997-.271-3.735-1.28-.738-1.01-.918-2.666-1.009-3.494-.09-.829-.09-.829-.09-.889Z"/>
    <path stroke="#fff" stroke-linecap="round" stroke-linejoin="bevel" stroke-width="3.155" d="M614.496 322.951c1.19-.392 3.57-1.175 5.377-2.139 1.807-.964 3.042-2.108 3.931-3.433.888-1.326 1.43-2.832 1.536-4.172.105-1.341-.226-2.515-.859-3.404-.632-.888-1.566-1.491-2.982-1.822-1.415-.332-3.313-.392-5.391-.286-2.079.105-4.338.376-6.401.888-2.063.512-3.931 1.265-5.422 2.229-1.491.964-2.605 2.139-3.268 3.329-.662 1.189-.873 2.394-.828 3.614.045 1.22.346 2.455 1.34 3.419.994.964 2.681 1.656 4.759 1.973 2.079.316 4.549.256 5.784.226 1.235-.03 1.235-.03 2.424-.422Z"/>
    <path stroke="#fff" stroke-linecap="round" stroke-linejoin="bevel" stroke-width="3.155" d="M582.087 318.252c.135-.662.406-1.988 1.129-3.072s1.898-1.928 3.343-2.515c1.446-.587 3.163-.919 5.121-1.084a41.129 41.129 0 0 1 5.934-.045c1.777.12 3.132.361 4.036.948.904.588 1.355 1.522 1.265 2.757-.09 1.234-.723 2.771-1.476 4.126-.753 1.356-1.626 2.53-3.012 3.539-1.386 1.009-3.283 1.853-5.241 2.214-1.958.361-3.976.241-5.587 0-1.612-.241-2.817-.602-3.69-1.656-.874-1.055-1.416-2.802-1.687-3.675-.271-.874-.271-.874-.135-1.537Z"/>
    <path stroke="#fff" stroke-linecap="round" stroke-linejoin="bevel" stroke-width="3.155" d="M567.433 319.864c.241-1.551 1.596-3.6 3.765-4.925 2.168-1.325 5.15-1.928 7.44-1.943 2.289-.015 3.885.558 5.21 1.522 1.326.963 2.38 2.319 2.515 3.629.136 1.31-.647 2.575-1.762 3.509-1.114.934-2.56 1.536-4.352 2.003-1.792.467-3.931.798-5.874.753-1.942-.045-3.689-.467-5-1.205-1.31-.738-2.183-1.792-1.942-3.343Z"/>
    <path stroke="#fff" stroke-linecap="round" stroke-linejoin="bevel" stroke-width="3.155" d="M560.354 322.168c.452-.813 1.356-2.44 2.5-3.916a19.25 19.25 0 0 1 3.946-3.81c1.416-1.009 2.862-1.702 4.548-1.912 1.687-.211 3.615.06 4.865.737 1.25.678 1.822 1.763 2.048 2.922.226 1.16.105 2.395-.407 3.675-.512 1.28-1.415 2.605-2.936 3.825-1.521 1.22-3.66 2.335-5.618 2.892-1.958.557-3.735.557-5.045.301-1.31-.256-2.154-.768-2.801-1.461-.648-.693-1.1-1.566-1.326-2.003-.226-.437-.225-.437.226-1.25Z"/>
    <path stroke="#fff" stroke-linecap="round" stroke-linejoin="bevel" stroke-width="3.155" d="M550.626 319.397c.753-.512 2.259-1.536 4.111-1.898 1.852-.361 4.051-.06 5.663.452 1.611.512 2.635 1.235 3.238 2.214.602.979.783 2.214.316 3.614-.467 1.401-1.581 2.967-3.193 3.811-1.611.843-3.72.964-5.452.828-1.732-.136-3.087-.527-4.171-1.687-1.085-1.159-1.898-3.087-2.064-4.352-.165-1.265.317-1.868.558-2.169.24-.301.24-.301.994-.813Z"/>
    <path stroke="#fff" stroke-linecap="round" stroke-linejoin="bevel" stroke-width="3.155" d="M545.716 312.047c2.048 1.808 4.096 3.615 5.226 5.256 1.129 1.642 1.34 3.118.994 4.202-.346 1.085-1.25 1.777-2.305 2.064-1.054.286-2.259.165-3.885-.166-1.627-.331-3.675-.873-5.723-1.416"/>
    <path stroke="#fff" stroke-linecap="round" stroke-linejoin="bevel" stroke-width="4.668" d="M457.427 404.318c-.171.341-.341.682-.852 2.258-.511 1.576-1.363 4.388-2.279 7.071-.916 2.684-1.896 5.24-1.896 8.285 0 3.046.98 6.582 2.641 8.286 1.662 1.703 4.005 1.576 5.985.851 1.981-.724 3.6-2.044 4.984-3.855 1.385-1.81 2.535-4.11 3.323-6.751.788-2.641 1.214-5.623 1.256-8.371.043-2.747-.298-5.26-.617-7.412-.32-2.151-.618-3.94-.959-5.132-.341-1.193-.724-1.79-1.107-2.386"/>
    <path stroke="#fff" stroke-linecap="round" stroke-linejoin="bevel" stroke-width="4.668" d="M453.21 420.164c-1.193 1.449-2.386 2.897-3.6 5.261-1.214 2.364-2.449 5.644-3.237 8.754-.788 3.109-1.129 6.049-1.257 8.967-.128 2.917-.042 5.814.469 8.029s1.448 3.749 2.79 4.728c1.342.98 3.088 1.406 4.792 1.236 1.704-.171 3.365-.937 5.431-2.641s4.537-4.345 6.326-7.263c1.789-2.918 2.896-6.113 3.429-9.137.532-3.025.49-5.879.298-8.285-.192-2.407-.532-4.367-1.214-5.964-.682-1.597-1.704-2.833-3.152-3.727a9.55 9.55 0 0 0-5.24-1.385c-1.917.064-3.876.746-4.856 1.087l-.979.34Z"/>
    <path stroke="#fff" stroke-linecap="round" stroke-linejoin="bevel" stroke-width="4.668" d="M460.323 468.278c-2.343.873-5.239 1.043-7.539.468-2.301-.575-4.004-1.895-4.643-4.153-.639-2.258-.214-5.452 1.278-9.222 1.49-3.77 4.046-8.115 6.432-10.99 2.385-2.876 4.6-4.281 6.964-4.579 2.364-.299 4.878.511 6.646 1.639 1.767 1.129 2.79 2.578 3.066 5.155.278 2.577-.191 6.283-1.363 9.414-1.171 3.131-3.045 5.686-4.877 7.752-1.832 2.066-3.621 3.642-5.964 4.516Z"/>
    <path stroke="#fff" stroke-linecap="round" stroke-linejoin="bevel" stroke-width="4.668" d="M461.196 471.707c-1.64-1.619-2.193-3.706-2.108-6.07.085-2.364.809-5.005 2.172-6.922a8.74 8.74 0 0 1 5.453-3.514c2.087-.405 4.26-.023 6.645.703 2.385.724 4.984 1.789 6.666 3.088 1.683 1.299 2.45 2.833 2.301 4.771-.149 1.938-1.214 4.281-3.706 6.325-2.492 2.045-6.411 3.792-9.734 4.09-3.322.298-6.049-.852-7.689-2.471Z"/>
    <path stroke="#fff" stroke-linecap="round" stroke-linejoin="bevel" stroke-width="4.668" d="M468.821 476.883c.533-1.427 1.598-4.281 3.493-5.985 1.896-1.704 4.622-2.258 7.136-2.599 2.513-.34 4.813-.468 6.964.618 2.151 1.086 4.153 3.387 4.728 6.56.575 3.174-.277 7.22-1.256 9.712-.98 2.492-2.087 3.429-3.919 4.281-1.832.852-4.388 1.619-6.858 1.683-2.471.064-4.856-.575-6.603-1.725-1.746-1.15-2.854-2.812-3.45-4.75-.597-1.938-.682-4.153-.724-5.261-.043-1.107-.043-1.107.489-2.534Z"/>
    <path stroke="#fff" stroke-linecap="round" stroke-linejoin="bevel" stroke-width="4.668" d="M450.931 498.139c.362-.874.362-1.087 1.171-2.471.81-1.384 2.428-3.94 4.622-6.39 2.194-2.449 4.962-4.792 7.71-6.176 2.748-1.385 5.474-1.811 7.391-1.278 1.917.532 3.024 2.023 3.748 3.706.724 1.682 1.065 3.557.682 5.601-.384 2.045-1.491 4.26-2.854 6.134-1.363 1.875-2.982 3.408-4.814 4.942-1.831 1.533-3.876 3.067-6.112 4.217-2.237 1.15-4.665 1.917-6.816 1.981-2.151.063-4.025-.576-5.069-1.747-1.044-1.171-1.257-2.875-1.001-4.494.255-1.619.98-3.152 1.342-4.025Z"/>
    <path stroke="#fff" stroke-linecap="round" stroke-linejoin="bevel" stroke-width="4.668" d="M420.772 500.652c1.895-1.257 4.707-2.407 8.413-3.259 3.706-.852 8.306-1.405 12.033-1.469 3.727-.064 6.581.362 8.498 1.618 1.917 1.257 2.897 3.344 2.726 5.517-.17 2.172-1.49 4.43-3.471 6.432-1.981 2.002-4.622 3.748-7.945 4.984-3.322 1.235-7.326 1.959-10.606 2.108-3.28.149-5.836-.277-8.03-1.107-2.194-.831-4.025-2.066-4.877-3.941-.852-1.874-.724-4.387-.171-6.325.554-1.938 1.534-3.301 3.43-4.558Z"/>
    <path stroke="#fff" stroke-linecap="round" stroke-linejoin="bevel" stroke-width="4.668" d="M419.579 499.331c.107.831.32 2.492.085 3.962-.234 1.469-.916 2.747-1.831 3.557-.916.809-2.066 1.15-3.451 1.427-1.384.277-3.003.489-5.175.681-2.173.192-4.899.362-7.05-.213s-3.727-1.896-4.92-3.45c-1.193-1.555-2.002-3.344-2.215-5.559-.213-2.215.17-4.856 1.086-7.135s2.364-4.196 4.217-5.389c1.853-1.193 4.111-1.661 6.56-1.406 2.45.256 5.09 1.236 7.178 2.663 2.087 1.427 3.62 3.301 4.43 5.048.809 1.746.894 3.365.937 4.174.043.809.043.81.149 1.64Z"/>
    <path stroke="#fff" stroke-linecap="round" stroke-linejoin="bevel" stroke-width="4.668" d="M413.168 478.863c-.042 1.832-.127 5.495-.639 8.221-.511 2.727-1.448 4.516-3.045 6.198-1.598 1.683-3.855 3.259-6.198 3.898-2.343.639-4.771.341-6.688-.234-1.917-.575-3.322-1.427-4.515-2.663-1.193-1.235-2.173-2.854-2.833-4.685-.66-1.832-1.001-3.877-1.107-5.794a23.409 23.409 0 0 1 .341-5.495c.319-1.789.83-3.578 2.193-5.133 1.363-1.554 3.578-2.875 5.836-3.535 2.258-.66 4.558-.66 6.752-.192 2.194.469 4.281 1.406 5.921 2.748 1.64 1.342 2.832 3.088 3.429 3.961.596.874.596.874.553 2.705Zm-13.737-32.586c-.746 1.448-2.237 4.345-4.622 6.879-2.386 2.535-5.666 4.707-8.754 5.602-3.088.894-5.985.511-7.774-1.108-1.789-1.619-2.471-4.473-1.874-7.092.596-2.62 2.47-5.005 4.984-6.986 2.513-1.981 5.665-3.557 8.498-4.303 2.832-.745 5.346-.66 6.901-.362 1.554.299 2.151.81 2.555 1.832.405 1.022.618 2.556.724 3.323.107.766.107.766-.638 2.215Z"/>
    <path stroke="#fff" stroke-linecap="round" stroke-linejoin="bevel" stroke-width="4.668" d="M400.027 461.547c-.277 1.896-.831 5.687-1.491 7.732-.66 2.044-1.427 2.343-2.364 1.917-.937-.426-2.045-1.576-3.067-2.705-1.022-1.129-1.959-2.237-2.684-3.451a12.074 12.074 0 0 1-1.491-3.855c-.255-1.32-.255-2.641-.277-3.961-.022-1.321-.063-2.641.128-3.77a6.543 6.543 0 0 1 1.278-2.939c.66-.874 1.555-1.683 2.79-2.066 1.236-.384 2.812-.341 4.345.383 1.534.724 3.024 2.13 3.536 4.047.511 1.917.042 4.345-.192 5.559-.234 1.214-.234 1.214-.511 3.109Zm-22.342-30.009c.17 1.704.34 3.408.915 5.282s1.555 3.919 2.833 5.388c1.278 1.47 2.854 2.365 4.089 2.535 1.236.17 2.13-.383 3.046-1.299.916-.916 1.853-2.194 2.471-3.323.617-1.129.916-2.108 1.171-3.94.256-1.832.469-4.515.682-7.199"/>
  </g>
  <defs>
    <clipPath id="a">
      <path fill="#fff" d="M0 0h664.282v518.946H0z"/>
    </clipPath>
  </defs>
</svg>
