<svg xmlns="http://www.w3.org/2000/svg" width="473" height="643" fill="none" viewBox="0 0 473 643">
  <g clip-path="url(#a)">
    <path stroke="#fff" stroke-linecap="round" stroke-linejoin="bevel" stroke-width="8.183" d="M3.883 49.172c2.287 4.917 4.573 9.835 7.665 15.296 3.092 5.461 6.988 11.466 9.713 15.227 2.725 3.762 4.278 5.28 5.831 6.799"/>
    <path stroke="#fff" stroke-linecap="round" stroke-linejoin="bevel" stroke-width="8.183" d="M29.552 107.038c.981-1.826 1.963-3.652 2.033-6.373.07-2.72-.77-6.335-1.576-9.093-.807-2.757-1.58-4.656-2.47-5.857-.891-1.2-1.898-1.702-2.904-2.203M48.18 35.22c-2.669.172-5.337.344-8.818 1.185-3.48.84-7.773 2.35-11.286 3.945-3.512 1.594-6.243 3.275-8.918 4.592-2.676 1.317-5.295 2.271-7.912 2.82-2.616.55-5.23.696-7.845.841"/>
    <path stroke="#fff" stroke-linecap="round" stroke-linejoin="bevel" stroke-width="8.183" d="M100.952 9.842c-4.26.351-8.518.702-12.592 1.701-4.075.999-7.964 2.645-12.597 4.691-4.634 2.046-10.01 4.492-15.998 7.876-5.989 3.385-12.589 7.709-19.189 12.033m64.457-32.742c-.327.564-.654 1.128-2.152 1.563-1.498.435-4.167.742-7.402 1.194-3.236.451-7.038 1.048-10.71 2.318-3.672 1.27-7.213 3.216-9.622 4.939-2.408 1.723-3.684 3.223-4.96 4.724m55.9 44.393c-1.127-.788-2.253-1.576-2.889-3.344-.636-1.77-.781-4.518-1.326-7.74-.546-3.224-1.494-6.92-2.792-10.512-1.298-3.59-2.947-7.076-3.91-10.261-.964-3.186-1.243-6.07-1.712-8.66-.469-2.588-1.128-4.882-2.484-7.908-1.355-3.026-3.406-6.783-5.458-10.54"/>
    <path stroke="#fff" stroke-linecap="round" stroke-linejoin="bevel" stroke-width="8.183" d="M31.994 104.225c7.12-1.088 14.239-2.176 22.97-4.897 8.733-2.721 19.078-7.076 29.076-11.797 9.997-4.72 19.646-9.807 26.65-13.993 7.004-4.187 11.361-7.474 14.029-9.761 2.668-2.287 3.646-3.574 4.623-4.861M29.066 107.278l-6.438 6.359c-2.1 2.075-4.134 4.083-5.125 5.343-.99 1.26-.94 1.772-.312 2.571.628.799 1.834 1.884 3.523 3.201 1.69 1.317 3.862 2.866 5.796 3.861 1.933.995 3.628 1.437 5.322 1.878"/>
    <path stroke="#fff" stroke-linecap="round" stroke-linejoin="bevel" stroke-width="5.455" d="M130.313 58.84c-.11.323-.22.646.693 1.204.912.558 2.847 1.35 4.929 2.441 2.081 1.09 4.308 2.478 6.81 3.127 2.502.649 5.277.558 6.852.756 1.575.199 1.949.686 1.77 1.277-.179.592-.91 1.288-2.129 2.29-1.219 1.003-2.924 2.313-4.386 3.503-1.462 1.19-2.681 2.26-3.913 3.168-1.231.909-2.475 1.656-3.94 3.317-1.465 1.661-3.151 4.237-6.536 7.045s-8.469 5.848-18.484 11.283c-10.015 5.434-24.962 13.263-36.985 18.779-12.023 5.517-21.121 8.721-27.788 10.727-6.667 2.007-10.902 2.816-15.137 3.625"/>
    <path stroke="#fff" stroke-linecap="round" stroke-linejoin="bevel" stroke-width="5.455" d="M30.28 132.011c-.524 1.54-1.048 3.08-1.256 4.488-.21 1.409-.103 2.686.497 4.242s1.694 3.392 2.77 5.094c1.075 1.702 2.132 3.271 3.556 4.042 1.424.77 3.215.743 5.495.167 2.28-.577 5.05-1.703 10.693-3.935s14.16-5.571 26.997-11.274c12.837-5.703 29.993-13.77 43.228-20.594 13.234-6.825 22.546-12.406 28.15-15.972 5.603-3.566 7.499-5.117 8.48-6.644.981-1.528 1.047-3.032 1.086-4.69.039-1.657.05-3.466-.534-4.603-.585-1.137-1.761-1.602-3.636-1.89-1.875-.287-4.446-.398-6.312-.62-1.865-.22-3.025-.551-3.944-1.31-.92-.758-1.598-1.943-2.277-3.128"/>
    <path stroke="#fff" stroke-linecap="round" stroke-linejoin="bevel" stroke-width="5.455" d="M32.619 147.227c-.627 1.181-1.254 2.363-.412 3.392.843 1.029 3.154 1.905 6.545 2.519 3.39.613 7.86.964 13.29.944 5.428-.021 11.816-.413 19.318-2.428 7.502-2.014 16.119-5.652 27.534-10.903s25.628-12.114 35.792-17.588c10.163-5.474 16.277-9.558 19.865-12.432 3.587-2.874 4.648-4.538 5.237-6.07.588-1.532.705-2.933.849-4.481.144-1.548.316-3.244.97-4.372.653-1.127 1.788-1.686 2.429-2.908.64-1.222.787-3.107.215-4.336-.571-1.23-1.861-1.803-3.151-2.377"/>
    <path stroke="#fff" stroke-linecap="round" stroke-linejoin="bevel" stroke-width="8.183" d="M64.825 154.133c-.79 1.396-1.58 2.792-1.779 4.434-.198 1.643.194 3.531 1.101 5.032s2.328 2.614 3.894 4.159c1.567 1.545 3.279 3.523 5.44 7.092 2.16 3.57 4.768 8.732 8.29 16.364 3.524 7.633 7.96 17.736 11.197 25.879 3.237 8.143 5.274 14.325 6.443 19.087 1.17 4.762 1.473 8.105.488 17.084-.985 8.979-3.257 23.594-6.502 36.438-3.244 12.845-7.461 23.919-13.42 39.912-5.958 15.994-13.657 36.906-18.55 50.563-4.893 13.656-6.98 20.055-8.379 26.283-1.398 6.229-2.11 12.286-2.68 19.516-.569 7.231-.998 15.633-.77 24.552.228 8.92 1.113 18.354 2.46 27.024 1.348 8.67 3.159 16.575 5.76 24.997 2.602 8.422 5.996 17.36 9.864 25.83 3.868 8.47 8.21 16.471 13.374 24.437a191.375 191.375 0 0 0 18.08 23.631c6.931 7.734 14.805 15.272 21.222 21.01 6.417 5.738 11.377 9.675 16.313 13.086 4.937 3.412 9.849 6.298 16.86 9.628 7.012 3.33 16.121 7.103 22.962 9.678 6.841 2.575 11.412 3.95 16.201 5.017 4.789 1.066 9.796 1.824 13.067 2.338 3.271.514 4.806.783 6.341 1.052m-61.15-522.367c1.589.226 3.177.451 4.599 1.295 1.423.844 2.68 2.306 3.317 3.94.636 1.634.652 3.439 1.11 5.631.458 2.192 1.358 4.77 1.785 8.964.426 4.194.379 10.003 2.375 17.717 1.997 7.714 6.037 17.332 9.446 25.001 3.41 7.67 6.189 13.391 9.744 17.549 3.554 4.158 7.884 6.753 17.756 11.003 9.873 4.251 25.287 10.159 38.669 14.818 13.381 4.659 24.729 8.069 41.038 13.1 16.31 5.03 37.579 11.681 51.386 16.13 13.807 4.45 20.151 6.698 25.94 9.387 5.79 2.69 11.024 5.82 17.102 9.777 6.078 3.958 12.999 8.742 19.929 14.362 6.93 5.619 13.868 12.074 19.917 18.429 6.05 6.355 11.211 12.61 16.299 19.808 5.088 7.197 10.103 15.337 14.458 23.568 4.354 8.23 8.047 16.551 11.212 25.501a191.484 191.484 0 0 1 7.703 28.74c1.904 10.209 3.077 21.047 3.711 29.632.634 8.584.73 14.916.424 20.909-.307 5.992-1.015 11.645-2.651 19.233-1.636 7.587-4.2 17.109-6.331 24.1-2.131 6.992-3.829 11.454-6.114 16.003-2.285 4.55-5.158 9.187-7.268 12.381-2.111 3.194-3.461 4.944-4.81 6.695"/>
    <path stroke="#fff" stroke-linecap="round" stroke-linejoin="bevel" stroke-width="8.183" d="M49.304 154.523c.749.974 1.497 1.948 3.225 5.731 1.728 3.782 4.435 10.373 9.196 20.451 4.76 10.079 11.574 23.645 16.643 36.123 5.069 12.478 8.393 23.868 10.317 35.276 1.923 11.408 2.446 22.834.834 35.244s-5.359 25.804-9.105 39.198M59.23 154.649l-5.016 7.171m10.091-5.253-7.73 11.783m8.994-3.432-.233.685-4.91 8.542m7.017-7.443-6.009 10.65"/>
    <path stroke="#fff" stroke-linecap="round" stroke-linejoin="bevel" stroke-width="8.183" d="m65.647 189.38 6.137-12.993-.037-3.258m-4.741 18.145 7.23-13.958m-5.929 16.309 7.111-13.33m-1.478 26.51 5.205-19.228m2.38 3.386-6.782 15.447m3.487 9.108 6.66-14.247m-4.805 19.459 5.672-11.624m-3.203 18.955.347-.741 5.727-11.223m-4.444 16.432 6.2-13.736m-4.401 18.548 5.222-12.827m-4.031 14.377 5.162-12.37m-.808 10.511-.289.569-3.185 6.839m5.219-2.997-4.06 9.691m4.238-1.517-2.622 8.27m68.966-150.007c-.538 2.044-1.076 4.088-1.112 5.55-.036 1.461.43 2.339.45 3.505.019 1.165-.407 2.617-.317 4.335.091 1.719.698 3.702 1.341 6.242s1.32 5.635 1.998 8.73"/>
    <path stroke="#fff" stroke-linecap="round" stroke-linejoin="bevel" stroke-width="5.455" d="M70.694 167.808c2.832-1.964 5.663-3.928 9.999-5.73 4.335-1.802 10.175-3.443 16.912-5.383 6.737-1.94 14.37-4.179 23.042-7.878 8.672-3.7 18.381-8.86 24.519-12.594 6.138-3.734 8.705-6.043 11.272-8.351"/>
    <path stroke="#fff" stroke-linecap="round" stroke-linejoin="bevel" stroke-width="5.455" d="M103.692 154.98c7.909-3.609 15.818-7.218 24.495-11.679 8.676-4.462 18.12-9.776 27.563-15.09m-75.778 33.774c2.47 1.47 4.939 2.94 6.772 5.026 1.832 2.086 3.028 4.787 6.651 12.488 3.624 7.701 9.675 20.4 13.146 27.655 3.471 7.255 4.362 9.066 5.254 10.876m33.313-81.063c-.261 3.016-.522 6.032.479 10.827s3.264 11.369 6.891 19.555c3.627 8.185 8.618 17.982 13.609 27.779m-54.336 23.428c2.153.35 4.306.7 7.346.395 3.039-.305 6.965-1.264 14.22-4.735 7.256-3.471 17.84-9.454 23.768-12.961 5.929-3.506 7.201-4.535 8.474-5.565m-35.081-45.477 13.591 11.035m-3.394-13.235c.133.405.265.81 2.008 4.282 1.743 3.473 5.097 10.013 8.452 16.554m-17.881-10.133 21.828 25.513m-15.572-17.513 13.419 25.825m2.152-8.109 5.398 9.328M72.652 24.782c-.056.43-.113.862 1.96 3.434 2.072 2.572 6.272 7.286 10.087 13.398 3.815 6.112 7.245 13.623 9.144 18.026 1.899 4.403 2.268 5.698 2.638 6.994M85.13 19.848c3.098 4.383 6.196 8.767 8.714 13.336 2.518 4.568 4.455 9.322 5.337 12.681.882 3.36.708 5.325 1.033 7.348.324 2.023 1.146 4.102 1.969 6.182M94.484 23.3c4.153 8.027 8.307 16.054 11.492 23.752 3.186 7.698 5.404 15.066 7.622 22.435M98.31 18.797c-.003.54-.006 1.078 1.676 3.54 1.682 2.462 5.05 6.847 7.692 10.918 2.642 4.071 4.559 7.828 6.476 11.584M99.717 13.472a217.732 217.732 0 0 1 3.543 4.4 256.935 256.935 0 0 1 3.594 4.777"/>
    <path stroke="#fff" stroke-linecap="round" stroke-linejoin="bevel" stroke-width="8.183" d="M448.815 519.349a180.065 180.065 0 0 1-21.327 26.738c-15.744 16.285-34.425 29.457-53.748 41.276a526.592 526.592 0 0 1-35.119 19.677"/>
    <path stroke="#fff" stroke-linecap="round" stroke-linejoin="bevel" stroke-width="8.183" d="M207.56 637.516a138.028 138.028 0 0 0 32.663 1.423c22.617-1.706 44.449-8.958 65.488-17.428a561.786 561.786 0 0 0 36.267-16.111"/>
    <path stroke="#fff" stroke-linecap="round" stroke-linejoin="bevel" stroke-width="6.819" d="M120.296 428.837c-1.468-2.981-2.124-7.786-2.399-12.588-.275-4.803-.17-9.603-.061-14.974.11-5.372.223-11.315.067-17.031-.155-5.716-.579-11.205-.928-16.351-.349-5.146-.625-9.948-.246-15.737.378-5.789 1.411-12.565 3.009-18.384 1.598-5.82 3.761-10.683 6.647-15.238 2.885-4.554 6.493-8.799 9.863-11.598 3.37-2.799 6.503-4.151 10.089-4.967 3.587-.816 7.627-1.096 10.672-.506 3.044.59 5.092 2.051 6.792 4.538 1.699 2.487 3.049 6 3.664 11.3.615 5.3.495 12.386-.426 19.772-.922 7.386-2.646 15.071-4.802 24.964-2.157 9.894-4.746 21.993-7.517 32.759-2.772 10.765-5.725 20.196-8.925 26.234-3.199 6.039-6.645 8.685-9.931 10.303-3.287 1.618-6.415 2.208-9.118 1.925-2.704-.283-4.983-1.441-6.45-4.421Zm7.805-132.181c-.889-1.13-2.666-3.389-4.057-6.407-1.391-3.019-2.396-6.797-3.301-11.432-.905-4.635-1.71-10.126-1.679-15.079.03-4.953.896-9.367 2.137-13.017 1.242-3.65 2.86-6.536 4.395-8.336 1.535-1.801 2.987-2.516 4.758-2.295 1.77.22 3.858 1.376 5.868 2.951 2.01 1.574 3.941 3.567 5.79 6.455 1.849 2.888 3.616 6.671 4.848 10.813 1.232 4.141 1.928 8.641 2.151 12.662.223 4.021-.027 7.563-.849 11.102-.822 3.538-2.215 7.073-4.269 9.651-2.055 2.578-4.77 4.2-7.364 4.717-2.594.518-5.067-.069-6.303-.363-1.237-.293-1.237-.293-2.125-1.422Z"/>
    <path stroke="#fff" stroke-linecap="round" stroke-linejoin="bevel" stroke-width="6.819" d="M111.957 217.951c.496 7.008.991 14.015.165 25.703-.826 11.687-2.974 28.054-6.925 45.723-3.951 17.669-9.703 36.639-15.468 53.736-5.766 17.097-11.543 32.319-16.115 47.301-4.572 14.983-7.94 29.724-8.09 48.116-.152 18.392 2.913 40.432 6.813 56.84s8.634 27.181 14.019 37.539c5.384 10.359 11.42 20.302 20.5 30.645 9.081 10.343 21.206 21.086 33.101 30.329 11.895 9.242 23.558 16.984 37.133 22.171 13.574 5.187 29.057 7.819 45.016 8.191 15.958.373 32.389-1.515 49.826-6.016 17.436-4.501 35.875-11.615 57.559-22.068 21.683-10.453 46.609-24.244 65.899-38.299 19.289-14.056 32.941-28.373 42.561-43.745 9.62-15.372 15.207-31.796 18.059-46.353 2.852-14.556 2.968-27.242 2.689-37.646-.279-10.403-.953-18.523-3.027-28.232-2.074-9.71-5.548-21.008-10.448-32.602-4.901-11.594-11.229-23.482-17.055-33.291-5.827-9.809-11.151-17.538-18.056-25.486-6.904-7.949-15.388-16.116-24.528-23.012-9.14-6.895-18.935-12.518-32.235-18.315-13.3-5.797-30.103-11.768-45.426-16.948-15.323-5.181-29.164-9.572-45.648-14.988-16.484-5.417-35.608-11.859-50.588-17.114-14.979-5.255-25.813-9.322-32.684-13.346-6.872-4.023-9.781-8.004-12.69-11.984"/>
    <path stroke="#fff" stroke-linecap="round" stroke-linejoin="bevel" stroke-width="6.819" d="M65.89 437.817c2.938-3.773 5.876-7.545 10.309-14.405 4.433-6.86 10.362-16.805 16.247-25.875s11.727-17.264 15.833-22.039c4.106-4.776 6.477-6.133 8.848-7.49m46.664-4.742c1.449-.143 2.897-.287 5.902.608 3.004.895 7.565 2.828 13.792 6.219 6.228 3.391 14.123 8.24 22.846 14.771 8.723 6.531 18.274 14.743 29.663 21.481 11.389 6.738 24.615 12.001 34.387 15.261 9.772 3.261 16.089 4.519 22.637 5.283 6.549.764 13.329 1.035 21.032.092a78.677 78.677 0 0 0 25.421-7.579c9.096-4.478 18.663-11.277 28.118-18.496 9.456-7.219 18.799-14.858 25.817-22.206 7.017-7.349 11.709-14.406 15.677-21.583 3.969-7.177 7.214-14.472 8.133-21.287.918-6.814-.491-13.147-4.117-18.389-3.625-5.243-9.467-9.393-16.084-11.453-6.617-2.06-14.008-2.03-21.674-.82-7.666 1.211-15.605 3.6-25.075 6.933-9.47 3.333-20.469 7.608-27.969 12.82-7.499 5.212-11.5 11.36-14.814 17.55-3.315 6.19-5.944 12.422-7.999 18.087-2.054 5.664-3.533 10.76-5.626 16.539-2.093 5.778-4.8 12.239-8.646 18.121-3.846 5.882-8.832 11.185-13.503 14.814-4.67 3.629-9.026 5.583-13.381 7.538M150.061 529.701c-1.933 1.379-4.455 2.62-6.896 2.967s-4.799-.201-6.486-1.697c-1.686-1.496-2.7-3.941-2.912-6.495-.213-2.554.375-5.217 1.572-7.801 1.197-2.583 3.003-5.087 5.183-6.445 2.18-1.358 4.734-1.571 6.751-1.14 2.016.432 3.496 1.508 4.763 2.925 1.268 1.418 2.324 3.177 2.729 5.446.405 2.27.16 5.05-.635 7.197-.794 2.148-2.137 3.664-4.069 5.043Zm28.694-13.083c-1.855 1.151-5.171 1.359-6.901.739-1.73-.62-1.873-2.069-1.196-3.684.676-1.615 2.173-3.397 3.646-4.359 1.473-.963 2.921-1.106 4.1-.642 1.178.465 2.086 1.537 2.343 3.12.257 1.582-.137 3.676-1.992 4.826Zm-3.738 25.391c-1.28.582-3.839 1.748-5.38 1.319-1.54-.428-2.061-2.451-1.935-4.317.125-1.866.898-3.576 2.352-4.672 1.455-1.096 3.592-1.578 4.864-.922 1.272.655 1.68 2.448 1.766 3.973.086 1.524-.15 2.78-.268 3.408-.119.628-.119.628-1.399 1.211Zm151.408.759c.495-3.045 1.85-6.465 5.442-11.32s9.422-11.144 15.275-18.061c5.853-6.918 11.729-14.463 16.287-21.503 4.559-7.04 7.799-13.573 11.029-21.383 3.229-7.81 6.447-16.896 8.703-24.274 2.255-7.378 3.547-13.046 5.272-17.837 1.725-4.79 3.883-8.701 6.359-11.772 2.476-3.071 5.271-5.301 7.924-6.085 2.653-.784 5.164-.121 7.347 1.036 2.184 1.156 4.041 2.806 6.463 5.507 2.422 2.701 5.408 6.453 7.801 10.83 2.392 4.378 4.19 9.38 4.854 16.128.663 6.748.192 15.241-1.23 23.443-1.423 8.202-3.795 16.113-7.267 23.045-3.472 6.932-8.042 12.885-13.205 19.083-5.163 6.198-10.917 12.64-17.871 18.769-6.953 6.13-15.104 11.947-22.024 15.924-6.921 3.977-12.611 6.114-17.592 7.474-4.98 1.36-9.251 1.943-13.022 1.71-3.77-.232-7.04-1.281-8.858-3.14-1.817-1.859-2.182-4.529-1.687-7.574Zm1.899-64.035c-.782.147-2.346.443-3.593.368-1.248-.074-2.178-.518-2.889-1.141-.71-.624-1.201-1.427-1.348-2.352-.146-.925.051-1.971.352-2.998a20.21 20.21 0 0 1 1.152-2.965c.444-.931.925-1.785 1.701-2.475.776-.691 1.846-1.218 2.856-1.335a3.76 3.76 0 0 1 2.673.702c.711.528 1.182 1.293 1.558 2.2.375.907.654 1.957.829 2.939.175.982.246 1.897.068 2.934-.178 1.037-.604 2.197-1.075 2.88-.471.683-.987.889-1.244.992-.259.102-.259.102-1.04.251ZM283.828 584.56c-.215-.677-.644-2.032-.79-3.1-.146-1.068-.008-1.848.386-2.446.395-.597 1.045-1.012 1.932-1.236.887-.223 2.011-.254 2.875.199.864.453 1.468 1.39 1.643 2.42.175 1.03-.08 2.152-.648 3.073-.567.92-1.448 1.639-2.364 1.9-.916.261-1.867.064-2.343-.034s-.476-.098-.691-.776Z"/>
  </g>
  <defs>
    <clipPath id="a">
      <path fill="#fff" d="M0 0h472.441v642.731H0z"/>
    </clipPath>
  </defs>
</svg>
