<svg xmlns="http://www.w3.org/2000/svg" width="381" height="859" fill="none" viewBox="0 0 381 859">
  <g clip-path="url(#a)">
    <path stroke="#fff" stroke-linecap="round" stroke-linejoin="bevel" stroke-width="5.739" d="M178.989 3.38c-3.578 9.032-7.156 18.062-10.735 28.882-3.578 10.82-7.156 23.428-8.604 34.078-1.449 10.649-.767 19.338.511 26.75 1.278 7.412 3.152 13.546 6.134 18.147 2.982 4.6 7.071 7.667 9.542 9.882 2.47 2.215 3.322 3.579 4.345 6.56 1.022 2.982 2.215 7.583 3.407 12.183"/>
    <path stroke="#fff" stroke-linecap="round" stroke-linejoin="bevel" stroke-width="5.739" d="M95.669 161.842c7.497-4.089 14.994-8.179 21.469-12.098 6.475-3.918 11.927-7.667 16.357-12.523s7.838-10.82 8.69-17.891c.852-7.071-.852-15.25-1.874-22.747-1.023-7.497-1.363-14.312-.426-21.128.937-6.816 3.152-13.63 6.986-21.554 3.834-7.923 9.286-16.954 14.824-25.644 5.537-8.69 11.16-17.038 16.783-25.387"/>
    <path stroke="#fff" stroke-linecap="round" stroke-linejoin="bevel" stroke-width="5.739" d="M150.875 179.733c3.578-7.667 7.156-15.335 8.86-21.469 1.704-6.134 1.534-10.734.341-13.29-1.193-2.556-3.408-3.067-5.879-3.238-2.47-.17-5.196 0-7.411 1.278-2.216 1.278-3.919 3.664-9.031 6.816-5.112 3.152-13.631 7.071-21.214 9.116-7.582 2.044-14.227 2.215-20.872 2.385m80.253-98.144c2.726 3.067 5.452 6.134 7.667 10.735 2.215 4.6 3.919 10.734 5.623 16.868m1.534-59.806c-1.875 7.497-3.749 14.994-6.39 20.447-2.641 5.452-6.049 8.86-9.457 12.268m15.335 31.181-7.667 44.982"/>
    <path stroke="#fff" stroke-linecap="round" stroke-linejoin="bevel" stroke-width="5.739" d="M189.723 192.64c-.213-.086-.426-.171-.724-2.13-.298-1.96-.681-5.793-1.682-9.606-1.002-3.812-2.62-7.603-4.494-10.756-1.875-3.152-4.005-5.665-5.73-7.284-1.725-1.618-3.045-2.343-4.132-2.832-1.086-.49-1.938-.746-2.832-.81-.895-.064-1.832.064-2.833.448a8.552 8.552 0 0 0-2.939 1.895c-.874.873-1.555 1.981-2.45 3.45-.894 1.47-2.002 3.302-3.109 5.027a159.171 159.171 0 0 1-3.493 5.175c-1.278 1.832-2.726 3.877-4.941 6.134-2.216 2.258-5.197 4.729-9.351 7.796-4.153 3.067-9.477 6.73-14.802 10.393"/>
    <path stroke="#fff" stroke-linecap="round" stroke-linejoin="bevel" stroke-width="5.739" d="M155.092 188.934c2.385-1.321 4.771-2.641 6.453-4.196 1.683-1.555 2.663-3.344 3.685-4.814 1.022-1.469 2.087-2.619 3.323-3.365 1.235-.745 2.641-1.086 3.983-.873 1.341.213 2.619.98 3.791 2.684 1.171 1.704 2.236 4.345 2.896 7.625.661 3.28.916 7.198.703 10.478-.213 3.28-.894 5.921-1.895 8.733-1.001 2.811-2.322 5.793-3.515 8.477-1.192 2.683-2.257 5.069-2.896 7.454-.639 2.386-.852 4.771-1.001 6.858-.149 2.088-.235 3.877.362 5.623.596 1.747 1.874 3.451 2.96 4.92 1.086 1.47 1.981 2.705 2.641 4.366.661 1.662 1.086 3.749 1.129 6.028.043 2.279-.298 4.749-.703 6.411-.404 1.661-.873 2.513-1.704 3.663-.83 1.15-2.023 2.598-3.322 3.6-1.299 1.001-2.705 1.554-4.324 1.895-1.619.341-3.45.469-5.431.362-1.981-.106-4.111-.447-6.134-1.704-2.023-1.256-3.94-3.429-5.176-5.623-1.235-2.193-1.789-4.408-2.044-7.348-.256-2.939-.213-6.602.511-9.414.724-2.811 2.13-4.77 3.919-6.751 1.789-1.981 3.961-3.983 6.027-5.644 2.066-1.662 4.026-2.982 5.602-5.048 1.576-2.066 2.769-4.877 3.961-7.689"/>
    <path stroke="#fff" stroke-linecap="round" stroke-linejoin="bevel" stroke-width="5.739" d="M165.826 219.604c-1.533.681-3.067 1.363-5.303 2.215-2.237.852-5.176 1.874-7.732 3.067-2.555 1.193-4.728 2.556-6.666 4.238-1.938 1.683-3.642 3.685-5.048 5.453-1.405 1.768-2.513 3.301-3.322 4.685-.81 1.385-1.321 2.62-1.725 4.558-.405 1.939-.703 4.58-.661 7.391.043 2.811.426 5.793 1.108 9.052.681 3.259 1.661 6.794 3.301 9.755 1.64 2.96 3.94 5.346 6.347 7.177a27.16 27.16 0 0 0 7.305 3.962c2.386.852 4.644 1.278 7.753 1.065 3.11-.213 7.071-1.065 10.202-2.173 3.131-1.107 5.431-2.47 7.604-4.664 2.172-2.194 4.217-5.218 5.623-7.859 1.405-2.641 2.172-4.899 2.619-7.987.448-3.089.575-7.007.362-10.288-.212-3.28-.766-5.92-1.704-8.221-.937-2.3-2.257-4.259-3.514-6.262-1.256-2.002-2.449-4.046-3.045-5.857-.597-1.81-.597-3.386-.256-4.834a9.753 9.753 0 0 1 1.896-3.855c.873-1.087 1.938-1.939 3.152-3.195 1.214-1.257 2.577-2.918 3.557-4.601.979-1.682 1.576-3.386 2.172-5.09m-12.608-23.846c-4.097.964-8.193 1.928-12.055 2.899-3.863.971-7.49 1.95-11.349 3.057a267.905 267.905 0 0 0-12.591 3.918c-4.643 1.576-9.84 3.493-15.995 6.453-6.156 2.961-13.269 6.965-19.276 10.713-6.006 3.749-10.904 7.242-15.697 11.076-4.792 3.834-9.477 8.008-14.1 12.246-4.621 4.239-9.179 8.541-11.926 11.246-2.748 2.705-3.685 3.812-4.622 4.92m115.08-40.684c-.421.181-.843.361-3.283.693-2.44.331-6.897.813-13.193 2.229-6.295 1.415-14.427 3.765-21.506 6.506-7.078 2.741-13.102 5.873-19.548 9.729-6.446 3.855-13.313 8.434-16.777 10.964-3.464 2.53-3.524 3.012-3.585 3.494"/>
    <path stroke="#fff" stroke-linecap="round" stroke-linejoin="bevel" stroke-width="5.739" d="M115.796 233.189c-3.916 1.838-7.831 3.675-11.084 5.573-3.253 1.897-5.844 3.855-7.546 5.723-1.701 1.867-2.515 3.644-3.99 5.241-1.477 1.596-3.615 3.012-7.5 3.599-3.886.588-9.519.347-14.85.181-5.332-.166-10.362-.256-15.256.151-4.895.406-9.654 1.31-14.022 2.65a58.925 58.925 0 0 0-11.882 5.136c-3.54 2.018-6.642 4.277-9.383 7.123-2.74 2.847-5.12 6.28-6.958 10-1.837 3.72-3.132 7.726-3.87 10.814-.738 3.087-.919 5.256-1.115 8.509a537.06 537.06 0 0 0-.572 12.138c-.165 4.549-.286 9.308-.301 13.796-.015 4.488.075 8.705.166 12.5.09 3.795.18 7.169.602 9.473.422 2.304 1.175 3.539 1.928 4.774"/>
    <path stroke="#fff" stroke-linecap="round" stroke-linejoin="bevel" stroke-width="5.739" d="M21.639 315.419c-.572-2.5-1.145-5-1.521-7.575-.377-2.575-.557-5.226-.482-7.334.075-2.109.407-3.675 1.145-6.145.738-2.47 1.882-5.843 3.207-8.434 1.326-2.59 2.832-4.398 4.097-5.783 1.265-1.386 2.289-2.35 3.855-3.328 1.567-.979 3.675-1.973 6.19-3.073 2.515-1.099 5.437-2.304 9.292-3.193 3.856-.888 8.645-1.46 12.892-1.716s7.952-.196 11.325-.046c3.374.151 6.416.392 9.504.272 3.087-.121 6.22-.603 8.93-1.612 2.711-1.009 5-2.545 7.35-4.593 2.35-2.049 4.759-4.609 6.355-6.612 1.597-2.003 2.38-3.449 3.63-5.632 1.25-2.184 2.967-5.106 4.262-7.711 1.295-2.606 2.169-4.895 2.726-6.642.557-1.747.798-2.952 1.506-4.262.708-1.31 1.882-2.726 3.057-4.142"/>
    <path stroke="#fff" stroke-linecap="round" stroke-linejoin="bevel" stroke-width="5.739" d="M76.373 269.442c-.341.171-.682.341-2.663 1.427-1.98 1.087-5.601 3.089-8.732 5.943-3.131 2.854-5.772 6.56-9.99 13.801-4.216 7.242-10.01 18.019-14.099 27.135-4.09 9.115-6.475 16.57-8.881 23.96-2.407 7.391-4.835 14.718-6.858 22.194-2.024 7.475-3.642 15.1-4.068 23.769-.426 8.668.34 18.38.681 27.198.34 8.818.256 16.741.767 25.473.511 8.733 1.619 18.274 2.918 26.751 1.3 8.477 2.79 15.889 4.813 23.003 2.024 7.113 4.58 13.929 6.177 18.039 1.597 4.111 2.236 5.517 2.875 6.922"/>
    <path stroke="#fff" stroke-linecap="round" stroke-linejoin="bevel" stroke-width="5.739" d="M44.936 272.765c-2.28 3.238-4.558 6.475-7.263 10.852-2.705 4.377-5.836 9.893-8.179 14.259s-3.897 7.582-4.962 10.223c-1.065 2.641-1.64 4.707-2.577 7.295-.938 2.588-2.237 5.698-3.323 8.498-1.086 2.801-1.96 5.293-3.014 8.435-1.054 3.141-2.29 6.932-3.386 10.947-1.097 4.015-2.055 8.253-3.088 12.662-1.033 4.409-2.141 8.988-2.833 12.321-.692 3.334-.97 5.421-1.406 8.679-.437 3.259-1.033 7.689-1.438 11.747-.404 4.057-.617 7.742-.596 12.236.021 4.494.277 9.797.543 15.154.266 5.356.543 10.766 1.14 17.89.596 7.125 1.512 15.964 2.29 23.365.777 7.401 1.416 13.365 2.278 18.998.863 5.634 1.949 10.937 3.142 15.516 1.193 4.579 2.492 8.434 4.206 13.408 1.715 4.973 3.845 11.064 6.837 17.188 2.993 6.123 6.848 12.278 10.703 18.434"/>
    <path stroke="#fff" stroke-linecap="round" stroke-linejoin="bevel" stroke-width="5.739" d="M33.307 495.378c1.192 1.278 2.385 2.556 3.28 4.217.894 1.661 1.49 3.706 1.916 6.347.426 2.641.682 5.878.938 8.69.255 2.811.51 5.197.213 7.327-.299 2.129-1.15 4.004-2.003 6.197-.851 2.194-1.703 4.707-2.3 9.606-.596 4.899-.937 12.183-.766 19.041.17 6.858.852 13.29 2.257 20.425 1.406 7.136 3.536 14.973 5.815 20.979 2.279 6.007 4.707 10.181 7.667 14.058 2.96 3.876 6.454 7.454 10.607 10.372s8.967 5.175 13.29 6.666c4.324 1.491 8.158 2.215 12.31 2.194 4.154-.023 8.627-.788 12.716-1.853 4.089-1.065 7.795-2.428 11.501-3.791"/>
    <path stroke="#fff" stroke-linecap="round" stroke-linejoin="bevel" stroke-width="5.739" d="M95.669 613.585c-4.217-.128-8.434-.256-13.46-1.385-5.027-1.128-10.863-3.258-15.101-5.942-4.239-2.683-6.88-5.921-8.413-8.626-1.534-2.705-1.96-4.877-2.96-9.818-1.002-4.942-2.578-12.652-3.217-19.233-.639-6.581-.34-12.034.49-16.868.83-4.835 2.194-9.052 3.28-13.908 1.086-4.857 1.896-10.351 1.768-17.082-.128-6.73-1.193-14.696-3.387-21.554-2.194-6.858-5.516-12.609-9.01-16.57-3.492-3.962-7.155-6.134-10.5-8.903-3.343-2.769-6.367-6.134-9.392-9.499"/>
    <path stroke="#fff" stroke-linecap="round" stroke-linejoin="bevel" stroke-width="5.739" d="M54.35 580.723c3.735 3.494 7.47 6.988 13.374 12.048 5.903 5.06 13.976 11.687 21.626 17.109 7.651 5.421 14.88 9.638 20.964 13.192 6.085 3.555 11.025 6.446 17.892 9.91 6.868 3.464 15.663 7.5 24.674 10.847 9.011 3.346 18.238 6.002 27.465 8.659m-6.903-22.808c-7.107-2.163-14.214-4.325-23.882-8.057-9.668-3.732-21.896-9.033-33.824-16.473-11.928-7.44-23.555-17.018-33.826-26.747s-19.187-19.608-28.102-29.488"/>
    <path stroke="#fff" stroke-linecap="round" stroke-linejoin="bevel" stroke-width="5.739" d="M149.815 621.712c-4.532-2.82-9.065-5.639-12.054-8.284-2.989-2.645-4.434-5.115-5.519-8.368-1.084-3.253-1.807-7.289-2.078-11.355-.271-4.067-.09-8.163.542-11.627.633-3.464 1.717-6.295 4.217-9.367 2.5-3.073 6.416-6.386 10.332-8.494 3.915-2.109 7.831-3.013 11.807-2.982 3.976.03 8.012.994 10.873 2.379 2.862 1.386 4.549 3.193 5.874 6.054 1.325 2.862 2.289 6.778 2.169 10.663-.121 3.886-1.326 7.741-3.314 10.693s-4.759 5-7.62 6.265c-2.862 1.265-5.814 1.747-8.012.693-2.199-1.054-3.645-3.645-5.091-6.235"/>
    <path stroke="#fff" stroke-linecap="round" stroke-linejoin="bevel" stroke-width="5.739" d="M178.279 607.019c-3.9 1.415-7.8 2.83-12.039 3.297-4.239.467-8.817-.015-12.642-1.611-3.826-1.597-6.898-4.308-8.796-7.892-1.897-3.584-2.62-8.042-2.56-11.837.06-3.796.904-6.928 3.103-9.76 2.199-2.831 5.753-5.361 9.187-6.204 3.433-.844 6.747 0 9.186 1.656a10.783 10.783 0 0 1 4.549 6.868c.542 2.741.06 5.753-.934 8.042-.994 2.289-2.5 3.855-5 4.337-2.5.482-5.994-.12-9.488-.723"/>
    <path stroke="#fff" stroke-linecap="round" stroke-linejoin="bevel" stroke-width="5.141" d="M185.97 543.489c-.074.063-.148.125-1.663 2.383-1.516 2.257-4.473 6.71-6.217 10.427-1.743 3.717-2.272 6.697-2.044 9.127.227 2.43 1.21 4.309 2.256 5.9 1.045 1.59 2.152 2.893 3.403 4.702 1.252 1.808 2.648 4.122 3.362 6.987.714 2.864.746 6.277-.054 9.498-.8 3.222-2.432 6.25-4.084 10.563-1.653 4.313-3.326 9.911-4.35 13.96-1.023 4.05-1.396 6.551-1.601 8.65a44.213 44.213 0 0 0-.216 5.243c.026 1.447.119 2.645 1.417 5.37 1.297 2.725 3.799 6.978 4.807 10.802 1.009 3.825.523 7.222-1.248 9.446-1.772 2.223-4.831 3.273-8.282 4.168-3.451.895-7.294 1.636-11.738 1.461-4.444-.174-9.488-1.264-13.735-3.156-4.248-1.893-7.697-4.587-9.229-8.202-1.532-3.615-1.147-8.15-.763-12.685m58.433-94.325c.074.063.148.125 1.663 2.383 1.516 2.257 4.473 6.71 6.217 10.427 1.743 3.716 2.272 6.697 2.044 9.127-.227 2.43-1.21 4.309-2.256 5.899-1.045 1.591-2.152 2.894-3.403 4.703-1.252 1.808-2.648 4.122-3.362 6.986s-.746 6.278.054 9.499c.8 3.222 2.432 6.25 4.084 10.563 1.653 4.313 3.326 9.91 4.35 13.96 1.023 4.05 1.396 6.551 1.601 8.65.206 2.099.243 3.796.216 5.243-.026 1.447-.119 2.645-1.417 5.37-1.297 2.725-3.799 6.977-4.807 10.802-1.008 3.825-.523 7.222 1.248 9.446 1.772 2.223 4.831 3.273 8.282 4.168 3.451.895 7.294 1.636 11.738 1.461 4.444-.175 9.488-1.264 13.736-3.157 4.247-1.892 7.696-4.586 9.228-8.201s1.148-8.15.763-12.685"/>
    <path stroke="#fff" stroke-linecap="round" stroke-linejoin="bevel" stroke-width="4.965" d="M189.879 620.261c-1.509-.501-3.017-1.001-4.256-1.902-1.24-.901-2.211-2.202-2.763-3.886-.552-1.684-.685-3.752-.019-6.036.667-2.285 2.133-4.787 3.312-8.562 1.179-3.776 2.071-8.824 1.581-13.209-.489-4.385-2.36-8.106-4.245-11.055-1.886-2.948-3.786-5.123-4.751-7.612-.966-2.488-.997-5.289.379-9.466 1.377-4.176 4.161-9.728 6.945-15.28m4.696 77.032c1.508-.501 3.017-1.001 4.256-1.902 1.24-.901 2.211-2.202 2.763-3.886.552-1.684.685-3.751.019-6.036-.667-2.285-2.133-4.787-3.312-8.562-1.179-3.776-2.071-8.824-1.582-13.209.49-4.385 2.361-8.106 4.246-11.054 1.886-2.949 3.785-5.124 4.751-7.612.966-2.489.997-5.29-.431-9.4-1.428-4.111-4.315-9.53-7.202-14.949"/>
    <path stroke="#fff" stroke-linecap="round" stroke-linejoin="bevel" stroke-width="5.739" d="M131.158 603.855c-1.205.362-2.41.723-3.464 1.476-1.054.753-1.958 1.898-2.861 3.043m-9.037 18.976c-1.205 2.168-2.409 4.337-2.771 8.433-.361 4.097.121 10.121 1.627 15.663 1.506 5.543 4.036 10.603 7.048 14.88 3.012 4.277 6.506 7.771 11.566 9.518 5.061 1.747 11.687 1.747 18.976 1.084 7.29-.662 15.241-1.988 21.205-4.578 5.964-2.591 9.94-6.446 12.32-8.592 2.379-2.146 3.162-2.582 3.945-3.018m-38.326 17.89c2.386 5.112 4.771 10.224 6.731 15.335 1.959 5.112 3.493 10.224 5.026 18.147 1.534 7.923 3.067 18.657 4.175 29.264 1.107 10.607 1.789 21.086 2.087 32.544.298 11.459.213 23.897-.724 31.65-.938 7.753-2.727 10.819-4.601 13.503-1.874 2.684-3.834 4.984-4.856 7.455-1.022 2.47-1.107 5.111-.937 7.625.17 2.513.596 4.898 1.32 7.241.725 2.343 1.747 4.643 3.962 6.688 2.215 2.044 5.623 3.833 10.053 5.069 4.43 1.235 9.883 1.917 15.335 2.598M201.37 3.517c3.578 9.03 7.156 18.061 10.734 28.881 3.578 10.82 7.156 23.428 8.605 34.078 1.448 10.65.766 19.339-.512 26.75-1.277 7.413-3.152 13.547-6.134 18.147-2.981 4.601-7.071 7.668-9.541 9.883-2.471 2.215-3.323 3.578-4.345 6.56-1.023 2.981-2.215 7.582-3.408 12.182"/>
    <path stroke="#fff" stroke-linecap="round" stroke-linejoin="bevel" stroke-width="5.739" d="M284.689 161.978c-7.497-4.089-14.994-8.178-21.469-12.097-6.474-3.919-11.927-7.668-16.357-12.524-4.43-4.856-7.838-10.819-8.69-17.891-.852-7.071.852-15.249 1.875-22.746 1.022-7.498 1.363-14.313.426-21.129-.938-6.815-3.153-13.63-6.986-21.554-3.834-7.923-9.286-16.953-14.824-25.643-5.538-8.69-11.161-17.04-16.783-25.388"/>
    <path stroke="#fff" stroke-linecap="round" stroke-linejoin="bevel" stroke-width="5.739" d="M229.484 179.869c-3.579-7.667-7.157-15.335-8.861-21.469-1.704-6.134-1.533-10.734-.34-13.29 1.192-2.556 3.407-3.067 5.878-3.237 2.471-.171 5.197 0 7.412 1.278 2.215 1.277 3.919 3.663 9.031 6.815 5.111 3.152 13.631 7.071 21.213 9.116 7.582 2.045 14.227 2.215 20.872 2.385m-80.252-98.144c-2.727 3.067-5.453 6.134-7.668 10.735-2.215 4.6-3.919 10.734-5.623 16.868m-1.533-59.806c1.874 7.497 3.748 14.994 6.389 20.447 2.642 5.452 6.049 8.86 9.457 12.268m-15.335 31.181 7.668 44.982"/>
    <path stroke="#fff" stroke-linecap="round" stroke-linejoin="bevel" stroke-width="5.739" d="M190.635 192.776c.213-.085.426-.17.724-2.13.298-1.959.682-5.793 1.683-9.606 1.001-3.812 2.62-7.603 4.494-10.755 1.874-3.153 4.004-5.666 5.729-7.284 1.725-1.619 3.046-2.343 4.132-2.833 1.086-.49 1.938-.746 2.833-.81.894-.063 1.831.064 2.833.448a8.561 8.561 0 0 1 2.939 1.895c.873.874 1.555 1.981 2.449 3.451.895 1.469 2.002 3.301 3.11 5.026a158.656 158.656 0 0 0 3.493 5.176c1.278 1.831 2.726 3.876 4.941 6.134 2.215 2.257 5.197 4.728 9.35 7.795s9.478 6.73 14.802 10.394"/>
    <path stroke="#fff" stroke-linecap="round" stroke-linejoin="bevel" stroke-width="5.739" d="M225.266 189.07c-2.385-1.321-4.77-2.641-6.453-4.196-1.683-1.555-2.662-3.344-3.685-4.813-1.022-1.47-2.087-2.62-3.322-3.365-1.236-.746-2.641-1.087-3.983-.874-1.342.213-2.62.98-3.791 2.684-1.172 1.704-2.237 4.345-2.897 7.625-.66 3.28-.916 7.199-.703 10.479.213 3.28.895 5.921 1.896 8.732 1.001 2.812 2.321 5.793 3.514 8.477 1.193 2.684 2.258 5.069 2.897 7.454.639 2.386.852 4.771 1.001 6.859.149 2.087.234 3.876-.362 5.622-.597 1.747-1.875 3.451-2.961 4.92-1.086 1.47-1.981 2.705-2.641 4.367-.66 1.661-1.086 3.748-1.129 6.027-.042 2.279.299 4.75.703 6.411.405 1.661.873 2.513 1.704 3.663s2.023 2.599 3.323 3.6c1.299 1.001 2.705 1.555 4.323 1.895 1.619.341 3.451.469 5.431.362 1.981-.106 4.111-.447 6.134-1.704 2.024-1.256 3.941-3.429 5.176-5.622 1.235-2.194 1.789-4.409 2.045-7.348.255-2.94.213-6.603-.512-9.414-.724-2.812-2.129-4.771-3.919-6.752-1.789-1.981-3.961-3.983-6.027-5.644-2.066-1.661-4.025-2.982-5.602-5.048-1.576-2.066-2.768-4.877-3.961-7.689"/>
    <path stroke="#fff" stroke-linecap="round" stroke-linejoin="bevel" stroke-width="5.739" d="M214.532 219.74c1.534.682 3.067 1.363 5.304 2.215 2.236.852 5.175 1.874 7.731 3.067s4.728 2.556 6.666 4.239c1.939 1.682 3.642 3.684 5.048 5.452 1.406 1.768 2.513 3.301 3.323 4.686.809 1.384 1.32 2.619 1.725 4.558.405 1.938.703 4.579.66 7.39-.042 2.812-.426 5.793-1.107 9.052-.682 3.259-1.662 6.794-3.302 9.755-1.64 2.96-3.94 5.346-6.347 7.177a27.145 27.145 0 0 1-7.305 3.962c-2.386.852-4.643 1.278-7.753 1.065-3.109-.213-7.071-1.065-10.202-2.173-3.131-1.107-5.431-2.47-7.603-4.664-2.173-2.194-4.217-5.218-5.623-7.859-1.406-2.641-2.173-4.899-2.62-7.987-.447-3.088-.575-7.007-.362-10.287.213-3.28.767-5.921 1.704-8.222.937-2.3 2.258-4.259 3.514-6.261 1.257-2.002 2.45-4.047 3.046-5.857.596-1.811.596-3.387.255-4.835a9.77 9.77 0 0 0-1.895-3.855c-.873-1.086-1.938-1.938-3.152-3.195-1.214-1.257-2.577-2.918-3.557-4.6-.98-1.683-1.576-3.387-2.173-5.091m12.609-23.846c4.096.964 8.193 1.928 12.055 2.899 3.862.971 7.49 1.95 11.348 3.057a269.095 269.095 0 0 1 12.591 3.918c4.644 1.576 9.84 3.493 15.996 6.454 6.155 2.96 13.269 6.964 19.275 10.713 6.006 3.748 10.905 7.241 15.697 11.075 4.792 3.834 9.478 8.008 14.1 12.247 4.621 4.238 9.179 8.54 11.927 11.245 2.747 2.705 3.684 3.813 4.622 4.92M205.646 209.47c.422.181.843.362 3.283.693 2.44.331 6.898.813 13.193 2.229 6.295 1.416 14.428 3.765 21.506 6.506 7.079 2.741 13.103 5.874 19.549 9.729 6.445 3.856 13.313 8.434 16.777 10.964 3.464 2.53 3.524 3.012 3.584 3.494"/>
    <path stroke="#fff" stroke-linecap="round" stroke-linejoin="bevel" stroke-width="5.739" d="M264.562 233.326c3.916 1.837 7.832 3.674 11.085 5.572 3.253 1.898 5.843 3.855 7.545 5.723 1.702 1.867 2.515 3.645 3.991 5.241 1.476 1.596 3.614 3.012 7.5 3.599 3.886.588 9.518.347 14.85.181 5.331-.166 10.361-.256 15.256.151 4.894.406 9.653 1.31 14.021 2.65a58.927 58.927 0 0 1 11.882 5.136c3.54 2.018 6.642 4.277 9.383 7.123 2.741 2.847 5.121 6.281 6.958 10.001 1.837 3.72 3.133 7.726 3.87 10.813.738 3.087.919 5.256 1.115 8.509.196 3.253.407 7.59.572 12.139.166 4.548.286 9.307.301 13.795.016 4.488-.075 8.705-.165 12.5-.091 3.795-.181 7.169-.603 9.473-.421 2.304-1.174 3.539-1.927 4.774"/>
    <path stroke="#fff" stroke-linecap="round" stroke-linejoin="bevel" stroke-width="5.739" d="M358.719 315.556c.573-2.501 1.145-5.001 1.522-7.576.376-2.575.557-5.226.481-7.334-.075-2.109-.406-3.675-1.144-6.145-.738-2.47-1.883-5.843-3.208-8.434-1.325-2.59-2.831-4.397-4.096-5.783-1.266-1.385-2.29-2.349-3.856-3.328-1.566-.979-3.675-1.973-6.19-3.073-2.515-1.099-5.436-2.304-9.292-3.192-3.855-.889-8.644-1.461-12.892-1.717-4.247-.256-7.951-.196-11.325-.045-3.374.15-6.416.391-9.503.271-3.088-.121-6.22-.603-8.931-1.612-2.711-1.009-5-2.545-7.349-4.593-2.35-2.048-4.759-4.609-6.356-6.612-1.596-2.003-2.379-3.448-3.629-5.632-1.25-2.184-2.967-5.106-4.262-7.711-1.296-2.606-2.169-4.895-2.726-6.642-.558-1.747-.799-2.952-1.506-4.262-.708-1.31-1.883-2.726-3.058-4.141"/>
    <path stroke="#fff" stroke-linecap="round" stroke-linejoin="bevel" stroke-width="5.739" d="M303.986 269.579c.341.17.682.34 2.663 1.427 1.98 1.086 5.601 3.088 8.732 5.942 3.131 2.854 5.772 6.56 9.989 13.801 4.217 7.242 10.01 18.019 14.1 27.135 4.089 9.116 6.474 16.57 8.881 23.961 2.407 7.39 4.835 14.717 6.858 22.193 2.024 7.476 3.642 15.1 4.068 23.769.426 8.669-.34 18.381-.681 27.198-.341 8.818-.256 16.741-.767 25.473-.511 8.733-1.619 18.274-2.918 26.751-1.299 8.477-2.79 15.889-4.813 23.003-2.024 7.114-4.58 13.929-6.177 18.04-1.597 4.11-2.236 5.516-2.875 6.922"/>
    <path stroke="#fff" stroke-linecap="round" stroke-linejoin="bevel" stroke-width="5.739" d="M335.423 272.901c2.279 3.238 4.558 6.475 7.262 10.852 2.705 4.377 5.836 9.893 8.179 14.259 2.343 4.367 3.898 7.583 4.963 10.224s1.64 4.707 2.577 7.294c.937 2.588 2.236 5.698 3.322 8.499 1.087 2.8 1.96 5.292 3.014 8.434 1.054 3.141 2.29 6.932 3.387 10.947 1.096 4.015 2.055 8.253 3.088 12.662 1.033 4.409 2.14 8.988 2.833 12.321.692 3.334.969 5.421 1.405 8.68.437 3.258 1.033 7.688 1.438 11.746.405 4.057.618 7.742.596 12.236-.021 4.494-.277 9.797-.543 15.154-.266 5.356-.543 10.766-1.139 17.891-.597 7.124-1.512 15.963-2.29 23.364-.777 7.401-1.416 13.365-2.279 18.998-.862 5.634-1.949 10.937-3.141 15.516-1.193 4.58-2.492 8.435-4.207 13.408-1.714 4.973-3.844 11.064-6.837 17.188-2.992 6.123-6.847 12.278-10.702 18.434"/>
    <path stroke="#fff" stroke-linecap="round" stroke-linejoin="bevel" stroke-width="5.739" d="M347.708 496.045c-1.411 1.101-2.823 2.202-3.827 3.774-1.004 1.573-1.6 3.618-2.026 6.259-.426 2.641-.682 5.878-.937 8.69-.256 2.811-.511 5.196-.213 7.326.298 2.13 1.15 4.004 2.002 6.198.852 2.194 1.704 4.707 2.3 9.606.596 4.899.937 12.183.767 19.041-.171 6.858-.852 13.29-2.258 20.425-1.406 7.135-3.535 14.973-5.814 20.979-2.279 6.006-4.707 10.181-7.668 14.057-2.96 3.877-6.453 7.455-10.607 10.373-4.153 2.918-8.966 5.175-13.29 6.666-4.323 1.491-8.157 2.215-12.31 2.194-4.154-.023-8.626-.788-12.878-2.008-4.251-1.219-8.281-2.892-12.311-4.564"/>
    <path stroke="#fff" stroke-linecap="round" stroke-linejoin="bevel" stroke-width="5.739" d="M285.706 613.677c3.878-.113 7.756-.226 12.614-1.348 4.857-1.121 10.692-3.251 14.931-5.935 4.238-2.683 6.879-5.921 8.413-8.625 1.533-2.705 1.959-4.878 2.96-9.819 1.001-4.942 2.577-12.651 3.216-19.233.639-6.581.341-12.033-.49-16.868-.83-4.835-2.193-9.052-3.28-13.908-1.086-4.856-1.895-10.351-1.767-17.082.127-6.73 1.192-14.696 3.386-21.554 2.194-6.858 5.516-12.608 9.009-16.57 3.493-3.962 7.157-6.134 10.615-8.908 3.459-2.774 6.712-6.15 9.966-9.525"/>
    <path stroke="#fff" stroke-linecap="round" stroke-linejoin="bevel" stroke-width="5.739" d="M326.008 580.859c-3.735 3.494-7.47 6.988-13.373 12.048-5.904 5.061-13.976 11.687-21.627 17.109-7.651 5.422-14.88 9.638-20.964 13.193-6.084 3.554-11.024 6.445-17.892 9.909-6.867 3.464-15.662 7.5-24.641 10.887-8.979 3.386-18.142 6.122-27.304 8.858m6.888-23.551c7.048-1.995 14.095-3.989 23.733-7.637 9.638-3.647 21.867-8.949 33.795-16.388 11.928-7.44 23.554-17.019 33.825-26.748 10.272-9.729 19.187-19.608 28.103-29.488"/>
    <path stroke="#fff" stroke-linecap="round" stroke-linejoin="bevel" stroke-width="5.739" d="M230.22 621.779c4.64-2.796 9.28-5.593 12.323-8.226 3.043-2.634 4.489-5.103 5.573-8.357 1.084-3.253 1.807-7.289 2.078-11.355.272-4.066.091-8.163-.542-11.627-.632-3.464-1.717-6.295-4.217-9.367-2.5-3.073-6.415-6.386-10.331-8.494-3.916-2.109-7.831-3.012-11.807-2.982-3.976.03-8.013.994-10.874 2.379-2.861 1.386-4.548 3.193-5.874 6.055-1.325 2.861-2.289 6.777-2.168 10.662.12 3.886 1.325 7.741 3.313 10.693 1.988 2.952 4.759 5 7.621 6.265 2.861 1.265 5.813 1.747 8.012.693 2.199-1.054 3.644-3.644 5.09-6.235"/>
    <path stroke="#fff" stroke-linecap="round" stroke-linejoin="bevel" stroke-width="5.739" d="M202.33 607.905c3.816 1.165 7.632 2.331 11.83 2.672 4.197.342 8.775-.14 12.601-1.736 3.825-1.597 6.897-4.307 8.795-7.892 1.898-3.584 2.62-8.042 2.56-11.837-.06-3.795-.903-6.928-3.102-9.759-2.199-2.832-5.753-5.362-9.187-6.205-3.434-.844-6.747 0-9.187 1.656a10.778 10.778 0 0 0-4.548 6.868c-.542 2.741-.06 5.753.934 8.042.994 2.289 2.5 3.856 5 4.338 2.5.482 5.994-.121 9.488-.723m21.687 10.662c1.204.362 2.409.723 3.463 1.476 1.055.753 1.958 1.898 2.862 3.042m9.036 18.976c1.205 2.169 2.41 4.338 2.771 8.434.362 4.097-.12 10.121-1.626 15.663-1.506 5.542-4.036 10.602-7.048 14.88-3.013 4.277-6.507 7.771-11.567 9.518-5.06 1.747-11.687 1.747-18.976 1.084s-15.241-1.988-21.205-4.578c-5.964-2.591-9.94-6.446-12.486-8.613-2.546-2.166-3.662-2.644-4.779-3.122m39.327 18.016c-2.386 5.111-4.771 10.223-6.731 15.335-1.959 5.111-3.493 10.223-5.026 18.146-1.534 7.923-3.067 18.658-4.175 29.264-1.107 10.607-1.789 21.086-2.087 32.544-.298 11.459-.213 23.897.724 31.65.937 7.753 2.726 10.82 4.601 13.503 1.874 2.684 3.833 4.984 4.856 7.455 1.022 2.471 1.107 5.112.937 7.625-.17 2.513-.596 4.898-1.321 7.241-.724 2.343-1.746 4.643-3.961 6.688s-5.623 3.834-10.053 5.069c-4.43 1.235-9.883 1.917-15.335 2.598"/>
    <path stroke="#fff" stroke-linecap="round" stroke-linejoin="bevel" stroke-width="4.264" d="m188.951 344.913-8.376-9.106-12.982-4.337-15.496 1.301-7.957 6.071-13.401 17.346-12.564 17.78-7.957 11.708 2.513 11.709 7.957 13.876 8.795 24.284 15.495 19.948"/>
    <path stroke="#fff" stroke-linecap="round" stroke-linejoin="bevel" stroke-width="4.264" d="m190.207 479.344-18.008 6.505-9.213 3.035-9.632-4.553-4.398-17.997-3.141-10.841 6.073-16.261 5.444-11.058 1.256-12.359 3.77-8.023 4.397-8.673-3.769-8.456"/>
    <path stroke="#fff" stroke-linecap="round" stroke-linejoin="bevel" stroke-width="4.264" d="m164.766 435.329 2.303 6.396 3.978 3.686 2.094-4.337 6.282-1.409 5.445 1.735 5.339 3.469"/>
    <path stroke="#fff" stroke-linecap="round" stroke-linejoin="bevel" stroke-width="4.264" d="m164.556 436.305-.838 4.661 1.78 6.939 5.235 4.445 4.711.541 5.864 2.602 3.664 4.012 4.816 8.131m.489-89.703-7.107-7.973-2.961-9.506 6.811-14.871m-23.838 41.472-2.591-8.279-4.738-2.07-6.219-.307-3.924 3.373-5.108 3.757-5.256 1.686-1.407.231"/>
    <path stroke="#fff" stroke-linecap="round" stroke-linejoin="bevel" stroke-width="4.264" d="m142.897 383.605 8.144 5.136 7.847.537 2.665-1.38 1.555-.537m-8.81-74.128-31.982-20.545-20.433-9.505-18.36 3.986-5.034 17.171 1.776 11.652 6.22 21.772 2.368.306-3.85-19.931 4.146-13.186 12.438-11.345 10.66-.307 9.18 4.293 10.069 5.52 12.141 4.599 10.661 5.52Z"/>
    <path stroke="#fff" stroke-linecap="round" stroke-linejoin="bevel" stroke-width="4.264" d="m130.608 311.699-14.511-4.599-10.66-.307-11.55 1.533 5.923-8.279 10.069-2.759 9.476 2.759 10.957 10.119.296.307v1.226Zm-2.962 1.841-22.802-1.84-10.956 5.826-1.185 9.812 10.069-8.586 15.398-2.146 9.476-3.066Zm-57.153 16.864-7.403 1.84-4.738 2.76-5.034 1.533-5.33-1.227 7.107 4.907h6.218l10.069-.307-7.7 2.453-6.514 2.76-5.035 2.453-5.626-.613-8.588-2.453 9.476 5.213 6.811 1.839 4.738-2.453-5.33 4.907-3.553 4.292-1.185 1.534-1.184 3.066-3.258.92-3.257.613-7.996-.613 2.665 2.146 6.219 2.147 7.7-2.76 5.33-2.76 9.18-5.212-4.146 5.519-5.627 7.359-3.553 4.906-2.961 3.373-5.035 4.6-7.995 1.226 6.515-.306 5.626-.92 5.923-3.68 7.107-2.76-9.18 7.053-8.588 3.373-7.107 8.893 3.85-2.147 5.922-4.906 6.515.613 11.55-9.506 11.252-7.052 18.064-5.213m34.943-37.41h-3.257l-11.845 3.373-9.476 6.746-6.22 10.426-1.48 9.506 4.738-4.293 4.146-5.52 6.219-4.599 10.661-7.36 5.626-.613 1.184 1.84m-13.622-13.799-2.665.92-14.214 6.44-4.146 11.345 5.33-4.906 6.515-5.213 7.996-2.146m50.49 157.916-6.367 5.52-1.925 5.366 1.333 8.432 2.517-3.373 4.442-2.606-1.777 6.286 1.629 10.272.592-9.965 4.146-3.22 1.184-.459-2.073 5.519-1.184 6.133 1.925 6.746.888-6.593 1.629-5.059 3.553-3.527 2.666-3.219-.593 7.206 2.962 8.585 3.849 7.973-1.776-10.732-.592-7.053 1.332-5.979 4.442.92-2.813 5.212 1.332 5.673 5.035 10.272 1.628 6.44M50.653 390.811l-4.738 5.213-3.554 6.133-3.553 6.439-1.481 3.373-6.515 4.293-.296 2.759 5.626-2.759 4.146-1.84 6.811-10.426-5.922 10.733-1.481 6.132-1.185 6.133-1.48 5.519-3.258 4.907-3.85 3.373-4.145.306"/>
    <path stroke="#fff" stroke-linecap="round" stroke-linejoin="bevel" stroke-width="4.264" d="M69.605 400.317 55.39 410.742l-3.554 6.746-5.626 12.266-4.442 4.599-7.7 6.746h-6.81"/>
    <path stroke="#fff" stroke-linecap="round" stroke-linejoin="bevel" stroke-width="4.264" d="m42.361 433.434-2.369 10.732-4.442 4.293-5.626 8.586-3.554 1.839 10.66-1.533 10.661-10.119 10.661-11.039 4.738-12.572 7.403-11.038m120.525-119.588 13.03-9.812 15.398.613 17.176 6.132 8.292 2.454 18.952-10.426 14.806-8.586 15.399.613 13.03 4.906 11.845 6.133 2.369 18.398-6.515 16.558-7.699 14.106-1.185 6.132 5.923 14.719 8.884 23.917 4.145 20.851-11.845-17.171-3.553-1.227 7.699 22.691 1.777 14.719-2.961 18.398-8.884 23.304-1.777-15.945-4.738-9.199v16.558l-8.292 15.945-18.952 19.012-11.845 10.425 4.738-18.398-9.476 12.879-14.807 11.039-17.767 17.171-17.176 20.851-2.369 7.36-3.554-17.172 1.777-13.492-9.476 14.718"/>
    <path stroke="#fff" stroke-linecap="round" stroke-linejoin="bevel" stroke-width="4.264" d="m222.408 386.825 14.214 30.664 3.554 39.249-4.739 19.624-4.145 11.039-10.069 4.293-7.699-3.679-10.661-4.907-10.66-3.066m27.243-95.67 8.884-7.36 13.03-7.359 5.922-1.226 5.923 6.746"/>
    <path stroke="#fff" stroke-linecap="round" stroke-linejoin="bevel" stroke-width="4.264" d="m222.704 384.219 9.18 4.599 8.143.613 5.923-2.146 2.369-5.98-.592-7.972-.592-3.373m-28.133 2.146-4.886-5.213-.888-5.979 3.257 2.913-.296-5.059.147-5.213 2.666-5.673 1.332 7.206 2.813-4.599 6.071-4.293 4.294-2.147-3.702 4.446-1.332 5.827v1.839l2.665-4.293 5.922-2.146 8.292-2.76-5.922 5.673-2.962 5.06 7.848-4.6 9.476-2.3 4.294.153-8.44 2.453-3.85 3.067 8.588.459 8.588 3.833-7.107-.767-7.107-.613-7.848 1.84-8.44 2.146-5.034 4.6-5.626 5.213-2.813-1.073Zm16.287 22.5 2.554 3.564 2.813 4.447.555-2.683.518-2.109.408-1.073 2.11.231 2.887-1.074 3.961-3.449 1.888-3.45.888-1.686-1.888 2.529-2.406 1.994-3.738 1.801-5.072.575-5.478.383Zm-41.754 45.497 1.481-3.22 4.664-.459 11.919 1.533 5.182 2.683 2.517 4.983-1.628 5.826-1.407.843-2.073-5.289-3.701-2.377-4.072 2.3-1.037 2.07"/>
    <path stroke="#fff" stroke-linecap="round" stroke-linejoin="bevel" stroke-width="4.264" d="m206.416 448.612 2.814.69 1.85 1.686.075 3.603-.518 2.53-2.591 2.3-2.888.689-4.294-.689-2.591-1.15-2.887-1.15-2.591-2.07"/>
    <path stroke="#fff" stroke-linecap="round" stroke-linejoin="bevel" stroke-width="4.264" d="m193.609 456.738 3.183 3.833 3.11 2.223 3.405.92 4.294-1.227 1.185-1.38-2.221 4.447-4.22 2.069-5.405 1.15-3.035 2.147-.37.69m58.041-174.475 8.144-1.074 6.663-2.453 5.478-5.673 4.738-4.446 9.032-2.146 7.848 1.073 5.182 1.993-6.219.767-4.738 1.993-1.629 1.38 4.738-1.38 4.887.459 5.478 2.147 3.405 2.146 3.702 4.293-5.478-2.913-6.219-.92-3.405.153 3.553 1.686 3.85.92 2.073 2.607 1.924 1.686 2.221 4.14-4.886-3.527-2.221-1.073-1.776 1.073 2.221 1.687 3.997 2.913 2.221 3.373-.592 1.227-2.961-2.913-4.146-1.074-5.182.613 4.294 1.84 3.701 3.68 1.333 3.986v3.373l-4.442-4.753-4.146-3.066-7.699-.613 2.369 2.606 3.257 3.68 3.702 7.206-2.369 3.833-4.886-6.44-12.734-10.272-14.214-8.739-5.182-3.68-6.071-1.993"/>
    <path stroke="#fff" stroke-linecap="round" stroke-linejoin="bevel" stroke-width="1.531" d="m192.772 403.672 2.146-6.125 3.508-6.071 1.832-1.301-2.251 5.421-.576 3.903.995 2.764 1.57-3.957 2.094-4.228 3.403-2.439-2.147 3.469-1.047 4.336.786 3.47 1.936-2.873 1.885-3.09 1.099-5.15 1.466 5.746-.576 3.632.576 3.632 3.717-4.337 2.303-2.168-1.151 2.602-.21 3.74-.419 2.223 4.502-1.572 4.398-.108-3.194 1.843-1.832 2.71-1.466 2.548-.418 1.951 2.984-.596 2.041 1.03 2.513 2.113.523 1.41-1.361-.759-2.094-.434-3.193.705-.733.325 2.879.542 2.408 2.059 1.676 2.223-2.88-1.03-2.093-.052-2.723.272-1.832 1.03 1.571.759 2.774 1.951 1.989 2.71.576 3.686-2.67-1.192-2.983-1.572-2.565-.488-2.042-.108 3.664 2.656 2.723 2.982.104 1.951v.922"/>
    <path stroke="#fff" stroke-linecap="round" stroke-linejoin="bevel" stroke-width="1.531" d="m192.772 431.535 6.596.596 10.731 1.518 6.753 3.36.995 1.573 1.309 2.656.418 2.872m-26.017-70.468.838-.541 4.607-6.18 2.303-.434-1.361 3.144-.523 2.602 3.873-3.469 7.015-.434-4.607 2.602-2.094 1.626 7.748.325 2.722 1.952-8.794.65-4.502 1.301-2.932 2.277 7.329-.651-4.397 3.144-3.665 1.626 3.036-.108-2.512 2.71-3.141 1.952-1.361 3.794m47.629 71.34 6.218-7.052 5.331 3.986.295 6.133 2.443-9.736-1.184-8.816-1.037-3.909.889-4.523 1.85 4.216 6.367 3.986-3.109-8.049-3.702-6.056v-6.593l1.185-1.303 6.144 4.983 2.369 4.829v2.3l.223-5.596-1.999-6.133-2.813-2.989-2.221-2.99 2.369-.459 4.219 2.53 3.924 2.759 1.185 4.293.148-4.293-2.147-3.986-1.629-4.599-1.259-2.53 1.999.383 5.256 3.297 3.258 2.836 1.925 3.526 1.48 3.373.444 2.837.444-4.523-1.036-6.209-2.073-5.213-2.813-3.833-2.073-2.377 3.776.767 5.034 3.143 1.777 1.303 1.776 1.61 2.221 5.826-.814-5.366-2.073-7.436-1.925-3.143-2.961-4.446-1.777-.231 3.184-1.38 6.218 3.68 4.886 5.596 3.554 7.589.518 2.913-1.258-12.955-.444-8.509-4.961-14.795 1.481.153 3.998 3.066 3.405 4.293 1.999 4.83-.518-6.21-2.887-10.655-4.812-14.106-3.776-5.366 4.442.997 6.145 4.14 4.219 3.296 4.072 4.216-1.925-6.439-6.663-15.562-11.919-13.262-16.953-11.882"/>
    <path stroke="#fff" stroke-linecap="round" stroke-linejoin="bevel" stroke-width="1.531" d="m223 386.519 7.255 9.045 8.736 12.419 8.736.153 6.515-7.513-1.333 5.979-6.071 5.367-5.182 4.599.74 9.659-.888 12.725-1.332 9.199"/>
    <path fill="#fff" stroke="#fff" stroke-linecap="round" stroke-linejoin="bevel" stroke-width=".553" d="M240.006 440.179c-.21-1.18-.803-6.899-1.318-12.707l-.936-10.562-5.612-12.065c-3.087-6.636-5.501-12.18-5.364-12.322.137-.141 2.946 3.486 6.243 8.061l5.994 8.319h4.26c4.209 0 4.292-.031 6.801-2.581 2.058-2.092 2.537-2.354 2.528-1.38-.004.755-2.077 3-5.578 6.05l-5.566 4.848-.045 9.564c-.019 5.259-.266 11.218-.535 13.242-.461 3.465-.513 3.555-.872 1.533Zm-46.619-58.832c0-6.49.051-6.746 1.643-8.427.904-.953 2.394-2.699 3.312-3.88l1.669-2.146-.379 1.839c-.208 1.012-.517 2.323-.687 2.913-.447 1.56.492 1.323 3.03-.766 1.229-1.012 2.932-1.834 3.783-1.826l1.547.007-1.481 1.2c-.814.659-1.68 1.205-1.924 1.213-.245.003-.445.427-.445.933 0 .719.81.922 3.702.929 5.535.008 6.125.993.812 1.347-3.141.208-5.305.74-7.262 1.782-3.7 1.972-3.901 2.872-.695 3.111l2.555.19-2.813 1.435c-2.586 1.318-3.66 2.551-2.221 2.551 1.164 0 .509.947-1.8 2.601l-2.346 1.681v-6.687Z"/>
    <path fill="#fff" stroke="#fff" stroke-linecap="round" stroke-linejoin="bevel" stroke-width="1.107" d="M217.126 368.127c-1.097-1.622-1.368-2.924-.659-3.169.661-.228 1.264-3.267 1.34-6.752.076-3.486.381-5.372.679-4.191.701 2.775 3.57 2.773 4.421-.003.362-1.183 1.694-2.82 2.96-3.638 2.147-1.389 2.257-1.204 1.635 2.763-.74 4.72.912 5.672 3.426 1.974 1.486-2.187 6.878-4.78 6.878-3.309 0 .392-.646 1.784-1.435 3.093-2.114 3.505-.272 4.432 4.311 2.169 3.36-1.66 4.134-1.708 4.659-.293.454 1.225-1.196 2.12-5.936 3.218-4.325 1.002-8.504 3.12-12.247 6.206-6.613 5.453-7.53 5.63-10.032 1.932Z"/>
    <path fill="#fff" stroke="#fff" stroke-linecap="round" stroke-linejoin="bevel" stroke-width=".391" d="M202.737 458.559c-1.996-.404-6.175-2.145-7.609-3.169l-1.152-.823v-6.394c0-5.468.119-6.649.823-8.157.453-.971 1.128-1.885 1.5-2.033 2.189-.87 13.755.64 17.088 2.232 2.091.997 2.605 1.485 3.504 3.321.993 2.03 1.023 2.289.532 4.561l-.521 2.409-1.098-2.352c-.885-1.896-1.512-2.591-3.23-3.58l-2.131-1.228-2.056 1.107c-2.672 1.438-4.024 3.008-3.86 4.479.107.955.313 1.121 1.262 1.019.623-.067 1.801.166 2.617.52 1.44.623 1.484.711 1.484 2.99 0 2.854-.999 4.399-3.265 5.05-1.696.489-1.714.488-3.888.044v.004Zm-8.761 5.798v-5.071l1.916 1.828c2.405 2.296 5.266 3.628 7.714 3.592l1.887-.03-1.466.806c-.806.444-2.879 1.136-4.607 1.538-1.727.403-3.659 1.109-4.292 1.569l-1.152.838v-5.07ZM83.69 323.76c-1.32-4.703-2.773-10.893-3.227-13.755l-.827-5.204 2.372-8.302 2.372-8.302 4.02-.877c2.21-.482 6.116-1.323 8.678-1.87l4.658-.993 6.021 2.755c11.412 5.221 14.618 6.917 21.916 11.595 4.027 2.581 7.165 4.749 6.972 4.818-.624.223-4.74-1.643-10.303-4.673-2.995-1.63-7.387-3.864-9.761-4.964l-4.316-1.999-5.645.293-5.646.294-6.37 5.8-6.372 5.8-2.22 6.817-2.218 6.817 1.336 7.058c.735 3.882 1.252 7.145 1.149 7.251-.103.107-1.268-3.655-2.589-8.359Z"/>
    <path fill="#fff" stroke="#fff" stroke-linecap="round" stroke-linejoin="bevel" stroke-width=".391" d="M122.154 307.762c-5.945-1.99-13.811-2.609-20.696-1.631-2.4.341-4.452.528-4.56.416-.11-.113.612-1.333 1.603-2.71l1.893-2.634c.051-.071 2.203-.703 4.782-1.403l4.691-1.275 4.391 1.267c3.976 1.147 4.635 1.489 6.981 3.627 5.018 4.574 6.355 5.9 5.94 5.892-.23-.003-2.491-.701-5.025-1.549Zm-27.7 14.71c.143-.894.262-2.152.264-2.795.005-1.05.523-1.453 5.146-3.992l5.141-2.824 7.109.626c3.909.345 7.674.641 8.365.661 2.668.073-2.491 1.265-10.205 2.357-4.23.599-7.756 1.088-7.836 1.088-.08 0-1.843 1.464-3.919 3.253-2.075 1.789-3.898 3.252-4.049 3.252-.151 0-.159-.732-.016-1.626Z"/>
    <path fill="#fff" stroke="#fff" stroke-linecap="round" stroke-linejoin="bevel" stroke-width="1.565" d="M285.221 316.293c-1.465-1.67-7.61-6.158-13.656-9.974-10.933-6.901-13.283-9.541-8.494-9.541 1.38 0 5.471-2.771 9.093-6.159 4.288-4.012 8.817-6.471 12.987-7.052 5.143-.717 5.826-.511 3.471 1.042-4.187 2.763-3.619 5.231 1.204 5.231 2.87 0 3.858.748 3.229 2.445-.526 1.421.399 2.874 2.207 3.468 4.186 1.376 4.137 7.964-.058 7.964-2.131 0-2.855.854-2.207 2.602.697 1.879-.183 2.602-3.171 2.602-4.689 0-5.321 2.025-1.622 5.203 2.743 2.358 3.343 5.204 1.097 5.204-.779 0-2.614-1.366-4.08-3.035Z"/>
    <path fill="#fff" stroke="#fff" stroke-linecap="round" stroke-linejoin="bevel" stroke-width=".098" d="M239.305 398.567a54.433 54.433 0 0 0-1.476-2.175l-.608-.831.495-.06a34.3 34.3 0 0 1 1.594-.126c.605-.034 2.38-.21 3.944-.385 2.715-.305 2.882-.337 3.652-.701.444-.209.824-.364.843-.343.045.043-.739.728-1.11.97-.145.094-.751.351-1.349.572-1.061.391-1.113.399-2.1.326-.987-.074-1.024-.067-1.506.233-.569.356-.711.668-1.209 2.658l-.302 1.207-.868-1.345Zm-12.545-4.775c-1.05-2.271-1.89-4.15-1.866-4.174.019-.027.713.79 1.532 1.811 1.475 1.839 1.834 2.39.947 1.454-.49-.516-.731-.611-.731-.286 0 .245.593 1.759 1.462 3.735.361.822.637 1.516.612 1.543-.03.03-.905-1.811-1.956-4.083Z"/>
    <path fill="#fff" stroke="#fff" stroke-linecap="round" stroke-linejoin="bevel" stroke-width=".024" d="m241.592 416.022.004-.12 2.919-2.542c4.393-3.827 4.868-4.26 6.269-5.714 1.412-1.466 1.949-2.228 1.949-2.765 0-.243-.044-.412-.142-.518-.077-.085-.1-.094-.227-.093a.789.789 0 0 0-.251.051c-.355.167-.972.715-2.134 1.896-.314.319-.576.575-.582.568 0 0 .927-1.093 2.073-2.415 1.147-1.322 2.091-2.398 2.091-2.398s-.946 4.296-.974 4.389c-.003.026-1.252 1.141-2.767 2.479a5421.453 5421.453 0 0 0-5.497 4.868l-2.743 2.434.012-.12Z"/>
    <path fill="#fff" stroke="#fff" stroke-linecap="round" stroke-linejoin="bevel" stroke-width=".012" d="m237.314 406.319-1.766-2.45-.004-.082-.003-.081.03.038c.015.027.728 1.031 1.581 2.243l1.551 2.205.137.077.138.077 1.171.027c2.995.051 6.568.116 6.743.116.106 0 .193.007.193.007 0 .008-.154.058-.366.103-.304.066-.727.114-1.296.144-.17.008-1.38.012-3.305.027l-3.036.004-1.768-2.455Z"/>
    <path fill="#fff" stroke="#fff" stroke-linecap="round" stroke-linejoin="bevel" stroke-width=".017" d="M239.574 439.281c-.322-3.56-.59-6.509-.596-6.554-.003-.073-.003-.082.019-.075.031.004.041.052.076.428.315 3.21.633 6.086.766 6.922.109.685.238 1.301.307 1.467.05.121.115.178.202.178.131 0 .194-.106.274-.459.105-.464.373-2.349.455-3.196.107-1.103.209-2.792.273-4.48.015-.428.034-.798.041-.821.004-.039.015-.039.105-.039h.096l-.004.089-.222 3.164-.215 3.074-.49 3.374c-.27 1.856-.492 3.381-.495 3.389 0 0-.268-2.898-.59-6.458l-.002-.003Z"/>
    <path fill="#fff" stroke="#fff" stroke-linecap="round" stroke-linejoin="bevel" stroke-width=".048" d="M269.946 291.374c1.827-1.895 3.093-3.151 4.66-4.621 1.182-1.111 2.222-2.088 2.31-2.173.149-.144.429-.218 4.459-1.176l4.3-1.021 1.39.187c.764.102 1.381.195 1.371.205-.008.009-.373.052-.806.097-1.269.124-2.779.336-3.577.501-3.073.634-6.381 2.28-9.575 4.765-.863.671-1.456 1.179-2.791 2.393a70.665 70.665 0 0 1-1.997 1.744c-.943.78-2.139 1.702-2.209 1.702-.019 0 1.085-1.172 2.465-2.603Zm17.332-5.215c.197-.226.875-.758 1.639-1.286.804-.556 1.181-.892 1.305-1.161.099-.216.076-.46-.059-.614-.11-.126-.205-.133 1.57.111 1.433.198 1.543.221 2.125.448.338.132.596.241.572.243-.019.001-.53.063-1.126.138l-1.084.135-1.511.63c-1.21.506-2.382 1-3.482 1.47-.044.011-.014-.034.051-.114Zm15.977 6.254c-.215-.093-1.017-.231-3.405-.583l-3.124-.463-.998.034c-.549.011-1.243.043-1.542.066l-.544.034-.041-.259c-.113-.793-.616-1.289-1.573-1.555-.486-.135-1.122-.202-2.311-.242-.916-.031-1.764-.126-2.023-.225-.094-.034.235-.148 1.561-.531l1.681-.486 2.253.213 2.253.213 2.586 1.01c1.423.556 2.653 1.046 2.736 1.09.2.107 2.756 1.715 2.818 1.773.076.07-.019.043-.331-.088l.004-.001Zm-.174 7.228c-.529-.385-.889-.592-1.801-1.032l-1.139-.55h-.45c-.433 0-.462.004-.794.213-.19.117-.364.212-.387.212-.019 0-.118-.175-.211-.388-.357-.82-.942-1.56-1.612-2.037-.471-.337-.603-.405-1.259-.657-.718-.276-1.151-.534-1.498-.893-.265-.274-.492-.618-.441-.67.007-.007.676.289 1.478.668l1.458.689 1.782.424c.98.234 1.79.425 1.799.425.008 0 .431.519.937 1.153 1.022 1.282 1.069 1.332 2.082 2.212.856.745.827.718.765.715-.03-.001-.346-.22-.709-.484Zm-9.914 5.653c0-.823.456-1.098 1.968-1.189.925-.057 1.328-.155 1.873-.465.492-.279 1-.838 1.276-1.403.136-.279.248-.448.281-.427.03.012.263.193.516.388.254.194 1.325.98 2.381 1.747 1.738 1.263 2.095 1.544 2.099 1.652 0 .012-.12-.034-.268-.116-.35-.196-4.261-1.218-4.659-1.218-.263 0-5.128.563-5.244.606-.034.008-.075.191-.095.397-.019.207-.057.375-.082.375-.03 0-.046-.155-.046-.347Zm7.271 9.446-1.357-1.463-2.123-1.575c-1.345-.998-2.227-1.617-2.407-1.689-.246-.1-.669-.144-3.27-.346-1.896-.147-2.935-.246-2.842-.273.08-.026.744-.064 1.477-.093 1.409-.052 1.752-.094 2.313-.274.457-.145.596-.223.872-.486.323-.309.435-.564.472-1.078l.03-.432 1.808.776 1.808.776 1.7 1.686 1.7 1.686.604 1.813c.544 1.633.603 1.844.588 2.123l-.015.31-1.358-1.461Z"/>
    <path fill="#fff" stroke="#fff" stroke-linecap="round" stroke-linejoin="bevel" stroke-width=".068" d="M291.656 323.564c-2.384-3.15-2.306-3.058-3.326-3.882-.5-.404-.896-.75-.878-.768.015-.011.123.034.235.116.429.314 1.143.632 1.505.67.753.081 1.501-.318 1.751-.931.155-.382.119-1.112-.083-1.705-.097-.286-.168-.529-.159-.54.008-.007.162.153.337.364.203.244.921 1.553 1.98 3.614l1.662 3.232-.162.291c-.089.161-.379.639-.643 1.064l-.481.771-1.738-2.296Zm-22.635-18.035c-6.078-3.741-7.152-4.43-9.543-6.127l-2.695-1.911 1.541-.203c1.329-.175 1.845-.281 2.374-.489.071-.03.056.027-.044.137-.552.642-.379 1.332.601 2.395 1.425 1.546 4.212 3.569 10.017 7.271 2.032 1.296 4.707 3.067 4.707 3.118 0 .011-.019.03-.056.03-.03-.002-3.135-1.903-6.902-4.221Z"/>
    <path fill="#fff" stroke="#fff" stroke-linecap="round" stroke-linejoin="bevel" stroke-width=".024" d="M281.928 314.547c-3.608-2.912-5.605-4.506-5.769-4.608-.173-.105-.239-.16-.212-.17.019-.004.041-.034.041-.059 0-.108 3.647 2.479 5.669 4.023 1.702 1.299 2.424 1.926 3.471 3.013.966 1.003 1.501 1.493 2.185 2 .111.083.183.149.161.149-.051 0-.051.03-.008.074.015.011.019.03.004.03-.008 0-2.508-2.003-5.542-4.452Z"/>
    <path fill="#fff" stroke="#fff" stroke-linecap="round" stroke-linejoin="bevel" stroke-width=".017" d="M260.752 296.835c.015-.03.008-.039-.007-.052-.019-.007.849-.339 2.942-1.11 1.633-.601 2.978-1.085 2.978-1.085s-.528.366-.914.607c-1.033.646-1.953 1.088-2.453 1.179a5.275 5.275 0 0 1-.536.034c-.641.012-1.121.083-1.482.203a2.2 2.2 0 0 0-.474.223c-.061.044-.075.044-.05-.001l-.004.002Z"/>
    <path fill="#fff" stroke="#fff" stroke-linecap="round" stroke-linejoin="bevel" stroke-width=".096" d="M239.402 357.209c.057-.058 1.268-.781 2.693-1.613l2.591-1.512 1.695-.414a66.296 66.296 0 0 1 1.746-.414c.03 0-.587.506-1.367 1.124-.78.618-1.466 1.186-1.524 1.262-.087.113-.152.111-.359-.004-.628-.36-1.637-.119-3.799.908-1.347.64-1.855.842-1.676.667v-.004Z"/>
    <path fill="#fff" stroke="#fff" stroke-linecap="round" stroke-linejoin="bevel" stroke-width=".034" d="M235.462 361.529c.03-.012.348-.142.706-.276a28.468 28.468 0 0 1 2.806-.871c2.854-.713 3.452-.882 4.405-1.239 1.275-.478 2.02-1.012 2.225-1.594.067-.189.087-.218.109-.156.034.098-.099.088 3.399.272l3.947.21 1.104.06 1.25.56c.992.446 1.211.557 1.068.539a768.8 768.8 0 0 0-7.698-.658c-.251 0-7.648 1.741-10.745 2.529a254.26 254.26 0 0 1-2.607.657c-.007-.001-.002-.011.031-.033Z"/>
    <path fill="#fff" stroke="#fff" stroke-linecap="round" stroke-linejoin="bevel" stroke-width=".068" d="M235.935 356.461c.003-.128.422-.954 1.107-2.18 1.219-2.183 1.318-3.035.368-3.183-.948-.147-3.311.901-5.098 2.259-.702.534-1.338 1.204-2.051 2.16-.271.364-.509.646-.528.627-.034-.034 1.86-3.145 2.034-3.339.161-.181 9.409-3.459 9.498-3.367.007.008-.557.573-1.262 1.248-.705.674-1.351 1.33-1.434 1.459-.083.128-.683 1.144-1.332 2.258-1.249 2.141-1.305 2.23-1.302 2.058Z"/>
    <path fill="#fff" stroke="#fff" stroke-linecap="round" stroke-linejoin="bevel" stroke-width=".024" d="m220.328 355.791-.141-.03-.004-.153c-.004-.132-.002-.152.041-.152.03.001.247.039.493.092.246.051.451.085.451.085.217-.381 2.676-4.375 2.721-4.42.085-.083 5.713-4.064 5.727-4.05 0 0-.117.164-.272.351-.445.538-.398.397-.96 2.861-.267 1.165-.487 2.098-.492 2.075a3.4 3.4 0 0 1 .045-.408c.107-.739.134-1.011.148-1.467.007-.382.004-.502-.031-.669-.14-.654-.608-.751-1.437-.298-1.021.558-1.839 1.203-2.519 1.989-.717.828-1.179 1.578-1.435 2.334-.196.578-.437.998-.761 1.326-.441.446-1.038.649-1.569.534h-.005Z"/>
    <path fill="#fff" stroke="#fff" stroke-linecap="round" stroke-linejoin="bevel" stroke-width=".048" d="M227.998 356.898c-.155-.183-.308-.547-.254-.603.034-.034 1.319.345 1.382.405.077.075-.44.34-.711.362-.243.026-.268.008-.417-.164Z"/>
    <path fill="#fff" stroke="#fff" stroke-linecap="round" stroke-linejoin="bevel" stroke-width=".024" d="m217.243 360.04-.075-1.3.071-2.469.07-2.468.629-1.341c.346-.738.636-1.349.646-1.359.007-.008.182.878.383 1.975l.381 2.059c.007.052-.015.027-.107-.091-.216-.284-.383-.648-.498-1.084a2.067 2.067 0 0 0-.105-.308c-.056-.115-.181-.232-.27-.255-.092-.027-.232.034-.316.134-.261.309-.412 1.646-.503 4.463a56.177 56.177 0 0 1-.077 1.75c-.034.489-.137 1.572-.151 1.588a50.02 50.02 0 0 1-.078-1.294Zm-1.155 7.503c-.576-.614-1.051-1.133-1.056-1.154-.015-.082-.432-2.888-.427-2.894.003-.003.285.243.626.549l.622.555.409-.212c.226-.116.416-.205.424-.197.016.012-.05.176-.153.341a.515.515 0 0 1-.228.205c-.322.168-.462.41-.479.828-.015.392.059.726.28 1.261.197.474.578 1.144.951 1.669a.51.51 0 0 1 .089.153c-.003.004-.483-.489-1.058-1.104Zm4.487 4.085-1.021-.39-.296-.31c-.163-.17-.29-.315-.283-.322.004-.004.099.03.203.079.757.371 1.614.277 2.737-.302 1.091-.561 2.384-1.504 4.992-3.636.402-.329.897-.729 1.101-.89.45-.353 1.254-.946 1.267-.933.004.004-.539.511-1.21 1.123-.67.612-2.377 2.185-3.793 3.496a2302.33 2302.33 0 0 1-2.626 2.429c-.051.044-.089.03-1.071-.344Zm-.619-15.97c-.165-.082-.515-.328-.495-.347.004-.004.165.026.356.06l.347.067.004.154c.002.085-.004.155-.015.155a1.6 1.6 0 0 1-.197-.089Z"/>
    <path fill="#fff" stroke="#fff" stroke-linecap="round" stroke-linejoin="bevel" stroke-width=".012" d="M236.259 357.956c-.257-.086-.419-.251-.473-.482-.045-.191-.051-.193.183.058.482.508.466.483.29.424Z"/>
    <path fill="#fff" d="M235.772 356.952c0-.011.041-.193.058-.27.114-.435.343-.944.689-1.535a4.05 4.05 0 0 1 .205-.338c.002.001-.05.104-.119.227-.373.691-.617 1.182-.673 1.357-.015.052-.015.117-.004.134.007.008.034.008.056-.004.041-.034.18-.251.386-.599.05-.085.093-.152.094-.151.002.002-.674 1.167-.688 1.183 0 .002-.001.001 0 0l-.004-.004Z"/>
    <path stroke="#fff" stroke-linecap="round" stroke-linejoin="bevel" stroke-width=".006" d="M235.776 356.956c.014-.016.69-1.181.688-1.183a2.263 2.263 0 0 0-.094.151c-.206.348-.345.565-.386.599-.022.012-.049.012-.056.004-.011-.017-.011-.082.004-.134.056-.175.3-.666.673-1.357.069-.123.121-.226.119-.227a4.05 4.05 0 0 0-.205.338c-.346.591-.575 1.1-.689 1.535-.017.077-.058.259-.058.27l.004.004Zm0 0c-.001.001 0 .002 0 0Z"/>
    <path fill="#fff" stroke="#fff" stroke-linecap="round" stroke-linejoin="bevel" stroke-width=".006" d="M238.394 357.723c.003-.003 1.419-.833 3.146-1.845l3.139-1.839.204-.052c.166-.039.202-.043.201-.039a.747.747 0 0 1-.207.061l-.205.052-1.427.834c-2.411 1.408-3.141 1.84-3.754 2.221-.091.058-.147.11-.147.14 0 .03.015.034.066.034.117-.007.604-.218 1.515-.647.132-.062.242-.112.245-.111a.61.61 0 0 1-.102.051c-.059.031-.242.118-.406.199-.863.422-1.402.653-2.034.87-.203.071-.249.086-.234.071Zm6.931-1.58a1.4 1.4 0 0 0-.433-.456 1.164 1.164 0 0 0-.196-.099 1.14 1.14 0 0 1 .19.086c.123.065.173.083.229.079.034-.002.05-.004.072-.027l.034-.026.075.248c.041.137.074.25.073.251-.002.002-.018-.024-.044-.056Zm.311 1.28.008-.082c.004-.039.007-.094.007-.115 0-.026.004-.034.004-.034s.055.173.055.181l-.007-.004c-.015-.011-.034-.004-.056.034a.225.225 0 0 1-.015.031l.004-.011Z"/>
    <path fill="#fff" d="m210.081 486.712-2.028 4.799-5.214 3.9-9.559 2.549"/>
    <path stroke="#fff" stroke-linecap="round" stroke-linejoin="bevel" stroke-width="1.531" d="m210.081 486.712-2.028 4.799-5.214 3.9-9.559 2.549"/>
    <path fill="#fff" d="m193.425 508.158 8.545-7.499-2.173 5.549-1.593 2.85 5.214-5.549 2.462-4.349.145 4.499-.869 3.299 4.635-5.099 4.49-7.198 1.738-2.4 3.331-1.199"/>
    <path stroke="#fff" stroke-linecap="round" stroke-linejoin="bevel" stroke-width="1.531" d="m193.425 508.158 8.545-7.499-2.173 5.549-1.593 2.85 5.214-5.549 2.462-4.349.145 4.499-.869 3.299 4.635-5.099 4.49-7.198 1.738-2.4 3.331-1.199"/>
    <path fill="#fff" stroke="#fff" stroke-linecap="round" stroke-linejoin="bevel" stroke-width=".135" d="M194.149 502.582v-4.427l4.434-1.18 4.433-1.181 2.693-2.029 2.693-2.029.838-2.01c.46-1.106.861-2.035.89-2.065.044-.043 3.454 1.53 6.54 3.024l1.014.491-.546.246c-.3.135-.754.271-1.007.301a1.202 1.202 0 0 0-.729.409 35.72 35.72 0 0 1-.467.604c-.283.358-.536.875-.428.875.05 0-.096.24-.324.535-.253.326-1.852 1.485-4.105 2.973-3.202 2.115-3.705 2.402-3.795 2.164-.058-.155-.25-.274-.439-.274-.257 0-.457.213-.851.904-.446.783-.697 1.024-1.873 1.793-.747.488-1.377.868-1.4.844-.019-.027.1-.4.274-.834.314-.783.276-1.179-.129-1.318-.122-.039-5.711 4.727-7.391 6.305l-.326.307.001-4.428Z"/>
    <path fill="#fff" d="m194.366 471.491 1.955 4.949 4.128 3.224 7.676 3.149 3.766.075 5.141 1.499 2.028 5.399"/>
    <path stroke="#fff" stroke-linecap="round" stroke-linejoin="bevel" stroke-width="1.531" d="m194.366 471.491 1.955 4.949 4.128 3.224 7.676 3.149 3.766.075 5.141 1.499 2.028 5.399"/>
    <path fill="#fff" stroke="#fff" stroke-linecap="round" stroke-linejoin="bevel" stroke-width=".068" d="M215.946 488.048c-.936-.454-4.188-1.97-7.226-3.368l-5.524-2.543-4.632-1.33-4.632-1.331v-6.918l.182-.124c.171-.117.185-.116.231.007.286.79 1.695 4.255 1.743 4.289.034.026.988.767 2.117 1.651l2.053 1.606 3.858 1.588 3.857 1.589 1.127.051 1.126.052 3.747 2.776a783.783 783.783 0 0 1 3.777 2.807c.097.099-.277-.068-1.804-.808v.006Z"/>
    <path fill="#fff" d="m192.411 311.474.435-.674 6.155-5.849 6.662-3.749-4.924 4.424-1.955 2.924-.724 4.199 5.72-5.099 9.197-2.024-.869 1.649-8.328 3.375-2.1 2.849 8.907-4.274 12.673.825-11.514 1.874-8.11 4.275-5.721 5.698-2.028 2.775-3.765-.525"/>
    <path stroke="#fff" stroke-linecap="round" stroke-linejoin="bevel" stroke-width="1.531" d="m192.411 311.474.435-.674 6.155-5.849 6.662-3.749-4.924 4.424-1.955 2.924-.724 4.199 5.72-5.099 9.197-2.024-.869 1.649-8.328 3.375-2.1 2.849 8.907-4.274 12.673.825-11.514 1.874-8.11 4.275-5.721 5.698-2.028 2.775-3.765-.525"/>
    <path fill="#fff" d="m218.915 384.734-1.159 3.599 1.304 6.449 1.303 1.799-.145-5.998 1.593-3.6"/>
    <path stroke="#fff" stroke-linecap="round" stroke-linejoin="bevel" stroke-width="1.531" d="m218.915 384.734-1.159 3.599 1.304 6.449 1.303 1.799-.145-5.998 1.593-3.6"/>
    <path fill="#fff" d="m222.248 386.765 1.383-1.803 1.945-4.878"/>
    <path stroke="#fff" stroke-linecap="round" stroke-linejoin="bevel" stroke-width="1.531" d="m222.248 386.765 1.383-1.803 1.945-4.878"/>
    <path fill="#fff" stroke="#fff" stroke-linecap="round" stroke-linejoin="bevel" stroke-width=".048" d="M220.573 385.996c-.766-.597-.821-.651-.715-.702.064-.03.538-.406 1.056-.836.517-.43.921-.737.897-.682a2.266 2.266 0 0 0-.062.417c-.015.279 0 .348.131.56.117.19.234.287.542.454l.393.212-.142.194c-.112.153-.177.194-.31.196-.329.003-.689.272-.868.646l-.09.188-.832-.647Zm2.827-2.559a1.92 1.92 0 0 0-.653-.22l-.295-.03 1.078-.895c.593-.492 1.086-.886 1.096-.875.015.012-.826 2.17-.859 2.202a4.253 4.253 0 0 1-.367-.182Z"/>
    <path fill="#fff" stroke="#fff" stroke-linecap="round" stroke-linejoin="bevel" stroke-width="1.531" d="m137.375 369.737-4.634 22.795 2.607 17.397 7.531 9.598 8.69-2.4-3.476 12.598-2.028 10.197-9.269-17.996-10.428-21.895 2.607-8.998 8.4-21.296Z"/>
    <path fill="#fff" d="m191.858 540.886-11.015-13.331-3.768 3.041-2.318 7.484-1.739 8.653.579 6.783-7.536-6.081-6.087-4.911-6.956-7.952-3.188-19.646-3.768 4.677-4.058 11.227 4.637 18.944-5.507-6.315-4.348-11.694 1.45-9.121 1.449-9.589 4.927-7.718-10.724 10.29-2.319 7.952-1.159 18.711-4.638-13.098-2.898-11.694 3.188-12.629 6.667-8.42-15.652 9.122-.29 5.613-1.739-7.484 2.029-9.59 3.478-6.782 8.116-9.589-6.377 1.871-8.695 8.42-4.058 6.08-.87-12.161 3.189-5.847 3.768-4.912 9.565-11.46 1.739-8.42-.87-5.379 4.058 17.307-2.029 8.186-2.609 3.04 4.348.235 5.797 1.871-6.377 11.694-6.666 6.782 8.985-2.338 9.275 2.104-7.246 5.847-4.058 9.59 17.391-8.42-.29 8.42-3.768 5.846 8.116-5.379 4.638-.467-.29 12.395 9.855 8.654 7.536-3.508 9.275-6.549 11.304-9.823"/>
    <path stroke="#fff" stroke-linecap="round" stroke-linejoin="bevel" stroke-width="1.352" d="m191.858 540.886-11.015-13.331-3.768 3.041-2.318 7.484-1.739 8.653.579 6.783-7.536-6.081-6.087-4.911-6.956-7.952-3.188-19.646-3.768 4.677-4.058 11.227 4.637 18.944-5.507-6.315-4.348-11.694 1.45-9.121 1.449-9.589 4.927-7.718-10.724 10.29-2.319 7.952-1.159 18.711-4.638-13.098-2.898-11.694 3.188-12.629 6.667-8.42-15.652 9.122-.29 5.613-1.739-7.484 2.029-9.59 3.478-6.782 8.116-9.589-6.377 1.871-8.695 8.42-4.058 6.08-.87-12.161 3.189-5.847 3.768-4.912 9.565-11.46 1.739-8.42-.87-5.379 4.058 17.307-2.029 8.186-2.609 3.04 4.348.235 5.797 1.871-6.377 11.694-6.666 6.782 8.985-2.338 9.275 2.104-7.246 5.847-4.058 9.59 17.391-8.42-.29 8.42-3.768 5.846 8.116-5.379 4.638-.467-.29 12.395 9.855 8.654 7.536-3.508 9.275-6.549 11.304-9.823"/>
    <path fill="#fff" d="m188.965 321.442-5.121-7.847-.614-9.12-3.687 10.817 3.687 9.119-9.831-5.726-8.398-2.757-8.807 1.06h-8.808l-4.506-1.908 4.711 4.665 5.53 2.333-13.723-4.453h-11.06l-3.482 3.817 10.241.213 8.602 6.15-8.807 4.666-4.506 8.696-7.169 7.211-9.421 1.484-4.916 1.061 11.06 2.545 7.579-4.242 10.241-12.725 8.193-7.847-.205-4.242 6.349.424 9.422.212 6.964-.636 9.831 1.272 7.169 4.878 4.506 3.394"/>
    <path stroke="#fff" stroke-linecap="round" stroke-linejoin="bevel" stroke-width="1.531" d="m188.965 321.442-5.121-7.847-.614-9.12-3.687 10.817 3.687 9.119-9.831-5.726-8.398-2.757-8.807 1.06h-8.808l-4.506-1.908 4.711 4.665 5.53 2.333-13.723-4.453h-11.06l-3.482 3.817 10.241.213 8.602 6.15-8.807 4.666-4.506 8.696-7.169 7.211-9.421 1.484-4.916 1.061 11.06 2.545 7.579-4.242 10.241-12.725 8.193-7.847-.205-4.242 6.349.424 9.422.212 6.964-.636 9.831 1.272 7.169 4.878 4.506 3.394"/>
    <path fill="#fff" stroke="#fff" stroke-linecap="round" stroke-linejoin="bevel" stroke-width="1.531" d="m121.578 361.739-.819.424-11.675 6.787-13.108 5.09-9.013 4.241 17.82-3.817 3.072 3.393-6.554 6.787-9.831 4.03-9.013-.849 14.952 3.606 6.964-4.242-1.433 9.12-7.579 5.726-7.783.212 10.036 2.333 7.988-4.665 2.868 6.786-9.012 6.787-14.952 7.635-5.12 10.393 18.228-11.665 13.314 1.272 1.228 5.727-5.939 4.666-4.302 2.545 5.326.212 4.096 1.272-3.687 3.606-11.47 3.818-9.831 6.786-10.446 16.755-2.458 14.846 6.76-16.755 7.578-10.18 11.47-7.635 11.675-3.393 7.373-5.727-10.036 11.665-8.193 5.726 8.807-5.302 3.892-2.121 8.398-9.119-.82-5.303-2.867-2.333-5.735-12.937-4.916-3.393 3.892-9.332-.82-3.393-3.277-14.21 1.024-6.575 3.687-6.363-1.843-1.908 5.735-5.09 6.349-5.939Zm57.364 4.549-.869.749-5.794 7.799v8.998l1.883-5.399 3.911-2.1-.725-3.899 1.594-6.148Zm-27.156 93.355-.362-.15-2.173-2.699 3.983-.3 5.794-.75 6.372.225 8.038 2.399h-16.004l-5.648 1.275Zm2.1 6.074-.289-.075-2.825-1.649 5.359-1.05 10.645 1.125 6.952-.525-5.141 1.5-3.259 1.499-4.562-1.274-6.88.449Z"/>
    <path stroke="#fff" stroke-linecap="round" stroke-linejoin="bevel" stroke-width="1.531" d="m153.813 465.642.145-.451"/>
    <path fill="#fff" stroke="#fff" stroke-linecap="round" stroke-linejoin="bevel" stroke-width="1.531" d="m152.945 472.466 1.883-1.65 4.2.451 10.283 1.574-9.197.075-7.169-.45Z"/>
    <path stroke="#fff" stroke-linecap="round" stroke-linejoin="bevel" stroke-width="1.531" d="m169.302 486.446-6.145-3.818-4.711-4.029 1.024-3.182 9.627-.212 1.843-2.969-4.71-1.909h-2.663v-1.697l2.663-1.909 7.168-.848 5.531-2.969-.206-1.697h-5.939l-2.254-.636 3.278-1.485-.615-1.272-6.964-3.182-3.686-1.272-3.073-7.423.615-6.151 1.433-1.484 1.844-4.666 1.966-.537 1.882 1.574-1.882-.525m7.241 6.824 1.449-2.85 3.403-1.799 4.055.224 4.563.225 2.896-.45 1.159-.6"/>
    <path stroke="#fff" stroke-linecap="round" stroke-linejoin="bevel" stroke-width="4.098" d="m84.973 348.406-4-2.5-14.5-24-.25-9.5 2.75-9.75-.75-8-5.75-6.75-.5-3.75 6.25 6 7-.75-6-5.75 8.5-.25 4-2h-7l-5.5-4 5.25 1.75 11.25-.25-7.25-5.25-3.75.25 4.75-2.5 12.25 3.75 22.25 6.25 8 4.75m-2.365-2.301-5.48-8.839-7.602-3.713 8.486 1.768 7.071 5.48 8.308 10.253-1.944-8.839-7.955-10.076 8.485 4.243 10.43 7.955 7.601 10.606 5.127 5.127-6.364-14.142 4.419 1.944 5.834 5.834 6.187 9.369.926-9.565-4.5-5.5 9.25.249 7.5 7.5-1.5-7.5-3.25-5.5m7.5-3.249 7.75 3.25 2.25 6.25 3.5 6.5M69.58 412.548l-1.414 15.91-6.01 20.152-10.253 12.021-10.96 3.536-3.89 9.546m4.243 4.242 5.303-4.949 8.486-.354 17.324-22.981-1.415 14.496-9.9 13.082-10.252 3.535-.354 2.475 3.182-1.061h7.425l8.132-4.596 2.828-6.01-2.475 10.96-8.132 6.364-3.535 2.828 1.768 9.192-1.414 12.021m1.06 13.082 4.243-12.728 4.95-10.607 1.944-7.425 4.773-5.303.707 12.728-4.243 23.688.354 21.567 8.132 9.192-2.475-11.314 1.414-20.152 7.425-21.92 3.182 13.788 1.06 17.678-6.01 17.324 9.016 18.915 14.319 19.269-11.668-27.224v-21.213l6.718-18.031 6.717 39.598 13.789 25.102-9.546-29.698 9.546-15.91 7.424 13.788 24.749 2.475-6.364-10.607"/>
  </g>
  <defs>
    <clipPath id="a">
      <path fill="#fff" d="M0 0h380.358v858.755H0z"/>
    </clipPath>
  </defs>
</svg>
