<svg width="58" height="53" viewBox="0 0 58 53" fill="none" xmlns="http://www.w3.org/2000/svg">
<g id="Frame 107">
<path id="Vector" d="M44.1479 49.0195C42.9521 49.0195 41.7567 49.0079 40.5613 49.0244C40.0124 49.0323 39.4638 49.0946 38.9153 49.134C38.5253 49.1622 38.1361 49.2112 37.746 49.2215C36.2158 49.2614 34.6851 49.2842 33.1549 49.3249C32.2582 49.3489 31.3616 49.3888 30.4653 49.4361C30.2566 49.4468 30.0516 49.5199 29.8433 49.5585C29.3396 49.6518 28.8367 49.7489 28.3309 49.8294C28.1492 49.8585 27.9612 49.8477 27.8197 49.69C27.7969 49.6647 27.7446 49.6419 27.7148 49.6502C27.4015 49.7327 27.0907 49.824 26.7779 49.9078C26.6272 49.9481 26.4741 49.9775 26.3223 50.0128C25.8443 50.1236 25.3646 50.229 24.8887 50.3481C24.4144 50.4667 23.9456 50.6078 23.4705 50.7236C22.9821 50.8422 22.4875 50.9364 21.9983 51.0522C21.6552 51.1331 21.3183 51.2402 20.9751 51.3211C20.6104 51.407 20.2407 51.4738 19.8743 51.553C19.4752 51.6393 19.0777 51.7335 18.6781 51.8177C18.425 51.8713 18.169 51.9123 17.9146 51.9601C17.5997 52.019 17.2848 52.0787 16.9698 52.1381C16.9292 52.1455 16.8885 52.1522 16.8478 52.158C16.6391 52.187 16.4308 52.2223 16.2213 52.2435C15.7487 52.2907 15.2761 52.343 14.8027 52.3713C14.0409 52.4173 13.2782 52.4642 12.5156 52.4762C11.7007 52.4891 10.8833 52.4924 10.0708 52.4405C9.52148 52.4057 8.97875 52.2692 8.43354 52.1762C8.21156 52.1385 7.98791 52.1061 7.76966 52.0526C7.4344 51.9708 7.10121 51.8791 6.77051 51.78C6.44812 51.6833 6.12821 51.5775 5.81162 51.4642C5.51287 51.3576 5.21744 51.2414 4.92451 51.119C4.64858 51.0036 4.37556 50.8796 4.10544 50.7518C3.3038 50.3721 2.62042 49.8282 2.04699 49.1614C1.74036 48.8045 1.4636 48.4058 1.25697 47.9851C1.10345 47.6726 0.977309 47.322 1.00345 46.9444C1.02503 46.6278 1.00262 46.3088 1.01341 45.9913C1.02668 45.6046 1.20012 45.2752 1.38145 44.9412C1.61671 44.5076 1.95571 44.1764 2.342 43.8935C2.59179 43.7105 2.87394 43.5686 3.15111 43.4258C3.35193 43.3225 3.56313 43.235 3.77765 43.1644C3.95773 43.1051 4.14776 43.0673 4.33656 43.042C4.71663 42.9918 5.09753 42.9425 5.47968 42.92C5.80996 42.9005 6.1448 42.8968 6.47426 42.9263C6.91615 42.9657 7.35473 43.0437 7.79455 43.1039C7.85596 43.1122 7.91903 43.1088 7.98003 43.1192C8.31612 43.1765 8.65138 43.2366 8.98705 43.2956C9.20945 43.3346 9.43103 43.3765 9.65426 43.4121C10.0248 43.4715 10.3953 43.5325 10.7679 43.5769C10.8252 43.5839 10.9318 43.52 10.9484 43.4673C11.036 43.1914 11.1019 42.9088 11.1762 42.6288C11.2181 42.4711 11.2409 42.3039 11.3106 42.1591C11.4476 41.8744 11.3787 41.6317 11.209 41.3969C10.9787 41.0778 10.7895 40.7421 10.875 40.3297C10.9401 40.016 11.031 39.7081 11.1102 39.3977C11.1301 39.3201 11.165 39.2421 11.1642 39.1645C11.1567 38.4915 11.331 37.8613 11.6899 37.3028C12.0098 36.8053 12.3969 36.363 12.95 36.0821C13.4795 35.8132 13.9811 35.4904 14.494 35.1891C14.8367 34.9879 15.1964 34.8095 15.5143 34.5746C15.8728 34.3099 16.108 33.9414 16.2607 33.5128C16.43 33.0373 16.6437 32.5776 16.8271 32.1066C17.0138 31.627 17.1889 31.1423 17.3661 30.659C17.498 30.2984 17.6379 29.9403 17.7511 29.5739C17.8773 29.1669 17.9748 28.7507 18.0897 28.3399C18.2096 27.9105 18.3407 27.4839 18.4565 27.0537C18.5063 26.8686 18.547 26.6777 18.5611 26.4873C18.6059 25.8915 18.6602 25.2944 18.6648 24.6977C18.6694 24.1085 18.5793 23.5177 18.6021 22.9301C18.6204 22.4513 18.669 21.9625 18.8714 21.5098C19.0096 21.2007 19.0897 20.8555 19.2768 20.5812C19.6125 20.0895 19.9975 19.6302 20.383 19.175C20.8291 18.6481 21.3257 18.1614 21.7477 17.6166C22.0805 17.1867 22.3626 16.7104 22.6116 16.2262C22.7788 15.9004 22.863 15.5282 22.9593 15.1706C23.102 14.6399 23.2327 14.1055 23.3497 13.569C23.4771 12.9831 23.7493 12.474 24.146 12.035C24.5223 11.6184 25.0057 11.3698 25.548 11.2333C25.6999 11.1952 25.8696 11.184 25.997 11.1051C26.1177 11.0309 26.2198 10.8972 26.2853 10.7674C26.5986 10.1487 26.8949 9.52135 27.2003 8.89855C27.4725 8.34379 27.7301 7.78032 28.0297 7.2405C28.2587 6.82806 28.5492 6.45006 28.8006 6.04924C29.1849 5.4364 29.5965 4.836 29.9259 4.19452C30.1906 3.67877 30.5591 3.27297 30.9603 2.87547C31.2748 2.56344 31.5682 2.22984 31.8645 1.89956C32.0703 1.67011 32.3495 1.59169 32.6246 1.49916C33.0706 1.34895 33.5329 1.38132 33.9926 1.36763C34.4445 1.35393 34.8963 1.31866 35.3465 1.27593C35.5005 1.2614 35.6482 1.18962 35.8009 1.15394C36.0498 1.09543 36.3004 1 36.5506 1C37.0913 1 37.5651 1.22531 38.0054 1.53069C38.3784 1.78961 38.6618 2.12736 38.9423 2.48046C39.3605 3.00659 39.8754 3.43977 40.4344 3.81279C40.675 3.97336 40.9472 4.08581 41.1932 4.23892C41.3435 4.33228 41.4584 4.48331 41.6111 4.57003C42.0248 4.80446 42.4459 5.02645 42.872 5.23723C43.2662 5.43225 43.667 5.61564 44.0724 5.78701C44.4803 5.96003 44.8936 6.1202 45.3102 6.27123C45.7604 6.43471 46.2164 6.58242 46.6703 6.73512C46.9134 6.81686 47.167 6.8737 47.4001 6.97743C47.8122 7.16083 48.2843 7.23096 48.6096 7.58364C48.6947 7.67576 48.7835 7.77824 48.8233 7.89276C48.8503 7.97077 48.8262 8.10479 48.7719 8.16661C48.4383 8.54586 48.1329 8.94004 47.8993 9.39231C47.8354 9.51596 47.6815 9.62052 47.5449 9.6728C47.2748 9.77653 46.9898 9.84167 46.7089 9.91512C46.5246 9.96325 46.3383 10.018 46.1504 10.0338C45.6442 10.0761 45.1367 10.1089 44.6288 10.1271C44.2425 10.1408 43.8546 10.1159 43.4679 10.1271C42.9202 10.1433 42.4264 9.96657 41.9405 9.74417C41.8932 9.72259 41.7974 9.71844 41.7737 9.74707C41.5679 9.99603 41.2555 10.011 40.9874 10.1217C40.7011 10.24 40.4182 10.3657 40.131 10.4811C39.9945 10.5358 39.8535 10.5831 39.7103 10.6168C39.4194 10.6856 39.1265 10.7458 38.8327 10.8031C38.7319 10.8226 38.6265 10.818 38.524 10.8321C38.3207 10.8599 38.1166 10.8873 37.9149 10.9255C37.7369 10.9591 37.7884 11.1022 37.8099 11.2076C37.8606 11.4528 37.9153 11.6989 37.9925 11.9366C38.1282 12.3528 38.2825 12.7632 38.4282 13.176C38.551 13.5246 38.6863 13.8694 38.7896 14.2237C38.8995 14.6005 38.9896 14.9839 39.0663 15.3689C39.1277 15.6772 39.1717 15.9913 39.1933 16.3046C39.2149 16.6212 39.2033 16.9402 39.1983 17.2577C39.1933 17.578 39.2622 17.8776 39.395 18.1693C39.5418 18.4925 39.6439 18.8389 39.8157 19.1476C39.9601 19.407 40.1796 19.6236 40.3601 19.863C40.6758 20.2816 41.0074 20.6837 41.1601 21.2094C41.2837 21.6368 41.265 22.0218 41.0493 22.4052C40.9518 22.5787 40.8294 22.7488 40.7812 22.9363C40.7206 23.1716 40.6812 23.4284 40.7099 23.667C40.7779 24.238 40.9339 24.7894 41.1995 25.3068C41.2625 25.4296 41.2825 25.5774 41.3082 25.7159C41.358 25.9852 41.4107 26.2549 41.4385 26.5271C41.4849 26.9777 41.5015 27.4312 41.5513 27.881C41.6032 28.3499 41.6592 28.82 41.7493 29.2822C41.8588 29.8432 42.0057 30.3971 42.1372 30.954C42.2106 31.2652 42.2663 31.5822 42.365 31.8855C42.4758 32.2249 42.6106 32.5581 42.7629 32.8809C42.9471 33.2705 43.15 33.6527 43.3654 34.0265C43.6206 34.4696 43.9338 34.8829 44.1554 35.3414C44.4102 35.8684 44.6069 36.4252 44.801 36.9787C44.9259 37.3351 44.9869 37.7135 45.1023 38.0737C45.2878 38.6525 45.4886 39.2268 45.6952 39.7981C45.8106 40.1168 45.957 40.4243 46.079 40.7408C46.4587 41.7259 47.0831 42.5495 47.7736 43.3308C47.7906 43.3503 47.8134 43.3673 47.8225 43.3902C47.8516 43.4632 47.8615 43.591 47.9043 43.6026C48.0122 43.6316 48.1375 43.6246 48.2503 43.6038C48.5117 43.5553 48.7677 43.4773 49.03 43.4337C49.5366 43.3499 50.0519 43.3097 50.5528 43.2005C51.3872 43.0188 52.2286 43.0043 53.0751 43.0051C53.2502 43.0051 53.424 42.9205 53.6016 42.8935C53.7419 42.8723 53.8933 42.8491 54.0269 42.8806C54.2946 42.9437 54.5589 43.03 54.8145 43.1325C55.1157 43.2532 55.414 43.386 55.6999 43.5395C56.1733 43.7943 56.5684 44.1325 56.8119 44.632C57.0289 45.0773 57.0484 45.5411 56.9202 45.9947C56.7152 46.7175 56.1966 47.1896 55.5306 47.4909C55.0414 47.712 54.5385 47.9083 54.0286 48.0759C53.6813 48.19 53.3108 48.2315 52.9519 48.3116C52.561 48.3987 52.1726 48.4979 51.7809 48.5817C51.561 48.629 51.337 48.6593 51.1141 48.6908C50.8096 48.7336 50.5046 48.7825 50.1984 48.807C49.5822 48.8564 48.9611 48.8606 48.3487 48.9373C47.0748 49.0971 45.7985 48.9805 44.5243 49.0174C44.3998 49.0211 44.2753 49.0178 44.1513 49.0178V49.0207L44.1479 49.0195ZM39.9647 23.8405C39.7991 23.8774 39.6273 23.9052 39.4618 23.9542C39.1763 24.0384 38.8946 24.1359 38.6112 24.2276C38.378 24.3031 38.1361 24.3583 37.9141 24.4579C37.5116 24.6384 37.1203 24.8446 36.7249 25.0421C36.134 25.3375 35.5461 25.6396 34.9511 25.9271C34.8312 25.9852 34.6735 26.0363 34.5561 26.0047C34.4607 25.979 34.3337 25.8213 34.3391 25.7288C34.3465 25.5989 34.4353 25.4404 34.5399 25.357C34.7138 25.2184 34.925 25.1238 35.1258 25.0218C35.5216 24.8205 35.9175 24.6185 36.3208 24.4322C36.8776 24.1749 37.4382 23.9239 38.0033 23.6861C38.2585 23.5787 38.5282 23.5044 38.7937 23.4247C39.0543 23.3467 39.3215 23.2899 39.58 23.206C39.6954 23.1687 39.836 23.1143 39.8979 23.0226C40.08 22.7517 40.2331 22.4604 40.3895 22.1729C40.5887 21.8073 40.5576 21.4318 40.3431 21.0982C40.0725 20.6771 39.775 20.2704 39.4564 19.8846C39.1402 19.5016 38.946 19.068 38.7738 18.6103C38.5763 18.0863 38.4655 17.5585 38.4838 16.995C38.4966 16.6 38.4987 16.2071 38.4099 15.8071C38.3074 15.3444 38.2601 14.871 38.0938 14.4208C37.9373 13.9972 37.8211 13.5582 37.6494 13.1416C37.4187 12.5823 37.2153 12.0205 37.1577 11.413C37.1456 11.2856 37.1066 11.1582 37.0618 11.0379C37.0461 10.9956 36.9793 10.9495 36.932 10.945C36.1324 10.8711 35.332 10.8072 34.5324 10.7317C34.3714 10.7163 34.1963 10.6948 34.0598 10.6188C33.9549 10.5603 33.8304 10.4039 33.8416 10.306C33.854 10.1993 34.003 10.0442 34.1113 10.0267C34.3308 9.99105 34.564 10.0218 34.7893 10.0471C35.1826 10.091 35.5743 10.1969 35.9664 10.1964C36.756 10.1956 37.5498 10.3043 38.3369 10.1288C38.6506 10.0587 38.9767 10.0466 39.295 9.99395C39.4394 9.9703 39.5808 9.92051 39.7182 9.86823C40.1144 9.7172 40.5086 9.55994 40.9028 9.40268C41.0974 9.32467 41.3103 9.2699 41.4775 9.15207C41.6986 8.99605 41.8982 8.95954 42.1476 9.06286C42.4592 9.1919 42.7837 9.37903 43.1036 9.38194C43.7666 9.38774 44.4222 9.54168 45.094 9.43505C45.5707 9.35911 46.0637 9.40849 46.5292 9.21928C46.8512 9.08858 47.196 9.01597 47.5213 8.89232C47.8101 8.78278 48.0151 8.56785 48.1146 8.27118C48.1321 8.2189 48.1039 8.11475 48.0615 8.08487C47.9234 7.98778 47.774 7.90231 47.6196 7.83384C47.4122 7.74131 47.1968 7.66538 46.9827 7.58862C46.7284 7.49734 46.4715 7.41145 46.2155 7.32473C45.8695 7.20772 45.523 7.09071 45.1761 6.97619C44.9027 6.88615 44.6197 6.81852 44.3558 6.7069C43.948 6.53471 43.5521 6.33388 43.1513 6.14468C42.6671 5.91605 42.177 5.69946 41.7015 5.45465C41.1895 5.19076 40.6883 4.91525 40.2269 4.55468C39.619 4.07959 38.9817 3.64599 38.4883 3.04227C38.1381 2.61406 37.7954 2.18669 37.2855 1.92155C36.8527 1.69708 36.4316 1.64978 35.9714 1.81741C35.7378 1.90247 35.4859 1.97798 35.2403 1.98421C34.4424 2.00454 33.647 2.01574 32.8607 2.18793C32.6063 2.24354 32.4113 2.34685 32.2408 2.53689C31.9715 2.83647 31.6885 3.12359 31.4097 3.41446C31.1002 3.73769 30.789 4.0576 30.5749 4.45883C30.3678 4.84679 30.1583 5.23516 29.9251 5.60776C29.5558 6.19903 29.1496 6.76748 28.7907 7.36415C28.5106 7.82969 28.2733 8.32097 28.0268 8.80602C27.8098 9.23339 27.6048 9.66657 27.3994 10.0993C27.1945 10.5321 27.0048 10.9723 26.7882 11.3989C26.7227 11.5279 26.609 11.6727 26.4829 11.723C26.2264 11.8259 25.9447 11.864 25.6758 11.9379C25.1065 12.0947 24.6617 12.4109 24.3613 12.9329C24.0472 13.4785 23.9136 14.0843 23.7883 14.6835C23.6945 15.1307 23.6369 15.5851 23.4547 16.0067C23.2713 16.4311 23.0937 16.8631 22.8576 17.2581C22.6016 17.6867 22.3066 18.0983 21.9838 18.4796C21.4602 19.097 20.8888 19.6738 20.3606 20.2879C20.1378 20.5468 19.9486 20.843 19.7901 21.1464C19.6523 21.4094 19.5623 21.7019 19.483 21.9899C19.4021 22.2837 19.3133 22.5874 19.3104 22.8874C19.3046 23.5181 19.3648 24.1492 19.3735 24.7807C19.3781 25.094 19.3299 25.4085 19.303 25.7222C19.2747 26.0495 19.266 26.3806 19.2084 26.703C19.1125 27.2379 19.0071 27.7727 18.8648 28.2964C18.6922 28.932 18.4835 29.5582 18.2789 30.1847C18.1096 30.7034 17.9337 31.2204 17.742 31.7307C17.5636 32.2054 17.3628 32.6714 17.1677 33.1394C16.9586 33.641 16.7541 34.1452 16.5283 34.6394C16.4553 34.7987 16.3499 34.9734 16.2097 35.0659C15.9155 35.2609 15.5873 35.4041 15.2749 35.5725C14.9396 35.753 14.6039 35.9331 14.2732 36.1215C13.8483 36.3638 13.389 36.5663 13.0147 36.8717C12.3185 37.4401 11.9052 38.1749 11.8658 39.1114C11.8492 39.5048 11.7123 39.8973 11.5994 40.2811C11.5214 40.5462 11.6874 40.9753 11.9235 41.0151C12.2579 41.0715 12.4272 41.3483 12.2646 41.6516C12.0094 42.1271 11.9492 42.657 11.7861 43.157C11.7418 43.2931 11.6945 43.4304 11.6741 43.5706C11.6675 43.6146 11.7397 43.7101 11.7837 43.7155C12.1579 43.7603 12.5334 43.8018 12.9102 43.8221C13.7687 43.8682 14.628 43.9013 15.4869 43.9412C15.6109 43.947 15.7354 43.9532 15.8587 43.9694C16.2296 44.0184 16.5989 44.0823 16.9707 44.1217C17.4831 44.176 17.9976 44.2076 18.5105 44.2603C19.0208 44.3125 19.5291 44.3856 20.0395 44.4358C20.449 44.476 20.8602 44.4939 21.2705 44.5262C21.6809 44.5586 22.0913 44.5964 22.5012 44.6325C22.8896 44.6665 23.2784 44.6976 23.6667 44.737C24.3211 44.803 24.9742 44.8826 25.6293 44.9403C26.1347 44.9847 26.6426 45.0067 27.1492 45.0341C27.6978 45.064 28.2438 45.0582 28.7957 45.1233C29.5023 45.2067 30.2155 45.242 30.9251 45.337C31.5504 45.4208 32.1881 45.4461 32.8196 45.4407C34.3428 45.4279 35.8685 45.52 37.3884 45.3519C37.6402 45.3241 37.8904 45.2781 38.139 45.227C38.3029 45.1934 38.4614 45.1341 38.6232 45.0901C38.9294 45.0071 39.2331 44.9113 39.5435 44.8495C39.8373 44.791 40.1381 44.769 40.436 44.7312C40.931 44.6681 41.4244 44.5843 41.921 44.5466C42.4945 44.503 43.0741 44.6009 43.6459 44.4578C43.9239 44.3881 44.2143 44.3694 44.4973 44.3183C44.5533 44.3084 44.6015 44.2545 44.6533 44.2208C44.6492 44.203 44.645 44.1852 44.6405 44.1673C44.5135 44.1598 44.3865 44.1503 44.2591 44.1457C43.3438 44.1125 42.4285 44.0831 41.5132 44.0466C40.785 44.0175 40.0572 43.9719 39.329 43.9499C38.6937 43.9304 38.0576 43.9345 37.422 43.9262C37.1353 43.9225 36.9801 43.7354 37.0465 43.4707C37.0938 43.2819 37.2332 43.2068 37.4158 43.2138C38.2153 43.2441 39.0149 43.2756 39.814 43.3126C40.4182 43.3404 41.0223 43.4067 41.626 43.4051C42.931 43.4009 44.2326 43.4482 45.5346 43.5345C45.9744 43.5636 45.9989 43.5565 46.1595 43.9682C46.4819 43.913 46.8097 43.8565 47.1586 43.7968C47.1346 43.7379 47.1238 43.6686 47.0852 43.6221C46.6728 43.1267 46.2367 42.6491 45.9334 42.0728C45.8143 41.8462 45.6927 41.6201 45.5877 41.3869C45.4068 40.9852 45.2305 40.5815 45.067 40.1728C44.901 39.7587 44.7367 39.3425 44.6015 38.9177C44.4654 38.4915 44.365 38.0538 44.2513 37.6206C44.2152 37.4828 44.2027 37.3376 44.1533 37.2057C44.0309 36.8779 43.899 36.5534 43.7608 36.2318C43.6534 35.9816 43.5467 35.7285 43.411 35.4929C43.1372 35.0173 42.8252 34.5634 42.5633 34.0817C42.309 33.6132 42.0912 33.1245 41.8704 32.6386C41.7787 32.4365 41.7078 32.222 41.6501 32.0075C41.5621 31.6797 41.4941 31.3461 41.4165 31.0154C41.2895 30.4747 41.1435 29.9374 41.0401 29.3922C40.9464 28.8964 40.8879 28.3926 40.8335 27.8906C40.7833 27.4271 40.7725 26.9591 40.7198 26.4956C40.6904 26.2354 40.6231 25.9773 40.5501 25.7251C40.4945 25.533 40.3879 25.3558 40.3306 25.1637C40.2012 24.7288 40.0879 24.2894 39.9651 23.8409L39.9647 23.8405ZM37.5718 46.1337C37.5693 46.1158 37.5668 46.0984 37.5647 46.0805C37.4996 46.0772 37.434 46.0685 37.3693 46.0722C36.917 46.0967 36.4647 46.1478 36.0129 46.1449C35.3038 46.1403 34.5951 46.0901 33.886 46.0785C33.6063 46.0739 33.3254 46.1386 33.0453 46.1399C32.7931 46.1407 32.5408 46.088 32.2877 46.0768C32.0188 46.0648 31.7487 46.0768 31.4794 46.0718C31.2794 46.0685 31.0773 46.0702 30.8798 46.044C30.5076 45.9955 30.1396 45.9154 29.7674 45.8727C29.3799 45.8283 28.9894 45.8096 28.5998 45.7847C27.9343 45.7424 27.2683 45.7054 26.6028 45.6631C26.2127 45.6382 25.8227 45.6138 25.4339 45.5768C24.758 45.5125 24.0833 45.4349 23.4074 45.3698C22.6622 45.298 21.9174 45.1972 21.1705 45.176C20.3233 45.1519 19.4851 45.0735 18.647 44.9623C18.3017 44.9167 17.9528 44.9022 17.6067 44.8648C17.0151 44.8013 16.4246 44.7266 15.8329 44.6648C15.389 44.6188 14.9442 44.5727 14.4985 44.5499C13.66 44.5063 12.821 44.4802 11.982 44.4453C11.8376 44.4391 11.6928 44.4134 11.5488 44.4183C11.4584 44.4213 11.3708 44.4731 11.2795 44.4864C11.1559 44.5047 10.9638 44.5623 10.9169 44.5063C10.7509 44.3076 10.5576 44.2499 10.3123 44.2258C9.91317 44.1864 9.51857 44.1038 9.1219 44.0412C9.06091 44.0316 8.9966 44.0395 8.93602 44.0271C8.50449 43.9379 8.07629 43.8242 7.64103 43.7594C7.18752 43.6918 6.72778 43.6507 6.26928 43.6321C5.64399 43.6063 5.01703 43.6026 4.40087 43.7503C4.24237 43.7885 4.06519 43.7852 3.92412 43.8553C3.49259 44.0706 3.05775 44.2876 2.6561 44.5524C2.31877 44.7748 2.10093 45.1171 1.90177 45.476C1.68974 45.8581 1.72252 46.2573 1.70468 46.6585C1.67148 47.4191 2.02541 48.027 2.48349 48.5867C2.65278 48.7933 2.84282 48.9883 3.04696 49.1605C3.36231 49.4261 3.67682 49.7037 4.03075 49.9082C4.41373 50.1294 4.84608 50.2647 5.24981 50.4518C5.76888 50.6925 6.28962 50.9227 6.84977 51.0572C7.38295 51.185 7.91073 51.336 8.4435 51.4655C8.64764 51.5153 8.8605 51.5285 9.06796 51.5663C9.37584 51.6223 9.6804 51.7115 9.99076 51.7397C10.5397 51.7895 11.092 51.8223 11.643 51.8277C12.1314 51.8323 12.6202 51.7928 13.1081 51.7671C13.6911 51.7364 14.2736 51.7053 14.8558 51.6626C15.1487 51.641 15.4408 51.5974 15.7321 51.5567C16.2122 51.4904 16.6918 51.4227 17.1707 51.3476C17.5404 51.2895 17.9096 51.2261 18.2768 51.153C18.7577 51.0576 19.2366 50.9522 19.7158 50.8472C20.1527 50.7514 20.5892 50.6526 21.0253 50.5514C21.4573 50.451 21.888 50.3439 22.3195 50.2423C22.9419 50.0958 23.5643 49.9514 24.1871 49.8074C24.3464 49.7705 24.5086 49.7435 24.6667 49.702C24.9953 49.6153 25.3202 49.5161 25.6497 49.4332C25.9854 49.3489 26.3268 49.2879 26.6613 49.2004C27.1202 49.0805 27.5729 48.9361 28.0326 48.8195C28.3882 48.7294 28.7508 48.6672 29.1098 48.5904C29.2562 48.5593 29.4023 48.5265 29.5471 48.4888C29.923 48.3904 30.2973 48.2871 30.6732 48.1892C30.9566 48.1153 31.2425 48.0519 31.525 47.9751C31.8508 47.8863 32.1732 47.7863 32.498 47.6946C32.7918 47.6116 33.0877 47.5361 33.381 47.4519C33.6806 47.366 33.9781 47.2735 34.2773 47.1851C34.537 47.1083 34.7996 47.0415 35.0561 46.956C35.415 46.8365 35.7668 46.6963 36.1266 46.5793C36.6062 46.4233 37.09 46.2814 37.5722 46.1337H37.5718ZM31.83 48.6328C31.8296 48.6502 31.8288 48.6676 31.8284 48.685C31.9412 48.685 32.0545 48.6896 32.1669 48.6842C32.6889 48.6606 33.2105 48.6245 33.7325 48.6104C34.9864 48.5759 36.2411 48.5614 37.4946 48.5174C38.0153 48.4992 38.5352 48.5228 39.0589 48.4211C39.5734 48.3216 40.1111 48.3344 40.6389 48.3137C41.0808 48.2963 41.5231 48.2975 41.9654 48.2971C43.9417 48.295 45.9176 48.2954 47.8939 48.2942C48.0113 48.2942 48.1292 48.2929 48.2458 48.2821C48.8814 48.2224 49.5171 48.1622 50.1519 48.0958C50.4723 48.0622 50.7913 48.0182 51.1104 47.9743C51.3187 47.9456 51.5278 47.917 51.7332 47.8734C52.1519 47.7846 52.5693 47.6876 52.9863 47.59C53.2983 47.517 53.6178 47.4643 53.9178 47.3569C54.3904 47.1876 54.8555 46.9942 55.3124 46.7851C55.8534 46.5374 56.3381 46.0436 56.2609 45.3212C56.226 44.9963 56.102 44.7159 55.8468 44.5237C55.5709 44.3159 55.2817 44.1096 54.9676 43.9731C54.6813 43.8487 54.3564 43.7997 54.0435 43.752C53.7236 43.7034 53.3975 43.6943 53.0734 43.6736C52.9498 43.6657 52.8253 43.6665 52.7017 43.6736C52.3365 43.6947 51.971 43.7159 51.6063 43.7474C51.3208 43.7723 51.0345 43.8014 50.7519 43.8491C50.2503 43.9341 49.7519 44.0383 49.2507 44.1275C48.9677 44.1777 48.6823 44.2117 48.3985 44.2582C48.2167 44.2881 48.0362 44.3258 47.8561 44.3632C47.5831 44.4196 47.3113 44.4818 47.0375 44.5358C46.7827 44.586 46.5267 44.6295 46.2711 44.6744C46.091 44.7063 45.9093 44.7312 45.7301 44.7673C45.2832 44.8578 44.8359 44.9482 44.3907 45.0478C44.0654 45.1204 43.7434 45.2067 43.4202 45.2868C43.3218 45.3113 43.2239 45.3399 43.1243 45.3573C42.8837 45.3988 42.6359 45.4133 42.4019 45.4777C41.8708 45.6241 41.3464 45.7947 40.8194 45.9548C40.7032 45.9901 40.5833 46.0627 40.4713 46.0523C39.9443 46.0038 39.4954 46.2722 39.0136 46.3967C38.5249 46.5229 38.0543 46.7191 37.5734 46.8772C37.2203 46.9934 36.861 47.0921 36.5079 47.2087C36.0457 47.3614 35.5897 47.5332 35.1258 47.6797C34.5656 47.8568 34.0013 48.0191 33.437 48.1817C32.9026 48.3361 32.3657 48.483 31.83 48.6332V48.6328Z" fill="white" stroke="white" stroke-width="0.804442"/>
<path id="Vector_2" d="M42.8291 36.8512C42.5872 36.7861 42.3457 36.7201 42.1034 36.6562C41.9532 36.6164 41.8022 36.5795 41.6515 36.5413C41.2088 36.4288 40.7615 36.3318 40.3246 36.2002C39.8533 36.0583 39.3948 35.8753 38.9259 35.726C38.184 35.4895 37.5604 35.031 36.8903 34.66C36.6463 34.5247 36.3928 34.4065 36.1405 34.2857C35.887 34.1646 35.6347 34.0401 35.3741 33.9356C34.8845 33.7389 34.3953 33.5381 33.8949 33.3717C33.3928 33.2049 32.8775 33.2484 32.3659 33.3592C32.0128 33.436 31.6493 33.4737 31.3054 33.5787C30.9215 33.6957 30.5494 33.8563 30.1817 34.0206C29.7925 34.1945 29.4129 34.3911 29.0328 34.5841C28.6519 34.7774 28.2801 34.9882 27.8955 35.1737C27.5025 35.3633 27.098 35.5297 26.7005 35.7098C26.469 35.8148 26.2441 35.9343 26.0113 36.0355C25.7084 36.167 25.4018 36.2907 25.0935 36.4102C24.7595 36.5396 24.4242 36.6674 24.0852 36.7832C23.8114 36.877 23.5309 36.9512 23.2537 37.0351C22.9769 37.1189 22.7014 37.2072 22.4234 37.2873C22.2338 37.3417 22.0434 37.3994 21.8496 37.4309C21.3434 37.5135 20.8368 37.6039 20.3268 37.6508C19.7675 37.7023 19.2011 37.7533 18.6426 37.7213C18.1588 37.6935 17.6812 37.5512 17.2012 37.457C16.9958 37.4168 16.7933 37.3575 16.5867 37.3301C16.395 37.3043 16.2593 37.189 16.2547 37.0056C16.2506 36.8375 16.4182 36.6434 16.5767 36.6176C16.8315 36.5761 17.0584 36.6662 17.2912 36.7459C17.475 36.8089 17.6617 36.8778 17.853 36.9031C18.2804 36.96 18.7102 37.0031 19.1405 37.0288C19.4434 37.0471 19.7509 37.0504 20.0517 37.0197C20.3754 36.9865 20.6944 36.9052 21.0156 36.845C21.1961 36.811 21.3795 36.7878 21.5571 36.7413C22.2351 36.5649 22.9159 36.3973 23.5861 36.1944C24.0089 36.0666 24.4176 35.8894 24.8263 35.7202C25.3731 35.4936 25.9171 35.2596 26.4565 35.016C26.9544 34.7911 27.4461 34.5525 27.937 34.3127C28.5523 34.0119 29.1556 33.6849 29.7801 33.4049C30.307 33.1688 30.8547 32.9779 31.3979 32.7796C31.5489 32.7244 31.7149 32.6978 31.8763 32.6845C32.458 32.6368 33.0439 32.5468 33.6227 32.5783C34.0256 32.6003 34.4248 32.7775 34.8148 32.9161C35.1928 33.0505 35.5596 33.2198 35.9268 33.3829C36.2446 33.5244 36.5645 33.6642 36.8691 33.8306C37.5529 34.2044 38.2135 34.6223 38.911 34.9666C39.3242 35.1708 39.7889 35.2704 40.2308 35.4156C40.5068 35.506 40.7819 35.599 41.0603 35.682C41.2167 35.7284 41.3794 35.7525 41.5374 35.7932C41.9258 35.8936 42.3125 36.0002 42.7013 36.099C42.7739 36.1172 42.8523 36.1131 42.9283 36.1172C43.193 36.1318 43.288 36.2313 43.2826 36.4894C43.2772 36.7338 43.1806 36.8226 42.9183 36.8243C42.8905 36.8243 42.8631 36.8243 42.8353 36.8243C42.8328 36.833 42.8308 36.8417 42.8283 36.8508L42.8291 36.8512Z" fill="white" stroke="white" stroke-width="0.804442"/>
<path id="Vector_3" d="M36.3039 39.9055C36.02 39.8627 35.7375 39.8017 35.4524 39.7818C35.1221 39.7586 34.7894 39.7797 34.4578 39.766C33.7296 39.7353 33.0019 39.6988 32.2745 39.654C32.1558 39.6465 32.0123 39.6142 31.9314 39.5383C31.8504 39.4627 31.7803 39.3051 31.804 39.2076C31.828 39.1092 31.9737 38.9694 32.0654 38.9702C32.6284 38.9735 33.1915 39.0117 33.7545 39.0387C33.8301 39.0424 33.9056 39.0532 33.9815 39.054C34.3616 39.0586 34.7433 39.0383 35.1209 39.0698C35.6035 39.1096 36.0831 39.1885 36.5632 39.2544C36.7723 39.2831 36.9827 39.3109 37.1881 39.3586C37.7312 39.4851 38.2731 39.6167 38.8125 39.7577C38.9996 39.8067 39.1843 39.8752 39.3594 39.9582C39.5602 40.0532 39.5478 40.264 39.4843 40.4092C39.4324 40.5274 39.2706 40.6573 39.1453 40.6706C38.9125 40.6951 38.6718 40.627 38.4333 40.6183C38.0955 40.6059 37.7569 40.6021 37.4192 40.6137C36.9864 40.6291 36.5528 40.649 36.1221 40.6938C35.7221 40.7353 35.3263 40.8191 34.9271 40.8702C34.4993 40.9249 34.0703 40.971 33.6404 41.0054C33.4749 41.0187 33.3305 40.9523 33.3122 40.754C33.289 40.505 33.3504 40.4212 33.5981 40.3781C34.0085 40.3059 34.4197 40.2395 34.8313 40.1735C35.3209 40.0951 35.8109 40.02 36.301 39.9436C36.3022 39.9312 36.303 39.9192 36.3043 39.9067L36.3039 39.9055Z" fill="white" stroke="white" stroke-width="0.804442"/>
<path id="Vector_4" d="M34.7088 27.5497C34.8511 27.6165 35.044 27.658 35.1652 27.7745C35.4618 28.0588 35.8481 28.1799 36.1834 28.3915C36.807 28.7853 37.4431 29.16 38.0734 29.5438C38.156 29.594 38.2398 29.6446 38.3157 29.704C38.4887 29.8401 38.5638 30.0844 38.4788 30.2122C38.4008 30.3293 38.0639 30.3761 37.9037 30.2807C37.5896 30.094 37.283 29.8952 36.9684 29.7094C36.4469 29.4006 35.9228 29.0961 35.3971 28.7944C35.1444 28.6496 34.8793 28.5256 34.6307 28.3737C34.4258 28.2488 34.2561 28.399 34.0806 28.4322C33.7781 28.4895 33.4847 28.6027 33.1943 28.7098C32.9308 28.8069 32.6735 28.9218 32.4179 29.0392C32.013 29.2251 31.6109 29.4164 31.2101 29.6114C30.9707 29.728 30.7317 29.8479 30.5014 29.9811C30.2811 30.1085 30.0043 30.0629 29.9076 29.8649C29.8346 29.7147 29.8931 29.5094 30.0707 29.4065C30.3744 29.2305 30.6848 29.0646 31.0006 28.9114C31.4644 28.6866 31.9321 28.4687 32.4047 28.2633C32.6561 28.1542 32.9212 28.0762 33.1814 27.9874C33.4237 27.9044 33.6656 27.8185 33.9113 27.7476C34.1594 27.6762 34.4125 27.6219 34.7083 27.5488L34.7088 27.5497Z" fill="white" stroke="white" stroke-width="0.804442"/>
<path id="Vector_5" d="M28.8512 37.5951C28.8537 37.7897 28.7429 37.8793 28.5786 37.9752C28.1521 38.2237 27.7525 38.5175 27.3309 38.7747C26.721 39.1465 26.1131 39.5253 25.4812 39.8573C24.8941 40.166 24.2817 40.4286 23.6717 40.6909C23.2344 40.8792 22.7842 41.0386 22.3365 41.2016C22.0079 41.3211 21.6788 41.4473 21.3398 41.524C21.2162 41.5522 21.0183 41.4875 20.9303 41.3937C20.7162 41.1647 20.9162 40.8929 21.2357 40.8029C21.6423 40.6888 22.0427 40.5498 22.4406 40.4083C22.8269 40.2709 23.2124 40.1295 23.5887 39.9672C23.9999 39.79 24.4041 39.595 24.8045 39.3946C25.2136 39.1896 25.6202 38.978 26.0177 38.7515C26.4173 38.5237 26.8086 38.2801 27.1961 38.0324C27.5878 37.7822 27.9654 37.5096 28.36 37.264C28.6015 37.1138 28.855 37.2938 28.8512 37.5947V37.5951Z" fill="white" stroke="white" stroke-width="0.804442"/>
<path id="Vector_6" d="M29.2321 42.4246C29.8777 42.4565 30.5279 42.4507 31.1673 42.5317C31.7868 42.6101 32.3959 42.7765 33.0083 42.9072C33.3407 42.9781 33.6747 43.0445 34.0021 43.1341C34.3286 43.2237 34.651 43.3308 34.9689 43.4478C35.1137 43.5013 35.1913 43.7648 35.1303 43.9063C35.0846 44.0121 34.8062 44.1329 34.685 44.0963C34.1817 43.9441 33.6818 43.7789 33.1743 43.642C32.82 43.5466 32.4519 43.5017 32.0955 43.4117C31.5196 43.2657 30.9337 43.2221 30.3437 43.2009C29.8018 43.1818 29.2586 43.1175 28.7188 43.1395C28.2085 43.1607 27.7014 43.2661 27.1935 43.3403C27.0616 43.3594 26.9317 43.4258 26.8027 43.4217C26.7102 43.4188 26.5649 43.3524 26.5417 43.2823C26.5064 43.176 26.5263 43.0258 26.5778 42.9217C26.6931 42.6877 26.9475 42.6607 27.1666 42.6263C27.5662 42.564 27.9711 42.5391 28.3736 42.4956C28.6591 42.4644 28.9441 42.4275 29.2292 42.3931C29.2304 42.4034 29.2313 42.4138 29.2325 42.4242L29.2321 42.4246Z" fill="white" stroke="white" stroke-width="0.804442"/>
<path id="Vector_7" d="M34.4734 26.8963C34.014 26.9257 33.6526 26.6768 33.319 26.4316C32.7215 25.9922 32.1324 25.5324 31.595 25.0233C31.0091 24.4685 30.4859 23.8478 29.9353 23.2561C29.7357 23.042 29.5291 22.8341 29.3374 22.6134C29.0943 22.3333 28.8482 22.0537 28.6308 21.7537C28.4752 21.5387 28.5154 21.3184 28.6793 21.2151C28.8258 21.1226 29.1196 21.2118 29.2577 21.374C29.793 22.0022 30.3141 22.6437 30.876 23.2474C31.4307 23.8437 32.0145 24.4154 32.6128 24.9677C32.9933 25.3191 33.4141 25.6303 33.8369 25.9307C34.0223 26.0623 34.258 26.1249 34.4742 26.2108C34.5111 26.2253 34.5655 26.2029 34.6099 26.1909C34.8294 26.1316 35.0132 26.2079 35.1128 26.3975C35.2128 26.5884 34.9746 26.856 34.8244 26.8718C34.7078 26.8842 34.5904 26.8884 34.4734 26.8959V26.8963Z" fill="white" stroke="white" stroke-width="0.804442"/>
<path id="Vector_8" d="M33.6842 36.1199C33.9879 36.1199 34.2937 36.0983 34.5954 36.1257C34.914 36.1548 35.2286 36.2286 35.5443 36.2875C35.7381 36.3241 35.9327 36.3602 36.1223 36.4124C36.553 36.5311 36.9816 36.656 37.4094 36.7855C37.6605 36.8614 37.9057 36.9581 38.1575 37.0315C38.3152 37.0776 38.4314 37.2336 38.4181 37.4224C38.4052 37.6083 38.2808 37.7597 38.1094 37.7282C37.8239 37.6755 37.5459 37.5813 37.2671 37.4979C36.9837 37.4132 36.7049 37.3141 36.4207 37.2332C36.0754 37.1348 35.7294 37.0365 35.3792 36.961C35.0925 36.8992 34.7995 36.8647 34.5083 36.8294C34.2361 36.7967 33.9597 36.7448 33.6896 36.7631C33.2705 36.7913 32.8548 36.8684 32.439 36.9336C32.3855 36.9419 32.3332 36.9967 32.293 37.0415C32.0336 37.3298 31.8287 37.217 31.6407 37.0104C31.4992 36.8552 31.5942 36.539 31.8556 36.4224C32.1606 36.2863 32.488 36.1801 32.8166 36.1228C33.0983 36.0739 33.395 36.1129 33.685 36.1129C33.685 36.1149 33.685 36.1174 33.685 36.1195L33.6842 36.1199Z" fill="white" stroke="white" stroke-width="0.804442"/>
<path id="Vector_9" d="M31.5985 28.327C31.1861 28.2212 30.7728 28.1179 30.3612 28.0091C30.0878 27.9369 29.8073 27.8793 29.5455 27.776C29.1281 27.6112 28.7223 27.4175 28.3144 27.2291C27.875 27.0266 27.5572 26.6735 27.2277 26.3357C27.1978 26.305 27.1547 26.266 27.1186 26.2669C26.8746 26.2731 26.7564 26.103 26.7518 25.9158C26.7485 25.7797 26.8497 25.5988 26.9617 25.5121C27.0978 25.4067 27.2991 25.3939 27.4505 25.5316C27.6128 25.6793 27.7713 25.8337 27.914 26.0001C28.2779 26.4245 28.7368 26.6955 29.2567 26.8805C29.5803 26.9955 29.8949 27.1353 30.2197 27.2457C30.4953 27.3394 30.777 27.4208 31.0612 27.4814C31.3064 27.5336 31.56 27.5477 31.8093 27.5805C31.9761 27.6025 32.0956 27.7477 32.0981 27.927C32.1006 28.0979 31.9803 28.2523 31.8151 28.2788C31.7479 28.2896 31.6774 28.2805 31.6085 28.2805C31.6052 28.2959 31.6019 28.3112 31.599 28.3266L31.5985 28.327Z" fill="white" stroke="white" stroke-width="0.804442"/>
<path id="Vector_10" d="M33.7705 23.0271C33.7198 23.2889 33.4742 23.4495 33.2468 23.3553C32.9908 23.2491 32.7402 23.1258 32.4987 22.9897C32.0439 22.7333 31.5971 22.4628 31.1477 22.1968C30.5668 21.8532 29.9855 21.5105 29.4067 21.1628C29.139 21.0022 29.0648 20.7184 29.2312 20.5383C29.3349 20.4259 29.4561 20.3736 29.5955 20.4504C29.8818 20.6076 30.1639 20.7732 30.4452 20.9392C30.8701 21.1898 31.2904 21.4487 31.7174 21.6952C32.3145 22.04 32.9199 22.3707 33.5128 22.7225C33.6207 22.7864 33.6858 22.9233 33.7705 23.0262V23.0271Z" fill="white" stroke="white" stroke-width="0.804442"/>
<path id="Vector_11" d="M32.3374 14.1592C32.7088 14.1733 32.8548 14.2978 32.8237 14.5944C32.8046 14.7778 32.7067 14.8778 32.5187 14.8899C31.8561 14.9322 31.2187 15.099 30.5835 15.2782C30.2835 15.3629 29.976 15.421 29.6781 15.511C29.4951 15.5662 29.3292 15.6782 29.1454 15.7284C28.9769 15.7745 28.786 15.8143 28.6213 15.7803C28.4367 15.7421 28.4151 15.3446 28.6072 15.2073C28.7989 15.0699 29.0296 14.9774 29.2541 14.8965C29.5566 14.7874 29.869 14.7061 30.1785 14.6173C30.3495 14.5683 30.5217 14.521 30.6964 14.487C31.1051 14.4073 31.5154 14.338 31.9245 14.26C32.0635 14.2335 32.2 14.1932 32.3378 14.1592H32.3374Z" fill="white" stroke="white" stroke-width="0.804442"/>
<path id="Vector_12" d="M37.7082 22.8168C37.2983 22.7205 36.9692 23.0172 36.5954 23.1649C36.2572 23.2985 35.9278 23.457 35.583 23.5703C35.3539 23.6454 34.9668 23.4885 35.0423 23.1591C35.0635 23.067 35.1593 22.9404 35.2419 22.9217C35.8311 22.7885 36.3452 22.4873 36.8813 22.233C37.0253 22.1645 37.1904 22.1222 37.3493 22.1081C37.575 22.0881 37.8045 22.1018 38.0323 22.1081C38.2551 22.1143 38.3974 22.2591 38.3962 22.4666C38.3949 22.6973 38.2808 22.8089 38.0364 22.8163C37.9398 22.8192 37.8431 22.8168 37.7086 22.8168H37.7082Z" fill="white" stroke="white" stroke-width="0.804442"/>
<path id="Vector_13" d="M39.9429 37.0362C40.0366 37.0627 40.1731 37.0976 40.3076 37.1403C40.9055 37.3295 41.5005 37.527 42.054 37.8291C42.2046 37.9112 42.3602 37.9859 42.5063 38.0756C42.6457 38.161 42.7216 38.4229 42.6341 38.5668C42.5519 38.7021 42.4133 38.7768 42.2474 38.7278C42.1515 38.6996 42.0636 38.6453 41.9719 38.6033C41.5602 38.4146 41.154 38.2125 40.735 38.0419C40.4308 37.9183 40.1101 37.8357 39.7964 37.7361C39.6416 37.6868 39.4869 37.4689 39.5126 37.3341C39.5445 37.1669 39.7167 37.0337 39.9429 37.0362Z" fill="white" stroke="white" stroke-width="0.804442"/>
<path id="Vector_14" d="M30.3713 17.7736C30.3726 18.062 30.1506 18.1936 29.8825 18.0728C29.366 17.8405 28.8427 17.6259 28.2805 17.5259C28.1195 17.4973 27.9602 17.4562 27.8025 17.4118C27.6415 17.3666 27.4996 17.1359 27.5399 16.9998C27.6046 16.782 27.866 16.6666 28.1062 16.7322C28.3751 16.8056 28.6539 16.8455 28.9191 16.9284C29.2344 17.0268 29.5411 17.1533 29.8493 17.2728C29.9556 17.3139 30.0576 17.3658 30.1585 17.4197C30.3348 17.5139 30.3705 17.5774 30.3713 17.7736Z" fill="white" stroke="white" stroke-width="0.804442"/>
</g>
</svg>
