<svg width="240" height="60" viewBox="0 0 240 60" fill="none" xmlns="http://www.w3.org/2000/svg">
<rect x="4.5" y="4.5" width="231" height="51" rx="1.5" fill="#09090E"/>
<rect x="4.5" y="4.5" width="231" height="51" rx="1.5" stroke="#CC9A54"/>
<path d="M41.7024 36.052L45.9024 23.256L43.4944 20.82H49.3464L47.4424 23.228L41.4504 40.336H39.7424L35.6824 29.444L31.7064 40.336H29.9984L23.0544 22.472L21.5984 20.82H29.2424L27.0024 22.528L31.5944 34.82L31.8744 35.856L35.0664 27.792L33.0504 22.416L31.6504 20.82H39.2944L37.0264 22.528L41.3664 34.82L41.7024 36.052ZM50.7842 22.108L53.1922 19.532L55.5722 22.108L53.1922 24.712L50.7842 22.108ZM49.6922 27.876L54.9562 26V37.592L57.0282 40H49.5242L51.5962 37.592V30.032L49.6922 27.876ZM74.7343 40H67.2303L69.2463 37.592V31.376C69.2463 29.22 68.9383 27.848 66.7823 27.848C65.7463 27.848 64.6823 28.296 63.7863 29.5V37.592L65.8023 40H58.2983L60.4263 37.592V30.032L58.5223 27.876L63.7863 26V28.548C64.9063 26.812 66.7263 25.944 68.4063 25.944C71.2623 25.944 72.6063 27.792 72.6063 30.424V37.592L74.7343 40ZM92.289 40H84.785L86.801 37.592V31.376C86.801 29.22 86.493 27.848 84.337 27.848C83.301 27.848 82.237 28.296 81.341 29.5V37.592L83.357 40H75.853L77.981 37.592V30.032L76.077 27.876L81.341 26V28.548C82.461 26.812 84.281 25.944 85.961 25.944C88.817 25.944 90.161 27.792 90.161 30.424V37.592L92.289 40ZM94.8077 22.108L97.2157 19.532L99.5957 22.108L97.2157 24.712L94.8077 22.108ZM93.7157 27.876L98.9797 26V37.592L101.052 40H93.5477L95.6197 37.592V30.032L93.7157 27.876ZM118.758 40H111.254L113.27 37.592V31.376C113.27 29.22 112.962 27.848 110.806 27.848C109.77 27.848 108.706 28.296 107.81 29.5V37.592L109.826 40H102.322L104.45 37.592V30.032L102.546 27.876L107.81 26V28.548C108.93 26.812 110.75 25.944 112.43 25.944C115.286 25.944 116.63 27.792 116.63 30.424V37.592L118.758 40ZM131.832 23.508L131.944 23.536C131.804 25.244 131.524 26.224 130.908 27.512C131.552 28.268 131.888 29.22 131.888 30.228C131.888 32.636 129.9 35.632 125.56 35.632C124.944 35.632 124.384 35.548 123.88 35.408C123.488 35.772 122.844 36.276 122.844 36.668C122.844 37.508 123.404 37.9 124.384 38.012H131.916C132.224 38.516 132.56 39.356 132.56 40.308C132.56 43.556 130.068 46.496 125.476 46.496C121.696 46.496 119.876 45.292 119.876 43.332C119.876 41.96 121.332 41.176 122.256 40.784C121.444 40.448 120.576 39.552 120.576 38.516C120.576 36.808 122.088 35.856 123.18 35.184C121.444 34.456 120.576 32.888 120.576 31.236C120.576 28.828 122.508 25.944 126.848 25.944C127.38 25.944 127.856 26 128.276 26.084L131.832 23.508ZM125.644 26.756C124.272 26.756 124.16 28.408 124.16 29.528C124.16 32.412 125.14 34.848 126.736 34.848C128.108 34.848 128.276 33.028 128.276 31.908C128.276 29.024 127.24 26.756 125.644 26.756ZM130.068 41.176H122.928C122.312 41.652 122.004 42.296 122.004 43.08C122.004 44.928 123.348 45.852 125.868 45.852C129.004 45.852 130.46 44.116 130.46 42.772C130.46 42.072 130.348 41.54 130.068 41.176ZM158.116 37.032L160.188 40H152.404L154.476 37.032V30.676H146.048V37.032L148.12 40H140.336L142.408 37.032V23.76L140.364 20.82H148.148L146.048 23.788V29.416H154.476V23.76L152.432 20.82H160.216L158.116 23.788V37.032ZM175.904 32.524C175.904 36.136 173.468 40.336 168.26 40.336C164.284 40.336 162.184 37.116 162.184 33.756C162.184 30.144 164.62 25.944 169.828 25.944C173.804 25.944 175.904 29.164 175.904 32.524ZM168.316 27.008C165.992 27.008 165.74 29.528 165.74 31.208C165.74 35.576 167.336 39.272 169.8 39.272C171.872 39.272 172.404 36.528 172.404 35.072C172.404 30.704 170.78 27.008 168.316 27.008ZM182.53 26.252V34.848C182.53 37.004 182.838 38.376 184.994 38.376C185.946 38.376 186.926 37.9 187.654 37.06V28.688L185.582 26.252H191.014V37.704L192.918 40L187.654 40.168V37.928C186.646 39.328 185.358 40.28 183.37 40.28C180.514 40.28 179.17 38.432 179.17 35.8V28.688L177.07 26.252H182.53ZM194.173 34.708H194.397C195.125 37.116 197.337 39.216 199.633 39.216C200.781 39.216 201.733 38.656 201.733 37.396C201.733 34.092 194.313 35.716 194.313 30.172C194.313 28.1 196.133 26.28 198.989 26.28H202.069L203.105 25.692V30.34L202.937 30.312C201.929 28.492 200.249 27.148 198.457 27.176C197.281 27.204 196.609 27.932 196.609 29.024C196.609 31.908 204.281 30.648 204.281 35.772C204.281 39.02 201.005 40.28 198.793 40.28C197.393 40.28 195.489 40.084 194.425 39.636L194.173 34.708ZM217.892 32.076V32.104H208.904C209.212 35.716 211.144 37.228 213.328 37.228C215.232 37.228 216.912 36.276 217.332 35.1L217.752 35.268C216.744 37.816 214.756 40.392 211.424 40.392C207.756 40.392 205.684 37.116 205.684 33.756C205.684 30.144 207.924 26 212.488 26C215.82 26 217.864 28.24 217.892 32.02L217.92 32.076H217.892ZM214.28 31.264V31.012C214.28 28.016 213.076 26.84 211.844 26.84C209.716 26.84 208.848 29.388 208.848 31.068V31.264H214.28Z" fill="white"/>
<mask id="path-3-inside-1_1798_4049" fill="white">
<path fill-rule="evenodd" clip-rule="evenodd" d="M240 11.9021C240 11.1929 239.276 10.7044 238.581 10.8438C238.07 10.9463 237.541 11 237 11C232.582 11 229 7.41828 229 3C229 2.45879 229.054 1.93014 229.156 1.41908C229.296 0.723682 228.807 0 228.098 0H11.9021C11.1929 0 10.7044 0.723677 10.8438 1.41907C10.9463 1.93013 11 2.45879 11 3C11 7.41828 7.41828 11 3 11C2.45879 11 1.93013 10.9463 1.41907 10.8438C0.723677 10.7044 0 11.1929 0 11.9021V48.0979C0 48.8071 0.723679 49.2956 1.41907 49.1562C1.93013 49.0537 2.45879 49 3 49C7.41828 49 11 52.5817 11 57C11 57.5412 10.9463 58.0699 10.8438 58.5809C10.7044 59.2763 11.1929 60 11.9021 60H228.098C228.807 60 229.296 59.2763 229.156 58.5809C229.054 58.0699 229 57.5412 229 57C229 52.5817 232.582 49 237 49C237.541 49 238.07 49.0537 238.581 49.1562C239.276 49.2956 240 48.8071 240 48.0979V11.9021Z"/>
</mask>
<path d="M229.156 58.5809L230.137 58.3844L229.156 58.5809ZM1.41907 10.8438L1.61561 9.86332L1.41907 10.8438ZM238.581 49.1562L238.777 48.1757L238.581 49.1562ZM10.8438 1.41907L9.86332 1.61561L10.8438 1.41907ZM1.41907 49.1562L1.22254 48.1757L1.41907 49.1562ZM229.156 1.41908L228.176 1.22255L229.156 1.41908ZM10.8438 58.5809L9.86332 58.3844L10.8438 58.5809ZM238.581 10.8438L238.777 11.8243L238.581 10.8438ZM238.384 9.86332C237.938 9.95286 237.475 10 237 10V12C237.608 12 238.202 11.9397 238.777 11.8243L238.384 9.86332ZM237 10C233.134 10 230 6.86599 230 3H228C228 7.97056 232.029 12 237 12V10ZM230 3C230 2.52515 230.047 2.06232 230.137 1.61561L228.176 1.22255C228.06 1.79796 228 2.39244 228 3H230ZM11.9021 1H228.098V-1H11.9021V1ZM12 3C12 2.39243 11.9397 1.79795 11.8243 1.22254L9.86332 1.61561C9.95286 2.06232 10 2.52515 10 3H12ZM3 12C7.97056 12 12 7.97056 12 3H10C10 6.86599 6.86599 10 3 10V12ZM1.22254 11.8243C1.79795 11.9397 2.39243 12 3 12V10C2.52515 10 2.06232 9.95286 1.61561 9.86332L1.22254 11.8243ZM1 48.0979V11.9021H-1V48.0979H1ZM3 48C2.39243 48 1.79795 48.0603 1.22254 48.1757L1.61561 50.1367C2.06232 50.0471 2.52515 50 3 50V48ZM12 57C12 52.0294 7.97056 48 3 48V50C6.86599 50 10 53.134 10 57H12ZM11.8243 58.7775C11.9397 58.2021 12 57.6076 12 57H10C10 57.4749 9.95286 57.9377 9.86332 58.3844L11.8243 58.7775ZM228.098 59H11.9021V61H228.098V59ZM228 57C228 57.6076 228.06 58.202 228.176 58.7775L230.137 58.3844C230.047 57.9377 230 57.4749 230 57H228ZM237 48C232.029 48 228 52.0294 228 57H230C230 53.134 233.134 50 237 50V48ZM238.777 48.1757C238.202 48.0603 237.608 48 237 48V50C237.475 50 237.938 50.0471 238.384 50.1367L238.777 48.1757ZM239 11.9021V48.0979H241V11.9021H239ZM228.098 61C229.564 61 230.374 59.5693 230.137 58.3844L228.176 58.7775C228.189 58.8415 228.171 58.9147 228.134 58.966C228.118 58.9887 228.104 58.9975 228.101 58.9995C228.1 59.0002 228.101 59 228.098 59V61ZM1.61561 9.86332C0.430746 9.62582 -1 10.4361 -1 11.9021H1C1 11.8991 0.999817 11.9005 1.00049 11.8992C1.00253 11.8955 1.0113 11.882 1.03405 11.8656C1.08532 11.8285 1.15849 11.8115 1.22254 11.8243L1.61561 9.86332ZM238.384 50.1367C239.569 50.3742 241 49.5639 241 48.0979H239C239 48.1009 239 48.0995 239 48.1008C238.997 48.1045 238.989 48.118 238.966 48.1344C238.915 48.1715 238.842 48.1885 238.777 48.1757L238.384 50.1367ZM11.9021 -1C10.4361 -1 9.62582 0.43074 9.86332 1.61561L11.8243 1.22254C11.8115 1.15849 11.8285 1.08532 11.8656 1.03405C11.882 1.01131 11.8955 1.00253 11.8992 1.00049C11.9005 0.999817 11.8991 1 11.9021 1V-1ZM-1 48.0979C-1 49.5639 0.430742 50.3742 1.61561 50.1367L1.22254 48.1757C1.15849 48.1885 1.08533 48.1715 1.03405 48.1344C1.01131 48.118 1.00253 48.1045 1.00049 48.1008C0.999817 48.0995 1 48.1009 1 48.0979H-1ZM230.137 1.61561C230.374 0.430763 229.564 -1 228.098 -1V1C228.101 1 228.1 0.999817 228.101 1.00049C228.104 1.00252 228.118 1.0113 228.134 1.03404C228.171 1.08532 228.189 1.15849 228.176 1.22255L230.137 1.61561ZM9.86332 58.3844C9.62582 59.5693 10.4361 61 11.9021 61V59C11.8991 59 11.9005 59.0002 11.8992 58.9995C11.8955 58.9975 11.882 58.9887 11.8656 58.966C11.8285 58.9147 11.8115 58.8415 11.8243 58.7775L9.86332 58.3844ZM238.777 11.8243C238.842 11.8115 238.915 11.8285 238.966 11.8656C238.989 11.882 238.997 11.8955 239 11.8992C239 11.9005 239 11.8991 239 11.9021H241C241 10.4361 239.569 9.62582 238.384 9.86332L238.777 11.8243Z" fill="#CC9A54" mask="url(#path-3-inside-1_1798_4049)"/>
</svg>
