<svg width="240" height="80" viewBox="0 0 240 80" fill="none" xmlns="http://www.w3.org/2000/svg">
<rect x="4.5" y="4.5" width="231" height="51" rx="1.5" fill="#09090E"/>
<rect x="4.5" y="4.5" width="231" height="51" rx="1.5" stroke="#CC9A54"/>
<g filter="url(#filter0_d_1_105)">
<mask id="path-2-outside-1_1_105" maskUnits="userSpaceOnUse" x="19" y="18" width="201" height="30" fill="black">
<rect fill="white" x="19" y="18" width="201" height="30"/>
<path d="M41.7024 36.052L45.9024 23.256L43.4944 20.82H49.3464L47.4424 23.228L41.4504 40.336H39.7424L35.6824 29.444L31.7064 40.336H29.9984L23.0544 22.472L21.5984 20.82H29.2424L27.0024 22.528L31.5944 34.82L31.8744 35.856L35.0664 27.792L33.0504 22.416L31.6504 20.82H39.2944L37.0264 22.528L41.3664 34.82L41.7024 36.052ZM50.7842 22.108L53.1922 19.532L55.5722 22.108L53.1922 24.712L50.7842 22.108ZM49.6922 27.876L54.9562 26V37.592L57.0282 40H49.5242L51.5962 37.592V30.032L49.6922 27.876ZM74.7343 40H67.2303L69.2463 37.592V31.376C69.2463 29.22 68.9383 27.848 66.7823 27.848C65.7463 27.848 64.6823 28.296 63.7863 29.5V37.592L65.8023 40H58.2983L60.4263 37.592V30.032L58.5223 27.876L63.7863 26V28.548C64.9063 26.812 66.7263 25.944 68.4063 25.944C71.2623 25.944 72.6063 27.792 72.6063 30.424V37.592L74.7343 40ZM92.289 40H84.785L86.801 37.592V31.376C86.801 29.22 86.493 27.848 84.337 27.848C83.301 27.848 82.237 28.296 81.341 29.5V37.592L83.357 40H75.853L77.981 37.592V30.032L76.077 27.876L81.341 26V28.548C82.461 26.812 84.281 25.944 85.961 25.944C88.817 25.944 90.161 27.792 90.161 30.424V37.592L92.289 40ZM94.8077 22.108L97.2157 19.532L99.5957 22.108L97.2157 24.712L94.8077 22.108ZM93.7157 27.876L98.9797 26V37.592L101.052 40H93.5477L95.6197 37.592V30.032L93.7157 27.876ZM118.758 40H111.254L113.27 37.592V31.376C113.27 29.22 112.962 27.848 110.806 27.848C109.77 27.848 108.706 28.296 107.81 29.5V37.592L109.826 40H102.322L104.45 37.592V30.032L102.546 27.876L107.81 26V28.548C108.93 26.812 110.75 25.944 112.43 25.944C115.286 25.944 116.63 27.792 116.63 30.424V37.592L118.758 40ZM131.832 23.508L131.944 23.536C131.804 25.244 131.524 26.224 130.908 27.512C131.552 28.268 131.888 29.22 131.888 30.228C131.888 32.636 129.9 35.632 125.56 35.632C124.944 35.632 124.384 35.548 123.88 35.408C123.488 35.772 122.844 36.276 122.844 36.668C122.844 37.508 123.404 37.9 124.384 38.012H131.916C132.224 38.516 132.56 39.356 132.56 40.308C132.56 43.556 130.068 46.496 125.476 46.496C121.696 46.496 119.876 45.292 119.876 43.332C119.876 41.96 121.332 41.176 122.256 40.784C121.444 40.448 120.576 39.552 120.576 38.516C120.576 36.808 122.088 35.856 123.18 35.184C121.444 34.456 120.576 32.888 120.576 31.236C120.576 28.828 122.508 25.944 126.848 25.944C127.38 25.944 127.856 26 128.276 26.084L131.832 23.508ZM125.644 26.756C124.272 26.756 124.16 28.408 124.16 29.528C124.16 32.412 125.14 34.848 126.736 34.848C128.108 34.848 128.276 33.028 128.276 31.908C128.276 29.024 127.24 26.756 125.644 26.756ZM130.068 41.176H122.928C122.312 41.652 122.004 42.296 122.004 43.08C122.004 44.928 123.348 45.852 125.868 45.852C129.004 45.852 130.46 44.116 130.46 42.772C130.46 42.072 130.348 41.54 130.068 41.176ZM158.116 37.032L160.188 40H152.404L154.476 37.032V30.676H146.048V37.032L148.12 40H140.336L142.408 37.032V23.76L140.364 20.82H148.148L146.048 23.788V29.416H154.476V23.76L152.432 20.82H160.216L158.116 23.788V37.032ZM175.904 32.524C175.904 36.136 173.468 40.336 168.26 40.336C164.284 40.336 162.184 37.116 162.184 33.756C162.184 30.144 164.62 25.944 169.828 25.944C173.804 25.944 175.904 29.164 175.904 32.524ZM168.316 27.008C165.992 27.008 165.74 29.528 165.74 31.208C165.74 35.576 167.336 39.272 169.8 39.272C171.872 39.272 172.404 36.528 172.404 35.072C172.404 30.704 170.78 27.008 168.316 27.008ZM182.53 26.252V34.848C182.53 37.004 182.838 38.376 184.994 38.376C185.946 38.376 186.926 37.9 187.654 37.06V28.688L185.582 26.252H191.014V37.704L192.918 40L187.654 40.168V37.928C186.646 39.328 185.358 40.28 183.37 40.28C180.514 40.28 179.17 38.432 179.17 35.8V28.688L177.07 26.252H182.53ZM194.173 34.708H194.397C195.125 37.116 197.337 39.216 199.633 39.216C200.781 39.216 201.733 38.656 201.733 37.396C201.733 34.092 194.313 35.716 194.313 30.172C194.313 28.1 196.133 26.28 198.989 26.28H202.069L203.105 25.692V30.34L202.937 30.312C201.929 28.492 200.249 27.148 198.457 27.176C197.281 27.204 196.609 27.932 196.609 29.024C196.609 31.908 204.281 30.648 204.281 35.772C204.281 39.02 201.005 40.28 198.793 40.28C197.393 40.28 195.489 40.084 194.425 39.636L194.173 34.708ZM217.892 32.076V32.104H208.904C209.212 35.716 211.144 37.228 213.328 37.228C215.232 37.228 216.912 36.276 217.332 35.1L217.752 35.268C216.744 37.816 214.756 40.392 211.424 40.392C207.756 40.392 205.684 37.116 205.684 33.756C205.684 30.144 207.924 26 212.488 26C215.82 26 217.864 28.24 217.892 32.02L217.92 32.076H217.892ZM214.28 31.264V31.012C214.28 28.016 213.076 26.84 211.844 26.84C209.716 26.84 208.848 29.388 208.848 31.068V31.264H214.28Z"/>
</mask>
<path d="M41.7024 36.052L45.9024 23.256L43.4944 20.82H49.3464L47.4424 23.228L41.4504 40.336H39.7424L35.6824 29.444L31.7064 40.336H29.9984L23.0544 22.472L21.5984 20.82H29.2424L27.0024 22.528L31.5944 34.82L31.8744 35.856L35.0664 27.792L33.0504 22.416L31.6504 20.82H39.2944L37.0264 22.528L41.3664 34.82L41.7024 36.052ZM50.7842 22.108L53.1922 19.532L55.5722 22.108L53.1922 24.712L50.7842 22.108ZM49.6922 27.876L54.9562 26V37.592L57.0282 40H49.5242L51.5962 37.592V30.032L49.6922 27.876ZM74.7343 40H67.2303L69.2463 37.592V31.376C69.2463 29.22 68.9383 27.848 66.7823 27.848C65.7463 27.848 64.6823 28.296 63.7863 29.5V37.592L65.8023 40H58.2983L60.4263 37.592V30.032L58.5223 27.876L63.7863 26V28.548C64.9063 26.812 66.7263 25.944 68.4063 25.944C71.2623 25.944 72.6063 27.792 72.6063 30.424V37.592L74.7343 40ZM92.289 40H84.785L86.801 37.592V31.376C86.801 29.22 86.493 27.848 84.337 27.848C83.301 27.848 82.237 28.296 81.341 29.5V37.592L83.357 40H75.853L77.981 37.592V30.032L76.077 27.876L81.341 26V28.548C82.461 26.812 84.281 25.944 85.961 25.944C88.817 25.944 90.161 27.792 90.161 30.424V37.592L92.289 40ZM94.8077 22.108L97.2157 19.532L99.5957 22.108L97.2157 24.712L94.8077 22.108ZM93.7157 27.876L98.9797 26V37.592L101.052 40H93.5477L95.6197 37.592V30.032L93.7157 27.876ZM118.758 40H111.254L113.27 37.592V31.376C113.27 29.22 112.962 27.848 110.806 27.848C109.77 27.848 108.706 28.296 107.81 29.5V37.592L109.826 40H102.322L104.45 37.592V30.032L102.546 27.876L107.81 26V28.548C108.93 26.812 110.75 25.944 112.43 25.944C115.286 25.944 116.63 27.792 116.63 30.424V37.592L118.758 40ZM131.832 23.508L131.944 23.536C131.804 25.244 131.524 26.224 130.908 27.512C131.552 28.268 131.888 29.22 131.888 30.228C131.888 32.636 129.9 35.632 125.56 35.632C124.944 35.632 124.384 35.548 123.88 35.408C123.488 35.772 122.844 36.276 122.844 36.668C122.844 37.508 123.404 37.9 124.384 38.012H131.916C132.224 38.516 132.56 39.356 132.56 40.308C132.56 43.556 130.068 46.496 125.476 46.496C121.696 46.496 119.876 45.292 119.876 43.332C119.876 41.96 121.332 41.176 122.256 40.784C121.444 40.448 120.576 39.552 120.576 38.516C120.576 36.808 122.088 35.856 123.18 35.184C121.444 34.456 120.576 32.888 120.576 31.236C120.576 28.828 122.508 25.944 126.848 25.944C127.38 25.944 127.856 26 128.276 26.084L131.832 23.508ZM125.644 26.756C124.272 26.756 124.16 28.408 124.16 29.528C124.16 32.412 125.14 34.848 126.736 34.848C128.108 34.848 128.276 33.028 128.276 31.908C128.276 29.024 127.24 26.756 125.644 26.756ZM130.068 41.176H122.928C122.312 41.652 122.004 42.296 122.004 43.08C122.004 44.928 123.348 45.852 125.868 45.852C129.004 45.852 130.46 44.116 130.46 42.772C130.46 42.072 130.348 41.54 130.068 41.176ZM158.116 37.032L160.188 40H152.404L154.476 37.032V30.676H146.048V37.032L148.12 40H140.336L142.408 37.032V23.76L140.364 20.82H148.148L146.048 23.788V29.416H154.476V23.76L152.432 20.82H160.216L158.116 23.788V37.032ZM175.904 32.524C175.904 36.136 173.468 40.336 168.26 40.336C164.284 40.336 162.184 37.116 162.184 33.756C162.184 30.144 164.62 25.944 169.828 25.944C173.804 25.944 175.904 29.164 175.904 32.524ZM168.316 27.008C165.992 27.008 165.74 29.528 165.74 31.208C165.74 35.576 167.336 39.272 169.8 39.272C171.872 39.272 172.404 36.528 172.404 35.072C172.404 30.704 170.78 27.008 168.316 27.008ZM182.53 26.252V34.848C182.53 37.004 182.838 38.376 184.994 38.376C185.946 38.376 186.926 37.9 187.654 37.06V28.688L185.582 26.252H191.014V37.704L192.918 40L187.654 40.168V37.928C186.646 39.328 185.358 40.28 183.37 40.28C180.514 40.28 179.17 38.432 179.17 35.8V28.688L177.07 26.252H182.53ZM194.173 34.708H194.397C195.125 37.116 197.337 39.216 199.633 39.216C200.781 39.216 201.733 38.656 201.733 37.396C201.733 34.092 194.313 35.716 194.313 30.172C194.313 28.1 196.133 26.28 198.989 26.28H202.069L203.105 25.692V30.34L202.937 30.312C201.929 28.492 200.249 27.148 198.457 27.176C197.281 27.204 196.609 27.932 196.609 29.024C196.609 31.908 204.281 30.648 204.281 35.772C204.281 39.02 201.005 40.28 198.793 40.28C197.393 40.28 195.489 40.084 194.425 39.636L194.173 34.708ZM217.892 32.076V32.104H208.904C209.212 35.716 211.144 37.228 213.328 37.228C215.232 37.228 216.912 36.276 217.332 35.1L217.752 35.268C216.744 37.816 214.756 40.392 211.424 40.392C207.756 40.392 205.684 37.116 205.684 33.756C205.684 30.144 207.924 26 212.488 26C215.82 26 217.864 28.24 217.892 32.02L217.92 32.076H217.892ZM214.28 31.264V31.012C214.28 28.016 213.076 26.84 211.844 26.84C209.716 26.84 208.848 29.388 208.848 31.068V31.264H214.28Z" fill="white"/>
<path d="M41.7024 36.052L40.7376 36.3151L41.6139 39.5282L42.6525 36.3639L41.7024 36.052ZM45.9024 23.256L46.8525 23.5679L47.043 22.9874L46.6136 22.553L45.9024 23.256ZM43.4944 20.82V19.82H41.0998L42.7832 21.523L43.4944 20.82ZM49.3464 20.82L50.1308 21.4402L51.4119 19.82H49.3464V20.82ZM47.4424 23.228L46.658 22.6078L46.554 22.7392L46.4986 22.8974L47.4424 23.228ZM41.4504 40.336V41.336H42.1597L42.3942 40.6666L41.4504 40.336ZM39.7424 40.336L38.8054 40.6853L39.0479 41.336H39.7424V40.336ZM35.6824 29.444L36.6194 29.0947L35.6726 26.5546L34.743 29.1011L35.6824 29.444ZM31.7064 40.336V41.336H32.4059L32.6457 40.6789L31.7064 40.336ZM29.9984 40.336L29.0663 40.6983L29.3142 41.336H29.9984V40.336ZM23.0544 22.472L23.9864 22.1097L23.9221 21.9441L23.8046 21.8108L23.0544 22.472ZM21.5984 20.82V19.82H19.3841L20.8482 21.4812L21.5984 20.82ZM29.2424 20.82L29.8487 21.6152L32.2031 19.82H29.2424V20.82ZM27.0024 22.528L26.396 21.7328L25.8059 22.1828L26.0656 22.878L27.0024 22.528ZM31.5944 34.82L32.5597 34.5591L32.5475 34.5139L32.5311 34.47L31.5944 34.82ZM31.8744 35.856L30.909 36.1169L31.6952 39.0257L32.8042 36.224L31.8744 35.856ZM35.0664 27.792L35.9962 28.16L36.138 27.8017L36.0027 27.4409L35.0664 27.792ZM33.0504 22.416L33.9867 22.0649L33.9226 21.8939L33.8021 21.7566L33.0504 22.416ZM31.6504 20.82V19.82H29.443L30.8986 21.4794L31.6504 20.82ZM39.2944 20.82L39.896 21.6188L42.2845 19.82H39.2944V20.82ZM37.0264 22.528L36.4248 21.7292L35.8395 22.17L36.0834 22.8609L37.0264 22.528ZM41.3664 34.82L42.3311 34.5569L42.3215 34.5216L42.3093 34.4871L41.3664 34.82ZM42.6525 36.3639L46.8525 23.5679L44.9522 22.9441L40.7522 35.7401L42.6525 36.3639ZM46.6136 22.553L44.2056 20.117L42.7832 21.523L45.1912 23.959L46.6136 22.553ZM43.4944 21.82H49.3464V19.82H43.4944V21.82ZM48.562 20.1998L46.658 22.6078L48.2268 23.8482L50.1308 21.4402L48.562 20.1998ZM46.4986 22.8974L40.5066 40.0054L42.3942 40.6666L48.3862 23.5586L46.4986 22.8974ZM41.4504 39.336H39.7424V41.336H41.4504V39.336ZM40.6794 39.9867L36.6194 29.0947L34.7454 29.7933L38.8054 40.6853L40.6794 39.9867ZM34.743 29.1011L30.767 39.9931L32.6457 40.6789L36.6217 29.7869L34.743 29.1011ZM31.7064 39.336H29.9984V41.336H31.7064V39.336ZM30.9304 39.9737L23.9864 22.1097L22.1223 22.8343L29.0663 40.6983L30.9304 39.9737ZM23.8046 21.8108L22.3486 20.1588L20.8482 21.4812L22.3042 23.1332L23.8046 21.8108ZM21.5984 21.82H29.2424V19.82H21.5984V21.82ZM28.636 20.0248L26.396 21.7328L27.6087 23.3232L29.8487 21.6152L28.636 20.0248ZM26.0656 22.878L30.6576 35.17L32.5311 34.47L27.9391 22.178L26.0656 22.878ZM30.629 35.0809L30.909 36.1169L32.8397 35.5951L32.5597 34.5591L30.629 35.0809ZM32.8042 36.224L35.9962 28.16L34.1366 27.424L30.9446 35.488L32.8042 36.224ZM36.0027 27.4409L33.9867 22.0649L32.114 22.7671L34.13 28.1431L36.0027 27.4409ZM33.8021 21.7566L32.4021 20.1606L30.8986 21.4794L32.2986 23.0754L33.8021 21.7566ZM31.6504 21.82H39.2944V19.82H31.6504V21.82ZM38.6928 20.0212L36.4248 21.7292L37.628 23.3268L39.896 21.6188L38.6928 20.0212ZM36.0834 22.8609L40.4234 35.1529L42.3093 34.4871L37.9693 22.1951L36.0834 22.8609ZM40.4016 35.0831L40.7376 36.3151L42.6671 35.7889L42.3311 34.5569L40.4016 35.0831ZM50.7842 22.108L50.0537 21.4251L49.4188 22.1043L50.05 22.7869L50.7842 22.108ZM53.1922 19.532L53.9267 18.8534L53.1965 18.063L52.4617 18.8491L53.1922 19.532ZM55.5722 22.108L56.3104 22.7826L56.9303 22.1043L56.3067 21.4294L55.5722 22.108ZM53.1922 24.712L52.458 25.3909L53.1965 26.1895L53.9304 25.3866L53.1922 24.712ZM49.6922 27.876L49.3565 26.934L47.9644 27.4302L48.9427 28.5379L49.6922 27.876ZM54.9562 26H55.9562V24.582L54.6205 25.058L54.9562 26ZM54.9562 37.592H53.9562V37.963L54.1982 38.2442L54.9562 37.592ZM57.0282 40V41H59.2079L57.7862 39.3478L57.0282 40ZM49.5242 40L48.7662 39.3478L47.3445 41H49.5242V40ZM51.5962 37.592L52.3542 38.2442L52.5962 37.963V37.592H51.5962ZM51.5962 30.032H52.5962V29.6537L52.3458 29.3701L51.5962 30.032ZM51.5147 22.7909L53.9227 20.2149L52.4617 18.8491L50.0537 21.4251L51.5147 22.7909ZM52.4577 20.2106L54.8377 22.7866L56.3067 21.4294L53.9267 18.8534L52.4577 20.2106ZM54.8341 21.4334L52.4541 24.0374L53.9304 25.3866L56.3104 22.7826L54.8341 21.4334ZM53.9264 24.0331L51.5184 21.4291L50.05 22.7869L52.458 25.3909L53.9264 24.0331ZM50.0279 28.818L55.2919 26.942L54.6205 25.058L49.3565 26.934L50.0279 28.818ZM53.9562 26V37.592H55.9562V26H53.9562ZM54.1982 38.2442L56.2702 40.6522L57.7862 39.3478L55.7142 36.9398L54.1982 38.2442ZM57.0282 39H49.5242V41H57.0282V39ZM50.2822 40.6522L52.3542 38.2442L50.8382 36.9398L48.7662 39.3478L50.2822 40.6522ZM52.5962 37.592V30.032H50.5962V37.592H52.5962ZM52.3458 29.3701L50.4418 27.2141L48.9427 28.5379L50.8467 30.6939L52.3458 29.3701ZM74.7343 40V41H76.9525L75.4836 39.3378L74.7343 40ZM67.2303 40L66.4635 39.3581L65.0889 41H67.2303V40ZM69.2463 37.592L70.013 38.2339L70.2463 37.9553V37.592H69.2463ZM63.7863 29.5L62.984 28.903L62.7863 29.1687V29.5H63.7863ZM63.7863 37.592H62.7863V37.9553L63.0195 38.2339L63.7863 37.592ZM65.8023 40V41H67.9437L66.569 39.3581L65.8023 40ZM58.2983 40L57.549 39.3378L56.08 41H58.2983V40ZM60.4263 37.592L61.1756 38.2542L61.4263 37.9705V37.592H60.4263ZM60.4263 30.032H61.4263V29.6537L61.1758 29.3701L60.4263 30.032ZM58.5223 27.876L58.1866 26.934L56.7944 27.4302L57.7727 28.5379L58.5223 27.876ZM63.7863 26H64.7863V24.582L63.4506 25.058L63.7863 26ZM63.7863 28.548H62.7863V31.9426L64.6266 29.0901L63.7863 28.548ZM72.6063 37.592H71.6063V37.9705L71.857 38.2542L72.6063 37.592ZM74.7343 39H67.2303V41H74.7343V39ZM67.997 40.6419L70.013 38.2339L68.4795 36.9501L66.4635 39.3581L67.997 40.6419ZM70.2463 37.592V31.376H68.2463V37.592H70.2463ZM70.2463 31.376C70.2463 30.3154 70.1849 29.1804 69.6932 28.3111C69.4269 27.8405 69.041 27.4542 68.516 27.1976C68.007 26.9488 67.4213 26.848 66.7823 26.848V28.848C67.2212 28.848 67.4826 28.9187 67.6377 28.9945C67.7769 29.0625 67.8721 29.154 67.9524 29.2959C68.1536 29.6516 68.2463 30.2806 68.2463 31.376H70.2463ZM66.7823 26.848C65.4128 26.848 64.0581 27.4598 62.984 28.903L64.5885 30.097C65.3065 29.1322 66.0798 28.848 66.7823 28.848V26.848ZM62.7863 29.5V37.592H64.7863V29.5H62.7863ZM63.0195 38.2339L65.0355 40.6419L66.569 39.3581L64.553 36.9501L63.0195 38.2339ZM65.8023 39H58.2983V41H65.8023V39ZM59.0476 40.6622L61.1756 38.2542L59.677 36.9298L57.549 39.3378L59.0476 40.6622ZM61.4263 37.592V30.032H59.4263V37.592H61.4263ZM61.1758 29.3701L59.2718 27.2141L57.7727 28.5379L59.6767 30.6939L61.1758 29.3701ZM58.858 28.818L64.122 26.942L63.4506 25.058L58.1866 26.934L58.858 28.818ZM62.7863 26V28.548H64.7863V26H62.7863ZM64.6266 29.0901C65.5588 27.6452 67.0592 26.944 68.4063 26.944V24.944C66.3934 24.944 64.2538 25.9788 62.946 28.0059L64.6266 29.0901ZM68.4063 26.944C69.6069 26.944 70.3586 27.3235 70.8251 27.856C71.3102 28.4096 71.6063 29.2656 71.6063 30.424H73.6063C73.6063 28.9504 73.2304 27.5664 72.3294 26.538C71.4099 25.4885 70.0617 24.944 68.4063 24.944V26.944ZM71.6063 30.424V37.592H73.6063V30.424H71.6063ZM71.857 38.2542L73.985 40.6622L75.4836 39.3378L73.3556 36.9298L71.857 38.2542ZM92.289 40V41H94.5072L93.0383 39.3378L92.289 40ZM84.785 40L84.0182 39.3581L82.6436 41H84.785V40ZM86.801 37.592L87.5677 38.2339L87.801 37.9553V37.592H86.801ZM81.341 29.5L80.5387 28.903L80.341 29.1687V29.5H81.341ZM81.341 37.592H80.341V37.9553L80.5742 38.2339L81.341 37.592ZM83.357 40V41H85.4984L84.1237 39.3581L83.357 40ZM75.853 40L75.1036 39.3378L73.6347 41H75.853V40ZM77.981 37.592L78.7303 38.2542L78.981 37.9705V37.592H77.981ZM77.981 30.032H78.981V29.6537L78.7305 29.3701L77.981 30.032ZM76.077 27.876L75.7413 26.934L74.3491 27.4302L75.3274 28.5379L76.077 27.876ZM81.341 26H82.341V24.582L81.0053 25.058L81.341 26ZM81.341 28.548H80.341V31.9426L82.1813 29.0901L81.341 28.548ZM90.161 37.592H89.161V37.9705L89.4116 38.2542L90.161 37.592ZM92.289 39H84.785V41H92.289V39ZM85.5517 40.6419L87.5677 38.2339L86.0342 36.9501L84.0182 39.3581L85.5517 40.6419ZM87.801 37.592V31.376H85.801V37.592H87.801ZM87.801 31.376C87.801 30.3154 87.7396 29.1804 87.2478 28.3111C86.9816 27.8405 86.5956 27.4542 86.0707 27.1976C85.5617 26.9488 84.976 26.848 84.337 26.848V28.848C84.7759 28.848 85.0373 28.9187 85.1924 28.9945C85.3316 29.0625 85.4268 29.154 85.5071 29.2959C85.7083 29.6516 85.801 30.2806 85.801 31.376H87.801ZM84.337 26.848C82.9675 26.848 81.6128 27.4598 80.5387 28.903L82.1432 30.097C82.8612 29.1322 83.6345 28.848 84.337 28.848V26.848ZM80.341 29.5V37.592H82.341V29.5H80.341ZM80.5742 38.2339L82.5902 40.6419L84.1237 39.3581L82.1077 36.9501L80.5742 38.2339ZM83.357 39H75.853V41H83.357V39ZM76.6023 40.6622L78.7303 38.2542L77.2316 36.9298L75.1036 39.3378L76.6023 40.6622ZM78.981 37.592V30.032H76.981V37.592H78.981ZM78.7305 29.3701L76.8265 27.2141L75.3274 28.5379L77.2314 30.6939L78.7305 29.3701ZM76.4127 28.818L81.6767 26.942L81.0053 25.058L75.7413 26.934L76.4127 28.818ZM80.341 26V28.548H82.341V26H80.341ZM82.1813 29.0901C83.1135 27.6452 84.6139 26.944 85.961 26.944V24.944C83.9481 24.944 81.8085 25.9788 80.5007 28.0059L82.1813 29.0901ZM85.961 26.944C87.1615 26.944 87.9133 27.3235 88.3798 27.856C88.8648 28.4096 89.161 29.2656 89.161 30.424H91.161C91.161 28.9504 90.7851 27.5664 89.8841 26.538C88.9646 25.4885 87.6164 24.944 85.961 24.944V26.944ZM89.161 30.424V37.592H91.161V30.424H89.161ZM89.4116 38.2542L91.5396 40.6622L93.0383 39.3378L90.9103 36.9298L89.4116 38.2542ZM94.8077 22.108L94.0771 21.4251L93.4422 22.1043L94.0735 22.7869L94.8077 22.108ZM97.2157 19.532L97.9502 18.8534L97.2199 18.063L96.4851 18.8491L97.2157 19.532ZM99.5957 22.108L100.334 22.7826L100.954 22.1043L100.33 21.4294L99.5957 22.108ZM97.2157 24.712L96.4815 25.3909L97.22 26.1895L97.9538 25.3866L97.2157 24.712ZM93.7157 27.876L93.38 26.934L91.9878 27.4302L92.9661 28.5379L93.7157 27.876ZM98.9797 26H99.9797V24.582L98.644 25.058L98.9797 26ZM98.9797 37.592H97.9797V37.963L98.2216 38.2442L98.9797 37.592ZM101.052 40V41H103.231L101.81 39.3478L101.052 40ZM93.5477 40L92.7896 39.3478L91.368 41H93.5477V40ZM95.6197 37.592L96.3777 38.2442L96.6197 37.963V37.592H95.6197ZM95.6197 30.032H96.6197V29.6537L96.3692 29.3701L95.6197 30.032ZM95.5382 22.7909L97.9462 20.2149L96.4851 18.8491L94.0771 21.4251L95.5382 22.7909ZM96.4812 20.2106L98.8612 22.7866L100.33 21.4294L97.9502 18.8534L96.4812 20.2106ZM98.8575 21.4334L96.4775 24.0374L97.9538 25.3866L100.334 22.7826L98.8575 21.4334ZM97.9499 24.0331L95.5419 21.4291L94.0735 22.7869L96.4815 25.3909L97.9499 24.0331ZM94.0514 28.818L99.3154 26.942L98.644 25.058L93.38 26.934L94.0514 28.818ZM97.9797 26V37.592H99.9797V26H97.9797ZM98.2216 38.2442L100.294 40.6522L101.81 39.3478L99.7377 36.9398L98.2216 38.2442ZM101.052 39H93.5477V41H101.052V39ZM94.3057 40.6522L96.3777 38.2442L94.8616 36.9398L92.7896 39.3478L94.3057 40.6522ZM96.6197 37.592V30.032H94.6197V37.592H96.6197ZM96.3692 29.3701L94.4652 27.2141L92.9661 28.5379L94.8701 30.6939L96.3692 29.3701ZM118.758 40V41H120.976L119.507 39.3378L118.758 40ZM111.254 40L110.487 39.3581L109.112 41H111.254V40ZM113.27 37.592L114.036 38.2339L114.27 37.9553V37.592H113.27ZM107.81 29.5L107.007 28.903L106.81 29.1687V29.5H107.81ZM107.81 37.592H106.81V37.9553L107.043 38.2339L107.81 37.592ZM109.826 40V41H111.967L110.592 39.3581L109.826 40ZM102.322 40L101.572 39.3378L100.103 41H102.322V40ZM104.45 37.592L105.199 38.2542L105.45 37.9705V37.592H104.45ZM104.45 30.032H105.45V29.6537L105.199 29.3701L104.45 30.032ZM102.546 27.876L102.21 26.934L100.818 27.4302L101.796 28.5379L102.546 27.876ZM107.81 26H108.81V24.582L107.474 25.058L107.81 26ZM107.81 28.548H106.81V31.9426L108.65 29.0901L107.81 28.548ZM116.63 37.592H115.63V37.9705L115.88 38.2542L116.63 37.592ZM118.758 39H111.254V41H118.758V39ZM112.02 40.6419L114.036 38.2339L112.503 36.9501L110.487 39.3581L112.02 40.6419ZM114.27 37.592V31.376H112.27V37.592H114.27ZM114.27 31.376C114.27 30.3154 114.208 29.1804 113.717 28.3111C113.45 27.8405 113.064 27.4542 112.539 27.1976C112.03 26.9488 111.445 26.848 110.806 26.848V28.848C111.245 28.848 111.506 28.9187 111.661 28.9945C111.8 29.0625 111.896 29.154 111.976 29.2959C112.177 29.6516 112.27 30.2806 112.27 31.376H114.27ZM110.806 26.848C109.436 26.848 108.082 27.4598 107.007 28.903L108.612 30.097C109.33 29.1322 110.103 28.848 110.806 28.848V26.848ZM106.81 29.5V37.592H108.81V29.5H106.81ZM107.043 38.2339L109.059 40.6419L110.592 39.3581L108.576 36.9501L107.043 38.2339ZM109.826 39H102.322V41H109.826V39ZM103.071 40.6622L105.199 38.2542L103.7 36.9298L101.572 39.3378L103.071 40.6622ZM105.45 37.592V30.032H103.45V37.592H105.45ZM105.199 29.3701L103.295 27.2141L101.796 28.5379L103.7 30.6939L105.199 29.3701ZM102.881 28.818L108.145 26.942L107.474 25.058L102.21 26.934L102.881 28.818ZM106.81 26V28.548H108.81V26H106.81ZM108.65 29.0901C109.582 27.6452 111.083 26.944 112.43 26.944V24.944C110.417 24.944 108.277 25.9788 106.969 28.0059L108.65 29.0901ZM112.43 26.944C113.63 26.944 114.382 27.3235 114.849 27.856C115.334 28.4096 115.63 29.2656 115.63 30.424H117.63C117.63 28.9504 117.254 27.5664 116.353 26.538C115.433 25.4885 114.085 24.944 112.43 24.944V26.944ZM115.63 30.424V37.592H117.63V30.424H115.63ZM115.88 38.2542L118.008 40.6622L119.507 39.3378L117.379 36.9298L115.88 38.2542ZM131.832 23.508L132.075 22.5379L131.623 22.4249L131.246 22.6982L131.832 23.508ZM131.944 23.536L132.941 23.6177L133.01 22.7717L132.187 22.5659L131.944 23.536ZM130.908 27.512L130.006 27.0805L129.726 27.6662L130.147 28.1605L130.908 27.512ZM123.88 35.408L124.148 34.4445L123.61 34.2949L123.2 34.6752L123.88 35.408ZM124.384 38.012L124.271 39.0055L124.327 39.012H124.384V38.012ZM131.916 38.012L132.77 37.4905L132.477 37.012H131.916V38.012ZM122.256 40.784L122.647 41.7046L124.844 40.7725L122.639 39.86L122.256 40.784ZM123.18 35.184L123.705 36.0357L125.363 35.015L123.567 34.2618L123.18 35.184ZM128.276 26.084L128.08 27.0646L128.509 27.1503L128.863 26.8938L128.276 26.084ZM130.068 41.176L130.861 40.5663L130.561 40.176H130.068V41.176ZM122.928 41.176V40.176H122.587L122.317 40.3847L122.928 41.176ZM131.59 24.4781L131.702 24.5061L132.187 22.5659L132.075 22.5379L131.59 24.4781ZM130.948 23.4543C130.817 25.0469 130.567 25.9077 130.006 27.0805L131.811 27.9435C132.482 26.5403 132.792 25.4411 132.941 23.6177L130.948 23.4543ZM130.147 28.1605C130.629 28.7267 130.888 29.4457 130.888 30.228H132.888C132.888 28.9943 132.475 27.8093 131.67 26.8635L130.147 28.1605ZM130.888 30.228C130.888 32.0932 129.339 34.632 125.56 34.632V36.632C130.462 36.632 132.888 33.1788 132.888 30.228H130.888ZM125.56 34.632C125.036 34.632 124.566 34.5607 124.148 34.4445L123.613 36.3715C124.202 36.5353 124.852 36.632 125.56 36.632V34.632ZM123.2 34.6752C123.061 34.804 122.727 35.0902 122.491 35.3378C122.364 35.4719 122.218 35.6404 122.099 35.8328C121.988 36.0148 121.844 36.3066 121.844 36.668H123.844C123.844 36.8334 123.782 36.9152 123.803 36.881C123.817 36.8573 123.857 36.8036 123.94 36.7172C124.019 36.6342 124.114 36.5445 124.224 36.4446C124.321 36.357 124.459 36.2356 124.561 36.1408L123.2 34.6752ZM121.844 36.668C121.844 37.3383 122.083 37.9483 122.61 38.3837C123.088 38.779 123.697 38.9399 124.271 39.0055L124.498 37.0185C124.092 36.9721 123.931 36.881 123.884 36.8423C123.869 36.8302 123.867 36.8251 123.865 36.8193C123.861 36.8095 123.844 36.7667 123.844 36.668H121.844ZM124.384 39.012H131.916V37.012H124.384V39.012ZM131.063 38.5335C131.297 38.916 131.56 39.5776 131.56 40.308H133.56C133.56 39.1344 133.152 38.116 132.77 37.4905L131.063 38.5335ZM131.56 40.308C131.56 41.6726 131.039 42.9534 130.05 43.8962C129.065 44.8356 127.553 45.496 125.476 45.496V47.496C127.992 47.496 130.022 46.6864 131.43 45.3438C132.835 44.0046 133.56 42.1914 133.56 40.308H131.56ZM125.476 45.496C123.665 45.496 122.472 45.2029 121.766 44.7872C121.124 44.4095 120.876 43.9357 120.876 43.332H118.876C118.876 44.6883 119.538 45.7965 120.752 46.5108C121.9 47.1871 123.508 47.496 125.476 47.496V45.496ZM120.876 43.332C120.876 43.04 121.021 42.7532 121.376 42.4455C121.736 42.1321 122.217 41.8869 122.647 41.7046L121.866 39.8634C121.372 40.0731 120.662 40.4159 120.064 40.9355C119.459 41.4608 118.876 42.252 118.876 43.332H120.876ZM122.639 39.86C122.392 39.7579 122.107 39.5539 121.891 39.2853C121.676 39.0187 121.576 38.7502 121.576 38.516H119.576C119.576 39.3178 119.911 40.0153 120.333 40.5397C120.754 41.0621 121.309 41.4741 121.874 41.708L122.639 39.86ZM121.576 38.516C121.576 37.9931 121.797 37.5637 122.19 37.1543C122.603 36.724 123.147 36.3788 123.705 36.0357L122.656 34.3323C122.122 34.6612 121.363 35.128 120.748 35.7687C120.112 36.4303 119.576 37.3309 119.576 38.516H121.576ZM123.567 34.2618C122.239 33.7048 121.576 32.526 121.576 31.236H119.576C119.576 33.25 120.65 35.2072 122.794 36.1062L123.567 34.2618ZM121.576 31.236C121.576 29.3835 123.057 26.944 126.848 26.944V24.944C121.959 24.944 119.576 28.2725 119.576 31.236H121.576ZM126.848 26.944C127.309 26.944 127.72 26.9925 128.08 27.0646L128.473 25.1034C127.993 25.0075 127.451 24.944 126.848 24.944V26.944ZM128.863 26.8938L132.419 24.3178L131.246 22.6982L127.69 25.2742L128.863 26.8938ZM125.644 25.756C125.083 25.756 124.585 25.9319 124.187 26.2687C123.808 26.59 123.584 27.0032 123.447 27.3826C123.182 28.1166 123.16 28.9683 123.16 29.528H125.16C125.16 28.9677 125.194 28.4334 125.329 28.0614C125.391 27.8878 125.452 27.818 125.48 27.7946C125.49 27.7866 125.52 27.756 125.644 27.756V25.756ZM123.16 29.528C123.16 31.0659 123.419 32.5485 123.941 33.6863C124.444 34.7841 125.348 35.848 126.736 35.848V33.848C126.529 33.848 126.145 33.6939 125.759 32.8527C125.392 32.0515 125.16 30.8741 125.16 29.528H123.16ZM126.736 35.848C127.324 35.848 127.831 35.6442 128.225 35.2889C128.598 34.953 128.822 34.5261 128.962 34.1357C129.237 33.3697 129.276 32.4891 129.276 31.908H127.276C127.276 32.4469 127.232 33.0363 127.08 33.4603C127.006 33.6649 126.931 33.763 126.886 33.8034C126.863 33.8243 126.834 33.848 126.736 33.848V35.848ZM129.276 31.908C129.276 30.3632 129.001 28.912 128.455 27.8073C127.919 26.7231 126.992 25.756 125.644 25.756V27.756C125.893 27.756 126.281 27.9229 126.662 28.6936C127.033 29.444 127.276 30.5688 127.276 31.908H129.276ZM130.068 40.176H122.928V42.176H130.068V40.176ZM122.317 40.3847C121.449 41.0556 121.004 41.9954 121.004 43.08H123.004C123.004 42.5966 123.176 42.2484 123.54 41.9673L122.317 40.3847ZM121.004 43.08C121.004 44.2793 121.46 45.2985 122.413 45.9745C123.306 46.6086 124.514 46.852 125.868 46.852V44.852C124.703 44.852 123.979 44.6334 123.57 44.3435C123.221 44.0955 123.004 43.7287 123.004 43.08H121.004ZM125.868 46.852C129.332 46.852 131.46 44.8687 131.46 42.772H129.46C129.46 43.3633 128.677 44.852 125.868 44.852V46.852ZM131.46 42.772C131.46 42.0042 131.346 41.1964 130.861 40.5663L129.276 41.7857C129.351 41.8836 129.46 42.1398 129.46 42.772H131.46ZM158.116 37.032H157.116V37.3465L157.296 37.6044L158.116 37.032ZM160.188 40V41H162.106L161.008 39.4276L160.188 40ZM152.404 40L151.584 39.4276L150.486 41H152.404V40ZM154.476 37.032L155.296 37.6044L155.476 37.3465V37.032H154.476ZM154.476 30.676H155.476V29.676H154.476V30.676ZM146.048 30.676V29.676H145.048V30.676H146.048ZM146.048 37.032H145.048V37.3465L145.228 37.6044L146.048 37.032ZM148.12 40V41H150.038L148.94 39.4276L148.12 40ZM140.336 40L139.516 39.4276L138.418 41H140.336V40ZM142.408 37.032L143.228 37.6044L143.408 37.3465V37.032H142.408ZM142.408 23.76H143.408V23.4465L143.229 23.1892L142.408 23.76ZM140.364 20.82V19.82H138.451L139.543 21.3908L140.364 20.82ZM148.148 20.82L148.964 21.3976L150.081 19.82H148.148V20.82ZM146.048 23.788L145.232 23.2104L145.048 23.47V23.788H146.048ZM146.048 29.416H145.048V30.416H146.048V29.416ZM154.476 29.416V30.416H155.476V29.416H154.476ZM154.476 23.76H155.476V23.4465L155.297 23.1892L154.476 23.76ZM152.432 20.82V19.82H150.519L151.611 21.3908L152.432 20.82ZM160.216 20.82L161.032 21.3976L162.149 19.82H160.216V20.82ZM158.116 23.788L157.3 23.2104L157.116 23.47V23.788H158.116ZM157.296 37.6044L159.368 40.5724L161.008 39.4276L158.936 36.4596L157.296 37.6044ZM160.188 39H152.404V41H160.188V39ZM153.224 40.5724L155.296 37.6044L153.656 36.4596L151.584 39.4276L153.224 40.5724ZM155.476 37.032V30.676H153.476V37.032H155.476ZM154.476 29.676H146.048V31.676H154.476V29.676ZM145.048 30.676V37.032H147.048V30.676H145.048ZM145.228 37.6044L147.3 40.5724L148.94 39.4276L146.868 36.4596L145.228 37.6044ZM148.12 39H140.336V41H148.12V39ZM141.156 40.5724L143.228 37.6044L141.588 36.4596L139.516 39.4276L141.156 40.5724ZM143.408 37.032V23.76H141.408V37.032H143.408ZM143.229 23.1892L141.185 20.2492L139.543 21.3908L141.587 24.3308L143.229 23.1892ZM140.364 21.82H148.148V19.82H140.364V21.82ZM147.332 20.2424L145.232 23.2104L146.864 24.3656L148.964 21.3976L147.332 20.2424ZM145.048 23.788V29.416H147.048V23.788H145.048ZM146.048 30.416H154.476V28.416H146.048V30.416ZM155.476 29.416V23.76H153.476V29.416H155.476ZM155.297 23.1892L153.253 20.2492L151.611 21.3908L153.655 24.3308L155.297 23.1892ZM152.432 21.82H160.216V19.82H152.432V21.82ZM159.4 20.2424L157.3 23.2104L158.932 24.3656L161.032 21.3976L159.4 20.2424ZM157.116 23.788V37.032H159.116V23.788H157.116ZM174.904 32.524C174.904 34.1213 174.361 35.8396 173.269 37.1417C172.197 38.4189 170.565 39.336 168.26 39.336V41.336C171.162 41.336 173.353 40.1531 174.801 38.4273C176.228 36.7264 176.904 34.5387 176.904 32.524H174.904ZM168.26 39.336C166.569 39.336 165.331 38.6633 164.499 37.6654C163.648 36.6463 163.184 35.2384 163.184 33.756H161.184C161.184 35.6336 161.769 37.5157 162.963 38.9466C164.174 40.3987 165.974 41.336 168.26 41.336V39.336ZM163.184 33.756C163.184 32.1587 163.726 30.4404 164.819 29.1383C165.891 27.8611 167.522 26.944 169.828 26.944V24.944C166.925 24.944 164.735 26.1269 163.287 27.8527C161.859 29.5536 161.184 31.7413 161.184 33.756H163.184ZM169.828 26.944C171.518 26.944 172.756 27.6167 173.589 28.6146C174.439 29.6337 174.904 31.0416 174.904 32.524H176.904C176.904 30.6464 176.318 28.7643 175.125 27.3334C173.913 25.8813 172.113 24.944 169.828 24.944V26.944ZM168.316 26.008C167.542 26.008 166.875 26.222 166.333 26.6276C165.803 27.0249 165.459 27.5562 165.235 28.0901C164.798 29.1278 164.74 30.3519 164.74 31.208H166.74C166.74 30.3841 166.808 29.5082 167.078 28.8659C167.207 28.5598 167.362 28.3561 167.532 28.2284C167.692 28.109 167.927 28.008 168.316 28.008V26.008ZM164.74 31.208C164.74 33.4971 165.156 35.6708 165.945 37.3114C166.716 38.9161 167.994 40.272 169.8 40.272V38.272C169.141 38.272 168.389 37.7799 167.747 36.4446C167.122 35.1452 166.74 33.2869 166.74 31.208H164.74ZM169.8 40.272C171.393 40.272 172.317 39.177 172.79 38.1296C173.259 37.0913 173.404 35.8889 173.404 35.072H171.404C171.404 35.7111 171.282 36.6087 170.967 37.3064C170.656 37.995 170.278 38.272 169.8 38.272V40.272ZM173.404 35.072C173.404 32.7805 172.98 30.6058 172.183 28.9651C171.404 27.3606 170.119 26.008 168.316 26.008V28.008C168.977 28.008 169.736 28.5034 170.384 29.8389C171.015 31.1382 171.404 32.9955 171.404 35.072H173.404ZM182.53 26.252H183.53V25.252H182.53V26.252ZM187.654 37.06L188.409 37.7149L188.654 37.433V37.06H187.654ZM187.654 28.688H188.654V28.3202L188.415 28.0401L187.654 28.688ZM185.582 26.252V25.252H183.418L184.82 26.8999L185.582 26.252ZM191.014 26.252H192.014V25.252H191.014V26.252ZM191.014 37.704H190.014V38.0647L190.244 38.3423L191.014 37.704ZM192.918 40L192.95 40.9995L194.992 40.9343L193.687 39.3617L192.918 40ZM187.654 40.168H186.654V41.2004L187.686 41.1675L187.654 40.168ZM187.654 37.928H188.654V34.8277L186.842 37.3437L187.654 37.928ZM179.17 28.688H180.17V28.3165L179.927 28.0351L179.17 28.688ZM177.07 26.252V25.252H174.887L176.312 26.9049L177.07 26.252ZM181.53 26.252V34.848H183.53V26.252H181.53ZM181.53 34.848C181.53 35.9086 181.591 37.0436 182.083 37.9129C182.349 38.3835 182.735 38.7698 183.26 39.0264C183.769 39.2752 184.355 39.376 184.994 39.376V37.376C184.555 37.376 184.293 37.3053 184.138 37.2295C183.999 37.1615 183.904 37.07 183.824 36.9281C183.622 36.5724 183.53 35.9434 183.53 34.848H181.53ZM184.994 39.376C186.277 39.376 187.52 38.7408 188.409 37.7149L186.898 36.4051C186.331 37.0592 185.614 37.376 184.994 37.376V39.376ZM188.654 37.06V28.688H186.654V37.06H188.654ZM188.415 28.0401L186.343 25.6041L184.82 26.8999L186.892 29.3359L188.415 28.0401ZM185.582 27.252H191.014V25.252H185.582V27.252ZM190.014 26.252V37.704H192.014V26.252H190.014ZM190.244 38.3423L192.148 40.6383L193.687 39.3617L191.783 37.0657L190.244 38.3423ZM192.886 39.0005L187.622 39.1685L187.686 41.1675L192.95 40.9995L192.886 39.0005ZM188.654 40.168V37.928H186.654V40.168H188.654ZM186.842 37.3437C185.965 38.5624 184.949 39.28 183.37 39.28V41.28C185.766 41.28 187.327 40.0936 188.465 38.5123L186.842 37.3437ZM183.37 39.28C182.169 39.28 181.417 38.9005 180.951 38.368C180.466 37.8144 180.17 36.9584 180.17 35.8H178.17C178.17 37.2736 178.546 38.6576 179.447 39.686C180.366 40.7355 181.714 41.28 183.37 41.28V39.28ZM180.17 35.8V28.688H178.17V35.8H180.17ZM179.927 28.0351L177.827 25.5991L176.312 26.9049L178.412 29.3409L179.927 28.0351ZM177.07 27.252H182.53V25.252H177.07V27.252ZM194.173 34.708V33.708H193.12L193.174 34.7591L194.173 34.708ZM194.397 34.708L195.354 34.4186L195.139 33.708H194.397V34.708ZM202.069 26.28V27.28H202.333L202.562 27.1497L202.069 26.28ZM203.105 25.692H204.105V23.9746L202.611 24.8223L203.105 25.692ZM203.105 30.34L202.94 31.3264L204.105 31.5205V30.34H203.105ZM202.937 30.312L202.062 30.7965L202.296 31.219L202.772 31.2984L202.937 30.312ZM198.457 27.176L198.441 26.1761L198.433 26.1763L198.457 27.176ZM194.425 39.636L193.426 39.6871L193.458 40.314L194.037 40.5576L194.425 39.636ZM194.173 35.708H194.397V33.708H194.173V35.708ZM193.439 34.9974C193.859 36.3835 194.698 37.6678 195.763 38.613C196.825 39.5555 198.179 40.216 199.633 40.216V38.216C198.791 38.216 197.89 37.8265 197.09 37.117C196.294 36.4102 195.663 35.4405 195.354 34.4186L193.439 34.9974ZM199.633 40.216C200.353 40.216 201.119 40.0423 201.728 39.5671C202.373 39.0643 202.733 38.3075 202.733 37.396H200.733C200.733 37.7445 200.616 37.8977 200.498 37.9899C200.345 38.1097 200.061 38.216 199.633 38.216V40.216ZM202.733 37.396C202.733 36.0742 201.936 35.2818 201.071 34.7856C200.283 34.3334 199.201 33.9998 198.376 33.6884C197.466 33.3453 196.708 32.9841 196.171 32.4594C195.676 31.9766 195.313 31.3004 195.313 30.172H193.313C193.313 31.8156 193.877 33.0154 194.774 33.8906C195.627 34.7239 196.724 35.2027 197.67 35.5596C198.699 35.9482 199.473 36.1746 200.076 36.5204C200.602 36.8222 200.733 37.0658 200.733 37.396H202.733ZM195.313 30.172C195.313 28.7693 196.56 27.28 198.989 27.28V25.28C195.705 25.28 193.313 27.4307 193.313 30.172H195.313ZM198.989 27.28H202.069V25.28H198.989V27.28ZM202.562 27.1497L203.598 26.5617L202.611 24.8223L201.575 25.4103L202.562 27.1497ZM202.105 25.692V30.34H204.105V25.692H202.105ZM203.269 29.3536L203.101 29.3256L202.772 31.2984L202.94 31.3264L203.269 29.3536ZM203.811 29.8275C202.71 27.8381 200.75 26.14 198.441 26.1761L198.472 28.1759C199.748 28.156 201.148 29.1459 202.062 30.7965L203.811 29.8275ZM198.433 26.1763C197.641 26.1951 196.91 26.4565 196.377 27.0017C195.844 27.5462 195.609 28.2711 195.609 29.024H197.609C197.609 28.6849 197.709 28.4998 197.806 28.4003C197.903 28.3015 198.097 28.1849 198.48 28.1757L198.433 26.1763ZM195.609 29.024C195.609 30.3207 196.525 31.0423 197.352 31.465C198.148 31.8714 199.249 32.1924 200.108 32.4996C201.051 32.8367 201.849 33.1969 202.413 33.7047C202.93 34.1701 203.281 34.7855 203.281 35.772H205.281C205.281 34.1965 204.672 33.0479 203.751 32.2183C202.877 31.4311 201.757 30.9653 200.781 30.6164C199.722 30.2376 198.906 30.0126 198.262 29.684C197.651 29.3717 197.609 29.1693 197.609 29.024H195.609ZM203.281 35.772C203.281 36.9986 202.686 37.8364 201.816 38.4087C200.911 39.0044 199.739 39.28 198.793 39.28V41.28C200.059 41.28 201.63 40.9256 202.916 40.0793C204.237 39.2096 205.281 37.7934 205.281 35.772H203.281ZM198.793 39.28C197.421 39.28 195.685 39.0815 194.813 38.7144L194.037 40.5576C195.293 41.0865 197.364 41.28 198.793 41.28V39.28ZM195.423 39.5849L195.171 34.6569L193.174 34.7591L193.426 39.6871L195.423 39.5849ZM217.892 32.076V31.076H216.892V32.076H217.892ZM217.892 32.104V33.104H218.892V32.104H217.892ZM208.904 32.104V31.104H207.815L207.908 32.189L208.904 32.104ZM217.332 35.1L217.704 34.1715L216.74 33.7859L216.391 34.7637L217.332 35.1ZM217.752 35.268L218.682 35.6359L219.049 34.7095L218.124 34.3395L217.752 35.268ZM217.892 32.02L216.892 32.0274L216.894 32.2596L216.998 32.4672L217.892 32.02ZM217.92 32.076V33.076H219.538L218.815 31.6288L217.92 32.076ZM214.28 31.264V32.264H215.28V31.264H214.28ZM208.848 31.264H207.848V32.264H208.848V31.264ZM216.892 32.076V32.104H218.892V32.076H216.892ZM217.892 31.104H208.904V33.104H217.892V31.104ZM207.908 32.189C208.076 34.1541 208.696 35.6741 209.691 36.7122C210.695 37.7604 211.995 38.228 213.328 38.228V36.228C212.477 36.228 211.72 35.9396 211.135 35.3288C210.54 34.7079 210.041 33.6659 209.901 32.019L207.908 32.189ZM213.328 38.228C214.441 38.228 215.502 37.9511 216.363 37.4842C217.209 37.0259 217.955 36.331 218.274 35.4363L216.391 34.7637C216.29 35.045 215.986 35.4141 215.41 35.7258C214.851 36.0289 214.12 36.228 213.328 36.228V38.228ZM216.961 36.0285L217.381 36.1965L218.124 34.3395L217.704 34.1715L216.961 36.0285ZM216.822 34.9001C215.867 37.3153 214.132 39.392 211.424 39.392V41.392C215.381 41.392 217.622 38.3167 218.682 35.6359L216.822 34.9001ZM211.424 39.392C208.517 39.392 206.684 36.7987 206.684 33.756H204.684C204.684 37.4333 206.995 41.392 211.424 41.392V39.392ZM206.684 33.756C206.684 32.1383 207.19 30.4194 208.171 29.1286C209.132 27.8646 210.549 27 212.488 27V25C209.863 25 207.879 26.2074 206.579 27.9184C205.299 29.6026 204.684 31.7617 204.684 33.756H206.684ZM212.488 27C213.919 27 214.975 27.4731 215.687 28.2622C216.411 29.065 216.88 30.309 216.892 32.0274L218.892 32.0126C218.877 29.951 218.31 28.185 217.172 26.9228C216.021 25.6469 214.39 25 212.488 25V27ZM216.998 32.4672L217.026 32.5232L218.815 31.6288L218.787 31.5728L216.998 32.4672ZM217.92 31.076H217.892V33.076H217.92V31.076ZM215.28 31.264V31.012H213.28V31.264H215.28ZM215.28 31.012C215.28 29.3971 214.958 28.1322 214.351 27.2398C213.723 26.3173 212.814 25.84 211.844 25.84V27.84C212.106 27.84 212.416 27.9507 212.698 28.3652C213 28.8098 213.28 29.6309 213.28 31.012H215.28ZM211.844 25.84C210.304 25.84 209.274 26.7873 208.68 27.8286C208.096 28.8523 207.848 30.0865 207.848 31.068H209.848C209.848 30.3695 210.035 29.4897 210.417 28.8194C210.789 28.1667 211.257 27.84 211.844 27.84V25.84ZM207.848 31.068V31.264H209.848V31.068H207.848ZM208.848 32.264H214.28V30.264H208.848V32.264Z" fill="black" mask="url(#path-2-outside-1_1_105)"/>
</g>
<mask id="path-4-inside-2_1_105" fill="white">
<path fill-rule="evenodd" clip-rule="evenodd" d="M240 11.9021C240 11.1929 239.276 10.7044 238.581 10.8438C238.07 10.9463 237.541 11 237 11C232.582 11 229 7.41828 229 3C229 2.45879 229.054 1.93014 229.156 1.41908C229.296 0.723682 228.807 0 228.098 0H11.9021C11.1929 0 10.7044 0.723677 10.8438 1.41907C10.9463 1.93013 11 2.45879 11 3C11 7.41828 7.41828 11 3 11C2.45879 11 1.93013 10.9463 1.41907 10.8438C0.723677 10.7044 0 11.1929 0 11.9021V48.0979C0 48.8071 0.723679 49.2956 1.41907 49.1562C1.93013 49.0537 2.45879 49 3 49C7.41828 49 11 52.5817 11 57C11 57.5412 10.9463 58.0699 10.8438 58.5809C10.7044 59.2763 11.1929 60 11.9021 60H228.098C228.807 60 229.296 59.2763 229.156 58.5809C229.054 58.0699 229 57.5412 229 57C229 52.5817 232.582 49 237 49C237.541 49 238.07 49.0537 238.581 49.1562C239.276 49.2956 240 48.8071 240 48.0979V11.9021Z"/>
</mask>
<path d="M229.156 58.5809L230.137 58.3844L229.156 58.5809ZM1.41907 10.8438L1.61561 9.86332L1.41907 10.8438ZM238.581 49.1562L238.777 48.1757L238.581 49.1562ZM10.8438 1.41907L9.86332 1.61561L10.8438 1.41907ZM1.41907 49.1562L1.22254 48.1757L1.41907 49.1562ZM229.156 1.41908L228.176 1.22255L229.156 1.41908ZM10.8438 58.5809L9.86332 58.3844L10.8438 58.5809ZM238.581 10.8438L238.777 11.8243L238.581 10.8438ZM238.384 9.86332C237.938 9.95286 237.475 10 237 10V12C237.608 12 238.202 11.9397 238.777 11.8243L238.384 9.86332ZM237 10C233.134 10 230 6.86599 230 3H228C228 7.97056 232.029 12 237 12V10ZM230 3C230 2.52515 230.047 2.06232 230.137 1.61561L228.176 1.22255C228.06 1.79796 228 2.39244 228 3H230ZM11.9021 1H228.098V-1H11.9021V1ZM12 3C12 2.39243 11.9397 1.79795 11.8243 1.22254L9.86332 1.61561C9.95286 2.06232 10 2.52515 10 3H12ZM3 12C7.97056 12 12 7.97056 12 3H10C10 6.86599 6.86599 10 3 10V12ZM1.22254 11.8243C1.79795 11.9397 2.39243 12 3 12V10C2.52515 10 2.06232 9.95286 1.61561 9.86332L1.22254 11.8243ZM1 48.0979V11.9021H-1V48.0979H1ZM3 48C2.39243 48 1.79795 48.0603 1.22254 48.1757L1.61561 50.1367C2.06232 50.0471 2.52515 50 3 50V48ZM12 57C12 52.0294 7.97056 48 3 48V50C6.86599 50 10 53.134 10 57H12ZM11.8243 58.7775C11.9397 58.2021 12 57.6076 12 57H10C10 57.4749 9.95286 57.9377 9.86332 58.3844L11.8243 58.7775ZM228.098 59H11.9021V61H228.098V59ZM228 57C228 57.6076 228.06 58.202 228.176 58.7775L230.137 58.3844C230.047 57.9377 230 57.4749 230 57H228ZM237 48C232.029 48 228 52.0294 228 57H230C230 53.134 233.134 50 237 50V48ZM238.777 48.1757C238.202 48.0603 237.608 48 237 48V50C237.475 50 237.938 50.0471 238.384 50.1367L238.777 48.1757ZM239 11.9021V48.0979H241V11.9021H239ZM228.098 61C229.564 61 230.374 59.5693 230.137 58.3844L228.176 58.7775C228.189 58.8415 228.171 58.9147 228.134 58.9659C228.118 58.9887 228.104 58.9975 228.101 58.9995C228.1 59.0002 228.101 59 228.098 59V61ZM1.61561 9.86332C0.430746 9.62582 -1 10.4361 -1 11.9021H1C1 11.8991 0.999817 11.9005 1.00049 11.8992C1.00253 11.8955 1.01131 11.882 1.03405 11.8656C1.08532 11.8285 1.15849 11.8115 1.22254 11.8243L1.61561 9.86332ZM238.384 50.1367C239.569 50.3742 241 49.5639 241 48.0979H239C239 48.1009 239 48.0995 239 48.1008C238.997 48.1045 238.989 48.118 238.966 48.1344C238.915 48.1715 238.842 48.1885 238.777 48.1757L238.384 50.1367ZM11.9021 -1C10.4361 -1 9.62582 0.43074 9.86332 1.61561L11.8243 1.22254C11.8115 1.15849 11.8285 1.08532 11.8656 1.03405C11.882 1.01131 11.8955 1.00253 11.8992 1.00049C11.9005 0.999817 11.8991 1 11.9021 1V-1ZM-1 48.0979C-1 49.5639 0.430742 50.3742 1.61561 50.1367L1.22254 48.1757C1.15849 48.1885 1.08533 48.1715 1.03405 48.1344C1.01131 48.118 1.00253 48.1045 1.00049 48.1008C0.999817 48.0995 1 48.1009 1 48.0979H-1ZM230.137 1.61561C230.374 0.430763 229.564 -1 228.098 -1V1C228.101 1 228.1 0.999817 228.101 1.00049C228.104 1.00252 228.118 1.0113 228.134 1.03404C228.171 1.08532 228.189 1.15849 228.176 1.22255L230.137 1.61561ZM9.86332 58.3844C9.62582 59.5693 10.4361 61 11.9021 61V59C11.8991 59 11.9005 59.0002 11.8992 58.9995C11.8955 58.9975 11.882 58.9887 11.8656 58.966C11.8285 58.9147 11.8115 58.8415 11.8243 58.7775L9.86332 58.3844ZM238.777 11.8243C238.842 11.8115 238.915 11.8285 238.966 11.8656C238.989 11.882 238.997 11.8955 239 11.8992C239 11.9005 239 11.8991 239 11.9021H241C241 10.4361 239.569 9.62582 238.384 9.86332L238.777 11.8243Z" fill="#CC9A54" mask="url(#path-4-inside-2_1_105)"/>
<mask id="path-6-inside-3_1_105" fill="white">
<path d="M39 56H199V76C199 78.2091 197.209 80 195 80H43C40.7909 80 39 78.2091 39 76V56Z"/>
</mask>
<path d="M39 56H199V76C199 78.2091 197.209 80 195 80H43C40.7909 80 39 78.2091 39 76V56Z" fill="#F4BB31"/>
<path d="M39 56H199H39ZM200 76C200 78.7614 197.761 81 195 81H43C40.2386 81 38 78.7614 38 76H40C40 77.6569 41.3431 79 43 79H195C196.657 79 198 77.6569 198 76H200ZM43 81C40.2386 81 38 78.7614 38 76V56H40V76C40 77.6569 41.3431 79 43 79V81ZM200 56V76C200 78.7614 197.761 81 195 81V79C196.657 79 198 77.6569 198 76V56H200Z" fill="#CC9A54" mask="url(#path-6-inside-3_1_105)"/>
<path d="M80.724 66.476V63.41H89.166V66.476L89.054 66.49L87.248 63.9H85.848V71.516L86.884 73H82.992L84.028 71.516V63.914H82.628L80.836 66.49L80.724 66.476ZM90.6802 64.054L91.8842 62.766L93.0742 64.054L91.8842 65.356L90.6802 64.054ZM90.1342 66.938L92.7662 66V71.796L93.8022 73H90.0502L91.0862 71.796V68.016L90.1342 66.938ZM97.1532 66V67.022C97.6992 66.392 98.3852 65.972 99.2812 65.972C100.303 65.972 100.947 66.448 101.213 67.204C101.703 66.532 102.599 65.972 103.523 65.972C104.951 65.972 105.623 66.896 105.623 68.212V71.796H105.637L106.673 73H102.921L103.943 71.81V68.688C103.943 67.61 103.789 66.924 102.711 66.924C102.193 66.924 101.773 67.148 101.339 67.638C101.367 67.82 101.381 68.016 101.381 68.212V71.796H101.395L102.431 73H98.6792L99.7012 71.81V68.688C99.7012 67.61 99.5472 66.924 98.4692 66.924C97.9792 66.924 97.5732 67.12 97.1532 67.568V71.796L98.1892 73H94.4372L95.4732 71.796V68.016L94.5212 66.938L97.1532 66ZM113.408 69.038V69.052H108.914C109.068 70.858 110.034 71.614 111.126 71.614C112.078 71.614 112.918 71.138 113.128 70.55L113.338 70.634C112.834 71.908 111.84 73.196 110.174 73.196C108.34 73.196 107.304 71.558 107.304 69.878C107.304 68.072 108.424 66 110.706 66C112.372 66 113.394 67.12 113.408 69.01L113.422 69.038H113.408ZM111.602 68.632V68.506C111.602 67.008 111 66.42 110.384 66.42C109.32 66.42 108.886 67.694 108.886 68.534V68.632H111.602ZM116.589 64.152V66.14H119.277L118.969 66.896H116.589V70.34C116.589 71.684 116.897 72.048 117.723 72.048C118.143 72.048 118.787 71.838 119.095 71.236L119.263 71.46C118.591 72.594 117.835 73.168 116.701 73.168C115.735 73.168 114.909 72.608 114.909 71.012V67.022L113.985 66.14L116.589 64.152ZM122.524 66.126V70.424C122.524 71.502 122.678 72.188 123.756 72.188C124.232 72.188 124.722 71.95 125.086 71.53V67.344L124.05 66.126H126.766V71.852L127.718 73L125.086 73.084V71.964C124.582 72.664 123.938 73.14 122.944 73.14C121.516 73.14 120.844 72.216 120.844 70.9V67.344L119.794 66.126H122.524ZM134.225 68.618H134.113C133.497 67.148 132.671 66.658 132.027 66.658C131.061 66.658 131.061 67.358 131.061 68.786V71.796L132.363 73H128.345L129.381 71.796V67.218L128.429 66.14H134.225V68.618ZM142.933 73H139.181L140.189 71.796V68.688C140.189 67.61 140.035 66.924 138.957 66.924C138.439 66.924 137.907 67.148 137.459 67.75V71.796L138.467 73H134.715L135.779 71.796V68.016L134.827 66.938L137.459 66V67.274C138.019 66.406 138.929 65.972 139.769 65.972C141.197 65.972 141.869 66.896 141.869 68.212V71.796L142.933 73ZM149.666 69.038V69.052H145.172C145.326 70.858 146.292 71.614 147.384 71.614C148.336 71.614 149.176 71.138 149.386 70.55L149.596 70.634C149.092 71.908 148.098 73.196 146.432 73.196C144.598 73.196 143.562 71.558 143.562 69.878C143.562 68.072 144.682 66 146.964 66C148.63 66 149.652 67.12 149.666 69.01L149.68 69.038H149.666ZM147.86 68.632V68.506C147.86 67.008 147.258 66.42 146.642 66.42C145.578 66.42 145.144 67.694 145.144 68.534V68.632H147.86ZM156.333 68.618H156.221C155.605 67.148 154.779 66.658 154.135 66.658C153.169 66.658 153.169 67.358 153.169 68.786V71.796L154.471 73H150.453L151.489 71.796V67.218L150.537 66.14H156.333V68.618Z" fill="#393030"/>
<defs>
<filter id="filter0_d_1_105" x="17.5984" y="19.532" width="204.322" height="34.964" filterUnits="userSpaceOnUse" color-interpolation-filters="sRGB">
<feFlood flood-opacity="0" result="BackgroundImageFix"/>
<feColorMatrix in="SourceAlpha" type="matrix" values="0 0 0 0 0 0 0 0 0 0 0 0 0 0 0 0 0 0 127 0" result="hardAlpha"/>
<feOffset dy="4"/>
<feGaussianBlur stdDeviation="2"/>
<feComposite in2="hardAlpha" operator="out"/>
<feColorMatrix type="matrix" values="0 0 0 0 0 0 0 0 0 0 0 0 0 0 0 0 0 0 0.25 0"/>
<feBlend mode="normal" in2="BackgroundImageFix" result="effect1_dropShadow_1_105"/>
<feBlend mode="normal" in="SourceGraphic" in2="effect1_dropShadow_1_105" result="shape"/>
</filter>
</defs>
</svg>
