<svg width="50" height="50" viewBox="0 0 50 50" fill="none" xmlns="http://www.w3.org/2000/svg">
<path d="M25 0C11.2 0 0 11.2 0 25C0 38.8 11.2 50 25 50C38.8 50 50 38.8 50 25C50 11.2 38.8 0 25 0ZM36.6 17C36.225 20.95 34.6 30.55 33.775 34.975C33.425 36.85 32.725 37.475 32.075 37.55C30.625 37.675 29.525 36.6 28.125 35.675C25.925 34.225 24.675 33.325 22.55 31.925C20.075 30.3 21.675 29.4 23.1 27.95C23.475 27.575 29.875 21.75 30 21.225C30.0174 21.1455 30.0151 21.0629 29.9933 20.9845C29.9715 20.9061 29.9309 20.8342 29.875 20.775C29.725 20.65 29.525 20.7 29.35 20.725C29.125 20.775 25.625 23.1 18.8 27.7C17.8 28.375 16.9 28.725 16.1 28.7C15.2 28.675 13.5 28.2 12.225 27.775C10.65 27.275 9.425 27 9.525 26.125C9.575 25.675 10.2 25.225 11.375 24.75C18.675 21.575 23.525 19.475 25.95 18.475C32.9 15.575 34.325 15.075 35.275 15.075C35.475 15.075 35.95 15.125 36.25 15.375C36.5 15.575 36.575 15.85 36.6 16.05C36.575 16.2 36.625 16.65 36.6 17Z" fill="white"/>
</svg>
