<svg width="183" height="181" viewBox="0 0 183 181" fill="none" xmlns="http://www.w3.org/2000/svg">
<g filter="url(#filter0_i_2749_196)">
<rect x="26.7715" y="61.3558" width="132.291" height="7.86167" transform="rotate(20.0984 26.7715 61.3558)" fill="#E0D7D7"/>
</g>
<rect x="26.7715" y="61.3558" width="132.291" height="7.86167" transform="rotate(20.0984 26.7715 61.3558)" stroke="black" stroke-width="0.2"/>
<g filter="url(#filter1_i_2749_196)">
<path d="M171.487 109.341L127.845 94.0525L120.002 100.967L122.456 109.557L165.649 126.137L171.487 109.341Z" fill="#3A0A0A"/>
</g>
<path d="M171.487 109.341L127.845 94.0525L120.002 100.967L122.456 109.557L165.649 126.137L171.487 109.341Z" stroke="black" stroke-width="0.2"/>
<g filter="url(#filter2_i_2749_196)">
<path d="M3.53146 56.6478L9.57712 53.1193L35.1322 60.2038L38.9127 66.6813L37.2222 71.7204L31.1766 75.2488L5.00832 62.1541L3.53146 56.6478Z" fill="#C5B0B0"/>
</g>
<path d="M3.53146 56.6478L9.57712 53.1193L35.1322 60.2038L38.9127 66.6813L37.2222 71.7204L31.1766 75.2488L5.00832 62.1541L3.53146 56.6478Z" stroke="black" stroke-width="0.2"/>
<defs>
<filter id="filter0_i_2749_196" x="23.9417" y="61.2276" width="128.193" height="54.0989" filterUnits="userSpaceOnUse" color-interpolation-filters="sRGB">
<feFlood flood-opacity="0" result="BackgroundImageFix"/>
<feBlend mode="normal" in="SourceGraphic" in2="BackgroundImageFix" result="shape"/>
<feColorMatrix in="SourceAlpha" type="matrix" values="0 0 0 0 0 0 0 0 0 0 0 0 0 0 0 0 0 0 127 0" result="hardAlpha"/>
<feOffset dx="1" dy="1"/>
<feGaussianBlur stdDeviation="1"/>
<feComposite in2="hardAlpha" operator="arithmetic" k2="-1" k3="1"/>
<feColorMatrix type="matrix" values="0 0 0 0 0 0 0 0 0 0 0 0 0 0 0 0 0 0 0.5 0"/>
<feBlend mode="normal" in2="shape" result="effect1_innerShadow_2749_196"/>
</filter>
<filter id="filter1_i_2749_196" x="119.888" y="93.9387" width="52.7256" height="33.3289" filterUnits="userSpaceOnUse" color-interpolation-filters="sRGB">
<feFlood flood-opacity="0" result="BackgroundImageFix"/>
<feBlend mode="normal" in="SourceGraphic" in2="BackgroundImageFix" result="shape"/>
<feColorMatrix in="SourceAlpha" type="matrix" values="0 0 0 0 0 0 0 0 0 0 0 0 0 0 0 0 0 0 127 0" result="hardAlpha"/>
<feOffset dx="1" dy="1"/>
<feGaussianBlur stdDeviation="1"/>
<feComposite in2="hardAlpha" operator="arithmetic" k2="-1" k3="1"/>
<feColorMatrix type="matrix" values="0 0 0 0 0 0 0 0 0 0 0 0 0 0 0 0 0 0 0.5 0"/>
<feBlend mode="normal" in2="shape" result="effect1_innerShadow_2749_196"/>
</filter>
<filter id="filter2_i_2749_196" x="3.41504" y="53.0117" width="36.6069" height="23.3508" filterUnits="userSpaceOnUse" color-interpolation-filters="sRGB">
<feFlood flood-opacity="0" result="BackgroundImageFix"/>
<feBlend mode="normal" in="SourceGraphic" in2="BackgroundImageFix" result="shape"/>
<feColorMatrix in="SourceAlpha" type="matrix" values="0 0 0 0 0 0 0 0 0 0 0 0 0 0 0 0 0 0 127 0" result="hardAlpha"/>
<feOffset dx="1" dy="1"/>
<feGaussianBlur stdDeviation="1"/>
<feComposite in2="hardAlpha" operator="arithmetic" k2="-1" k3="1"/>
<feColorMatrix type="matrix" values="0 0 0 0 0 0 0 0 0 0 0 0 0 0 0 0 0 0 0.5 0"/>
<feBlend mode="normal" in2="shape" result="effect1_innerShadow_2749_196"/>
</filter>
</defs>
</svg>
